<?xml version="1.0" encoding="utf-8" standalone="no"?>
<!DOCTYPE svg PUBLIC "-//W3C//DTD SVG 1.1//EN"
  "http://www.w3.org/Graphics/SVG/1.1/DTD/svg11.dtd">
<svg xmlns:xlink="http://www.w3.org/1999/xlink" width="1080pt" height="360pt" viewBox="0 0 1080 360" xmlns="http://www.w3.org/2000/svg" version="1.1">
 <metadata>
  <rdf:RDF xmlns:dc="http://purl.org/dc/elements/1.1/" xmlns:cc="http://creativecommons.org/ns#" xmlns:rdf="http://www.w3.org/1999/02/22-rdf-syntax-ns#">
   <cc:Work>
    <dc:type rdf:resource="http://purl.org/dc/dcmitype/StillImage"/>
    <dc:date>2025-05-07T11:53:51.369511</dc:date>
    <dc:format>image/svg+xml</dc:format>
    <dc:creator>
     <cc:Agent>
      <dc:title>Matplotlib v3.10.0, https://matplotlib.org/</dc:title>
     </cc:Agent>
    </dc:creator>
   </cc:Work>
  </rdf:RDF>
 </metadata>
 <defs>
  <style type="text/css">*{stroke-linejoin: round; stroke-linecap: butt}</style>
 </defs>
 <g id="figure_1">
  <g id="patch_1">
   <path d="M 0 360 
L 1080 360 
L 1080 0 
L 0 0 
z
" style="fill: #ffffff"/>
  </g>
  <g id="axes_1">
   <g id="patch_2">
    <path d="M 67.07 314.44 
L 371.969746 314.44 
L 371.969746 72 
L 67.07 72 
z
" style="fill: #ffffff"/>
   </g>
   <g id="patch_3">
    <path d="M 67.07 314.44 
L 84.072864 314.44 
L 84.072864 184.573017 
L 67.07 184.573017 
z
" clip-path="url(#p40984ff5b7)" style="fill: #1f77b4; stroke: #000000; stroke-linejoin: miter"/>
   </g>
   <g id="patch_4">
    <path d="M 84.072864 314.44 
L 101.075728 314.44 
L 101.075728 212.017818 
L 84.072864 212.017818 
z
" clip-path="url(#p40984ff5b7)" style="fill: #1f77b4; stroke: #000000; stroke-linejoin: miter"/>
   </g>
   <g id="patch_5">
    <path d="M 101.075728 314.44 
L 118.078591 314.44 
L 118.078591 231.877139 
L 101.075728 231.877139 
z
" clip-path="url(#p40984ff5b7)" style="fill: #1f77b4; stroke: #000000; stroke-linejoin: miter"/>
   </g>
   <g id="patch_6">
    <path d="M 118.078591 314.44 
L 135.081455 314.44 
L 135.081455 249.524719 
L 118.078591 249.524719 
z
" clip-path="url(#p40984ff5b7)" style="fill: #1f77b4; stroke: #000000; stroke-linejoin: miter"/>
   </g>
   <g id="patch_7">
    <path d="M 135.081455 314.44 
L 152.084319 314.44 
L 152.084319 254.590535 
L 135.081455 254.590535 
z
" clip-path="url(#p40984ff5b7)" style="fill: #1f77b4; stroke: #000000; stroke-linejoin: miter"/>
   </g>
   <g id="patch_8">
    <path d="M 152.084319 314.44 
L 169.087183 314.44 
L 169.087183 255.908309 
L 152.084319 255.908309 
z
" clip-path="url(#p40984ff5b7)" style="fill: #1f77b4; stroke: #000000; stroke-linejoin: miter"/>
   </g>
   <g id="patch_9">
    <path d="M 169.087183 314.44 
L 186.090047 314.44 
L 186.090047 260.974124 
L 169.087183 260.974124 
z
" clip-path="url(#p40984ff5b7)" style="fill: #1f77b4; stroke: #000000; stroke-linejoin: miter"/>
   </g>
   <g id="patch_10">
    <path d="M 186.090047 314.44 
L 203.092911 314.44 
L 203.092911 262.821657 
L 186.090047 262.821657 
z
" clip-path="url(#p40984ff5b7)" style="fill: #1f77b4; stroke: #000000; stroke-linejoin: miter"/>
   </g>
   <g id="patch_11">
    <path d="M 203.092911 314.44 
L 220.095774 314.44 
L 220.095774 276.847013 
L 203.092911 276.847013 
z
" clip-path="url(#p40984ff5b7)" style="fill: #1f77b4; stroke: #000000; stroke-linejoin: miter"/>
   </g>
   <g id="patch_12">
    <path d="M 220.095774 314.44 
L 237.098638 314.44 
L 237.098638 291.97824 
L 220.095774 291.97824 
z
" clip-path="url(#p40984ff5b7)" style="fill: #1f77b4; stroke: #000000; stroke-linejoin: miter"/>
   </g>
   <g id="patch_13">
    <path d="M 237.098638 314.44 
L 254.101502 314.44 
L 254.101502 302.666118 
L 237.098638 302.666118 
z
" clip-path="url(#p40984ff5b7)" style="fill: #1f77b4; stroke: #000000; stroke-linejoin: miter"/>
   </g>
   <g id="patch_14">
    <path d="M 254.101502 314.44 
L 271.104366 314.44 
L 271.104366 310.374104 
L 254.101502 310.374104 
z
" clip-path="url(#p40984ff5b7)" style="fill: #1f77b4; stroke: #000000; stroke-linejoin: miter"/>
   </g>
   <g id="patch_15">
    <path d="M 271.104366 314.44 
L 288.10723 314.44 
L 288.10723 314.122145 
L 271.104366 314.122145 
z
" clip-path="url(#p40984ff5b7)" style="fill: #1f77b4; stroke: #000000; stroke-linejoin: miter"/>
   </g>
   <g id="patch_16">
    <path d="M 288.10723 314.44 
L 305.110094 314.44 
L 305.110094 314.44 
L 288.10723 314.44 
z
" clip-path="url(#p40984ff5b7)" style="fill: #1f77b4; stroke: #000000; stroke-linejoin: miter"/>
   </g>
   <g id="patch_17">
    <path d="M 305.110094 314.44 
L 322.112957 314.44 
L 322.112957 314.44 
L 305.110094 314.44 
z
" clip-path="url(#p40984ff5b7)" style="fill: #1f77b4; stroke: #000000; stroke-linejoin: miter"/>
   </g>
   <g id="patch_18">
    <path d="M 322.112957 314.44 
L 339.115821 314.44 
L 339.115821 314.44 
L 322.112957 314.44 
z
" clip-path="url(#p40984ff5b7)" style="fill: #1f77b4; stroke: #000000; stroke-linejoin: miter"/>
   </g>
   <g id="patch_19">
    <path d="M 339.115821 314.44 
L 356.118685 314.44 
L 356.118685 314.44 
L 339.115821 314.44 
z
" clip-path="url(#p40984ff5b7)" style="fill: #1f77b4; stroke: #000000; stroke-linejoin: miter"/>
   </g>
   <g id="patch_20">
    <path d="M 356.118685 314.44 
L 373.121549 314.44 
L 373.121549 314.44 
L 356.118685 314.44 
z
" clip-path="url(#p40984ff5b7)" style="fill: #1f77b4; stroke: #000000; stroke-linejoin: miter"/>
   </g>
   <g id="patch_21">
    <path d="M 373.121549 314.44 
L 390.124413 314.44 
L 390.124413 314.44 
L 373.121549 314.44 
z
" clip-path="url(#p40984ff5b7)" style="fill: #1f77b4; stroke: #000000; stroke-linejoin: miter"/>
   </g>
   <g id="patch_22">
    <path d="M 390.124413 314.44 
L 407.127277 314.44 
L 407.127277 314.44 
L 390.124413 314.44 
z
" clip-path="url(#p40984ff5b7)" style="fill: #1f77b4; stroke: #000000; stroke-linejoin: miter"/>
   </g>
   <g id="patch_23">
    <path d="M 407.127277 314.44 
L 424.13014 314.44 
L 424.13014 314.44 
L 407.127277 314.44 
z
" clip-path="url(#p40984ff5b7)" style="fill: #1f77b4; stroke: #000000; stroke-linejoin: miter"/>
   </g>
   <g id="patch_24">
    <path d="M 424.13014 314.44 
L 441.133004 314.44 
L 441.133004 314.44 
L 424.13014 314.44 
z
" clip-path="url(#p40984ff5b7)" style="fill: #1f77b4; stroke: #000000; stroke-linejoin: miter"/>
   </g>
   <g id="patch_25">
    <path d="M 441.133004 314.44 
L 458.135868 314.44 
L 458.135868 314.44 
L 441.133004 314.44 
z
" clip-path="url(#p40984ff5b7)" style="fill: #1f77b4; stroke: #000000; stroke-linejoin: miter"/>
   </g>
   <g id="patch_26">
    <path d="M 458.135868 314.44 
L 475.138732 314.44 
L 475.138732 314.44 
L 458.135868 314.44 
z
" clip-path="url(#p40984ff5b7)" style="fill: #1f77b4; stroke: #000000; stroke-linejoin: miter"/>
   </g>
   <g id="patch_27">
    <path d="M 475.138732 314.44 
L 492.141596 314.44 
L 492.141596 314.44 
L 475.138732 314.44 
z
" clip-path="url(#p40984ff5b7)" style="fill: #1f77b4; stroke: #000000; stroke-linejoin: miter"/>
   </g>
   <g id="patch_28">
    <path d="M 492.141596 314.44 
L 509.14446 314.44 
L 509.14446 314.44 
L 492.141596 314.44 
z
" clip-path="url(#p40984ff5b7)" style="fill: #1f77b4; stroke: #000000; stroke-linejoin: miter"/>
   </g>
   <g id="patch_29">
    <path d="M 509.14446 314.44 
L 526.147323 314.44 
L 526.147323 314.44 
L 509.14446 314.44 
z
" clip-path="url(#p40984ff5b7)" style="fill: #1f77b4; stroke: #000000; stroke-linejoin: miter"/>
   </g>
   <g id="patch_30">
    <path d="M 526.147323 314.44 
L 543.150187 314.44 
L 543.150187 314.44 
L 526.147323 314.44 
z
" clip-path="url(#p40984ff5b7)" style="fill: #1f77b4; stroke: #000000; stroke-linejoin: miter"/>
   </g>
   <g id="patch_31">
    <path d="M 543.150187 314.44 
L 560.153051 314.44 
L 560.153051 314.44 
L 543.150187 314.44 
z
" clip-path="url(#p40984ff5b7)" style="fill: #1f77b4; stroke: #000000; stroke-linejoin: miter"/>
   </g>
   <g id="patch_32">
    <path d="M 560.153051 314.44 
L 577.155915 314.44 
L 577.155915 314.44 
L 560.153051 314.44 
z
" clip-path="url(#p40984ff5b7)" style="fill: #1f77b4; stroke: #000000; stroke-linejoin: miter"/>
   </g>
   <g id="patch_33">
    <path d="M 577.155915 314.44 
L 594.158779 314.44 
L 594.158779 314.44 
L 577.155915 314.44 
z
" clip-path="url(#p40984ff5b7)" style="fill: #1f77b4; stroke: #000000; stroke-linejoin: miter"/>
   </g>
   <g id="patch_34">
    <path d="M 594.158779 314.44 
L 611.161643 314.44 
L 611.161643 314.44 
L 594.158779 314.44 
z
" clip-path="url(#p40984ff5b7)" style="fill: #1f77b4; stroke: #000000; stroke-linejoin: miter"/>
   </g>
   <g id="patch_35">
    <path d="M 611.161643 314.44 
L 628.164506 314.44 
L 628.164506 314.44 
L 611.161643 314.44 
z
" clip-path="url(#p40984ff5b7)" style="fill: #1f77b4; stroke: #000000; stroke-linejoin: miter"/>
   </g>
   <g id="patch_36">
    <path d="M 628.164506 314.44 
L 645.16737 314.44 
L 645.16737 314.44 
L 628.164506 314.44 
z
" clip-path="url(#p40984ff5b7)" style="fill: #1f77b4; stroke: #000000; stroke-linejoin: miter"/>
   </g>
   <g id="patch_37">
    <path d="M 645.16737 314.44 
L 662.170234 314.44 
L 662.170234 314.44 
L 645.16737 314.44 
z
" clip-path="url(#p40984ff5b7)" style="fill: #1f77b4; stroke: #000000; stroke-linejoin: miter"/>
   </g>
   <g id="patch_38">
    <path d="M 662.170234 314.44 
L 679.173098 314.44 
L 679.173098 314.44 
L 662.170234 314.44 
z
" clip-path="url(#p40984ff5b7)" style="fill: #1f77b4; stroke: #000000; stroke-linejoin: miter"/>
   </g>
   <g id="patch_39">
    <path d="M 679.173098 314.44 
L 696.175962 314.44 
L 696.175962 314.44 
L 679.173098 314.44 
z
" clip-path="url(#p40984ff5b7)" style="fill: #1f77b4; stroke: #000000; stroke-linejoin: miter"/>
   </g>
   <g id="patch_40">
    <path d="M 696.175962 314.44 
L 713.178826 314.44 
L 713.178826 314.44 
L 696.175962 314.44 
z
" clip-path="url(#p40984ff5b7)" style="fill: #1f77b4; stroke: #000000; stroke-linejoin: miter"/>
   </g>
   <g id="patch_41">
    <path d="M 713.178826 314.44 
L 730.181689 314.44 
L 730.181689 314.44 
L 713.178826 314.44 
z
" clip-path="url(#p40984ff5b7)" style="fill: #1f77b4; stroke: #000000; stroke-linejoin: miter"/>
   </g>
   <g id="patch_42">
    <path d="M 730.181689 314.44 
L 747.184553 314.44 
L 747.184553 314.44 
L 730.181689 314.44 
z
" clip-path="url(#p40984ff5b7)" style="fill: #1f77b4; stroke: #000000; stroke-linejoin: miter"/>
   </g>
   <g id="patch_43">
    <path d="M 747.184553 314.44 
L 764.187417 314.44 
L 764.187417 314.44 
L 747.184553 314.44 
z
" clip-path="url(#p40984ff5b7)" style="fill: #1f77b4; stroke: #000000; stroke-linejoin: miter"/>
   </g>
   <g id="patch_44">
    <path d="M 764.187417 314.44 
L 781.190281 314.44 
L 781.190281 314.44 
L 764.187417 314.44 
z
" clip-path="url(#p40984ff5b7)" style="fill: #1f77b4; stroke: #000000; stroke-linejoin: miter"/>
   </g>
   <g id="patch_45">
    <path d="M 781.190281 314.44 
L 798.193145 314.44 
L 798.193145 314.44 
L 781.190281 314.44 
z
" clip-path="url(#p40984ff5b7)" style="fill: #1f77b4; stroke: #000000; stroke-linejoin: miter"/>
   </g>
   <g id="patch_46">
    <path d="M 798.193145 314.44 
L 815.196009 314.44 
L 815.196009 314.44 
L 798.193145 314.44 
z
" clip-path="url(#p40984ff5b7)" style="fill: #1f77b4; stroke: #000000; stroke-linejoin: miter"/>
   </g>
   <g id="patch_47">
    <path d="M 815.196009 314.44 
L 832.198872 314.44 
L 832.198872 314.44 
L 815.196009 314.44 
z
" clip-path="url(#p40984ff5b7)" style="fill: #1f77b4; stroke: #000000; stroke-linejoin: miter"/>
   </g>
   <g id="patch_48">
    <path d="M 832.198872 314.44 
L 849.201736 314.44 
L 849.201736 314.44 
L 832.198872 314.44 
z
" clip-path="url(#p40984ff5b7)" style="fill: #1f77b4; stroke: #000000; stroke-linejoin: miter"/>
   </g>
   <g id="patch_49">
    <path d="M 849.201736 314.44 
L 866.2046 314.44 
L 866.2046 314.44 
L 849.201736 314.44 
z
" clip-path="url(#p40984ff5b7)" style="fill: #1f77b4; stroke: #000000; stroke-linejoin: miter"/>
   </g>
   <g id="patch_50">
    <path d="M 866.2046 314.44 
L 883.207464 314.44 
L 883.207464 314.44 
L 866.2046 314.44 
z
" clip-path="url(#p40984ff5b7)" style="fill: #1f77b4; stroke: #000000; stroke-linejoin: miter"/>
   </g>
   <g id="patch_51">
    <path d="M 883.207464 314.44 
L 900.210328 314.44 
L 900.210328 314.44 
L 883.207464 314.44 
z
" clip-path="url(#p40984ff5b7)" style="fill: #1f77b4; stroke: #000000; stroke-linejoin: miter"/>
   </g>
   <g id="patch_52">
    <path d="M 900.210328 314.44 
L 917.213192 314.44 
L 917.213192 314.44 
L 900.210328 314.44 
z
" clip-path="url(#p40984ff5b7)" style="fill: #1f77b4; stroke: #000000; stroke-linejoin: miter"/>
   </g>
   <g id="matplotlib.axis_1">
    <g id="xtick_1">
     <g id="line2d_1">
      <defs>
       <path id="me0bdeca32f" d="M 0 0 
L 0 3.5 
" style="stroke: #000000; stroke-width: 0.8"/>
      </defs>
      <g>
       <use xlink:href="#me0bdeca32f" x="67.07" y="314.44" style="stroke: #000000; stroke-width: 0.8"/>
      </g>
     </g>
     <g id="text_1">
      <!-- 0.000 -->
      <g transform="translate(52.755937 329.038437) scale(0.1 -0.1)">
       <defs>
        <path id="DejaVuSans-30" d="M 2034 4250 
Q 1547 4250 1301 3770 
Q 1056 3291 1056 2328 
Q 1056 1369 1301 889 
Q 1547 409 2034 409 
Q 2525 409 2770 889 
Q 3016 1369 3016 2328 
Q 3016 3291 2770 3770 
Q 2525 4250 2034 4250 
z
M 2034 4750 
Q 2819 4750 3233 4129 
Q 3647 3509 3647 2328 
Q 3647 1150 3233 529 
Q 2819 -91 2034 -91 
Q 1250 -91 836 529 
Q 422 1150 422 2328 
Q 422 3509 836 4129 
Q 1250 4750 2034 4750 
z
" transform="scale(0.015625)"/>
        <path id="DejaVuSans-2e" d="M 684 794 
L 1344 794 
L 1344 0 
L 684 0 
L 684 794 
z
" transform="scale(0.015625)"/>
       </defs>
       <use xlink:href="#DejaVuSans-30"/>
       <use xlink:href="#DejaVuSans-2e" transform="translate(63.623047 0)"/>
       <use xlink:href="#DejaVuSans-30" transform="translate(95.410156 0)"/>
       <use xlink:href="#DejaVuSans-30" transform="translate(159.033203 0)"/>
       <use xlink:href="#DejaVuSans-30" transform="translate(222.65625 0)"/>
      </g>
     </g>
    </g>
    <g id="xtick_2">
     <g id="line2d_2">
      <g>
       <use xlink:href="#me0bdeca32f" x="127.622303" y="314.44" style="stroke: #000000; stroke-width: 0.8"/>
      </g>
     </g>
     <g id="text_2">
      <!-- 0.002 -->
      <g transform="translate(113.30824 329.038437) scale(0.1 -0.1)">
       <defs>
        <path id="DejaVuSans-32" d="M 1228 531 
L 3431 531 
L 3431 0 
L 469 0 
L 469 531 
Q 828 903 1448 1529 
Q 2069 2156 2228 2338 
Q 2531 2678 2651 2914 
Q 2772 3150 2772 3378 
Q 2772 3750 2511 3984 
Q 2250 4219 1831 4219 
Q 1534 4219 1204 4116 
Q 875 4013 500 3803 
L 500 4441 
Q 881 4594 1212 4672 
Q 1544 4750 1819 4750 
Q 2544 4750 2975 4387 
Q 3406 4025 3406 3419 
Q 3406 3131 3298 2873 
Q 3191 2616 2906 2266 
Q 2828 2175 2409 1742 
Q 1991 1309 1228 531 
z
" transform="scale(0.015625)"/>
       </defs>
       <use xlink:href="#DejaVuSans-30"/>
       <use xlink:href="#DejaVuSans-2e" transform="translate(63.623047 0)"/>
       <use xlink:href="#DejaVuSans-30" transform="translate(95.410156 0)"/>
       <use xlink:href="#DejaVuSans-30" transform="translate(159.033203 0)"/>
       <use xlink:href="#DejaVuSans-32" transform="translate(222.65625 0)"/>
      </g>
     </g>
    </g>
    <g id="xtick_3">
     <g id="line2d_3">
      <g>
       <use xlink:href="#me0bdeca32f" x="188.174605" y="314.44" style="stroke: #000000; stroke-width: 0.8"/>
      </g>
     </g>
     <g id="text_3">
      <!-- 0.004 -->
      <g transform="translate(173.860543 329.038437) scale(0.1 -0.1)">
       <defs>
        <path id="DejaVuSans-34" d="M 2419 4116 
L 825 1625 
L 2419 1625 
L 2419 4116 
z
M 2253 4666 
L 3047 4666 
L 3047 1625 
L 3713 1625 
L 3713 1100 
L 3047 1100 
L 3047 0 
L 2419 0 
L 2419 1100 
L 313 1100 
L 313 1709 
L 2253 4666 
z
" transform="scale(0.015625)"/>
       </defs>
       <use xlink:href="#DejaVuSans-30"/>
       <use xlink:href="#DejaVuSans-2e" transform="translate(63.623047 0)"/>
       <use xlink:href="#DejaVuSans-30" transform="translate(95.410156 0)"/>
       <use xlink:href="#DejaVuSans-30" transform="translate(159.033203 0)"/>
       <use xlink:href="#DejaVuSans-34" transform="translate(222.65625 0)"/>
      </g>
     </g>
    </g>
    <g id="xtick_4">
     <g id="line2d_4">
      <g>
       <use xlink:href="#me0bdeca32f" x="248.726908" y="314.44" style="stroke: #000000; stroke-width: 0.8"/>
      </g>
     </g>
     <g id="text_4">
      <!-- 0.006 -->
      <g transform="translate(234.412845 329.038437) scale(0.1 -0.1)">
       <defs>
        <path id="DejaVuSans-36" d="M 2113 2584 
Q 1688 2584 1439 2293 
Q 1191 2003 1191 1497 
Q 1191 994 1439 701 
Q 1688 409 2113 409 
Q 2538 409 2786 701 
Q 3034 994 3034 1497 
Q 3034 2003 2786 2293 
Q 2538 2584 2113 2584 
z
M 3366 4563 
L 3366 3988 
Q 3128 4100 2886 4159 
Q 2644 4219 2406 4219 
Q 1781 4219 1451 3797 
Q 1122 3375 1075 2522 
Q 1259 2794 1537 2939 
Q 1816 3084 2150 3084 
Q 2853 3084 3261 2657 
Q 3669 2231 3669 1497 
Q 3669 778 3244 343 
Q 2819 -91 2113 -91 
Q 1303 -91 875 529 
Q 447 1150 447 2328 
Q 447 3434 972 4092 
Q 1497 4750 2381 4750 
Q 2619 4750 2861 4703 
Q 3103 4656 3366 4563 
z
" transform="scale(0.015625)"/>
       </defs>
       <use xlink:href="#DejaVuSans-30"/>
       <use xlink:href="#DejaVuSans-2e" transform="translate(63.623047 0)"/>
       <use xlink:href="#DejaVuSans-30" transform="translate(95.410156 0)"/>
       <use xlink:href="#DejaVuSans-30" transform="translate(159.033203 0)"/>
       <use xlink:href="#DejaVuSans-36" transform="translate(222.65625 0)"/>
      </g>
     </g>
    </g>
    <g id="xtick_5">
     <g id="line2d_5">
      <g>
       <use xlink:href="#me0bdeca32f" x="309.27921" y="314.44" style="stroke: #000000; stroke-width: 0.8"/>
      </g>
     </g>
     <g id="text_5">
      <!-- 0.008 -->
      <g transform="translate(294.965148 329.038437) scale(0.1 -0.1)">
       <defs>
        <path id="DejaVuSans-38" d="M 2034 2216 
Q 1584 2216 1326 1975 
Q 1069 1734 1069 1313 
Q 1069 891 1326 650 
Q 1584 409 2034 409 
Q 2484 409 2743 651 
Q 3003 894 3003 1313 
Q 3003 1734 2745 1975 
Q 2488 2216 2034 2216 
z
M 1403 2484 
Q 997 2584 770 2862 
Q 544 3141 544 3541 
Q 544 4100 942 4425 
Q 1341 4750 2034 4750 
Q 2731 4750 3128 4425 
Q 3525 4100 3525 3541 
Q 3525 3141 3298 2862 
Q 3072 2584 2669 2484 
Q 3125 2378 3379 2068 
Q 3634 1759 3634 1313 
Q 3634 634 3220 271 
Q 2806 -91 2034 -91 
Q 1263 -91 848 271 
Q 434 634 434 1313 
Q 434 1759 690 2068 
Q 947 2378 1403 2484 
z
M 1172 3481 
Q 1172 3119 1398 2916 
Q 1625 2713 2034 2713 
Q 2441 2713 2670 2916 
Q 2900 3119 2900 3481 
Q 2900 3844 2670 4047 
Q 2441 4250 2034 4250 
Q 1625 4250 1398 4047 
Q 1172 3844 1172 3481 
z
" transform="scale(0.015625)"/>
       </defs>
       <use xlink:href="#DejaVuSans-30"/>
       <use xlink:href="#DejaVuSans-2e" transform="translate(63.623047 0)"/>
       <use xlink:href="#DejaVuSans-30" transform="translate(95.410156 0)"/>
       <use xlink:href="#DejaVuSans-30" transform="translate(159.033203 0)"/>
       <use xlink:href="#DejaVuSans-38" transform="translate(222.65625 0)"/>
      </g>
     </g>
    </g>
    <g id="xtick_6">
     <g id="line2d_6">
      <g>
       <use xlink:href="#me0bdeca32f" x="369.831513" y="314.44" style="stroke: #000000; stroke-width: 0.8"/>
      </g>
     </g>
     <g id="text_6">
      <!-- 0.010 -->
      <g transform="translate(355.51745 329.038437) scale(0.1 -0.1)">
       <defs>
        <path id="DejaVuSans-31" d="M 794 531 
L 1825 531 
L 1825 4091 
L 703 3866 
L 703 4441 
L 1819 4666 
L 2450 4666 
L 2450 531 
L 3481 531 
L 3481 0 
L 794 0 
L 794 531 
z
" transform="scale(0.015625)"/>
       </defs>
       <use xlink:href="#DejaVuSans-30"/>
       <use xlink:href="#DejaVuSans-2e" transform="translate(63.623047 0)"/>
       <use xlink:href="#DejaVuSans-30" transform="translate(95.410156 0)"/>
       <use xlink:href="#DejaVuSans-31" transform="translate(159.033203 0)"/>
       <use xlink:href="#DejaVuSans-30" transform="translate(222.65625 0)"/>
      </g>
     </g>
    </g>
   </g>
   <g id="matplotlib.axis_2">
    <g id="ytick_1">
     <g id="line2d_7">
      <defs>
       <path id="m9cb6c27229" d="M 0 0 
L -3.5 0 
" style="stroke: #000000; stroke-width: 0.8"/>
      </defs>
      <g>
       <use xlink:href="#m9cb6c27229" x="67.07" y="314.44" style="stroke: #000000; stroke-width: 0.8"/>
      </g>
     </g>
     <g id="text_7">
      <!-- 0 -->
      <g transform="translate(53.7075 318.239219) scale(0.1 -0.1)">
       <use xlink:href="#DejaVuSans-30"/>
      </g>
     </g>
    </g>
    <g id="ytick_2">
     <g id="line2d_8">
      <g>
       <use xlink:href="#m9cb6c27229" x="67.07" y="281.330094" style="stroke: #000000; stroke-width: 0.8"/>
      </g>
     </g>
     <g id="text_8">
      <!-- 10000 -->
      <g transform="translate(28.2575 285.129313) scale(0.1 -0.1)">
       <use xlink:href="#DejaVuSans-31"/>
       <use xlink:href="#DejaVuSans-30" transform="translate(63.623047 0)"/>
       <use xlink:href="#DejaVuSans-30" transform="translate(127.246094 0)"/>
       <use xlink:href="#DejaVuSans-30" transform="translate(190.869141 0)"/>
       <use xlink:href="#DejaVuSans-30" transform="translate(254.492188 0)"/>
      </g>
     </g>
    </g>
    <g id="ytick_3">
     <g id="line2d_9">
      <g>
       <use xlink:href="#m9cb6c27229" x="67.07" y="248.220189" style="stroke: #000000; stroke-width: 0.8"/>
      </g>
     </g>
     <g id="text_9">
      <!-- 20000 -->
      <g transform="translate(28.2575 252.019407) scale(0.1 -0.1)">
       <use xlink:href="#DejaVuSans-32"/>
       <use xlink:href="#DejaVuSans-30" transform="translate(63.623047 0)"/>
       <use xlink:href="#DejaVuSans-30" transform="translate(127.246094 0)"/>
       <use xlink:href="#DejaVuSans-30" transform="translate(190.869141 0)"/>
       <use xlink:href="#DejaVuSans-30" transform="translate(254.492188 0)"/>
      </g>
     </g>
    </g>
    <g id="ytick_4">
     <g id="line2d_10">
      <g>
       <use xlink:href="#m9cb6c27229" x="67.07" y="215.110283" style="stroke: #000000; stroke-width: 0.8"/>
      </g>
     </g>
     <g id="text_10">
      <!-- 30000 -->
      <g transform="translate(28.2575 218.909502) scale(0.1 -0.1)">
       <defs>
        <path id="DejaVuSans-33" d="M 2597 2516 
Q 3050 2419 3304 2112 
Q 3559 1806 3559 1356 
Q 3559 666 3084 287 
Q 2609 -91 1734 -91 
Q 1441 -91 1130 -33 
Q 819 25 488 141 
L 488 750 
Q 750 597 1062 519 
Q 1375 441 1716 441 
Q 2309 441 2620 675 
Q 2931 909 2931 1356 
Q 2931 1769 2642 2001 
Q 2353 2234 1838 2234 
L 1294 2234 
L 1294 2753 
L 1863 2753 
Q 2328 2753 2575 2939 
Q 2822 3125 2822 3475 
Q 2822 3834 2567 4026 
Q 2313 4219 1838 4219 
Q 1578 4219 1281 4162 
Q 984 4106 628 3988 
L 628 4550 
Q 988 4650 1302 4700 
Q 1616 4750 1894 4750 
Q 2613 4750 3031 4423 
Q 3450 4097 3450 3541 
Q 3450 3153 3228 2886 
Q 3006 2619 2597 2516 
z
" transform="scale(0.015625)"/>
       </defs>
       <use xlink:href="#DejaVuSans-33"/>
       <use xlink:href="#DejaVuSans-30" transform="translate(63.623047 0)"/>
       <use xlink:href="#DejaVuSans-30" transform="translate(127.246094 0)"/>
       <use xlink:href="#DejaVuSans-30" transform="translate(190.869141 0)"/>
       <use xlink:href="#DejaVuSans-30" transform="translate(254.492188 0)"/>
      </g>
     </g>
    </g>
    <g id="ytick_5">
     <g id="line2d_11">
      <g>
       <use xlink:href="#m9cb6c27229" x="67.07" y="182.000377" style="stroke: #000000; stroke-width: 0.8"/>
      </g>
     </g>
     <g id="text_11">
      <!-- 40000 -->
      <g transform="translate(28.2575 185.799596) scale(0.1 -0.1)">
       <use xlink:href="#DejaVuSans-34"/>
       <use xlink:href="#DejaVuSans-30" transform="translate(63.623047 0)"/>
       <use xlink:href="#DejaVuSans-30" transform="translate(127.246094 0)"/>
       <use xlink:href="#DejaVuSans-30" transform="translate(190.869141 0)"/>
       <use xlink:href="#DejaVuSans-30" transform="translate(254.492188 0)"/>
      </g>
     </g>
    </g>
    <g id="ytick_6">
     <g id="line2d_12">
      <g>
       <use xlink:href="#m9cb6c27229" x="67.07" y="148.890472" style="stroke: #000000; stroke-width: 0.8"/>
      </g>
     </g>
     <g id="text_12">
      <!-- 50000 -->
      <g transform="translate(28.2575 152.68969) scale(0.1 -0.1)">
       <defs>
        <path id="DejaVuSans-35" d="M 691 4666 
L 3169 4666 
L 3169 4134 
L 1269 4134 
L 1269 2991 
Q 1406 3038 1543 3061 
Q 1681 3084 1819 3084 
Q 2600 3084 3056 2656 
Q 3513 2228 3513 1497 
Q 3513 744 3044 326 
Q 2575 -91 1722 -91 
Q 1428 -91 1123 -41 
Q 819 9 494 109 
L 494 744 
Q 775 591 1075 516 
Q 1375 441 1709 441 
Q 2250 441 2565 725 
Q 2881 1009 2881 1497 
Q 2881 1984 2565 2268 
Q 2250 2553 1709 2553 
Q 1456 2553 1204 2497 
Q 953 2441 691 2322 
L 691 4666 
z
" transform="scale(0.015625)"/>
       </defs>
       <use xlink:href="#DejaVuSans-35"/>
       <use xlink:href="#DejaVuSans-30" transform="translate(63.623047 0)"/>
       <use xlink:href="#DejaVuSans-30" transform="translate(127.246094 0)"/>
       <use xlink:href="#DejaVuSans-30" transform="translate(190.869141 0)"/>
       <use xlink:href="#DejaVuSans-30" transform="translate(254.492188 0)"/>
      </g>
     </g>
    </g>
    <g id="ytick_7">
     <g id="line2d_13">
      <g>
       <use xlink:href="#m9cb6c27229" x="67.07" y="115.780566" style="stroke: #000000; stroke-width: 0.8"/>
      </g>
     </g>
     <g id="text_13">
      <!-- 60000 -->
      <g transform="translate(28.2575 119.579785) scale(0.1 -0.1)">
       <use xlink:href="#DejaVuSans-36"/>
       <use xlink:href="#DejaVuSans-30" transform="translate(63.623047 0)"/>
       <use xlink:href="#DejaVuSans-30" transform="translate(127.246094 0)"/>
       <use xlink:href="#DejaVuSans-30" transform="translate(190.869141 0)"/>
       <use xlink:href="#DejaVuSans-30" transform="translate(254.492188 0)"/>
      </g>
     </g>
    </g>
    <g id="ytick_8">
     <g id="line2d_14">
      <g>
       <use xlink:href="#m9cb6c27229" x="67.07" y="82.67066" style="stroke: #000000; stroke-width: 0.8"/>
      </g>
     </g>
     <g id="text_14">
      <!-- 70000 -->
      <g transform="translate(28.2575 86.469879) scale(0.1 -0.1)">
       <defs>
        <path id="DejaVuSans-37" d="M 525 4666 
L 3525 4666 
L 3525 4397 
L 1831 0 
L 1172 0 
L 2766 4134 
L 525 4134 
L 525 4666 
z
" transform="scale(0.015625)"/>
       </defs>
       <use xlink:href="#DejaVuSans-37"/>
       <use xlink:href="#DejaVuSans-30" transform="translate(63.623047 0)"/>
       <use xlink:href="#DejaVuSans-30" transform="translate(127.246094 0)"/>
       <use xlink:href="#DejaVuSans-30" transform="translate(190.869141 0)"/>
       <use xlink:href="#DejaVuSans-30" transform="translate(254.492188 0)"/>
      </g>
     </g>
    </g>
    <g id="text_15">
     <!-- Frequency -->
     <g transform="translate(21.345937 229.381563) rotate(-90) scale(0.14 -0.14)">
      <defs>
       <path id="DejaVuSans-46" d="M 628 4666 
L 3309 4666 
L 3309 4134 
L 1259 4134 
L 1259 2759 
L 3109 2759 
L 3109 2228 
L 1259 2228 
L 1259 0 
L 628 0 
L 628 4666 
z
" transform="scale(0.015625)"/>
       <path id="DejaVuSans-72" d="M 2631 2963 
Q 2534 3019 2420 3045 
Q 2306 3072 2169 3072 
Q 1681 3072 1420 2755 
Q 1159 2438 1159 1844 
L 1159 0 
L 581 0 
L 581 3500 
L 1159 3500 
L 1159 2956 
Q 1341 3275 1631 3429 
Q 1922 3584 2338 3584 
Q 2397 3584 2469 3576 
Q 2541 3569 2628 3553 
L 2631 2963 
z
" transform="scale(0.015625)"/>
       <path id="DejaVuSans-65" d="M 3597 1894 
L 3597 1613 
L 953 1613 
Q 991 1019 1311 708 
Q 1631 397 2203 397 
Q 2534 397 2845 478 
Q 3156 559 3463 722 
L 3463 178 
Q 3153 47 2828 -22 
Q 2503 -91 2169 -91 
Q 1331 -91 842 396 
Q 353 884 353 1716 
Q 353 2575 817 3079 
Q 1281 3584 2069 3584 
Q 2775 3584 3186 3129 
Q 3597 2675 3597 1894 
z
M 3022 2063 
Q 3016 2534 2758 2815 
Q 2500 3097 2075 3097 
Q 1594 3097 1305 2825 
Q 1016 2553 972 2059 
L 3022 2063 
z
" transform="scale(0.015625)"/>
       <path id="DejaVuSans-71" d="M 947 1747 
Q 947 1113 1208 752 
Q 1469 391 1925 391 
Q 2381 391 2643 752 
Q 2906 1113 2906 1747 
Q 2906 2381 2643 2742 
Q 2381 3103 1925 3103 
Q 1469 3103 1208 2742 
Q 947 2381 947 1747 
z
M 2906 525 
Q 2725 213 2448 61 
Q 2172 -91 1784 -91 
Q 1150 -91 751 415 
Q 353 922 353 1747 
Q 353 2572 751 3078 
Q 1150 3584 1784 3584 
Q 2172 3584 2448 3432 
Q 2725 3281 2906 2969 
L 2906 3500 
L 3481 3500 
L 3481 -1331 
L 2906 -1331 
L 2906 525 
z
" transform="scale(0.015625)"/>
       <path id="DejaVuSans-75" d="M 544 1381 
L 544 3500 
L 1119 3500 
L 1119 1403 
Q 1119 906 1312 657 
Q 1506 409 1894 409 
Q 2359 409 2629 706 
Q 2900 1003 2900 1516 
L 2900 3500 
L 3475 3500 
L 3475 0 
L 2900 0 
L 2900 538 
Q 2691 219 2414 64 
Q 2138 -91 1772 -91 
Q 1169 -91 856 284 
Q 544 659 544 1381 
z
M 1991 3584 
L 1991 3584 
z
" transform="scale(0.015625)"/>
       <path id="DejaVuSans-6e" d="M 3513 2113 
L 3513 0 
L 2938 0 
L 2938 2094 
Q 2938 2591 2744 2837 
Q 2550 3084 2163 3084 
Q 1697 3084 1428 2787 
Q 1159 2491 1159 1978 
L 1159 0 
L 581 0 
L 581 3500 
L 1159 3500 
L 1159 2956 
Q 1366 3272 1645 3428 
Q 1925 3584 2291 3584 
Q 2894 3584 3203 3211 
Q 3513 2838 3513 2113 
z
" transform="scale(0.015625)"/>
       <path id="DejaVuSans-63" d="M 3122 3366 
L 3122 2828 
Q 2878 2963 2633 3030 
Q 2388 3097 2138 3097 
Q 1578 3097 1268 2742 
Q 959 2388 959 1747 
Q 959 1106 1268 751 
Q 1578 397 2138 397 
Q 2388 397 2633 464 
Q 2878 531 3122 666 
L 3122 134 
Q 2881 22 2623 -34 
Q 2366 -91 2075 -91 
Q 1284 -91 818 406 
Q 353 903 353 1747 
Q 353 2603 823 3093 
Q 1294 3584 2113 3584 
Q 2378 3584 2631 3529 
Q 2884 3475 3122 3366 
z
" transform="scale(0.015625)"/>
       <path id="DejaVuSans-79" d="M 2059 -325 
Q 1816 -950 1584 -1140 
Q 1353 -1331 966 -1331 
L 506 -1331 
L 506 -850 
L 844 -850 
Q 1081 -850 1212 -737 
Q 1344 -625 1503 -206 
L 1606 56 
L 191 3500 
L 800 3500 
L 1894 763 
L 2988 3500 
L 3597 3500 
L 2059 -325 
z
" transform="scale(0.015625)"/>
      </defs>
      <use xlink:href="#DejaVuSans-46"/>
      <use xlink:href="#DejaVuSans-72" transform="translate(50.269531 0)"/>
      <use xlink:href="#DejaVuSans-65" transform="translate(89.132812 0)"/>
      <use xlink:href="#DejaVuSans-71" transform="translate(150.65625 0)"/>
      <use xlink:href="#DejaVuSans-75" transform="translate(214.132812 0)"/>
      <use xlink:href="#DejaVuSans-65" transform="translate(277.511719 0)"/>
      <use xlink:href="#DejaVuSans-6e" transform="translate(339.035156 0)"/>
      <use xlink:href="#DejaVuSans-63" transform="translate(402.414062 0)"/>
      <use xlink:href="#DejaVuSans-79" transform="translate(457.394531 0)"/>
     </g>
    </g>
   </g>
   <g id="line2d_15">
    <path d="M 239.769849 314.44 
L 239.769849 72 
" clip-path="url(#p40984ff5b7)" style="fill: none; stroke-dasharray: 7.4,3.2; stroke-dashoffset: 0; stroke: #808080; stroke-opacity: 0.3; stroke-width: 2"/>
   </g>
   <g id="patch_53">
    <path d="M 67.07 314.44 
L 67.07 72 
" style="fill: none; stroke: #000000; stroke-width: 0.8; stroke-linejoin: miter; stroke-linecap: square"/>
   </g>
   <g id="patch_54">
    <path d="M 371.969746 314.44 
L 371.969746 72 
" style="fill: none; stroke: #000000; stroke-width: 0.8; stroke-linejoin: miter; stroke-linecap: square"/>
   </g>
   <g id="patch_55">
    <path d="M 67.07 314.44 
L 371.969746 314.44 
" style="fill: none; stroke: #000000; stroke-width: 0.8; stroke-linejoin: miter; stroke-linecap: square"/>
   </g>
   <g id="patch_56">
    <path d="M 67.07 72 
L 371.969746 72 
" style="fill: none; stroke: #000000; stroke-width: 0.8; stroke-linejoin: miter; stroke-linecap: square"/>
   </g>
   <g id="text_16">
    <!-- 1 features -->
    <g transform="translate(178.841123 66) scale(0.16 -0.16)">
     <defs>
      <path id="DejaVuSans-20" transform="scale(0.015625)"/>
      <path id="DejaVuSans-66" d="M 2375 4863 
L 2375 4384 
L 1825 4384 
Q 1516 4384 1395 4259 
Q 1275 4134 1275 3809 
L 1275 3500 
L 2222 3500 
L 2222 3053 
L 1275 3053 
L 1275 0 
L 697 0 
L 697 3053 
L 147 3053 
L 147 3500 
L 697 3500 
L 697 3744 
Q 697 4328 969 4595 
Q 1241 4863 1831 4863 
L 2375 4863 
z
" transform="scale(0.015625)"/>
      <path id="DejaVuSans-61" d="M 2194 1759 
Q 1497 1759 1228 1600 
Q 959 1441 959 1056 
Q 959 750 1161 570 
Q 1363 391 1709 391 
Q 2188 391 2477 730 
Q 2766 1069 2766 1631 
L 2766 1759 
L 2194 1759 
z
M 3341 1997 
L 3341 0 
L 2766 0 
L 2766 531 
Q 2569 213 2275 61 
Q 1981 -91 1556 -91 
Q 1019 -91 701 211 
Q 384 513 384 1019 
Q 384 1609 779 1909 
Q 1175 2209 1959 2209 
L 2766 2209 
L 2766 2266 
Q 2766 2663 2505 2880 
Q 2244 3097 1772 3097 
Q 1472 3097 1187 3025 
Q 903 2953 641 2809 
L 641 3341 
Q 956 3463 1253 3523 
Q 1550 3584 1831 3584 
Q 2591 3584 2966 3190 
Q 3341 2797 3341 1997 
z
" transform="scale(0.015625)"/>
      <path id="DejaVuSans-74" d="M 1172 4494 
L 1172 3500 
L 2356 3500 
L 2356 3053 
L 1172 3053 
L 1172 1153 
Q 1172 725 1289 603 
Q 1406 481 1766 481 
L 2356 481 
L 2356 0 
L 1766 0 
Q 1100 0 847 248 
Q 594 497 594 1153 
L 594 3053 
L 172 3053 
L 172 3500 
L 594 3500 
L 594 4494 
L 1172 4494 
z
" transform="scale(0.015625)"/>
      <path id="DejaVuSans-73" d="M 2834 3397 
L 2834 2853 
Q 2591 2978 2328 3040 
Q 2066 3103 1784 3103 
Q 1356 3103 1142 2972 
Q 928 2841 928 2578 
Q 928 2378 1081 2264 
Q 1234 2150 1697 2047 
L 1894 2003 
Q 2506 1872 2764 1633 
Q 3022 1394 3022 966 
Q 3022 478 2636 193 
Q 2250 -91 1575 -91 
Q 1294 -91 989 -36 
Q 684 19 347 128 
L 347 722 
Q 666 556 975 473 
Q 1284 391 1588 391 
Q 1994 391 2212 530 
Q 2431 669 2431 922 
Q 2431 1156 2273 1281 
Q 2116 1406 1581 1522 
L 1381 1569 
Q 847 1681 609 1914 
Q 372 2147 372 2553 
Q 372 3047 722 3315 
Q 1072 3584 1716 3584 
Q 2034 3584 2315 3537 
Q 2597 3491 2834 3397 
z
" transform="scale(0.015625)"/>
     </defs>
     <use xlink:href="#DejaVuSans-31"/>
     <use xlink:href="#DejaVuSans-20" transform="translate(63.623047 0)"/>
     <use xlink:href="#DejaVuSans-66" transform="translate(95.410156 0)"/>
     <use xlink:href="#DejaVuSans-65" transform="translate(130.615234 0)"/>
     <use xlink:href="#DejaVuSans-61" transform="translate(192.138672 0)"/>
     <use xlink:href="#DejaVuSans-74" transform="translate(253.417969 0)"/>
     <use xlink:href="#DejaVuSans-75" transform="translate(292.626953 0)"/>
     <use xlink:href="#DejaVuSans-72" transform="translate(356.005859 0)"/>
     <use xlink:href="#DejaVuSans-65" transform="translate(394.869141 0)"/>
     <use xlink:href="#DejaVuSans-73" transform="translate(456.392578 0)"/>
    </g>
   </g>
  </g>
  <g id="axes_2">
   <g id="patch_57">
    <path d="M 409.438333 314.44 
L 714.338079 314.44 
L 714.338079 72 
L 409.438333 72 
z
" style="fill: #ffffff"/>
   </g>
   <g id="patch_58">
    <path d="M 409.438333 314.44 
L 426.441197 314.44 
L 426.441197 231.337448 
L 409.438333 231.337448 
z
" clip-path="url(#p0b1be70773)" style="fill: #1f77b4; stroke: #000000; stroke-linejoin: miter"/>
   </g>
   <g id="patch_59">
    <path d="M 426.441197 314.44 
L 443.444061 314.44 
L 443.444061 210.276237 
L 426.441197 210.276237 
z
" clip-path="url(#p0b1be70773)" style="fill: #1f77b4; stroke: #000000; stroke-linejoin: miter"/>
   </g>
   <g id="patch_60">
    <path d="M 443.444061 314.44 
L 460.446925 314.44 
L 460.446925 205.952083 
L 443.444061 205.952083 
z
" clip-path="url(#p0b1be70773)" style="fill: #1f77b4; stroke: #000000; stroke-linejoin: miter"/>
   </g>
   <g id="patch_61">
    <path d="M 460.446925 314.44 
L 477.449789 314.44 
L 477.449789 211.640365 
L 460.446925 211.640365 
z
" clip-path="url(#p0b1be70773)" style="fill: #1f77b4; stroke: #000000; stroke-linejoin: miter"/>
   </g>
   <g id="patch_62">
    <path d="M 477.449789 314.44 
L 494.452652 314.44 
L 494.452652 220.626393 
L 477.449789 220.626393 
z
" clip-path="url(#p0b1be70773)" style="fill: #1f77b4; stroke: #000000; stroke-linejoin: miter"/>
   </g>
   <g id="patch_63">
    <path d="M 494.452652 314.44 
L 511.455516 314.44 
L 511.455516 248.796301 
L 494.452652 248.796301 
z
" clip-path="url(#p0b1be70773)" style="fill: #1f77b4; stroke: #000000; stroke-linejoin: miter"/>
   </g>
   <g id="patch_64">
    <path d="M 511.455516 314.44 
L 528.45838 314.44 
L 528.45838 264.152675 
L 511.455516 264.152675 
z
" clip-path="url(#p0b1be70773)" style="fill: #1f77b4; stroke: #000000; stroke-linejoin: miter"/>
   </g>
   <g id="patch_65">
    <path d="M 528.45838 314.44 
L 545.461244 314.44 
L 545.461244 293.521162 
L 528.45838 293.521162 
z
" clip-path="url(#p0b1be70773)" style="fill: #1f77b4; stroke: #000000; stroke-linejoin: miter"/>
   </g>
   <g id="patch_66">
    <path d="M 545.461244 314.44 
L 562.464108 314.44 
L 562.464108 300.805341 
L 545.461244 300.805341 
z
" clip-path="url(#p0b1be70773)" style="fill: #1f77b4; stroke: #000000; stroke-linejoin: miter"/>
   </g>
   <g id="patch_67">
    <path d="M 562.464108 314.44 
L 579.466972 314.44 
L 579.466972 304.705688 
L 562.464108 304.705688 
z
" clip-path="url(#p0b1be70773)" style="fill: #1f77b4; stroke: #000000; stroke-linejoin: miter"/>
   </g>
   <g id="patch_68">
    <path d="M 579.466972 314.44 
L 596.469835 314.44 
L 596.469835 307.99019 
L 579.466972 307.99019 
z
" clip-path="url(#p0b1be70773)" style="fill: #1f77b4; stroke: #000000; stroke-linejoin: miter"/>
   </g>
   <g id="patch_69">
    <path d="M 596.469835 314.44 
L 613.472699 314.44 
L 613.472699 309.950297 
L 596.469835 309.950297 
z
" clip-path="url(#p0b1be70773)" style="fill: #1f77b4; stroke: #000000; stroke-linejoin: miter"/>
   </g>
   <g id="patch_70">
    <path d="M 613.472699 314.44 
L 630.475563 314.44 
L 630.475563 310.340994 
L 613.472699 310.340994 
z
" clip-path="url(#p0b1be70773)" style="fill: #1f77b4; stroke: #000000; stroke-linejoin: miter"/>
   </g>
   <g id="patch_71">
    <path d="M 630.475563 314.44 
L 647.478427 314.44 
L 647.478427 311.877293 
L 630.475563 311.877293 
z
" clip-path="url(#p0b1be70773)" style="fill: #1f77b4; stroke: #000000; stroke-linejoin: miter"/>
   </g>
   <g id="patch_72">
    <path d="M 647.478427 314.44 
L 664.481291 314.44 
L 664.481291 312.155417 
L 647.478427 312.155417 
z
" clip-path="url(#p0b1be70773)" style="fill: #1f77b4; stroke: #000000; stroke-linejoin: miter"/>
   </g>
   <g id="patch_73">
    <path d="M 664.481291 314.44 
L 681.484155 314.44 
L 681.484155 312.513003 
L 664.481291 312.513003 
z
" clip-path="url(#p0b1be70773)" style="fill: #1f77b4; stroke: #000000; stroke-linejoin: miter"/>
   </g>
   <g id="patch_74">
    <path d="M 681.484155 314.44 
L 698.487018 314.44 
L 698.487018 313.367239 
L 681.484155 313.367239 
z
" clip-path="url(#p0b1be70773)" style="fill: #1f77b4; stroke: #000000; stroke-linejoin: miter"/>
   </g>
   <g id="patch_75">
    <path d="M 698.487018 314.44 
L 715.489882 314.44 
L 715.489882 313.651984 
L 698.487018 313.651984 
z
" clip-path="url(#p0b1be70773)" style="fill: #1f77b4; stroke: #000000; stroke-linejoin: miter"/>
   </g>
   <g id="patch_76">
    <path d="M 715.489882 314.44 
L 732.492746 314.44 
L 732.492746 313.916863 
L 715.489882 313.916863 
z
" clip-path="url(#p0b1be70773)" style="fill: #1f77b4; stroke: #000000; stroke-linejoin: miter"/>
   </g>
   <g id="patch_77">
    <path d="M 732.492746 314.44 
L 749.49561 314.44 
L 749.49561 314.234719 
L 732.492746 314.234719 
z
" clip-path="url(#p0b1be70773)" style="fill: #1f77b4; stroke: #000000; stroke-linejoin: miter"/>
   </g>
   <g id="patch_78">
    <path d="M 749.49561 314.44 
L 766.498474 314.44 
L 766.498474 314.122145 
L 749.49561 314.122145 
z
" clip-path="url(#p0b1be70773)" style="fill: #1f77b4; stroke: #000000; stroke-linejoin: miter"/>
   </g>
   <g id="patch_79">
    <path d="M 766.498474 314.44 
L 783.501338 314.44 
L 783.501338 313.896998 
L 766.498474 313.896998 
z
" clip-path="url(#p0b1be70773)" style="fill: #1f77b4; stroke: #000000; stroke-linejoin: miter"/>
   </g>
   <g id="patch_80">
    <path d="M 783.501338 314.44 
L 800.504201 314.44 
L 800.504201 313.63874 
L 783.501338 313.63874 
z
" clip-path="url(#p0b1be70773)" style="fill: #1f77b4; stroke: #000000; stroke-linejoin: miter"/>
   </g>
   <g id="patch_81">
    <path d="M 800.504201 314.44 
L 817.507065 314.44 
L 817.507065 314.055925 
L 800.504201 314.055925 
z
" clip-path="url(#p0b1be70773)" style="fill: #1f77b4; stroke: #000000; stroke-linejoin: miter"/>
   </g>
   <g id="patch_82">
    <path d="M 817.507065 314.44 
L 834.509929 314.44 
L 834.509929 314.029437 
L 817.507065 314.029437 
z
" clip-path="url(#p0b1be70773)" style="fill: #1f77b4; stroke: #000000; stroke-linejoin: miter"/>
   </g>
   <g id="patch_83">
    <path d="M 834.509929 314.44 
L 851.512793 314.44 
L 851.512793 314.44 
L 834.509929 314.44 
z
" clip-path="url(#p0b1be70773)" style="fill: #1f77b4; stroke: #000000; stroke-linejoin: miter"/>
   </g>
   <g id="patch_84">
    <path d="M 851.512793 314.44 
L 868.515657 314.44 
L 868.515657 314.44 
L 851.512793 314.44 
z
" clip-path="url(#p0b1be70773)" style="fill: #1f77b4; stroke: #000000; stroke-linejoin: miter"/>
   </g>
   <g id="patch_85">
    <path d="M 868.515657 314.44 
L 885.518521 314.44 
L 885.518521 314.44 
L 868.515657 314.44 
z
" clip-path="url(#p0b1be70773)" style="fill: #1f77b4; stroke: #000000; stroke-linejoin: miter"/>
   </g>
   <g id="patch_86">
    <path d="M 885.518521 314.44 
L 902.521384 314.44 
L 902.521384 314.44 
L 885.518521 314.44 
z
" clip-path="url(#p0b1be70773)" style="fill: #1f77b4; stroke: #000000; stroke-linejoin: miter"/>
   </g>
   <g id="patch_87">
    <path d="M 902.521384 314.44 
L 919.524248 314.44 
L 919.524248 314.44 
L 902.521384 314.44 
z
" clip-path="url(#p0b1be70773)" style="fill: #1f77b4; stroke: #000000; stroke-linejoin: miter"/>
   </g>
   <g id="patch_88">
    <path d="M 919.524248 314.44 
L 936.527112 314.44 
L 936.527112 314.44 
L 919.524248 314.44 
z
" clip-path="url(#p0b1be70773)" style="fill: #1f77b4; stroke: #000000; stroke-linejoin: miter"/>
   </g>
   <g id="patch_89">
    <path d="M 936.527112 314.44 
L 953.529976 314.44 
L 953.529976 314.44 
L 936.527112 314.44 
z
" clip-path="url(#p0b1be70773)" style="fill: #1f77b4; stroke: #000000; stroke-linejoin: miter"/>
   </g>
   <g id="patch_90">
    <path d="M 953.529976 314.44 
L 970.53284 314.44 
L 970.53284 314.44 
L 953.529976 314.44 
z
" clip-path="url(#p0b1be70773)" style="fill: #1f77b4; stroke: #000000; stroke-linejoin: miter"/>
   </g>
   <g id="patch_91">
    <path d="M 970.53284 314.44 
L 987.535704 314.44 
L 987.535704 314.44 
L 970.53284 314.44 
z
" clip-path="url(#p0b1be70773)" style="fill: #1f77b4; stroke: #000000; stroke-linejoin: miter"/>
   </g>
   <g id="patch_92">
    <path d="M 987.535704 314.44 
L 1004.538567 314.44 
L 1004.538567 314.44 
L 987.535704 314.44 
z
" clip-path="url(#p0b1be70773)" style="fill: #1f77b4; stroke: #000000; stroke-linejoin: miter"/>
   </g>
   <g id="patch_93">
    <path d="M 1004.538567 314.44 
L 1021.541431 314.44 
L 1021.541431 314.44 
L 1004.538567 314.44 
z
" clip-path="url(#p0b1be70773)" style="fill: #1f77b4; stroke: #000000; stroke-linejoin: miter"/>
   </g>
   <g id="patch_94">
    <path d="M 1021.541431 314.44 
L 1038.544295 314.44 
L 1038.544295 314.44 
L 1021.541431 314.44 
z
" clip-path="url(#p0b1be70773)" style="fill: #1f77b4; stroke: #000000; stroke-linejoin: miter"/>
   </g>
   <g id="patch_95">
    <path d="M 1038.544295 314.44 
L 1055.547159 314.44 
L 1055.547159 314.44 
L 1038.544295 314.44 
z
" clip-path="url(#p0b1be70773)" style="fill: #1f77b4; stroke: #000000; stroke-linejoin: miter"/>
   </g>
   <g id="patch_96">
    <path d="M 1055.547159 314.44 
L 1072.550023 314.44 
L 1072.550023 314.44 
L 1055.547159 314.44 
z
" clip-path="url(#p0b1be70773)" style="fill: #1f77b4; stroke: #000000; stroke-linejoin: miter"/>
   </g>
   <g id="patch_97">
    <path d="M 1072.550023 314.44 
L 1089.552887 314.44 
L 1089.552887 314.44 
L 1072.550023 314.44 
z
" clip-path="url(#p0b1be70773)" style="fill: #1f77b4; stroke: #000000; stroke-linejoin: miter"/>
   </g>
   <g id="patch_98">
    <path d="M 1089.552887 314.44 
L 1106.55575 314.44 
L 1106.55575 314.44 
L 1089.552887 314.44 
z
" clip-path="url(#p0b1be70773)" style="fill: #1f77b4; stroke: #000000; stroke-linejoin: miter"/>
   </g>
   <g id="patch_99">
    <path d="M 1106.55575 314.44 
L 1123.558614 314.44 
L 1123.558614 314.44 
L 1106.55575 314.44 
z
" clip-path="url(#p0b1be70773)" style="fill: #1f77b4; stroke: #000000; stroke-linejoin: miter"/>
   </g>
   <g id="patch_100">
    <path d="M 1123.558614 314.44 
L 1140.561478 314.44 
L 1140.561478 314.44 
L 1123.558614 314.44 
z
" clip-path="url(#p0b1be70773)" style="fill: #1f77b4; stroke: #000000; stroke-linejoin: miter"/>
   </g>
   <g id="patch_101">
    <path d="M 1140.561478 314.44 
L 1157.564342 314.44 
L 1157.564342 314.44 
L 1140.561478 314.44 
z
" clip-path="url(#p0b1be70773)" style="fill: #1f77b4; stroke: #000000; stroke-linejoin: miter"/>
   </g>
   <g id="patch_102">
    <path d="M 1157.564342 314.44 
L 1174.567206 314.44 
L 1174.567206 314.44 
L 1157.564342 314.44 
z
" clip-path="url(#p0b1be70773)" style="fill: #1f77b4; stroke: #000000; stroke-linejoin: miter"/>
   </g>
   <g id="patch_103">
    <path d="M 1174.567206 314.44 
L 1191.57007 314.44 
L 1191.57007 314.44 
L 1174.567206 314.44 
z
" clip-path="url(#p0b1be70773)" style="fill: #1f77b4; stroke: #000000; stroke-linejoin: miter"/>
   </g>
   <g id="patch_104">
    <path d="M 1191.57007 314.44 
L 1208.572933 314.44 
L 1208.572933 314.44 
L 1191.57007 314.44 
z
" clip-path="url(#p0b1be70773)" style="fill: #1f77b4; stroke: #000000; stroke-linejoin: miter"/>
   </g>
   <g id="patch_105">
    <path d="M 1208.572933 314.44 
L 1225.575797 314.44 
L 1225.575797 314.44 
L 1208.572933 314.44 
z
" clip-path="url(#p0b1be70773)" style="fill: #1f77b4; stroke: #000000; stroke-linejoin: miter"/>
   </g>
   <g id="patch_106">
    <path d="M 1225.575797 314.44 
L 1242.578661 314.44 
L 1242.578661 314.44 
L 1225.575797 314.44 
z
" clip-path="url(#p0b1be70773)" style="fill: #1f77b4; stroke: #000000; stroke-linejoin: miter"/>
   </g>
   <g id="patch_107">
    <path d="M 1242.578661 314.44 
L 1259.581525 314.44 
L 1259.581525 314.44 
L 1242.578661 314.44 
z
" clip-path="url(#p0b1be70773)" style="fill: #1f77b4; stroke: #000000; stroke-linejoin: miter"/>
   </g>
   <g id="matplotlib.axis_3">
    <g id="xtick_7">
     <g id="line2d_16">
      <g>
       <use xlink:href="#me0bdeca32f" x="409.438333" y="314.44" style="stroke: #000000; stroke-width: 0.8"/>
      </g>
     </g>
     <g id="text_17">
      <!-- 0.000 -->
      <g transform="translate(395.124271 329.038437) scale(0.1 -0.1)">
       <use xlink:href="#DejaVuSans-30"/>
       <use xlink:href="#DejaVuSans-2e" transform="translate(63.623047 0)"/>
       <use xlink:href="#DejaVuSans-30" transform="translate(95.410156 0)"/>
       <use xlink:href="#DejaVuSans-30" transform="translate(159.033203 0)"/>
       <use xlink:href="#DejaVuSans-30" transform="translate(222.65625 0)"/>
      </g>
     </g>
    </g>
    <g id="xtick_8">
     <g id="line2d_17">
      <g>
       <use xlink:href="#me0bdeca32f" x="469.990636" y="314.44" style="stroke: #000000; stroke-width: 0.8"/>
      </g>
     </g>
     <g id="text_18">
      <!-- 0.002 -->
      <g transform="translate(455.676573 329.038437) scale(0.1 -0.1)">
       <use xlink:href="#DejaVuSans-30"/>
       <use xlink:href="#DejaVuSans-2e" transform="translate(63.623047 0)"/>
       <use xlink:href="#DejaVuSans-30" transform="translate(95.410156 0)"/>
       <use xlink:href="#DejaVuSans-30" transform="translate(159.033203 0)"/>
       <use xlink:href="#DejaVuSans-32" transform="translate(222.65625 0)"/>
      </g>
     </g>
    </g>
    <g id="xtick_9">
     <g id="line2d_18">
      <g>
       <use xlink:href="#me0bdeca32f" x="530.542938" y="314.44" style="stroke: #000000; stroke-width: 0.8"/>
      </g>
     </g>
     <g id="text_19">
      <!-- 0.004 -->
      <g transform="translate(516.228876 329.038437) scale(0.1 -0.1)">
       <use xlink:href="#DejaVuSans-30"/>
       <use xlink:href="#DejaVuSans-2e" transform="translate(63.623047 0)"/>
       <use xlink:href="#DejaVuSans-30" transform="translate(95.410156 0)"/>
       <use xlink:href="#DejaVuSans-30" transform="translate(159.033203 0)"/>
       <use xlink:href="#DejaVuSans-34" transform="translate(222.65625 0)"/>
      </g>
     </g>
    </g>
    <g id="xtick_10">
     <g id="line2d_19">
      <g>
       <use xlink:href="#me0bdeca32f" x="591.095241" y="314.44" style="stroke: #000000; stroke-width: 0.8"/>
      </g>
     </g>
     <g id="text_20">
      <!-- 0.006 -->
      <g transform="translate(576.781178 329.038437) scale(0.1 -0.1)">
       <use xlink:href="#DejaVuSans-30"/>
       <use xlink:href="#DejaVuSans-2e" transform="translate(63.623047 0)"/>
       <use xlink:href="#DejaVuSans-30" transform="translate(95.410156 0)"/>
       <use xlink:href="#DejaVuSans-30" transform="translate(159.033203 0)"/>
       <use xlink:href="#DejaVuSans-36" transform="translate(222.65625 0)"/>
      </g>
     </g>
    </g>
    <g id="xtick_11">
     <g id="line2d_20">
      <g>
       <use xlink:href="#me0bdeca32f" x="651.647543" y="314.44" style="stroke: #000000; stroke-width: 0.8"/>
      </g>
     </g>
     <g id="text_21">
      <!-- 0.008 -->
      <g transform="translate(637.333481 329.038437) scale(0.1 -0.1)">
       <use xlink:href="#DejaVuSans-30"/>
       <use xlink:href="#DejaVuSans-2e" transform="translate(63.623047 0)"/>
       <use xlink:href="#DejaVuSans-30" transform="translate(95.410156 0)"/>
       <use xlink:href="#DejaVuSans-30" transform="translate(159.033203 0)"/>
       <use xlink:href="#DejaVuSans-38" transform="translate(222.65625 0)"/>
      </g>
     </g>
    </g>
    <g id="xtick_12">
     <g id="line2d_21">
      <g>
       <use xlink:href="#me0bdeca32f" x="712.199846" y="314.44" style="stroke: #000000; stroke-width: 0.8"/>
      </g>
     </g>
     <g id="text_22">
      <!-- 0.010 -->
      <g transform="translate(697.885783 329.038437) scale(0.1 -0.1)">
       <use xlink:href="#DejaVuSans-30"/>
       <use xlink:href="#DejaVuSans-2e" transform="translate(63.623047 0)"/>
       <use xlink:href="#DejaVuSans-30" transform="translate(95.410156 0)"/>
       <use xlink:href="#DejaVuSans-31" transform="translate(159.033203 0)"/>
       <use xlink:href="#DejaVuSans-30" transform="translate(222.65625 0)"/>
      </g>
     </g>
    </g>
    <g id="text_23">
     <!-- Distance -->
     <g transform="translate(531.280706 345.755938) scale(0.14 -0.14)">
      <defs>
       <path id="DejaVuSans-44" d="M 1259 4147 
L 1259 519 
L 2022 519 
Q 2988 519 3436 956 
Q 3884 1394 3884 2338 
Q 3884 3275 3436 3711 
Q 2988 4147 2022 4147 
L 1259 4147 
z
M 628 4666 
L 1925 4666 
Q 3281 4666 3915 4102 
Q 4550 3538 4550 2338 
Q 4550 1131 3912 565 
Q 3275 0 1925 0 
L 628 0 
L 628 4666 
z
" transform="scale(0.015625)"/>
       <path id="DejaVuSans-69" d="M 603 3500 
L 1178 3500 
L 1178 0 
L 603 0 
L 603 3500 
z
M 603 4863 
L 1178 4863 
L 1178 4134 
L 603 4134 
L 603 4863 
z
" transform="scale(0.015625)"/>
      </defs>
      <use xlink:href="#DejaVuSans-44"/>
      <use xlink:href="#DejaVuSans-69" transform="translate(77.001953 0)"/>
      <use xlink:href="#DejaVuSans-73" transform="translate(104.785156 0)"/>
      <use xlink:href="#DejaVuSans-74" transform="translate(156.884766 0)"/>
      <use xlink:href="#DejaVuSans-61" transform="translate(196.09375 0)"/>
      <use xlink:href="#DejaVuSans-6e" transform="translate(257.373047 0)"/>
      <use xlink:href="#DejaVuSans-63" transform="translate(320.751953 0)"/>
      <use xlink:href="#DejaVuSans-65" transform="translate(375.732422 0)"/>
     </g>
    </g>
   </g>
   <g id="matplotlib.axis_4">
    <g id="ytick_9">
     <g id="line2d_22">
      <g>
       <use xlink:href="#m9cb6c27229" x="409.438333" y="314.44" style="stroke: #000000; stroke-width: 0.8"/>
      </g>
     </g>
    </g>
    <g id="ytick_10">
     <g id="line2d_23">
      <g>
       <use xlink:href="#m9cb6c27229" x="409.438333" y="281.330094" style="stroke: #000000; stroke-width: 0.8"/>
      </g>
     </g>
    </g>
    <g id="ytick_11">
     <g id="line2d_24">
      <g>
       <use xlink:href="#m9cb6c27229" x="409.438333" y="248.220189" style="stroke: #000000; stroke-width: 0.8"/>
      </g>
     </g>
    </g>
    <g id="ytick_12">
     <g id="line2d_25">
      <g>
       <use xlink:href="#m9cb6c27229" x="409.438333" y="215.110283" style="stroke: #000000; stroke-width: 0.8"/>
      </g>
     </g>
    </g>
    <g id="ytick_13">
     <g id="line2d_26">
      <g>
       <use xlink:href="#m9cb6c27229" x="409.438333" y="182.000377" style="stroke: #000000; stroke-width: 0.8"/>
      </g>
     </g>
    </g>
    <g id="ytick_14">
     <g id="line2d_27">
      <g>
       <use xlink:href="#m9cb6c27229" x="409.438333" y="148.890472" style="stroke: #000000; stroke-width: 0.8"/>
      </g>
     </g>
    </g>
    <g id="ytick_15">
     <g id="line2d_28">
      <g>
       <use xlink:href="#m9cb6c27229" x="409.438333" y="115.780566" style="stroke: #000000; stroke-width: 0.8"/>
      </g>
     </g>
    </g>
    <g id="ytick_16">
     <g id="line2d_29">
      <g>
       <use xlink:href="#m9cb6c27229" x="409.438333" y="82.67066" style="stroke: #000000; stroke-width: 0.8"/>
      </g>
     </g>
    </g>
   </g>
   <g id="line2d_30">
    <path d="M 620.941172 314.44 
L 620.941172 72 
" clip-path="url(#p0b1be70773)" style="fill: none; stroke-dasharray: 7.4,3.2; stroke-dashoffset: 0; stroke: #808080; stroke-opacity: 0.3; stroke-width: 2"/>
   </g>
   <g id="patch_108">
    <path d="M 409.438333 314.44 
L 409.438333 72 
" style="fill: none; stroke: #000000; stroke-width: 0.8; stroke-linejoin: miter; stroke-linecap: square"/>
   </g>
   <g id="patch_109">
    <path d="M 714.338079 314.44 
L 714.338079 72 
" style="fill: none; stroke: #000000; stroke-width: 0.8; stroke-linejoin: miter; stroke-linecap: square"/>
   </g>
   <g id="patch_110">
    <path d="M 409.438333 314.44 
L 714.338079 314.44 
" style="fill: none; stroke: #000000; stroke-width: 0.8; stroke-linejoin: miter; stroke-linecap: square"/>
   </g>
   <g id="patch_111">
    <path d="M 409.438333 72 
L 714.338079 72 
" style="fill: none; stroke: #000000; stroke-width: 0.8; stroke-linejoin: miter; stroke-linecap: square"/>
   </g>
   <g id="text_24">
    <!-- 3 features -->
    <g transform="translate(521.209456 66) scale(0.16 -0.16)">
     <use xlink:href="#DejaVuSans-33"/>
     <use xlink:href="#DejaVuSans-20" transform="translate(63.623047 0)"/>
     <use xlink:href="#DejaVuSans-66" transform="translate(95.410156 0)"/>
     <use xlink:href="#DejaVuSans-65" transform="translate(130.615234 0)"/>
     <use xlink:href="#DejaVuSans-61" transform="translate(192.138672 0)"/>
     <use xlink:href="#DejaVuSans-74" transform="translate(253.417969 0)"/>
     <use xlink:href="#DejaVuSans-75" transform="translate(292.626953 0)"/>
     <use xlink:href="#DejaVuSans-72" transform="translate(356.005859 0)"/>
     <use xlink:href="#DejaVuSans-65" transform="translate(394.869141 0)"/>
     <use xlink:href="#DejaVuSans-73" transform="translate(456.392578 0)"/>
    </g>
   </g>
  </g>
  <g id="axes_3">
   <g id="patch_112">
    <path d="M 751.806667 314.44 
L 1056.706412 314.44 
L 1056.706412 72 
L 751.806667 72 
z
" style="fill: #ffffff"/>
   </g>
   <g id="patch_113">
    <path d="M 751.806667 314.44 
L 768.80953 314.44 
L 768.80953 275.910003 
L 751.806667 275.910003 
z
" clip-path="url(#p17ac567dc4)" style="fill: #1f77b4; stroke: #000000; stroke-linejoin: miter"/>
   </g>
   <g id="patch_114">
    <path d="M 768.80953 314.44 
L 785.812394 314.44 
L 785.812394 83.544762 
L 768.80953 83.544762 
z
" clip-path="url(#p17ac567dc4)" style="fill: #1f77b4; stroke: #000000; stroke-linejoin: miter"/>
   </g>
   <g id="patch_115">
    <path d="M 785.812394 314.44 
L 802.815258 314.44 
L 802.815258 212.534332 
L 785.812394 212.534332 
z
" clip-path="url(#p17ac567dc4)" style="fill: #1f77b4; stroke: #000000; stroke-linejoin: miter"/>
   </g>
   <g id="patch_116">
    <path d="M 802.815258 314.44 
L 819.818122 314.44 
L 819.818122 263.305062 
L 802.815258 263.305062 
z
" clip-path="url(#p17ac567dc4)" style="fill: #1f77b4; stroke: #000000; stroke-linejoin: miter"/>
   </g>
   <g id="patch_117">
    <path d="M 819.818122 314.44 
L 836.820986 314.44 
L 836.820986 223.136124 
L 819.818122 223.136124 
z
" clip-path="url(#p17ac567dc4)" style="fill: #1f77b4; stroke: #000000; stroke-linejoin: miter"/>
   </g>
   <g id="patch_118">
    <path d="M 836.820986 314.44 
L 853.82385 314.44 
L 853.82385 241.121425 
L 836.820986 241.121425 
z
" clip-path="url(#p17ac567dc4)" style="fill: #1f77b4; stroke: #000000; stroke-linejoin: miter"/>
   </g>
   <g id="patch_119">
    <path d="M 853.82385 314.44 
L 870.826713 314.44 
L 870.826713 292.183521 
L 853.82385 292.183521 
z
" clip-path="url(#p17ac567dc4)" style="fill: #1f77b4; stroke: #000000; stroke-linejoin: miter"/>
   </g>
   <g id="patch_120">
    <path d="M 870.826713 314.44 
L 887.829577 314.44 
L 887.829577 302.798557 
L 870.826713 302.798557 
z
" clip-path="url(#p17ac567dc4)" style="fill: #1f77b4; stroke: #000000; stroke-linejoin: miter"/>
   </g>
   <g id="patch_121">
    <path d="M 887.829577 314.44 
L 904.832441 314.44 
L 904.832441 302.745581 
L 887.829577 302.745581 
z
" clip-path="url(#p17ac567dc4)" style="fill: #1f77b4; stroke: #000000; stroke-linejoin: miter"/>
   </g>
   <g id="patch_122">
    <path d="M 904.832441 314.44 
L 921.835305 314.44 
L 921.835305 305.162604 
L 904.832441 305.162604 
z
" clip-path="url(#p17ac567dc4)" style="fill: #1f77b4; stroke: #000000; stroke-linejoin: miter"/>
   </g>
   <g id="patch_123">
    <path d="M 921.835305 314.44 
L 938.838169 314.44 
L 938.838169 308.294802 
L 921.835305 308.294802 
z
" clip-path="url(#p17ac567dc4)" style="fill: #1f77b4; stroke: #000000; stroke-linejoin: miter"/>
   </g>
   <g id="patch_124">
    <path d="M 938.838169 314.44 
L 955.841033 314.44 
L 955.841033 308.235204 
L 938.838169 308.235204 
z
" clip-path="url(#p17ac567dc4)" style="fill: #1f77b4; stroke: #000000; stroke-linejoin: miter"/>
   </g>
   <g id="patch_125">
    <path d="M 955.841033 314.44 
L 972.843896 314.44 
L 972.843896 307.705445 
L 955.841033 307.705445 
z
" clip-path="url(#p17ac567dc4)" style="fill: #1f77b4; stroke: #000000; stroke-linejoin: miter"/>
   </g>
   <g id="patch_126">
    <path d="M 972.843896 314.44 
L 989.84676 314.44 
L 989.84676 312.142173 
L 972.843896 312.142173 
z
" clip-path="url(#p17ac567dc4)" style="fill: #1f77b4; stroke: #000000; stroke-linejoin: miter"/>
   </g>
   <g id="patch_127">
    <path d="M 989.84676 314.44 
L 1006.849624 314.44 
L 1006.849624 313.16858 
L 989.84676 313.16858 
z
" clip-path="url(#p17ac567dc4)" style="fill: #1f77b4; stroke: #000000; stroke-linejoin: miter"/>
   </g>
   <g id="patch_128">
    <path d="M 1006.849624 314.44 
L 1023.852488 314.44 
L 1023.852488 314.214853 
L 1006.849624 314.214853 
z
" clip-path="url(#p17ac567dc4)" style="fill: #1f77b4; stroke: #000000; stroke-linejoin: miter"/>
   </g>
   <g id="patch_129">
    <path d="M 1023.852488 314.44 
L 1040.855352 314.44 
L 1040.855352 314.194987 
L 1023.852488 314.194987 
z
" clip-path="url(#p17ac567dc4)" style="fill: #1f77b4; stroke: #000000; stroke-linejoin: miter"/>
   </g>
   <g id="patch_130">
    <path d="M 1040.855352 314.44 
L 1057.858216 314.44 
L 1057.858216 313.532789 
L 1040.855352 313.532789 
z
" clip-path="url(#p17ac567dc4)" style="fill: #1f77b4; stroke: #000000; stroke-linejoin: miter"/>
   </g>
   <g id="patch_131">
    <path d="M 1057.858216 314.44 
L 1074.861079 314.44 
L 1074.861079 311.989867 
L 1057.858216 311.989867 
z
" clip-path="url(#p17ac567dc4)" style="fill: #1f77b4; stroke: #000000; stroke-linejoin: miter"/>
   </g>
   <g id="patch_132">
    <path d="M 1074.861079 314.44 
L 1091.863943 314.44 
L 1091.863943 312.327588 
L 1074.861079 312.327588 
z
" clip-path="url(#p17ac567dc4)" style="fill: #1f77b4; stroke: #000000; stroke-linejoin: miter"/>
   </g>
   <g id="patch_133">
    <path d="M 1091.863943 314.44 
L 1108.866807 314.44 
L 1108.866807 314.128767 
L 1091.863943 314.128767 
z
" clip-path="url(#p17ac567dc4)" style="fill: #1f77b4; stroke: #000000; stroke-linejoin: miter"/>
   </g>
   <g id="patch_134">
    <path d="M 1108.866807 314.44 
L 1125.869671 314.44 
L 1125.869671 312.751395 
L 1108.866807 312.751395 
z
" clip-path="url(#p17ac567dc4)" style="fill: #1f77b4; stroke: #000000; stroke-linejoin: miter"/>
   </g>
   <g id="patch_135">
    <path d="M 1125.869671 314.44 
L 1142.872535 314.44 
L 1142.872535 313.499679 
L 1125.869671 313.499679 
z
" clip-path="url(#p17ac567dc4)" style="fill: #1f77b4; stroke: #000000; stroke-linejoin: miter"/>
   </g>
   <g id="patch_136">
    <path d="M 1142.872535 314.44 
L 1159.875399 314.44 
L 1159.875399 314.393646 
L 1142.872535 314.393646 
z
" clip-path="url(#p17ac567dc4)" style="fill: #1f77b4; stroke: #000000; stroke-linejoin: miter"/>
   </g>
   <g id="patch_137">
    <path d="M 1159.875399 314.44 
L 1176.878262 314.44 
L 1176.878262 314.413512 
L 1159.875399 314.413512 
z
" clip-path="url(#p17ac567dc4)" style="fill: #1f77b4; stroke: #000000; stroke-linejoin: miter"/>
   </g>
   <g id="patch_138">
    <path d="M 1176.878262 314.44 
L 1193.881126 314.44 
L 1193.881126 314.400268 
L 1176.878262 314.400268 
z
" clip-path="url(#p17ac567dc4)" style="fill: #1f77b4; stroke: #000000; stroke-linejoin: miter"/>
   </g>
   <g id="patch_139">
    <path d="M 1193.881126 314.44 
L 1210.88399 314.44 
L 1210.88399 314.393646 
L 1193.881126 314.393646 
z
" clip-path="url(#p17ac567dc4)" style="fill: #1f77b4; stroke: #000000; stroke-linejoin: miter"/>
   </g>
   <g id="patch_140">
    <path d="M 1210.88399 314.44 
L 1227.886854 314.44 
L 1227.886854 314.287694 
L 1210.88399 314.287694 
z
" clip-path="url(#p17ac567dc4)" style="fill: #1f77b4; stroke: #000000; stroke-linejoin: miter"/>
   </g>
   <g id="patch_141">
    <path d="M 1227.886854 314.44 
L 1244.889718 314.44 
L 1244.889718 312.738151 
L 1227.886854 312.738151 
z
" clip-path="url(#p17ac567dc4)" style="fill: #1f77b4; stroke: #000000; stroke-linejoin: miter"/>
   </g>
   <g id="patch_142">
    <path d="M 1244.889718 314.44 
L 1261.892582 314.44 
L 1261.892582 313.546033 
L 1244.889718 313.546033 
z
" clip-path="url(#p17ac567dc4)" style="fill: #1f77b4; stroke: #000000; stroke-linejoin: miter"/>
   </g>
   <g id="patch_143">
    <path d="M 1261.892582 314.44 
L 1278.895445 314.44 
L 1278.895445 314.380402 
L 1261.892582 314.380402 
z
" clip-path="url(#p17ac567dc4)" style="fill: #1f77b4; stroke: #000000; stroke-linejoin: miter"/>
   </g>
   <g id="patch_144">
    <path d="M 1278.895445 314.44 
L 1295.898309 314.44 
L 1295.898309 314.420134 
L 1278.895445 314.420134 
z
" clip-path="url(#p17ac567dc4)" style="fill: #1f77b4; stroke: #000000; stroke-linejoin: miter"/>
   </g>
   <g id="patch_145">
    <path d="M 1295.898309 314.44 
L 1312.901173 314.44 
L 1312.901173 314.413512 
L 1295.898309 314.413512 
z
" clip-path="url(#p17ac567dc4)" style="fill: #1f77b4; stroke: #000000; stroke-linejoin: miter"/>
   </g>
   <g id="patch_146">
    <path d="M 1312.901173 314.44 
L 1329.904037 314.44 
L 1329.904037 314.426756 
L 1312.901173 314.426756 
z
" clip-path="url(#p17ac567dc4)" style="fill: #1f77b4; stroke: #000000; stroke-linejoin: miter"/>
   </g>
   <g id="patch_147">
    <path d="M 1329.904037 314.44 
L 1346.906901 314.44 
L 1346.906901 314.433378 
L 1329.904037 314.433378 
z
" clip-path="url(#p17ac567dc4)" style="fill: #1f77b4; stroke: #000000; stroke-linejoin: miter"/>
   </g>
   <g id="patch_148">
    <path d="M 1346.906901 314.44 
L 1363.909765 314.44 
L 1363.909765 314.433378 
L 1346.906901 314.433378 
z
" clip-path="url(#p17ac567dc4)" style="fill: #1f77b4; stroke: #000000; stroke-linejoin: miter"/>
   </g>
   <g id="patch_149">
    <path d="M 1363.909765 314.44 
L 1380.912628 314.44 
L 1380.912628 314.413512 
L 1363.909765 314.413512 
z
" clip-path="url(#p17ac567dc4)" style="fill: #1f77b4; stroke: #000000; stroke-linejoin: miter"/>
   </g>
   <g id="patch_150">
    <path d="M 1380.912628 314.44 
L 1397.915492 314.44 
L 1397.915492 314.40689 
L 1380.912628 314.40689 
z
" clip-path="url(#p17ac567dc4)" style="fill: #1f77b4; stroke: #000000; stroke-linejoin: miter"/>
   </g>
   <g id="patch_151">
    <path d="M 1397.915492 314.44 
L 1414.918356 314.44 
L 1414.918356 314.400268 
L 1397.915492 314.400268 
z
" clip-path="url(#p17ac567dc4)" style="fill: #1f77b4; stroke: #000000; stroke-linejoin: miter"/>
   </g>
   <g id="patch_152">
    <path d="M 1414.918356 314.44 
L 1431.92122 314.44 
L 1431.92122 314.334048 
L 1414.918356 314.334048 
z
" clip-path="url(#p17ac567dc4)" style="fill: #1f77b4; stroke: #000000; stroke-linejoin: miter"/>
   </g>
   <g id="patch_153">
    <path d="M 1431.92122 314.44 
L 1448.924084 314.44 
L 1448.924084 313.751314 
L 1431.92122 313.751314 
z
" clip-path="url(#p17ac567dc4)" style="fill: #1f77b4; stroke: #000000; stroke-linejoin: miter"/>
   </g>
   <g id="patch_154">
    <path d="M 1448.924084 314.44 
L 1465.926948 314.44 
L 1465.926948 312.46665 
L 1448.924084 312.46665 
z
" clip-path="url(#p17ac567dc4)" style="fill: #1f77b4; stroke: #000000; stroke-linejoin: miter"/>
   </g>
   <g id="patch_155">
    <path d="M 1465.926948 314.44 
L 1482.929811 314.44 
L 1482.929811 314.40689 
L 1465.926948 314.40689 
z
" clip-path="url(#p17ac567dc4)" style="fill: #1f77b4; stroke: #000000; stroke-linejoin: miter"/>
   </g>
   <g id="patch_156">
    <path d="M 1482.929811 314.44 
L 1499.932675 314.44 
L 1499.932675 314.433378 
L 1482.929811 314.433378 
z
" clip-path="url(#p17ac567dc4)" style="fill: #1f77b4; stroke: #000000; stroke-linejoin: miter"/>
   </g>
   <g id="patch_157">
    <path d="M 1499.932675 314.44 
L 1516.935539 314.44 
L 1516.935539 314.44 
L 1499.932675 314.44 
z
" clip-path="url(#p17ac567dc4)" style="fill: #1f77b4; stroke: #000000; stroke-linejoin: miter"/>
   </g>
   <g id="patch_158">
    <path d="M 1516.935539 314.44 
L 1533.938403 314.44 
L 1533.938403 314.44 
L 1516.935539 314.44 
z
" clip-path="url(#p17ac567dc4)" style="fill: #1f77b4; stroke: #000000; stroke-linejoin: miter"/>
   </g>
   <g id="patch_159">
    <path d="M 1533.938403 314.44 
L 1550.941267 314.44 
L 1550.941267 314.44 
L 1533.938403 314.44 
z
" clip-path="url(#p17ac567dc4)" style="fill: #1f77b4; stroke: #000000; stroke-linejoin: miter"/>
   </g>
   <g id="patch_160">
    <path d="M 1550.941267 314.44 
L 1567.944131 314.44 
L 1567.944131 314.44 
L 1550.941267 314.44 
z
" clip-path="url(#p17ac567dc4)" style="fill: #1f77b4; stroke: #000000; stroke-linejoin: miter"/>
   </g>
   <g id="patch_161">
    <path d="M 1567.944131 314.44 
L 1584.946994 314.44 
L 1584.946994 314.44 
L 1567.944131 314.44 
z
" clip-path="url(#p17ac567dc4)" style="fill: #1f77b4; stroke: #000000; stroke-linejoin: miter"/>
   </g>
   <g id="patch_162">
    <path d="M 1584.946994 314.44 
L 1601.949858 314.44 
L 1601.949858 314.433378 
L 1584.946994 314.433378 
z
" clip-path="url(#p17ac567dc4)" style="fill: #1f77b4; stroke: #000000; stroke-linejoin: miter"/>
   </g>
   <g id="matplotlib.axis_5">
    <g id="xtick_13">
     <g id="line2d_31">
      <g>
       <use xlink:href="#me0bdeca32f" x="751.806667" y="314.44" style="stroke: #000000; stroke-width: 0.8"/>
      </g>
     </g>
     <g id="text_25">
      <!-- 0.000 -->
      <g transform="translate(737.492604 329.038437) scale(0.1 -0.1)">
       <use xlink:href="#DejaVuSans-30"/>
       <use xlink:href="#DejaVuSans-2e" transform="translate(63.623047 0)"/>
       <use xlink:href="#DejaVuSans-30" transform="translate(95.410156 0)"/>
       <use xlink:href="#DejaVuSans-30" transform="translate(159.033203 0)"/>
       <use xlink:href="#DejaVuSans-30" transform="translate(222.65625 0)"/>
      </g>
     </g>
    </g>
    <g id="xtick_14">
     <g id="line2d_32">
      <g>
       <use xlink:href="#me0bdeca32f" x="812.358969" y="314.44" style="stroke: #000000; stroke-width: 0.8"/>
      </g>
     </g>
     <g id="text_26">
      <!-- 0.002 -->
      <g transform="translate(798.044907 329.038437) scale(0.1 -0.1)">
       <use xlink:href="#DejaVuSans-30"/>
       <use xlink:href="#DejaVuSans-2e" transform="translate(63.623047 0)"/>
       <use xlink:href="#DejaVuSans-30" transform="translate(95.410156 0)"/>
       <use xlink:href="#DejaVuSans-30" transform="translate(159.033203 0)"/>
       <use xlink:href="#DejaVuSans-32" transform="translate(222.65625 0)"/>
      </g>
     </g>
    </g>
    <g id="xtick_15">
     <g id="line2d_33">
      <g>
       <use xlink:href="#me0bdeca32f" x="872.911272" y="314.44" style="stroke: #000000; stroke-width: 0.8"/>
      </g>
     </g>
     <g id="text_27">
      <!-- 0.004 -->
      <g transform="translate(858.597209 329.038437) scale(0.1 -0.1)">
       <use xlink:href="#DejaVuSans-30"/>
       <use xlink:href="#DejaVuSans-2e" transform="translate(63.623047 0)"/>
       <use xlink:href="#DejaVuSans-30" transform="translate(95.410156 0)"/>
       <use xlink:href="#DejaVuSans-30" transform="translate(159.033203 0)"/>
       <use xlink:href="#DejaVuSans-34" transform="translate(222.65625 0)"/>
      </g>
     </g>
    </g>
    <g id="xtick_16">
     <g id="line2d_34">
      <g>
       <use xlink:href="#me0bdeca32f" x="933.463574" y="314.44" style="stroke: #000000; stroke-width: 0.8"/>
      </g>
     </g>
     <g id="text_28">
      <!-- 0.006 -->
      <g transform="translate(919.149512 329.038437) scale(0.1 -0.1)">
       <use xlink:href="#DejaVuSans-30"/>
       <use xlink:href="#DejaVuSans-2e" transform="translate(63.623047 0)"/>
       <use xlink:href="#DejaVuSans-30" transform="translate(95.410156 0)"/>
       <use xlink:href="#DejaVuSans-30" transform="translate(159.033203 0)"/>
       <use xlink:href="#DejaVuSans-36" transform="translate(222.65625 0)"/>
      </g>
     </g>
    </g>
    <g id="xtick_17">
     <g id="line2d_35">
      <g>
       <use xlink:href="#me0bdeca32f" x="994.015877" y="314.44" style="stroke: #000000; stroke-width: 0.8"/>
      </g>
     </g>
     <g id="text_29">
      <!-- 0.008 -->
      <g transform="translate(979.701814 329.038437) scale(0.1 -0.1)">
       <use xlink:href="#DejaVuSans-30"/>
       <use xlink:href="#DejaVuSans-2e" transform="translate(63.623047 0)"/>
       <use xlink:href="#DejaVuSans-30" transform="translate(95.410156 0)"/>
       <use xlink:href="#DejaVuSans-30" transform="translate(159.033203 0)"/>
       <use xlink:href="#DejaVuSans-38" transform="translate(222.65625 0)"/>
      </g>
     </g>
    </g>
    <g id="xtick_18">
     <g id="line2d_36">
      <g>
       <use xlink:href="#me0bdeca32f" x="1054.568179" y="314.44" style="stroke: #000000; stroke-width: 0.8"/>
      </g>
     </g>
     <g id="text_30">
      <!-- 0.010 -->
      <g transform="translate(1040.254117 329.038437) scale(0.1 -0.1)">
       <use xlink:href="#DejaVuSans-30"/>
       <use xlink:href="#DejaVuSans-2e" transform="translate(63.623047 0)"/>
       <use xlink:href="#DejaVuSans-30" transform="translate(95.410156 0)"/>
       <use xlink:href="#DejaVuSans-31" transform="translate(159.033203 0)"/>
       <use xlink:href="#DejaVuSans-30" transform="translate(222.65625 0)"/>
      </g>
     </g>
    </g>
   </g>
   <g id="matplotlib.axis_6">
    <g id="ytick_17">
     <g id="line2d_37">
      <g>
       <use xlink:href="#m9cb6c27229" x="751.806667" y="314.44" style="stroke: #000000; stroke-width: 0.8"/>
      </g>
     </g>
    </g>
    <g id="ytick_18">
     <g id="line2d_38">
      <g>
       <use xlink:href="#m9cb6c27229" x="751.806667" y="281.330094" style="stroke: #000000; stroke-width: 0.8"/>
      </g>
     </g>
    </g>
    <g id="ytick_19">
     <g id="line2d_39">
      <g>
       <use xlink:href="#m9cb6c27229" x="751.806667" y="248.220189" style="stroke: #000000; stroke-width: 0.8"/>
      </g>
     </g>
    </g>
    <g id="ytick_20">
     <g id="line2d_40">
      <g>
       <use xlink:href="#m9cb6c27229" x="751.806667" y="215.110283" style="stroke: #000000; stroke-width: 0.8"/>
      </g>
     </g>
    </g>
    <g id="ytick_21">
     <g id="line2d_41">
      <g>
       <use xlink:href="#m9cb6c27229" x="751.806667" y="182.000377" style="stroke: #000000; stroke-width: 0.8"/>
      </g>
     </g>
    </g>
    <g id="ytick_22">
     <g id="line2d_42">
      <g>
       <use xlink:href="#m9cb6c27229" x="751.806667" y="148.890472" style="stroke: #000000; stroke-width: 0.8"/>
      </g>
     </g>
    </g>
    <g id="ytick_23">
     <g id="line2d_43">
      <g>
       <use xlink:href="#m9cb6c27229" x="751.806667" y="115.780566" style="stroke: #000000; stroke-width: 0.8"/>
      </g>
     </g>
    </g>
    <g id="ytick_24">
     <g id="line2d_44">
      <g>
       <use xlink:href="#m9cb6c27229" x="751.806667" y="82.67066" style="stroke: #000000; stroke-width: 0.8"/>
      </g>
     </g>
    </g>
   </g>
   <g id="line2d_45">
    <path d="M 1056.706412 314.44 
L 1056.706412 72 
" clip-path="url(#p17ac567dc4)" style="fill: none; stroke-dasharray: 7.4,3.2; stroke-dashoffset: 0; stroke: #808080; stroke-opacity: 0.3; stroke-width: 2"/>
   </g>
   <g id="patch_163">
    <path d="M 751.806667 314.44 
L 751.806667 72 
" style="fill: none; stroke: #000000; stroke-width: 0.8; stroke-linejoin: miter; stroke-linecap: square"/>
   </g>
   <g id="patch_164">
    <path d="M 1056.706412 314.44 
L 1056.706412 72 
" style="fill: none; stroke: #000000; stroke-width: 0.8; stroke-linejoin: miter; stroke-linecap: square"/>
   </g>
   <g id="patch_165">
    <path d="M 751.806667 314.44 
L 1056.706412 314.44 
" style="fill: none; stroke: #000000; stroke-width: 0.8; stroke-linejoin: miter; stroke-linecap: square"/>
   </g>
   <g id="patch_166">
    <path d="M 751.806667 72 
L 1056.706412 72 
" style="fill: none; stroke: #000000; stroke-width: 0.8; stroke-linejoin: miter; stroke-linecap: square"/>
   </g>
   <g id="text_31">
    <!-- 30 features -->
    <g transform="translate(858.48779 66) scale(0.16 -0.16)">
     <use xlink:href="#DejaVuSans-33"/>
     <use xlink:href="#DejaVuSans-30" transform="translate(63.623047 0)"/>
     <use xlink:href="#DejaVuSans-20" transform="translate(127.246094 0)"/>
     <use xlink:href="#DejaVuSans-66" transform="translate(159.033203 0)"/>
     <use xlink:href="#DejaVuSans-65" transform="translate(194.238281 0)"/>
     <use xlink:href="#DejaVuSans-61" transform="translate(255.761719 0)"/>
     <use xlink:href="#DejaVuSans-74" transform="translate(317.041016 0)"/>
     <use xlink:href="#DejaVuSans-75" transform="translate(356.25 0)"/>
     <use xlink:href="#DejaVuSans-72" transform="translate(419.628906 0)"/>
     <use xlink:href="#DejaVuSans-65" transform="translate(458.492188 0)"/>
     <use xlink:href="#DejaVuSans-73" transform="translate(520.015625 0)"/>
    </g>
   </g>
   <g id="legend_1">
    <g id="patch_167">
     <path d="M 946.539225 41.190125 
L 1054.706412 41.190125 
Q 1056.706412 41.190125 1056.706412 39.190125 
L 1056.706412 25.512 
Q 1056.706412 23.512 1054.706412 23.512 
L 946.539225 23.512 
Q 944.539225 23.512 944.539225 25.512 
L 944.539225 39.190125 
Q 944.539225 41.190125 946.539225 41.190125 
z
" style="fill: #ffffff; opacity: 0.8; stroke: #cccccc; stroke-linejoin: miter"/>
    </g>
    <g id="line2d_46">
     <path d="M 948.539225 31.610438 
L 958.539225 31.610438 
L 968.539225 31.610438 
" style="fill: none; stroke-dasharray: 7.4,3.2; stroke-dashoffset: 0; stroke: #808080; stroke-opacity: 0.3; stroke-width: 2"/>
    </g>
    <g id="text_32">
     <!-- 98th percentile -->
     <g transform="translate(976.539225 35.110438) scale(0.1 -0.1)">
      <defs>
       <path id="DejaVuSans-39" d="M 703 97 
L 703 672 
Q 941 559 1184 500 
Q 1428 441 1663 441 
Q 2288 441 2617 861 
Q 2947 1281 2994 2138 
Q 2813 1869 2534 1725 
Q 2256 1581 1919 1581 
Q 1219 1581 811 2004 
Q 403 2428 403 3163 
Q 403 3881 828 4315 
Q 1253 4750 1959 4750 
Q 2769 4750 3195 4129 
Q 3622 3509 3622 2328 
Q 3622 1225 3098 567 
Q 2575 -91 1691 -91 
Q 1453 -91 1209 -44 
Q 966 3 703 97 
z
M 1959 2075 
Q 2384 2075 2632 2365 
Q 2881 2656 2881 3163 
Q 2881 3666 2632 3958 
Q 2384 4250 1959 4250 
Q 1534 4250 1286 3958 
Q 1038 3666 1038 3163 
Q 1038 2656 1286 2365 
Q 1534 2075 1959 2075 
z
" transform="scale(0.015625)"/>
       <path id="DejaVuSans-68" d="M 3513 2113 
L 3513 0 
L 2938 0 
L 2938 2094 
Q 2938 2591 2744 2837 
Q 2550 3084 2163 3084 
Q 1697 3084 1428 2787 
Q 1159 2491 1159 1978 
L 1159 0 
L 581 0 
L 581 4863 
L 1159 4863 
L 1159 2956 
Q 1366 3272 1645 3428 
Q 1925 3584 2291 3584 
Q 2894 3584 3203 3211 
Q 3513 2838 3513 2113 
z
" transform="scale(0.015625)"/>
       <path id="DejaVuSans-70" d="M 1159 525 
L 1159 -1331 
L 581 -1331 
L 581 3500 
L 1159 3500 
L 1159 2969 
Q 1341 3281 1617 3432 
Q 1894 3584 2278 3584 
Q 2916 3584 3314 3078 
Q 3713 2572 3713 1747 
Q 3713 922 3314 415 
Q 2916 -91 2278 -91 
Q 1894 -91 1617 61 
Q 1341 213 1159 525 
z
M 3116 1747 
Q 3116 2381 2855 2742 
Q 2594 3103 2138 3103 
Q 1681 3103 1420 2742 
Q 1159 2381 1159 1747 
Q 1159 1113 1420 752 
Q 1681 391 2138 391 
Q 2594 391 2855 752 
Q 3116 1113 3116 1747 
z
" transform="scale(0.015625)"/>
       <path id="DejaVuSans-6c" d="M 603 4863 
L 1178 4863 
L 1178 0 
L 603 0 
L 603 4863 
z
" transform="scale(0.015625)"/>
      </defs>
      <use xlink:href="#DejaVuSans-39"/>
      <use xlink:href="#DejaVuSans-38" transform="translate(63.623047 0)"/>
      <use xlink:href="#DejaVuSans-74" transform="translate(127.246094 0)"/>
      <use xlink:href="#DejaVuSans-68" transform="translate(166.455078 0)"/>
      <use xlink:href="#DejaVuSans-20" transform="translate(229.833984 0)"/>
      <use xlink:href="#DejaVuSans-70" transform="translate(261.621094 0)"/>
      <use xlink:href="#DejaVuSans-65" transform="translate(325.097656 0)"/>
      <use xlink:href="#DejaVuSans-72" transform="translate(386.621094 0)"/>
      <use xlink:href="#DejaVuSans-63" transform="translate(425.484375 0)"/>
      <use xlink:href="#DejaVuSans-65" transform="translate(480.464844 0)"/>
      <use xlink:href="#DejaVuSans-6e" transform="translate(541.988281 0)"/>
      <use xlink:href="#DejaVuSans-74" transform="translate(605.367188 0)"/>
      <use xlink:href="#DejaVuSans-69" transform="translate(644.576172 0)"/>
      <use xlink:href="#DejaVuSans-6c" transform="translate(672.359375 0)"/>
      <use xlink:href="#DejaVuSans-65" transform="translate(700.142578 0)"/>
     </g>
    </g>
   </g>
  </g>
  <g id="text_33">
   <!-- bio-celegans -->
   <g transform="translate(463.62375 25.43625) scale(0.24 -0.24)">
    <defs>
     <path id="DejaVuSans-62" d="M 3116 1747 
Q 3116 2381 2855 2742 
Q 2594 3103 2138 3103 
Q 1681 3103 1420 2742 
Q 1159 2381 1159 1747 
Q 1159 1113 1420 752 
Q 1681 391 2138 391 
Q 2594 391 2855 752 
Q 3116 1113 3116 1747 
z
M 1159 2969 
Q 1341 3281 1617 3432 
Q 1894 3584 2278 3584 
Q 2916 3584 3314 3078 
Q 3713 2572 3713 1747 
Q 3713 922 3314 415 
Q 2916 -91 2278 -91 
Q 1894 -91 1617 61 
Q 1341 213 1159 525 
L 1159 0 
L 581 0 
L 581 4863 
L 1159 4863 
L 1159 2969 
z
" transform="scale(0.015625)"/>
     <path id="DejaVuSans-6f" d="M 1959 3097 
Q 1497 3097 1228 2736 
Q 959 2375 959 1747 
Q 959 1119 1226 758 
Q 1494 397 1959 397 
Q 2419 397 2687 759 
Q 2956 1122 2956 1747 
Q 2956 2369 2687 2733 
Q 2419 3097 1959 3097 
z
M 1959 3584 
Q 2709 3584 3137 3096 
Q 3566 2609 3566 1747 
Q 3566 888 3137 398 
Q 2709 -91 1959 -91 
Q 1206 -91 779 398 
Q 353 888 353 1747 
Q 353 2609 779 3096 
Q 1206 3584 1959 3584 
z
" transform="scale(0.015625)"/>
     <path id="DejaVuSans-2d" d="M 313 2009 
L 1997 2009 
L 1997 1497 
L 313 1497 
L 313 2009 
z
" transform="scale(0.015625)"/>
     <path id="DejaVuSans-67" d="M 2906 1791 
Q 2906 2416 2648 2759 
Q 2391 3103 1925 3103 
Q 1463 3103 1205 2759 
Q 947 2416 947 1791 
Q 947 1169 1205 825 
Q 1463 481 1925 481 
Q 2391 481 2648 825 
Q 2906 1169 2906 1791 
z
M 3481 434 
Q 3481 -459 3084 -895 
Q 2688 -1331 1869 -1331 
Q 1566 -1331 1297 -1286 
Q 1028 -1241 775 -1147 
L 775 -588 
Q 1028 -725 1275 -790 
Q 1522 -856 1778 -856 
Q 2344 -856 2625 -561 
Q 2906 -266 2906 331 
L 2906 616 
Q 2728 306 2450 153 
Q 2172 0 1784 0 
Q 1141 0 747 490 
Q 353 981 353 1791 
Q 353 2603 747 3093 
Q 1141 3584 1784 3584 
Q 2172 3584 2450 3431 
Q 2728 3278 2906 2969 
L 2906 3500 
L 3481 3500 
L 3481 434 
z
" transform="scale(0.015625)"/>
    </defs>
    <use xlink:href="#DejaVuSans-62"/>
    <use xlink:href="#DejaVuSans-69" transform="translate(63.476562 0)"/>
    <use xlink:href="#DejaVuSans-6f" transform="translate(91.259766 0)"/>
    <use xlink:href="#DejaVuSans-2d" transform="translate(154.316406 0)"/>
    <use xlink:href="#DejaVuSans-63" transform="translate(190.400391 0)"/>
    <use xlink:href="#DejaVuSans-65" transform="translate(245.380859 0)"/>
    <use xlink:href="#DejaVuSans-6c" transform="translate(306.904297 0)"/>
    <use xlink:href="#DejaVuSans-65" transform="translate(334.6875 0)"/>
    <use xlink:href="#DejaVuSans-67" transform="translate(396.210938 0)"/>
    <use xlink:href="#DejaVuSans-61" transform="translate(459.6875 0)"/>
    <use xlink:href="#DejaVuSans-6e" transform="translate(520.966797 0)"/>
    <use xlink:href="#DejaVuSans-73" transform="translate(584.345703 0)"/>
   </g>
  </g>
 </g>
 <defs>
  <clipPath id="p40984ff5b7">
   <rect x="67.07" y="72" width="304.899746" height="242.44"/>
  </clipPath>
  <clipPath id="p0b1be70773">
   <rect x="409.438333" y="72" width="304.899746" height="242.44"/>
  </clipPath>
  <clipPath id="p17ac567dc4">
   <rect x="751.806667" y="72" width="304.899746" height="242.44"/>
  </clipPath>
 </defs>
</svg>
