<?xml version="1.0" encoding="utf-8" standalone="no"?>
<!DOCTYPE svg PUBLIC "-//W3C//DTD SVG 1.1//EN"
  "http://www.w3.org/Graphics/SVG/1.1/DTD/svg11.dtd">
<svg xmlns:xlink="http://www.w3.org/1999/xlink" width="720pt" height="432pt" viewBox="0 0 720 432" xmlns="http://www.w3.org/2000/svg" version="1.1">
 <metadata>
  <rdf:RDF xmlns:dc="http://purl.org/dc/elements/1.1/" xmlns:cc="http://creativecommons.org/ns#" xmlns:rdf="http://www.w3.org/1999/02/22-rdf-syntax-ns#">
   <cc:Work>
    <dc:type rdf:resource="http://purl.org/dc/dcmitype/StillImage"/>
    <dc:date>2025-03-07T10:21:13.859768</dc:date>
    <dc:format>image/svg+xml</dc:format>
    <dc:creator>
     <cc:Agent>
      <dc:title>Matplotlib v3.10.0, https://matplotlib.org/</dc:title>
     </cc:Agent>
    </dc:creator>
   </cc:Work>
  </rdf:RDF>
 </metadata>
 <defs>
  <style type="text/css">*{stroke-linejoin: round; stroke-linecap: butt}</style>
 </defs>
 <g id="figure_1">
  <g id="patch_1">
   <path d="M 0 432 
L 720 432 
L 720 0 
L 0 0 
z
" style="fill: #ffffff"/>
  </g>
  <g id="axes_1">
   <g id="patch_2">
    <path d="M 57.17 390.04 
L 551.29 390.04 
L 551.29 62.88 
L 57.17 62.88 
z
" style="fill: #ffffff"/>
   </g>
   <g id="matplotlib.axis_1">
    <g id="xtick_1">
     <g id="line2d_1">
      <path d="M 79.63 390.04 
L 79.63 62.88 
" clip-path="url(#p7cb9dd4b7f)" style="fill: none; stroke: #b0b0b0; stroke-width: 0.8; stroke-linecap: square"/>
     </g>
     <g id="line2d_2">
      <defs>
       <path id="m759ea324ca" d="M 0 0 
L 0 3.5 
" style="stroke: #000000; stroke-width: 0.8"/>
      </defs>
      <g>
       <use xlink:href="#m759ea324ca" x="79.63" y="390.04" style="stroke: #000000; stroke-width: 0.8"/>
      </g>
     </g>
     <g id="text_1">
      <!-- 0.00 -->
      <g transform="translate(68.497188 404.638438) scale(0.1 -0.1)">
       <defs>
        <path id="DejaVuSans-30" d="M 2034 4250 
Q 1547 4250 1301 3770 
Q 1056 3291 1056 2328 
Q 1056 1369 1301 889 
Q 1547 409 2034 409 
Q 2525 409 2770 889 
Q 3016 1369 3016 2328 
Q 3016 3291 2770 3770 
Q 2525 4250 2034 4250 
z
M 2034 4750 
Q 2819 4750 3233 4129 
Q 3647 3509 3647 2328 
Q 3647 1150 3233 529 
Q 2819 -91 2034 -91 
Q 1250 -91 836 529 
Q 422 1150 422 2328 
Q 422 3509 836 4129 
Q 1250 4750 2034 4750 
z
" transform="scale(0.015625)"/>
        <path id="DejaVuSans-2e" d="M 684 794 
L 1344 794 
L 1344 0 
L 684 0 
L 684 794 
z
" transform="scale(0.015625)"/>
       </defs>
       <use xlink:href="#DejaVuSans-30"/>
       <use xlink:href="#DejaVuSans-2e" transform="translate(63.623047 0)"/>
       <use xlink:href="#DejaVuSans-30" transform="translate(95.410156 0)"/>
       <use xlink:href="#DejaVuSans-30" transform="translate(159.033203 0)"/>
      </g>
     </g>
    </g>
    <g id="xtick_2">
     <g id="line2d_3">
      <path d="M 169.47 390.04 
L 169.47 62.88 
" clip-path="url(#p7cb9dd4b7f)" style="fill: none; stroke: #b0b0b0; stroke-width: 0.8; stroke-linecap: square"/>
     </g>
     <g id="line2d_4">
      <g>
       <use xlink:href="#m759ea324ca" x="169.47" y="390.04" style="stroke: #000000; stroke-width: 0.8"/>
      </g>
     </g>
     <g id="text_2">
      <!-- 0.05 -->
      <g transform="translate(158.337188 404.638438) scale(0.1 -0.1)">
       <defs>
        <path id="DejaVuSans-35" d="M 691 4666 
L 3169 4666 
L 3169 4134 
L 1269 4134 
L 1269 2991 
Q 1406 3038 1543 3061 
Q 1681 3084 1819 3084 
Q 2600 3084 3056 2656 
Q 3513 2228 3513 1497 
Q 3513 744 3044 326 
Q 2575 -91 1722 -91 
Q 1428 -91 1123 -41 
Q 819 9 494 109 
L 494 744 
Q 775 591 1075 516 
Q 1375 441 1709 441 
Q 2250 441 2565 725 
Q 2881 1009 2881 1497 
Q 2881 1984 2565 2268 
Q 2250 2553 1709 2553 
Q 1456 2553 1204 2497 
Q 953 2441 691 2322 
L 691 4666 
z
" transform="scale(0.015625)"/>
       </defs>
       <use xlink:href="#DejaVuSans-30"/>
       <use xlink:href="#DejaVuSans-2e" transform="translate(63.623047 0)"/>
       <use xlink:href="#DejaVuSans-30" transform="translate(95.410156 0)"/>
       <use xlink:href="#DejaVuSans-35" transform="translate(159.033203 0)"/>
      </g>
     </g>
    </g>
    <g id="xtick_3">
     <g id="line2d_5">
      <path d="M 259.31 390.04 
L 259.31 62.88 
" clip-path="url(#p7cb9dd4b7f)" style="fill: none; stroke: #b0b0b0; stroke-width: 0.8; stroke-linecap: square"/>
     </g>
     <g id="line2d_6">
      <g>
       <use xlink:href="#m759ea324ca" x="259.31" y="390.04" style="stroke: #000000; stroke-width: 0.8"/>
      </g>
     </g>
     <g id="text_3">
      <!-- 0.10 -->
      <g transform="translate(248.177188 404.638438) scale(0.1 -0.1)">
       <defs>
        <path id="DejaVuSans-31" d="M 794 531 
L 1825 531 
L 1825 4091 
L 703 3866 
L 703 4441 
L 1819 4666 
L 2450 4666 
L 2450 531 
L 3481 531 
L 3481 0 
L 794 0 
L 794 531 
z
" transform="scale(0.015625)"/>
       </defs>
       <use xlink:href="#DejaVuSans-30"/>
       <use xlink:href="#DejaVuSans-2e" transform="translate(63.623047 0)"/>
       <use xlink:href="#DejaVuSans-31" transform="translate(95.410156 0)"/>
       <use xlink:href="#DejaVuSans-30" transform="translate(159.033203 0)"/>
      </g>
     </g>
    </g>
    <g id="xtick_4">
     <g id="line2d_7">
      <path d="M 349.15 390.04 
L 349.15 62.88 
" clip-path="url(#p7cb9dd4b7f)" style="fill: none; stroke: #b0b0b0; stroke-width: 0.8; stroke-linecap: square"/>
     </g>
     <g id="line2d_8">
      <g>
       <use xlink:href="#m759ea324ca" x="349.15" y="390.04" style="stroke: #000000; stroke-width: 0.8"/>
      </g>
     </g>
     <g id="text_4">
      <!-- 0.15 -->
      <g transform="translate(338.017188 404.638438) scale(0.1 -0.1)">
       <use xlink:href="#DejaVuSans-30"/>
       <use xlink:href="#DejaVuSans-2e" transform="translate(63.623047 0)"/>
       <use xlink:href="#DejaVuSans-31" transform="translate(95.410156 0)"/>
       <use xlink:href="#DejaVuSans-35" transform="translate(159.033203 0)"/>
      </g>
     </g>
    </g>
    <g id="xtick_5">
     <g id="line2d_9">
      <path d="M 438.99 390.04 
L 438.99 62.88 
" clip-path="url(#p7cb9dd4b7f)" style="fill: none; stroke: #b0b0b0; stroke-width: 0.8; stroke-linecap: square"/>
     </g>
     <g id="line2d_10">
      <g>
       <use xlink:href="#m759ea324ca" x="438.99" y="390.04" style="stroke: #000000; stroke-width: 0.8"/>
      </g>
     </g>
     <g id="text_5">
      <!-- 0.20 -->
      <g transform="translate(427.857188 404.638438) scale(0.1 -0.1)">
       <defs>
        <path id="DejaVuSans-32" d="M 1228 531 
L 3431 531 
L 3431 0 
L 469 0 
L 469 531 
Q 828 903 1448 1529 
Q 2069 2156 2228 2338 
Q 2531 2678 2651 2914 
Q 2772 3150 2772 3378 
Q 2772 3750 2511 3984 
Q 2250 4219 1831 4219 
Q 1534 4219 1204 4116 
Q 875 4013 500 3803 
L 500 4441 
Q 881 4594 1212 4672 
Q 1544 4750 1819 4750 
Q 2544 4750 2975 4387 
Q 3406 4025 3406 3419 
Q 3406 3131 3298 2873 
Q 3191 2616 2906 2266 
Q 2828 2175 2409 1742 
Q 1991 1309 1228 531 
z
" transform="scale(0.015625)"/>
       </defs>
       <use xlink:href="#DejaVuSans-30"/>
       <use xlink:href="#DejaVuSans-2e" transform="translate(63.623047 0)"/>
       <use xlink:href="#DejaVuSans-32" transform="translate(95.410156 0)"/>
       <use xlink:href="#DejaVuSans-30" transform="translate(159.033203 0)"/>
      </g>
     </g>
    </g>
    <g id="xtick_6">
     <g id="line2d_11">
      <path d="M 528.83 390.04 
L 528.83 62.88 
" clip-path="url(#p7cb9dd4b7f)" style="fill: none; stroke: #b0b0b0; stroke-width: 0.8; stroke-linecap: square"/>
     </g>
     <g id="line2d_12">
      <g>
       <use xlink:href="#m759ea324ca" x="528.83" y="390.04" style="stroke: #000000; stroke-width: 0.8"/>
      </g>
     </g>
     <g id="text_6">
      <!-- 0.25 -->
      <g transform="translate(517.697188 404.638438) scale(0.1 -0.1)">
       <use xlink:href="#DejaVuSans-30"/>
       <use xlink:href="#DejaVuSans-2e" transform="translate(63.623047 0)"/>
       <use xlink:href="#DejaVuSans-32" transform="translate(95.410156 0)"/>
       <use xlink:href="#DejaVuSans-35" transform="translate(159.033203 0)"/>
      </g>
     </g>
    </g>
    <g id="text_7">
     <!-- Noise-level -->
     <g transform="translate(276.665156 418.316562) scale(0.1 -0.1)">
      <defs>
       <path id="DejaVuSans-4e" d="M 628 4666 
L 1478 4666 
L 3547 763 
L 3547 4666 
L 4159 4666 
L 4159 0 
L 3309 0 
L 1241 3903 
L 1241 0 
L 628 0 
L 628 4666 
z
" transform="scale(0.015625)"/>
       <path id="DejaVuSans-6f" d="M 1959 3097 
Q 1497 3097 1228 2736 
Q 959 2375 959 1747 
Q 959 1119 1226 758 
Q 1494 397 1959 397 
Q 2419 397 2687 759 
Q 2956 1122 2956 1747 
Q 2956 2369 2687 2733 
Q 2419 3097 1959 3097 
z
M 1959 3584 
Q 2709 3584 3137 3096 
Q 3566 2609 3566 1747 
Q 3566 888 3137 398 
Q 2709 -91 1959 -91 
Q 1206 -91 779 398 
Q 353 888 353 1747 
Q 353 2609 779 3096 
Q 1206 3584 1959 3584 
z
" transform="scale(0.015625)"/>
       <path id="DejaVuSans-69" d="M 603 3500 
L 1178 3500 
L 1178 0 
L 603 0 
L 603 3500 
z
M 603 4863 
L 1178 4863 
L 1178 4134 
L 603 4134 
L 603 4863 
z
" transform="scale(0.015625)"/>
       <path id="DejaVuSans-73" d="M 2834 3397 
L 2834 2853 
Q 2591 2978 2328 3040 
Q 2066 3103 1784 3103 
Q 1356 3103 1142 2972 
Q 928 2841 928 2578 
Q 928 2378 1081 2264 
Q 1234 2150 1697 2047 
L 1894 2003 
Q 2506 1872 2764 1633 
Q 3022 1394 3022 966 
Q 3022 478 2636 193 
Q 2250 -91 1575 -91 
Q 1294 -91 989 -36 
Q 684 19 347 128 
L 347 722 
Q 666 556 975 473 
Q 1284 391 1588 391 
Q 1994 391 2212 530 
Q 2431 669 2431 922 
Q 2431 1156 2273 1281 
Q 2116 1406 1581 1522 
L 1381 1569 
Q 847 1681 609 1914 
Q 372 2147 372 2553 
Q 372 3047 722 3315 
Q 1072 3584 1716 3584 
Q 2034 3584 2315 3537 
Q 2597 3491 2834 3397 
z
" transform="scale(0.015625)"/>
       <path id="DejaVuSans-65" d="M 3597 1894 
L 3597 1613 
L 953 1613 
Q 991 1019 1311 708 
Q 1631 397 2203 397 
Q 2534 397 2845 478 
Q 3156 559 3463 722 
L 3463 178 
Q 3153 47 2828 -22 
Q 2503 -91 2169 -91 
Q 1331 -91 842 396 
Q 353 884 353 1716 
Q 353 2575 817 3079 
Q 1281 3584 2069 3584 
Q 2775 3584 3186 3129 
Q 3597 2675 3597 1894 
z
M 3022 2063 
Q 3016 2534 2758 2815 
Q 2500 3097 2075 3097 
Q 1594 3097 1305 2825 
Q 1016 2553 972 2059 
L 3022 2063 
z
" transform="scale(0.015625)"/>
       <path id="DejaVuSans-2d" d="M 313 2009 
L 1997 2009 
L 1997 1497 
L 313 1497 
L 313 2009 
z
" transform="scale(0.015625)"/>
       <path id="DejaVuSans-6c" d="M 603 4863 
L 1178 4863 
L 1178 0 
L 603 0 
L 603 4863 
z
" transform="scale(0.015625)"/>
       <path id="DejaVuSans-76" d="M 191 3500 
L 800 3500 
L 1894 563 
L 2988 3500 
L 3597 3500 
L 2284 0 
L 1503 0 
L 191 3500 
z
" transform="scale(0.015625)"/>
      </defs>
      <use xlink:href="#DejaVuSans-4e"/>
      <use xlink:href="#DejaVuSans-6f" transform="translate(74.804688 0)"/>
      <use xlink:href="#DejaVuSans-69" transform="translate(135.986328 0)"/>
      <use xlink:href="#DejaVuSans-73" transform="translate(163.769531 0)"/>
      <use xlink:href="#DejaVuSans-65" transform="translate(215.869141 0)"/>
      <use xlink:href="#DejaVuSans-2d" transform="translate(277.392578 0)"/>
      <use xlink:href="#DejaVuSans-6c" transform="translate(313.476562 0)"/>
      <use xlink:href="#DejaVuSans-65" transform="translate(341.259766 0)"/>
      <use xlink:href="#DejaVuSans-76" transform="translate(402.783203 0)"/>
      <use xlink:href="#DejaVuSans-65" transform="translate(461.962891 0)"/>
      <use xlink:href="#DejaVuSans-6c" transform="translate(523.486328 0)"/>
     </g>
    </g>
   </g>
   <g id="matplotlib.axis_2">
    <g id="ytick_1">
     <g id="line2d_13">
      <path d="M 57.17 377.063977 
L 551.29 377.063977 
" clip-path="url(#p7cb9dd4b7f)" style="fill: none; stroke: #b0b0b0; stroke-width: 0.8; stroke-linecap: square"/>
     </g>
     <g id="line2d_14">
      <defs>
       <path id="m57dce79ee9" d="M 0 0 
L -3.5 0 
" style="stroke: #000000; stroke-width: 0.8"/>
      </defs>
      <g>
       <use xlink:href="#m57dce79ee9" x="57.17" y="377.063977" style="stroke: #000000; stroke-width: 0.8"/>
      </g>
     </g>
     <g id="text_8">
      <!-- 0 -->
      <g transform="translate(43.8075 380.863196) scale(0.1 -0.1)">
       <use xlink:href="#DejaVuSans-30"/>
      </g>
     </g>
    </g>
    <g id="ytick_2">
     <g id="line2d_15">
      <path d="M 57.17 337.587181 
L 551.29 337.587181 
" clip-path="url(#p7cb9dd4b7f)" style="fill: none; stroke: #b0b0b0; stroke-width: 0.8; stroke-linecap: square"/>
     </g>
     <g id="line2d_16">
      <g>
       <use xlink:href="#m57dce79ee9" x="57.17" y="337.587181" style="stroke: #000000; stroke-width: 0.8"/>
      </g>
     </g>
     <g id="text_9">
      <!-- 200 -->
      <g transform="translate(31.0825 341.3864) scale(0.1 -0.1)">
       <use xlink:href="#DejaVuSans-32"/>
       <use xlink:href="#DejaVuSans-30" transform="translate(63.623047 0)"/>
       <use xlink:href="#DejaVuSans-30" transform="translate(127.246094 0)"/>
      </g>
     </g>
    </g>
    <g id="ytick_3">
     <g id="line2d_17">
      <path d="M 57.17 298.110385 
L 551.29 298.110385 
" clip-path="url(#p7cb9dd4b7f)" style="fill: none; stroke: #b0b0b0; stroke-width: 0.8; stroke-linecap: square"/>
     </g>
     <g id="line2d_18">
      <g>
       <use xlink:href="#m57dce79ee9" x="57.17" y="298.110385" style="stroke: #000000; stroke-width: 0.8"/>
      </g>
     </g>
     <g id="text_10">
      <!-- 400 -->
      <g transform="translate(31.0825 301.909604) scale(0.1 -0.1)">
       <defs>
        <path id="DejaVuSans-34" d="M 2419 4116 
L 825 1625 
L 2419 1625 
L 2419 4116 
z
M 2253 4666 
L 3047 4666 
L 3047 1625 
L 3713 1625 
L 3713 1100 
L 3047 1100 
L 3047 0 
L 2419 0 
L 2419 1100 
L 313 1100 
L 313 1709 
L 2253 4666 
z
" transform="scale(0.015625)"/>
       </defs>
       <use xlink:href="#DejaVuSans-34"/>
       <use xlink:href="#DejaVuSans-30" transform="translate(63.623047 0)"/>
       <use xlink:href="#DejaVuSans-30" transform="translate(127.246094 0)"/>
      </g>
     </g>
    </g>
    <g id="ytick_4">
     <g id="line2d_19">
      <path d="M 57.17 258.633589 
L 551.29 258.633589 
" clip-path="url(#p7cb9dd4b7f)" style="fill: none; stroke: #b0b0b0; stroke-width: 0.8; stroke-linecap: square"/>
     </g>
     <g id="line2d_20">
      <g>
       <use xlink:href="#m57dce79ee9" x="57.17" y="258.633589" style="stroke: #000000; stroke-width: 0.8"/>
      </g>
     </g>
     <g id="text_11">
      <!-- 600 -->
      <g transform="translate(31.0825 262.432808) scale(0.1 -0.1)">
       <defs>
        <path id="DejaVuSans-36" d="M 2113 2584 
Q 1688 2584 1439 2293 
Q 1191 2003 1191 1497 
Q 1191 994 1439 701 
Q 1688 409 2113 409 
Q 2538 409 2786 701 
Q 3034 994 3034 1497 
Q 3034 2003 2786 2293 
Q 2538 2584 2113 2584 
z
M 3366 4563 
L 3366 3988 
Q 3128 4100 2886 4159 
Q 2644 4219 2406 4219 
Q 1781 4219 1451 3797 
Q 1122 3375 1075 2522 
Q 1259 2794 1537 2939 
Q 1816 3084 2150 3084 
Q 2853 3084 3261 2657 
Q 3669 2231 3669 1497 
Q 3669 778 3244 343 
Q 2819 -91 2113 -91 
Q 1303 -91 875 529 
Q 447 1150 447 2328 
Q 447 3434 972 4092 
Q 1497 4750 2381 4750 
Q 2619 4750 2861 4703 
Q 3103 4656 3366 4563 
z
" transform="scale(0.015625)"/>
       </defs>
       <use xlink:href="#DejaVuSans-36"/>
       <use xlink:href="#DejaVuSans-30" transform="translate(63.623047 0)"/>
       <use xlink:href="#DejaVuSans-30" transform="translate(127.246094 0)"/>
      </g>
     </g>
    </g>
    <g id="ytick_5">
     <g id="line2d_21">
      <path d="M 57.17 219.156793 
L 551.29 219.156793 
" clip-path="url(#p7cb9dd4b7f)" style="fill: none; stroke: #b0b0b0; stroke-width: 0.8; stroke-linecap: square"/>
     </g>
     <g id="line2d_22">
      <g>
       <use xlink:href="#m57dce79ee9" x="57.17" y="219.156793" style="stroke: #000000; stroke-width: 0.8"/>
      </g>
     </g>
     <g id="text_12">
      <!-- 800 -->
      <g transform="translate(31.0825 222.956011) scale(0.1 -0.1)">
       <defs>
        <path id="DejaVuSans-38" d="M 2034 2216 
Q 1584 2216 1326 1975 
Q 1069 1734 1069 1313 
Q 1069 891 1326 650 
Q 1584 409 2034 409 
Q 2484 409 2743 651 
Q 3003 894 3003 1313 
Q 3003 1734 2745 1975 
Q 2488 2216 2034 2216 
z
M 1403 2484 
Q 997 2584 770 2862 
Q 544 3141 544 3541 
Q 544 4100 942 4425 
Q 1341 4750 2034 4750 
Q 2731 4750 3128 4425 
Q 3525 4100 3525 3541 
Q 3525 3141 3298 2862 
Q 3072 2584 2669 2484 
Q 3125 2378 3379 2068 
Q 3634 1759 3634 1313 
Q 3634 634 3220 271 
Q 2806 -91 2034 -91 
Q 1263 -91 848 271 
Q 434 634 434 1313 
Q 434 1759 690 2068 
Q 947 2378 1403 2484 
z
M 1172 3481 
Q 1172 3119 1398 2916 
Q 1625 2713 2034 2713 
Q 2441 2713 2670 2916 
Q 2900 3119 2900 3481 
Q 2900 3844 2670 4047 
Q 2441 4250 2034 4250 
Q 1625 4250 1398 4047 
Q 1172 3844 1172 3481 
z
" transform="scale(0.015625)"/>
       </defs>
       <use xlink:href="#DejaVuSans-38"/>
       <use xlink:href="#DejaVuSans-30" transform="translate(63.623047 0)"/>
       <use xlink:href="#DejaVuSans-30" transform="translate(127.246094 0)"/>
      </g>
     </g>
    </g>
    <g id="ytick_6">
     <g id="line2d_23">
      <path d="M 57.17 179.679997 
L 551.29 179.679997 
" clip-path="url(#p7cb9dd4b7f)" style="fill: none; stroke: #b0b0b0; stroke-width: 0.8; stroke-linecap: square"/>
     </g>
     <g id="line2d_24">
      <g>
       <use xlink:href="#m57dce79ee9" x="57.17" y="179.679997" style="stroke: #000000; stroke-width: 0.8"/>
      </g>
     </g>
     <g id="text_13">
      <!-- 1000 -->
      <g transform="translate(24.72 183.479215) scale(0.1 -0.1)">
       <use xlink:href="#DejaVuSans-31"/>
       <use xlink:href="#DejaVuSans-30" transform="translate(63.623047 0)"/>
       <use xlink:href="#DejaVuSans-30" transform="translate(127.246094 0)"/>
       <use xlink:href="#DejaVuSans-30" transform="translate(190.869141 0)"/>
      </g>
     </g>
    </g>
    <g id="ytick_7">
     <g id="line2d_25">
      <path d="M 57.17 140.203201 
L 551.29 140.203201 
" clip-path="url(#p7cb9dd4b7f)" style="fill: none; stroke: #b0b0b0; stroke-width: 0.8; stroke-linecap: square"/>
     </g>
     <g id="line2d_26">
      <g>
       <use xlink:href="#m57dce79ee9" x="57.17" y="140.203201" style="stroke: #000000; stroke-width: 0.8"/>
      </g>
     </g>
     <g id="text_14">
      <!-- 1200 -->
      <g transform="translate(24.72 144.002419) scale(0.1 -0.1)">
       <use xlink:href="#DejaVuSans-31"/>
       <use xlink:href="#DejaVuSans-32" transform="translate(63.623047 0)"/>
       <use xlink:href="#DejaVuSans-30" transform="translate(127.246094 0)"/>
       <use xlink:href="#DejaVuSans-30" transform="translate(190.869141 0)"/>
      </g>
     </g>
    </g>
    <g id="ytick_8">
     <g id="line2d_27">
      <path d="M 57.17 100.726404 
L 551.29 100.726404 
" clip-path="url(#p7cb9dd4b7f)" style="fill: none; stroke: #b0b0b0; stroke-width: 0.8; stroke-linecap: square"/>
     </g>
     <g id="line2d_28">
      <g>
       <use xlink:href="#m57dce79ee9" x="57.17" y="100.726404" style="stroke: #000000; stroke-width: 0.8"/>
      </g>
     </g>
     <g id="text_15">
      <!-- 1400 -->
      <g transform="translate(24.72 104.525623) scale(0.1 -0.1)">
       <use xlink:href="#DejaVuSans-31"/>
       <use xlink:href="#DejaVuSans-34" transform="translate(63.623047 0)"/>
       <use xlink:href="#DejaVuSans-30" transform="translate(127.246094 0)"/>
       <use xlink:href="#DejaVuSans-30" transform="translate(190.869141 0)"/>
      </g>
     </g>
    </g>
    <g id="text_16">
     <!-- Frobenius norm -->
     <g transform="translate(18.640312 265.213125) rotate(-90) scale(0.1 -0.1)">
      <defs>
       <path id="DejaVuSans-46" d="M 628 4666 
L 3309 4666 
L 3309 4134 
L 1259 4134 
L 1259 2759 
L 3109 2759 
L 3109 2228 
L 1259 2228 
L 1259 0 
L 628 0 
L 628 4666 
z
" transform="scale(0.015625)"/>
       <path id="DejaVuSans-72" d="M 2631 2963 
Q 2534 3019 2420 3045 
Q 2306 3072 2169 3072 
Q 1681 3072 1420 2755 
Q 1159 2438 1159 1844 
L 1159 0 
L 581 0 
L 581 3500 
L 1159 3500 
L 1159 2956 
Q 1341 3275 1631 3429 
Q 1922 3584 2338 3584 
Q 2397 3584 2469 3576 
Q 2541 3569 2628 3553 
L 2631 2963 
z
" transform="scale(0.015625)"/>
       <path id="DejaVuSans-62" d="M 3116 1747 
Q 3116 2381 2855 2742 
Q 2594 3103 2138 3103 
Q 1681 3103 1420 2742 
Q 1159 2381 1159 1747 
Q 1159 1113 1420 752 
Q 1681 391 2138 391 
Q 2594 391 2855 752 
Q 3116 1113 3116 1747 
z
M 1159 2969 
Q 1341 3281 1617 3432 
Q 1894 3584 2278 3584 
Q 2916 3584 3314 3078 
Q 3713 2572 3713 1747 
Q 3713 922 3314 415 
Q 2916 -91 2278 -91 
Q 1894 -91 1617 61 
Q 1341 213 1159 525 
L 1159 0 
L 581 0 
L 581 4863 
L 1159 4863 
L 1159 2969 
z
" transform="scale(0.015625)"/>
       <path id="DejaVuSans-6e" d="M 3513 2113 
L 3513 0 
L 2938 0 
L 2938 2094 
Q 2938 2591 2744 2837 
Q 2550 3084 2163 3084 
Q 1697 3084 1428 2787 
Q 1159 2491 1159 1978 
L 1159 0 
L 581 0 
L 581 3500 
L 1159 3500 
L 1159 2956 
Q 1366 3272 1645 3428 
Q 1925 3584 2291 3584 
Q 2894 3584 3203 3211 
Q 3513 2838 3513 2113 
z
" transform="scale(0.015625)"/>
       <path id="DejaVuSans-75" d="M 544 1381 
L 544 3500 
L 1119 3500 
L 1119 1403 
Q 1119 906 1312 657 
Q 1506 409 1894 409 
Q 2359 409 2629 706 
Q 2900 1003 2900 1516 
L 2900 3500 
L 3475 3500 
L 3475 0 
L 2900 0 
L 2900 538 
Q 2691 219 2414 64 
Q 2138 -91 1772 -91 
Q 1169 -91 856 284 
Q 544 659 544 1381 
z
M 1991 3584 
L 1991 3584 
z
" transform="scale(0.015625)"/>
       <path id="DejaVuSans-20" transform="scale(0.015625)"/>
       <path id="DejaVuSans-6d" d="M 3328 2828 
Q 3544 3216 3844 3400 
Q 4144 3584 4550 3584 
Q 5097 3584 5394 3201 
Q 5691 2819 5691 2113 
L 5691 0 
L 5113 0 
L 5113 2094 
Q 5113 2597 4934 2840 
Q 4756 3084 4391 3084 
Q 3944 3084 3684 2787 
Q 3425 2491 3425 1978 
L 3425 0 
L 2847 0 
L 2847 2094 
Q 2847 2600 2669 2842 
Q 2491 3084 2119 3084 
Q 1678 3084 1418 2786 
Q 1159 2488 1159 1978 
L 1159 0 
L 581 0 
L 581 3500 
L 1159 3500 
L 1159 2956 
Q 1356 3278 1631 3431 
Q 1906 3584 2284 3584 
Q 2666 3584 2933 3390 
Q 3200 3197 3328 2828 
z
" transform="scale(0.015625)"/>
      </defs>
      <use xlink:href="#DejaVuSans-46"/>
      <use xlink:href="#DejaVuSans-72" transform="translate(50.269531 0)"/>
      <use xlink:href="#DejaVuSans-6f" transform="translate(89.132812 0)"/>
      <use xlink:href="#DejaVuSans-62" transform="translate(150.314453 0)"/>
      <use xlink:href="#DejaVuSans-65" transform="translate(213.791016 0)"/>
      <use xlink:href="#DejaVuSans-6e" transform="translate(275.314453 0)"/>
      <use xlink:href="#DejaVuSans-69" transform="translate(338.693359 0)"/>
      <use xlink:href="#DejaVuSans-75" transform="translate(366.476562 0)"/>
      <use xlink:href="#DejaVuSans-73" transform="translate(429.855469 0)"/>
      <use xlink:href="#DejaVuSans-20" transform="translate(481.955078 0)"/>
      <use xlink:href="#DejaVuSans-6e" transform="translate(513.742188 0)"/>
      <use xlink:href="#DejaVuSans-6f" transform="translate(577.121094 0)"/>
      <use xlink:href="#DejaVuSans-72" transform="translate(638.302734 0)"/>
      <use xlink:href="#DejaVuSans-6d" transform="translate(677.666016 0)"/>
     </g>
    </g>
   </g>
   <g id="line2d_29">
    <path d="M 79.63 374.537462 
L 169.47 333.244733 
L 259.31 291.478283 
L 349.15 252.94893 
L 438.99 208.10329 
L 528.83 170.758241 
" clip-path="url(#p7cb9dd4b7f)" style="fill: none; stroke: #b7d4ea; stroke-width: 1.5; stroke-linecap: square"/>
    <defs>
     <path id="m53ac80aeeb" d="M 0 3 
C 0.795609 3 1.55874 2.683901 2.12132 2.12132 
C 2.683901 1.55874 3 0.795609 3 0 
C 3 -0.795609 2.683901 -1.55874 2.12132 -2.12132 
C 1.55874 -2.683901 0.795609 -3 0 -3 
C -0.795609 -3 -1.55874 -2.683901 -2.12132 -2.12132 
C -2.683901 -1.55874 -3 -0.795609 -3 0 
C -3 0.795609 -2.683901 1.55874 -2.12132 2.12132 
C -1.55874 2.683901 -0.795609 3 0 3 
z
" style="stroke: #b7d4ea"/>
    </defs>
    <g clip-path="url(#p7cb9dd4b7f)">
     <use xlink:href="#m53ac80aeeb" x="79.63" y="374.537462" style="fill: #b7d4ea; stroke: #b7d4ea"/>
     <use xlink:href="#m53ac80aeeb" x="169.47" y="333.244733" style="fill: #b7d4ea; stroke: #b7d4ea"/>
     <use xlink:href="#m53ac80aeeb" x="259.31" y="291.478283" style="fill: #b7d4ea; stroke: #b7d4ea"/>
     <use xlink:href="#m53ac80aeeb" x="349.15" y="252.94893" style="fill: #b7d4ea; stroke: #b7d4ea"/>
     <use xlink:href="#m53ac80aeeb" x="438.99" y="208.10329" style="fill: #b7d4ea; stroke: #b7d4ea"/>
     <use xlink:href="#m53ac80aeeb" x="528.83" y="170.758241" style="fill: #b7d4ea; stroke: #b7d4ea"/>
    </g>
   </g>
   <g id="line2d_30">
    <path d="M 79.63 374.537462 
L 169.47 333.244733 
L 259.31 291.63619 
L 349.15 251.369858 
L 438.99 206.682125 
L 528.83 169.968705 
" clip-path="url(#p7cb9dd4b7f)" style="fill: none; stroke: #aaa8d0; stroke-width: 1.5; stroke-linecap: square"/>
    <defs>
     <path id="m68185a307c" d="M 0 -3 
L -3 3 
L 3 3 
z
" style="stroke: #aaa8d0; stroke-linejoin: miter"/>
    </defs>
    <g clip-path="url(#p7cb9dd4b7f)">
     <use xlink:href="#m68185a307c" x="79.63" y="374.537462" style="fill: #aaa8d0; stroke: #aaa8d0; stroke-linejoin: miter"/>
     <use xlink:href="#m68185a307c" x="169.47" y="333.244733" style="fill: #aaa8d0; stroke: #aaa8d0; stroke-linejoin: miter"/>
     <use xlink:href="#m68185a307c" x="259.31" y="291.63619" style="fill: #aaa8d0; stroke: #aaa8d0; stroke-linejoin: miter"/>
     <use xlink:href="#m68185a307c" x="349.15" y="251.369858" style="fill: #aaa8d0; stroke: #aaa8d0; stroke-linejoin: miter"/>
     <use xlink:href="#m68185a307c" x="438.99" y="206.682125" style="fill: #aaa8d0; stroke: #aaa8d0; stroke-linejoin: miter"/>
     <use xlink:href="#m68185a307c" x="528.83" y="169.968705" style="fill: #aaa8d0; stroke: #aaa8d0; stroke-linejoin: miter"/>
    </g>
   </g>
   <g id="line2d_31">
    <path d="M 79.63 374.853277 
L 169.47 333.718455 
L 259.31 291.478283 
L 349.15 251.685673 
L 438.99 206.524218 
L 528.83 169.021262 
" clip-path="url(#p7cb9dd4b7f)" style="fill: none; stroke: #6950a3; stroke-width: 1.5; stroke-linecap: square"/>
    <defs>
     <path id="m9dde0f9692" d="M -3 3 
L 3 -3 
M -3 -3 
L 3 3 
" style="stroke: #6950a3"/>
    </defs>
    <g clip-path="url(#p7cb9dd4b7f)">
     <use xlink:href="#m9dde0f9692" x="79.63" y="374.853277" style="fill: #6950a3; stroke: #6950a3"/>
     <use xlink:href="#m9dde0f9692" x="169.47" y="333.718455" style="fill: #6950a3; stroke: #6950a3"/>
     <use xlink:href="#m9dde0f9692" x="259.31" y="291.478283" style="fill: #6950a3; stroke: #6950a3"/>
     <use xlink:href="#m9dde0f9692" x="349.15" y="251.685673" style="fill: #6950a3; stroke: #6950a3"/>
     <use xlink:href="#m9dde0f9692" x="438.99" y="206.524218" style="fill: #6950a3; stroke: #6950a3"/>
     <use xlink:href="#m9dde0f9692" x="528.83" y="169.021262" style="fill: #6950a3; stroke: #6950a3"/>
    </g>
   </g>
   <g id="line2d_32">
    <path d="M 79.63 374.853277 
L 169.47 333.718455 
L 259.31 291.478283 
L 349.15 251.685673 
L 438.99 206.524218 
L 528.83 169.021262 
" clip-path="url(#p7cb9dd4b7f)" style="fill: none; stroke: #4f1f8b; stroke-width: 1.5; stroke-linecap: square"/>
    <defs>
     <path id="mdd29b90b9d" d="M 0 4.242641 
L 4.242641 0 
L 0 -4.242641 
L -4.242641 0 
z
" style="stroke: #4f1f8b; stroke-linejoin: miter"/>
    </defs>
    <g clip-path="url(#p7cb9dd4b7f)">
     <use xlink:href="#mdd29b90b9d" x="79.63" y="374.853277" style="fill: #4f1f8b; stroke: #4f1f8b; stroke-linejoin: miter"/>
     <use xlink:href="#mdd29b90b9d" x="169.47" y="333.718455" style="fill: #4f1f8b; stroke: #4f1f8b; stroke-linejoin: miter"/>
     <use xlink:href="#mdd29b90b9d" x="259.31" y="291.478283" style="fill: #4f1f8b; stroke: #4f1f8b; stroke-linejoin: miter"/>
     <use xlink:href="#mdd29b90b9d" x="349.15" y="251.685673" style="fill: #4f1f8b; stroke: #4f1f8b; stroke-linejoin: miter"/>
     <use xlink:href="#mdd29b90b9d" x="438.99" y="206.524218" style="fill: #4f1f8b; stroke: #4f1f8b; stroke-linejoin: miter"/>
     <use xlink:href="#mdd29b90b9d" x="528.83" y="169.021262" style="fill: #4f1f8b; stroke: #4f1f8b; stroke-linejoin: miter"/>
    </g>
   </g>
   <g id="line2d_33">
    <path d="M 79.63 375.169091 
L 169.47 332.771012 
L 259.31 292.267819 
L 349.15 253.106837 
L 438.99 207.787475 
L 528.83 170.284519 
" clip-path="url(#p7cb9dd4b7f)" style="fill: none; stroke: #dd8c59; stroke-width: 1.5; stroke-linecap: square"/>
    <defs>
     <path id="mf1764572bc" d="M 0 3 
C 0.795609 3 1.55874 2.683901 2.12132 2.12132 
C 2.683901 1.55874 3 0.795609 3 0 
C 3 -0.795609 2.683901 -1.55874 2.12132 -2.12132 
C 1.55874 -2.683901 0.795609 -3 0 -3 
C -0.795609 -3 -1.55874 -2.683901 -2.12132 -2.12132 
C -2.683901 -1.55874 -3 -0.795609 -3 0 
C -3 0.795609 -2.683901 1.55874 -2.12132 2.12132 
C -1.55874 2.683901 -0.795609 3 0 3 
z
" style="stroke: #dd8c59"/>
    </defs>
    <g clip-path="url(#p7cb9dd4b7f)">
     <use xlink:href="#mf1764572bc" x="79.63" y="375.169091" style="fill: #dd8c59; stroke: #dd8c59"/>
     <use xlink:href="#mf1764572bc" x="169.47" y="332.771012" style="fill: #dd8c59; stroke: #dd8c59"/>
     <use xlink:href="#mf1764572bc" x="259.31" y="292.267819" style="fill: #dd8c59; stroke: #dd8c59"/>
     <use xlink:href="#mf1764572bc" x="349.15" y="253.106837" style="fill: #dd8c59; stroke: #dd8c59"/>
     <use xlink:href="#mf1764572bc" x="438.99" y="207.787475" style="fill: #dd8c59; stroke: #dd8c59"/>
     <use xlink:href="#mf1764572bc" x="528.83" y="170.284519" style="fill: #dd8c59; stroke: #dd8c59"/>
    </g>
   </g>
   <g id="line2d_34">
    <path d="M 79.63 375.169091 
L 169.47 332.928919 
L 259.31 291.794098 
L 349.15 253.106837 
L 438.99 207.629568 
L 528.83 170.442426 
" clip-path="url(#p7cb9dd4b7f)" style="fill: none; stroke: #7e5033; stroke-width: 1.5; stroke-linecap: square"/>
    <defs>
     <path id="m68e1841619" d="M 0 -3 
L -3 3 
L 3 3 
z
" style="stroke: #7e5033; stroke-linejoin: miter"/>
    </defs>
    <g clip-path="url(#p7cb9dd4b7f)">
     <use xlink:href="#m68e1841619" x="79.63" y="375.169091" style="fill: #7e5033; stroke: #7e5033; stroke-linejoin: miter"/>
     <use xlink:href="#m68e1841619" x="169.47" y="332.928919" style="fill: #7e5033; stroke: #7e5033; stroke-linejoin: miter"/>
     <use xlink:href="#m68e1841619" x="259.31" y="291.794098" style="fill: #7e5033; stroke: #7e5033; stroke-linejoin: miter"/>
     <use xlink:href="#m68e1841619" x="349.15" y="253.106837" style="fill: #7e5033; stroke: #7e5033; stroke-linejoin: miter"/>
     <use xlink:href="#m68e1841619" x="438.99" y="207.629568" style="fill: #7e5033; stroke: #7e5033; stroke-linejoin: miter"/>
     <use xlink:href="#m68e1841619" x="528.83" y="170.442426" style="fill: #7e5033; stroke: #7e5033; stroke-linejoin: miter"/>
    </g>
   </g>
   <g id="line2d_35">
    <path d="M 79.63 375.169091 
L 169.47 332.928919 
L 259.31 291.794098 
L 349.15 253.106837 
L 438.99 207.629568 
L 528.83 170.442426 
" clip-path="url(#p7cb9dd4b7f)" style="fill: none; stroke: #1f140c; stroke-width: 1.5; stroke-linecap: square"/>
    <defs>
     <path id="m6fe7d63a7a" d="M -3 3 
L 3 3 
L 3 -3 
L -3 -3 
z
" style="stroke: #1f140c; stroke-linejoin: miter"/>
    </defs>
    <g clip-path="url(#p7cb9dd4b7f)">
     <use xlink:href="#m6fe7d63a7a" x="79.63" y="375.169091" style="fill: #1f140c; stroke: #1f140c; stroke-linejoin: miter"/>
     <use xlink:href="#m6fe7d63a7a" x="169.47" y="332.928919" style="fill: #1f140c; stroke: #1f140c; stroke-linejoin: miter"/>
     <use xlink:href="#m6fe7d63a7a" x="259.31" y="291.794098" style="fill: #1f140c; stroke: #1f140c; stroke-linejoin: miter"/>
     <use xlink:href="#m6fe7d63a7a" x="349.15" y="253.106837" style="fill: #1f140c; stroke: #1f140c; stroke-linejoin: miter"/>
     <use xlink:href="#m6fe7d63a7a" x="438.99" y="207.629568" style="fill: #1f140c; stroke: #1f140c; stroke-linejoin: miter"/>
     <use xlink:href="#m6fe7d63a7a" x="528.83" y="170.442426" style="fill: #1f140c; stroke: #1f140c; stroke-linejoin: miter"/>
    </g>
   </g>
   <g id="line2d_36">
    <path d="M 79.63 374.853277 
L 169.47 138.860989 
L 259.31 105.147806 
L 349.15 106.411063 
L 438.99 109.885021 
L 528.83 77.750909 
" clip-path="url(#p7cb9dd4b7f)" style="fill: none; stroke: #ff7f00; stroke-width: 1.5; stroke-linecap: square"/>
   </g>
   <g id="patch_3">
    <path d="M 57.17 390.04 
L 57.17 62.88 
" style="fill: none; stroke: #000000; stroke-width: 0.8; stroke-linejoin: miter; stroke-linecap: square"/>
   </g>
   <g id="patch_4">
    <path d="M 551.29 390.04 
L 551.29 62.88 
" style="fill: none; stroke: #000000; stroke-width: 0.8; stroke-linejoin: miter; stroke-linecap: square"/>
   </g>
   <g id="patch_5">
    <path d="M 57.17 390.04 
L 551.29 390.04 
" style="fill: none; stroke: #000000; stroke-width: 0.8; stroke-linejoin: miter; stroke-linecap: square"/>
   </g>
   <g id="patch_6">
    <path d="M 57.17 62.88 
L 551.29 62.88 
" style="fill: none; stroke: #000000; stroke-width: 0.8; stroke-linejoin: miter; stroke-linecap: square"/>
   </g>
   <g id="text_17">
    <!-- $\mu$: 2.5, graph: bio-celegans -->
    <g transform="translate(223.53 56.88) scale(0.12 -0.12)">
     <defs>
      <path id="DejaVuSans-Oblique-3bc" d="M -84 -1331 
L 856 3500 
L 1434 3500 
L 1009 1322 
Q 997 1256 987 1175 
Q 978 1094 978 1013 
Q 978 722 1161 565 
Q 1344 409 1684 409 
Q 2147 409 2431 671 
Q 2716 934 2816 1459 
L 3213 3500 
L 3788 3500 
L 3266 809 
Q 3253 750 3248 706 
Q 3244 663 3244 628 
Q 3244 531 3283 486 
Q 3322 441 3406 441 
Q 3438 441 3492 456 
Q 3547 472 3647 513 
L 3559 50 
Q 3422 -19 3297 -55 
Q 3172 -91 3053 -91 
Q 2847 -91 2730 40 
Q 2613 172 2613 403 
Q 2438 153 2195 31 
Q 1953 -91 1625 -91 
Q 1334 -91 1117 43 
Q 900 178 831 397 
L 494 -1331 
L -84 -1331 
z
" transform="scale(0.015625)"/>
      <path id="DejaVuSans-3a" d="M 750 794 
L 1409 794 
L 1409 0 
L 750 0 
L 750 794 
z
M 750 3309 
L 1409 3309 
L 1409 2516 
L 750 2516 
L 750 3309 
z
" transform="scale(0.015625)"/>
      <path id="DejaVuSans-2c" d="M 750 794 
L 1409 794 
L 1409 256 
L 897 -744 
L 494 -744 
L 750 256 
L 750 794 
z
" transform="scale(0.015625)"/>
      <path id="DejaVuSans-67" d="M 2906 1791 
Q 2906 2416 2648 2759 
Q 2391 3103 1925 3103 
Q 1463 3103 1205 2759 
Q 947 2416 947 1791 
Q 947 1169 1205 825 
Q 1463 481 1925 481 
Q 2391 481 2648 825 
Q 2906 1169 2906 1791 
z
M 3481 434 
Q 3481 -459 3084 -895 
Q 2688 -1331 1869 -1331 
Q 1566 -1331 1297 -1286 
Q 1028 -1241 775 -1147 
L 775 -588 
Q 1028 -725 1275 -790 
Q 1522 -856 1778 -856 
Q 2344 -856 2625 -561 
Q 2906 -266 2906 331 
L 2906 616 
Q 2728 306 2450 153 
Q 2172 0 1784 0 
Q 1141 0 747 490 
Q 353 981 353 1791 
Q 353 2603 747 3093 
Q 1141 3584 1784 3584 
Q 2172 3584 2450 3431 
Q 2728 3278 2906 2969 
L 2906 3500 
L 3481 3500 
L 3481 434 
z
" transform="scale(0.015625)"/>
      <path id="DejaVuSans-61" d="M 2194 1759 
Q 1497 1759 1228 1600 
Q 959 1441 959 1056 
Q 959 750 1161 570 
Q 1363 391 1709 391 
Q 2188 391 2477 730 
Q 2766 1069 2766 1631 
L 2766 1759 
L 2194 1759 
z
M 3341 1997 
L 3341 0 
L 2766 0 
L 2766 531 
Q 2569 213 2275 61 
Q 1981 -91 1556 -91 
Q 1019 -91 701 211 
Q 384 513 384 1019 
Q 384 1609 779 1909 
Q 1175 2209 1959 2209 
L 2766 2209 
L 2766 2266 
Q 2766 2663 2505 2880 
Q 2244 3097 1772 3097 
Q 1472 3097 1187 3025 
Q 903 2953 641 2809 
L 641 3341 
Q 956 3463 1253 3523 
Q 1550 3584 1831 3584 
Q 2591 3584 2966 3190 
Q 3341 2797 3341 1997 
z
" transform="scale(0.015625)"/>
      <path id="DejaVuSans-70" d="M 1159 525 
L 1159 -1331 
L 581 -1331 
L 581 3500 
L 1159 3500 
L 1159 2969 
Q 1341 3281 1617 3432 
Q 1894 3584 2278 3584 
Q 2916 3584 3314 3078 
Q 3713 2572 3713 1747 
Q 3713 922 3314 415 
Q 2916 -91 2278 -91 
Q 1894 -91 1617 61 
Q 1341 213 1159 525 
z
M 3116 1747 
Q 3116 2381 2855 2742 
Q 2594 3103 2138 3103 
Q 1681 3103 1420 2742 
Q 1159 2381 1159 1747 
Q 1159 1113 1420 752 
Q 1681 391 2138 391 
Q 2594 391 2855 752 
Q 3116 1113 3116 1747 
z
" transform="scale(0.015625)"/>
      <path id="DejaVuSans-68" d="M 3513 2113 
L 3513 0 
L 2938 0 
L 2938 2094 
Q 2938 2591 2744 2837 
Q 2550 3084 2163 3084 
Q 1697 3084 1428 2787 
Q 1159 2491 1159 1978 
L 1159 0 
L 581 0 
L 581 4863 
L 1159 4863 
L 1159 2956 
Q 1366 3272 1645 3428 
Q 1925 3584 2291 3584 
Q 2894 3584 3203 3211 
Q 3513 2838 3513 2113 
z
" transform="scale(0.015625)"/>
      <path id="DejaVuSans-63" d="M 3122 3366 
L 3122 2828 
Q 2878 2963 2633 3030 
Q 2388 3097 2138 3097 
Q 1578 3097 1268 2742 
Q 959 2388 959 1747 
Q 959 1106 1268 751 
Q 1578 397 2138 397 
Q 2388 397 2633 464 
Q 2878 531 3122 666 
L 3122 134 
Q 2881 22 2623 -34 
Q 2366 -91 2075 -91 
Q 1284 -91 818 406 
Q 353 903 353 1747 
Q 353 2603 823 3093 
Q 1294 3584 2113 3584 
Q 2378 3584 2631 3529 
Q 2884 3475 3122 3366 
z
" transform="scale(0.015625)"/>
     </defs>
     <use xlink:href="#DejaVuSans-Oblique-3bc" transform="translate(0 0.015625)"/>
     <use xlink:href="#DejaVuSans-3a" transform="translate(63.623047 0.015625)"/>
     <use xlink:href="#DejaVuSans-20" transform="translate(97.314453 0.015625)"/>
     <use xlink:href="#DejaVuSans-32" transform="translate(129.101562 0.015625)"/>
     <use xlink:href="#DejaVuSans-2e" transform="translate(192.724609 0.015625)"/>
     <use xlink:href="#DejaVuSans-35" transform="translate(224.511719 0.015625)"/>
     <use xlink:href="#DejaVuSans-2c" transform="translate(288.134766 0.015625)"/>
     <use xlink:href="#DejaVuSans-20" transform="translate(319.921875 0.015625)"/>
     <use xlink:href="#DejaVuSans-67" transform="translate(351.708984 0.015625)"/>
     <use xlink:href="#DejaVuSans-72" transform="translate(415.185547 0.015625)"/>
     <use xlink:href="#DejaVuSans-61" transform="translate(456.298828 0.015625)"/>
     <use xlink:href="#DejaVuSans-70" transform="translate(517.578125 0.015625)"/>
     <use xlink:href="#DejaVuSans-68" transform="translate(581.054688 0.015625)"/>
     <use xlink:href="#DejaVuSans-3a" transform="translate(644.433594 0.015625)"/>
     <use xlink:href="#DejaVuSans-20" transform="translate(678.125 0.015625)"/>
     <use xlink:href="#DejaVuSans-62" transform="translate(709.912109 0.015625)"/>
     <use xlink:href="#DejaVuSans-69" transform="translate(773.388672 0.015625)"/>
     <use xlink:href="#DejaVuSans-6f" transform="translate(801.171875 0.015625)"/>
     <use xlink:href="#DejaVuSans-2d" transform="translate(862.353516 0.015625)"/>
     <use xlink:href="#DejaVuSans-63" transform="translate(898.4375 0.015625)"/>
     <use xlink:href="#DejaVuSans-65" transform="translate(953.417969 0.015625)"/>
     <use xlink:href="#DejaVuSans-6c" transform="translate(1014.941406 0.015625)"/>
     <use xlink:href="#DejaVuSans-65" transform="translate(1042.724609 0.015625)"/>
     <use xlink:href="#DejaVuSans-67" transform="translate(1104.248047 0.015625)"/>
     <use xlink:href="#DejaVuSans-61" transform="translate(1167.724609 0.015625)"/>
     <use xlink:href="#DejaVuSans-6e" transform="translate(1229.003906 0.015625)"/>
     <use xlink:href="#DejaVuSans-73" transform="translate(1292.382812 0.015625)"/>
    </g>
   </g>
   <g id="legend_1">
    <g id="patch_7">
     <path d="M 582.996 225.37875 
L 703.73975 225.37875 
Q 705.73975 225.37875 705.73975 223.37875 
L 705.73975 69.88 
Q 705.73975 67.88 703.73975 67.88 
L 582.996 67.88 
Q 580.996 67.88 580.996 69.88 
L 580.996 223.37875 
Q 580.996 225.37875 582.996 225.37875 
z
" style="fill: #ffffff; opacity: 0.8; stroke: #cccccc; stroke-linejoin: miter"/>
    </g>
    <g id="text_18">
     <!-- Features -->
     <g transform="translate(621.873344 79.478437) scale(0.1 -0.1)">
      <defs>
       <path id="DejaVuSans-74" d="M 1172 4494 
L 1172 3500 
L 2356 3500 
L 2356 3053 
L 1172 3053 
L 1172 1153 
Q 1172 725 1289 603 
Q 1406 481 1766 481 
L 2356 481 
L 2356 0 
L 1766 0 
Q 1100 0 847 248 
Q 594 497 594 1153 
L 594 3053 
L 172 3053 
L 172 3500 
L 594 3500 
L 594 4494 
L 1172 4494 
z
" transform="scale(0.015625)"/>
      </defs>
      <use xlink:href="#DejaVuSans-46"/>
      <use xlink:href="#DejaVuSans-65" transform="translate(52.019531 0)"/>
      <use xlink:href="#DejaVuSans-61" transform="translate(113.542969 0)"/>
      <use xlink:href="#DejaVuSans-74" transform="translate(174.822266 0)"/>
      <use xlink:href="#DejaVuSans-75" transform="translate(214.03125 0)"/>
      <use xlink:href="#DejaVuSans-72" transform="translate(277.410156 0)"/>
      <use xlink:href="#DejaVuSans-65" transform="translate(316.273438 0)"/>
      <use xlink:href="#DejaVuSans-73" transform="translate(377.796875 0)"/>
     </g>
    </g>
    <g id="line2d_37">
     <path d="M 584.996 90.656563 
L 594.996 90.656563 
L 604.996 90.656563 
" style="fill: none; stroke: #b7d4ea; stroke-width: 1.5; stroke-linecap: square"/>
     <g>
      <use xlink:href="#m53ac80aeeb" x="594.996" y="90.656563" style="fill: #b7d4ea; stroke: #b7d4ea"/>
     </g>
    </g>
    <g id="text_19">
     <!-- degree -->
     <g transform="translate(612.996 94.156563) scale(0.1 -0.1)">
      <defs>
       <path id="DejaVuSans-64" d="M 2906 2969 
L 2906 4863 
L 3481 4863 
L 3481 0 
L 2906 0 
L 2906 525 
Q 2725 213 2448 61 
Q 2172 -91 1784 -91 
Q 1150 -91 751 415 
Q 353 922 353 1747 
Q 353 2572 751 3078 
Q 1150 3584 1784 3584 
Q 2172 3584 2448 3432 
Q 2725 3281 2906 2969 
z
M 947 1747 
Q 947 1113 1208 752 
Q 1469 391 1925 391 
Q 2381 391 2643 752 
Q 2906 1113 2906 1747 
Q 2906 2381 2643 2742 
Q 2381 3103 1925 3103 
Q 1469 3103 1208 2742 
Q 947 2381 947 1747 
z
" transform="scale(0.015625)"/>
      </defs>
      <use xlink:href="#DejaVuSans-64"/>
      <use xlink:href="#DejaVuSans-65" transform="translate(63.476562 0)"/>
      <use xlink:href="#DejaVuSans-67" transform="translate(125 0)"/>
      <use xlink:href="#DejaVuSans-72" transform="translate(188.476562 0)"/>
      <use xlink:href="#DejaVuSans-65" transform="translate(227.339844 0)"/>
      <use xlink:href="#DejaVuSans-65" transform="translate(288.863281 0)"/>
     </g>
    </g>
    <g id="line2d_38">
     <path d="M 584.996 105.334688 
L 594.996 105.334688 
L 604.996 105.334688 
" style="fill: none; stroke: #aaa8d0; stroke-width: 1.5; stroke-linecap: square"/>
     <g>
      <use xlink:href="#m68185a307c" x="594.996" y="105.334688" style="fill: #aaa8d0; stroke: #aaa8d0; stroke-linejoin: miter"/>
     </g>
    </g>
    <g id="text_20">
     <!-- degree centrality -->
     <g transform="translate(612.996 108.834688) scale(0.1 -0.1)">
      <defs>
       <path id="DejaVuSans-79" d="M 2059 -325 
Q 1816 -950 1584 -1140 
Q 1353 -1331 966 -1331 
L 506 -1331 
L 506 -850 
L 844 -850 
Q 1081 -850 1212 -737 
Q 1344 -625 1503 -206 
L 1606 56 
L 191 3500 
L 800 3500 
L 1894 763 
L 2988 3500 
L 3597 3500 
L 2059 -325 
z
" transform="scale(0.015625)"/>
      </defs>
      <use xlink:href="#DejaVuSans-64"/>
      <use xlink:href="#DejaVuSans-65" transform="translate(63.476562 0)"/>
      <use xlink:href="#DejaVuSans-67" transform="translate(125 0)"/>
      <use xlink:href="#DejaVuSans-72" transform="translate(188.476562 0)"/>
      <use xlink:href="#DejaVuSans-65" transform="translate(227.339844 0)"/>
      <use xlink:href="#DejaVuSans-65" transform="translate(288.863281 0)"/>
      <use xlink:href="#DejaVuSans-20" transform="translate(350.386719 0)"/>
      <use xlink:href="#DejaVuSans-63" transform="translate(382.173828 0)"/>
      <use xlink:href="#DejaVuSans-65" transform="translate(437.154297 0)"/>
      <use xlink:href="#DejaVuSans-6e" transform="translate(498.677734 0)"/>
      <use xlink:href="#DejaVuSans-74" transform="translate(562.056641 0)"/>
      <use xlink:href="#DejaVuSans-72" transform="translate(601.265625 0)"/>
      <use xlink:href="#DejaVuSans-61" transform="translate(642.378906 0)"/>
      <use xlink:href="#DejaVuSans-6c" transform="translate(703.658203 0)"/>
      <use xlink:href="#DejaVuSans-69" transform="translate(731.441406 0)"/>
      <use xlink:href="#DejaVuSans-74" transform="translate(759.224609 0)"/>
      <use xlink:href="#DejaVuSans-79" transform="translate(798.433594 0)"/>
     </g>
    </g>
    <g id="line2d_39">
     <path d="M 584.996 120.012812 
L 594.996 120.012812 
L 604.996 120.012812 
" style="fill: none; stroke: #6950a3; stroke-width: 1.5; stroke-linecap: square"/>
     <g>
      <use xlink:href="#m9dde0f9692" x="594.996" y="120.012812" style="fill: #6950a3; stroke: #6950a3"/>
     </g>
    </g>
    <g id="text_21">
     <!-- pagerank -->
     <g transform="translate(612.996 123.512812) scale(0.1 -0.1)">
      <defs>
       <path id="DejaVuSans-6b" d="M 581 4863 
L 1159 4863 
L 1159 1991 
L 2875 3500 
L 3609 3500 
L 1753 1863 
L 3688 0 
L 2938 0 
L 1159 1709 
L 1159 0 
L 581 0 
L 581 4863 
z
" transform="scale(0.015625)"/>
      </defs>
      <use xlink:href="#DejaVuSans-70"/>
      <use xlink:href="#DejaVuSans-61" transform="translate(63.476562 0)"/>
      <use xlink:href="#DejaVuSans-67" transform="translate(124.755859 0)"/>
      <use xlink:href="#DejaVuSans-65" transform="translate(188.232422 0)"/>
      <use xlink:href="#DejaVuSans-72" transform="translate(249.755859 0)"/>
      <use xlink:href="#DejaVuSans-61" transform="translate(290.869141 0)"/>
      <use xlink:href="#DejaVuSans-6e" transform="translate(352.148438 0)"/>
      <use xlink:href="#DejaVuSans-6b" transform="translate(415.527344 0)"/>
     </g>
    </g>
    <g id="line2d_40">
     <path d="M 584.996 134.690938 
L 594.996 134.690938 
L 604.996 134.690938 
" style="fill: none; stroke: #4f1f8b; stroke-width: 1.5; stroke-linecap: square"/>
     <g>
      <use xlink:href="#mdd29b90b9d" x="594.996" y="134.690938" style="fill: #4f1f8b; stroke: #4f1f8b; stroke-linejoin: miter"/>
     </g>
    </g>
    <g id="text_22">
     <!-- katz centrality -->
     <g transform="translate(612.996 138.190938) scale(0.1 -0.1)">
      <defs>
       <path id="DejaVuSans-7a" d="M 353 3500 
L 3084 3500 
L 3084 2975 
L 922 459 
L 3084 459 
L 3084 0 
L 275 0 
L 275 525 
L 2438 3041 
L 353 3041 
L 353 3500 
z
" transform="scale(0.015625)"/>
      </defs>
      <use xlink:href="#DejaVuSans-6b"/>
      <use xlink:href="#DejaVuSans-61" transform="translate(56.160156 0)"/>
      <use xlink:href="#DejaVuSans-74" transform="translate(117.439453 0)"/>
      <use xlink:href="#DejaVuSans-7a" transform="translate(156.648438 0)"/>
      <use xlink:href="#DejaVuSans-20" transform="translate(209.138672 0)"/>
      <use xlink:href="#DejaVuSans-63" transform="translate(240.925781 0)"/>
      <use xlink:href="#DejaVuSans-65" transform="translate(295.90625 0)"/>
      <use xlink:href="#DejaVuSans-6e" transform="translate(357.429688 0)"/>
      <use xlink:href="#DejaVuSans-74" transform="translate(420.808594 0)"/>
      <use xlink:href="#DejaVuSans-72" transform="translate(460.017578 0)"/>
      <use xlink:href="#DejaVuSans-61" transform="translate(501.130859 0)"/>
      <use xlink:href="#DejaVuSans-6c" transform="translate(562.410156 0)"/>
      <use xlink:href="#DejaVuSans-69" transform="translate(590.193359 0)"/>
      <use xlink:href="#DejaVuSans-74" transform="translate(617.976562 0)"/>
      <use xlink:href="#DejaVuSans-79" transform="translate(657.185547 0)"/>
     </g>
    </g>
    <g id="line2d_41">
     <path d="M 584.996 156.007812 
L 594.996 156.007812 
L 604.996 156.007812 
" style="fill: none; stroke: #dd8c59; stroke-width: 1.5; stroke-linecap: square"/>
     <g>
      <use xlink:href="#mf1764572bc" x="594.996" y="156.007812" style="fill: #dd8c59; stroke: #dd8c59"/>
     </g>
    </g>
    <g id="text_23">
     <!-- degree, -->
     <g transform="translate(612.996 152.869062) scale(0.1 -0.1)">
      <use xlink:href="#DejaVuSans-64"/>
      <use xlink:href="#DejaVuSans-65" transform="translate(63.476562 0)"/>
      <use xlink:href="#DejaVuSans-67" transform="translate(125 0)"/>
      <use xlink:href="#DejaVuSans-72" transform="translate(188.476562 0)"/>
      <use xlink:href="#DejaVuSans-65" transform="translate(227.339844 0)"/>
      <use xlink:href="#DejaVuSans-65" transform="translate(288.863281 0)"/>
      <use xlink:href="#DejaVuSans-2c" transform="translate(350.386719 0)"/>
     </g>
     <!-- degree centrality -->
     <g transform="translate(612.996 164.066875) scale(0.1 -0.1)">
      <use xlink:href="#DejaVuSans-64"/>
      <use xlink:href="#DejaVuSans-65" transform="translate(63.476562 0)"/>
      <use xlink:href="#DejaVuSans-67" transform="translate(125 0)"/>
      <use xlink:href="#DejaVuSans-72" transform="translate(188.476562 0)"/>
      <use xlink:href="#DejaVuSans-65" transform="translate(227.339844 0)"/>
      <use xlink:href="#DejaVuSans-65" transform="translate(288.863281 0)"/>
      <use xlink:href="#DejaVuSans-20" transform="translate(350.386719 0)"/>
      <use xlink:href="#DejaVuSans-63" transform="translate(382.173828 0)"/>
      <use xlink:href="#DejaVuSans-65" transform="translate(437.154297 0)"/>
      <use xlink:href="#DejaVuSans-6e" transform="translate(498.677734 0)"/>
      <use xlink:href="#DejaVuSans-74" transform="translate(562.056641 0)"/>
      <use xlink:href="#DejaVuSans-72" transform="translate(601.265625 0)"/>
      <use xlink:href="#DejaVuSans-61" transform="translate(642.378906 0)"/>
      <use xlink:href="#DejaVuSans-6c" transform="translate(703.658203 0)"/>
      <use xlink:href="#DejaVuSans-69" transform="translate(731.441406 0)"/>
      <use xlink:href="#DejaVuSans-74" transform="translate(759.224609 0)"/>
      <use xlink:href="#DejaVuSans-79" transform="translate(798.433594 0)"/>
     </g>
    </g>
    <g id="line2d_42">
     <path d="M 584.996 175.245 
L 594.996 175.245 
L 604.996 175.245 
" style="fill: none; stroke: #7e5033; stroke-width: 1.5; stroke-linecap: square"/>
     <g>
      <use xlink:href="#m68e1841619" x="594.996" y="175.245" style="fill: #7e5033; stroke: #7e5033; stroke-linejoin: miter"/>
     </g>
    </g>
    <g id="text_24">
     <!-- degree, pagerank -->
     <g transform="translate(612.996 178.745) scale(0.1 -0.1)">
      <use xlink:href="#DejaVuSans-64"/>
      <use xlink:href="#DejaVuSans-65" transform="translate(63.476562 0)"/>
      <use xlink:href="#DejaVuSans-67" transform="translate(125 0)"/>
      <use xlink:href="#DejaVuSans-72" transform="translate(188.476562 0)"/>
      <use xlink:href="#DejaVuSans-65" transform="translate(227.339844 0)"/>
      <use xlink:href="#DejaVuSans-65" transform="translate(288.863281 0)"/>
      <use xlink:href="#DejaVuSans-2c" transform="translate(350.386719 0)"/>
      <use xlink:href="#DejaVuSans-20" transform="translate(382.173828 0)"/>
      <use xlink:href="#DejaVuSans-70" transform="translate(413.960938 0)"/>
      <use xlink:href="#DejaVuSans-61" transform="translate(477.4375 0)"/>
      <use xlink:href="#DejaVuSans-67" transform="translate(538.716797 0)"/>
      <use xlink:href="#DejaVuSans-65" transform="translate(602.193359 0)"/>
      <use xlink:href="#DejaVuSans-72" transform="translate(663.716797 0)"/>
      <use xlink:href="#DejaVuSans-61" transform="translate(704.830078 0)"/>
      <use xlink:href="#DejaVuSans-6e" transform="translate(766.109375 0)"/>
      <use xlink:href="#DejaVuSans-6b" transform="translate(829.488281 0)"/>
     </g>
    </g>
    <g id="line2d_43">
     <path d="M 584.996 196.561875 
L 594.996 196.561875 
L 604.996 196.561875 
" style="fill: none; stroke: #1f140c; stroke-width: 1.5; stroke-linecap: square"/>
     <g>
      <use xlink:href="#m6fe7d63a7a" x="594.996" y="196.561875" style="fill: #1f140c; stroke: #1f140c; stroke-linejoin: miter"/>
     </g>
    </g>
    <g id="text_25">
     <!-- degree, -->
     <g transform="translate(612.996 193.423125) scale(0.1 -0.1)">
      <use xlink:href="#DejaVuSans-64"/>
      <use xlink:href="#DejaVuSans-65" transform="translate(63.476562 0)"/>
      <use xlink:href="#DejaVuSans-67" transform="translate(125 0)"/>
      <use xlink:href="#DejaVuSans-72" transform="translate(188.476562 0)"/>
      <use xlink:href="#DejaVuSans-65" transform="translate(227.339844 0)"/>
      <use xlink:href="#DejaVuSans-65" transform="translate(288.863281 0)"/>
      <use xlink:href="#DejaVuSans-2c" transform="translate(350.386719 0)"/>
     </g>
     <!-- katz centrality -->
     <g transform="translate(612.996 204.620937) scale(0.1 -0.1)">
      <use xlink:href="#DejaVuSans-6b"/>
      <use xlink:href="#DejaVuSans-61" transform="translate(56.160156 0)"/>
      <use xlink:href="#DejaVuSans-74" transform="translate(117.439453 0)"/>
      <use xlink:href="#DejaVuSans-7a" transform="translate(156.648438 0)"/>
      <use xlink:href="#DejaVuSans-20" transform="translate(209.138672 0)"/>
      <use xlink:href="#DejaVuSans-63" transform="translate(240.925781 0)"/>
      <use xlink:href="#DejaVuSans-65" transform="translate(295.90625 0)"/>
      <use xlink:href="#DejaVuSans-6e" transform="translate(357.429688 0)"/>
      <use xlink:href="#DejaVuSans-74" transform="translate(420.808594 0)"/>
      <use xlink:href="#DejaVuSans-72" transform="translate(460.017578 0)"/>
      <use xlink:href="#DejaVuSans-61" transform="translate(501.130859 0)"/>
      <use xlink:href="#DejaVuSans-6c" transform="translate(562.410156 0)"/>
      <use xlink:href="#DejaVuSans-69" transform="translate(590.193359 0)"/>
      <use xlink:href="#DejaVuSans-74" transform="translate(617.976562 0)"/>
      <use xlink:href="#DejaVuSans-79" transform="translate(657.185547 0)"/>
     </g>
    </g>
    <g id="line2d_44">
     <path d="M 584.996 215.799062 
L 594.996 215.799062 
L 604.996 215.799062 
" style="fill: none; stroke: #ff7f00; stroke-width: 1.5; stroke-linecap: square"/>
    </g>
    <g id="text_26">
     <!-- FUGAL -->
     <g transform="translate(612.996 219.299062) scale(0.1 -0.1)">
      <defs>
       <path id="DejaVuSans-55" d="M 556 4666 
L 1191 4666 
L 1191 1831 
Q 1191 1081 1462 751 
Q 1734 422 2344 422 
Q 2950 422 3222 751 
Q 3494 1081 3494 1831 
L 3494 4666 
L 4128 4666 
L 4128 1753 
Q 4128 841 3676 375 
Q 3225 -91 2344 -91 
Q 1459 -91 1007 375 
Q 556 841 556 1753 
L 556 4666 
z
" transform="scale(0.015625)"/>
       <path id="DejaVuSans-47" d="M 3809 666 
L 3809 1919 
L 2778 1919 
L 2778 2438 
L 4434 2438 
L 4434 434 
Q 4069 175 3628 42 
Q 3188 -91 2688 -91 
Q 1594 -91 976 548 
Q 359 1188 359 2328 
Q 359 3472 976 4111 
Q 1594 4750 2688 4750 
Q 3144 4750 3555 4637 
Q 3966 4525 4313 4306 
L 4313 3634 
Q 3963 3931 3569 4081 
Q 3175 4231 2741 4231 
Q 1884 4231 1454 3753 
Q 1025 3275 1025 2328 
Q 1025 1384 1454 906 
Q 1884 428 2741 428 
Q 3075 428 3337 486 
Q 3600 544 3809 666 
z
" transform="scale(0.015625)"/>
       <path id="DejaVuSans-41" d="M 2188 4044 
L 1331 1722 
L 3047 1722 
L 2188 4044 
z
M 1831 4666 
L 2547 4666 
L 4325 0 
L 3669 0 
L 3244 1197 
L 1141 1197 
L 716 0 
L 50 0 
L 1831 4666 
z
" transform="scale(0.015625)"/>
       <path id="DejaVuSans-4c" d="M 628 4666 
L 1259 4666 
L 1259 531 
L 3531 531 
L 3531 0 
L 628 0 
L 628 4666 
z
" transform="scale(0.015625)"/>
      </defs>
      <use xlink:href="#DejaVuSans-46"/>
      <use xlink:href="#DejaVuSans-55" transform="translate(57.519531 0)"/>
      <use xlink:href="#DejaVuSans-47" transform="translate(130.712891 0)"/>
      <use xlink:href="#DejaVuSans-41" transform="translate(208.203125 0)"/>
      <use xlink:href="#DejaVuSans-4c" transform="translate(276.611328 0)"/>
     </g>
    </g>
   </g>
  </g>
  <g id="text_27">
   <!-- Ablation study for FUGAL features -->
   <g transform="translate(84.016875 31.19625) scale(0.24 -0.24)">
    <defs>
     <path id="DejaVuSans-66" d="M 2375 4863 
L 2375 4384 
L 1825 4384 
Q 1516 4384 1395 4259 
Q 1275 4134 1275 3809 
L 1275 3500 
L 2222 3500 
L 2222 3053 
L 1275 3053 
L 1275 0 
L 697 0 
L 697 3053 
L 147 3053 
L 147 3500 
L 697 3500 
L 697 3744 
Q 697 4328 969 4595 
Q 1241 4863 1831 4863 
L 2375 4863 
z
" transform="scale(0.015625)"/>
    </defs>
    <use xlink:href="#DejaVuSans-41"/>
    <use xlink:href="#DejaVuSans-62" transform="translate(68.408203 0)"/>
    <use xlink:href="#DejaVuSans-6c" transform="translate(131.884766 0)"/>
    <use xlink:href="#DejaVuSans-61" transform="translate(159.667969 0)"/>
    <use xlink:href="#DejaVuSans-74" transform="translate(220.947266 0)"/>
    <use xlink:href="#DejaVuSans-69" transform="translate(260.15625 0)"/>
    <use xlink:href="#DejaVuSans-6f" transform="translate(287.939453 0)"/>
    <use xlink:href="#DejaVuSans-6e" transform="translate(349.121094 0)"/>
    <use xlink:href="#DejaVuSans-20" transform="translate(412.5 0)"/>
    <use xlink:href="#DejaVuSans-73" transform="translate(444.287109 0)"/>
    <use xlink:href="#DejaVuSans-74" transform="translate(496.386719 0)"/>
    <use xlink:href="#DejaVuSans-75" transform="translate(535.595703 0)"/>
    <use xlink:href="#DejaVuSans-64" transform="translate(598.974609 0)"/>
    <use xlink:href="#DejaVuSans-79" transform="translate(662.451172 0)"/>
    <use xlink:href="#DejaVuSans-20" transform="translate(721.630859 0)"/>
    <use xlink:href="#DejaVuSans-66" transform="translate(753.417969 0)"/>
    <use xlink:href="#DejaVuSans-6f" transform="translate(788.623047 0)"/>
    <use xlink:href="#DejaVuSans-72" transform="translate(849.804688 0)"/>
    <use xlink:href="#DejaVuSans-20" transform="translate(890.917969 0)"/>
    <use xlink:href="#DejaVuSans-46" transform="translate(922.705078 0)"/>
    <use xlink:href="#DejaVuSans-55" transform="translate(980.224609 0)"/>
    <use xlink:href="#DejaVuSans-47" transform="translate(1053.417969 0)"/>
    <use xlink:href="#DejaVuSans-41" transform="translate(1130.908203 0)"/>
    <use xlink:href="#DejaVuSans-4c" transform="translate(1199.316406 0)"/>
    <use xlink:href="#DejaVuSans-20" transform="translate(1255.029297 0)"/>
    <use xlink:href="#DejaVuSans-66" transform="translate(1286.816406 0)"/>
    <use xlink:href="#DejaVuSans-65" transform="translate(1322.021484 0)"/>
    <use xlink:href="#DejaVuSans-61" transform="translate(1383.544922 0)"/>
    <use xlink:href="#DejaVuSans-74" transform="translate(1444.824219 0)"/>
    <use xlink:href="#DejaVuSans-75" transform="translate(1484.033203 0)"/>
    <use xlink:href="#DejaVuSans-72" transform="translate(1547.412109 0)"/>
    <use xlink:href="#DejaVuSans-65" transform="translate(1586.275391 0)"/>
    <use xlink:href="#DejaVuSans-73" transform="translate(1647.798828 0)"/>
   </g>
  </g>
 </g>
 <defs>
  <clipPath id="p7cb9dd4b7f">
   <rect x="57.17" y="62.88" width="494.12" height="327.16"/>
  </clipPath>
 </defs>
</svg>
