<?xml version="1.0" encoding="utf-8" standalone="no"?>
<!DOCTYPE svg PUBLIC "-//W3C//DTD SVG 1.1//EN"
  "http://www.w3.org/Graphics/SVG/1.1/DTD/svg11.dtd">
<svg xmlns:xlink="http://www.w3.org/1999/xlink" width="720pt" height="432pt" viewBox="0 0 720 432" xmlns="http://www.w3.org/2000/svg" version="1.1">
 <metadata>
  <rdf:RDF xmlns:dc="http://purl.org/dc/elements/1.1/" xmlns:cc="http://creativecommons.org/ns#" xmlns:rdf="http://www.w3.org/1999/02/22-rdf-syntax-ns#">
   <cc:Work>
    <dc:type rdf:resource="http://purl.org/dc/dcmitype/StillImage"/>
    <dc:date>2025-03-07T10:21:24.857792</dc:date>
    <dc:format>image/svg+xml</dc:format>
    <dc:creator>
     <cc:Agent>
      <dc:title>Matplotlib v3.10.0, https://matplotlib.org/</dc:title>
     </cc:Agent>
    </dc:creator>
   </cc:Work>
  </rdf:RDF>
 </metadata>
 <defs>
  <style type="text/css">*{stroke-linejoin: round; stroke-linecap: butt}</style>
 </defs>
 <g id="figure_1">
  <g id="patch_1">
   <path d="M 0 432 
L 720 432 
L 720 0 
L 0 0 
z
" style="fill: #ffffff"/>
  </g>
  <g id="axes_1">
   <g id="patch_2">
    <path d="M 69.77 390.04 
L 551.29 390.04 
L 551.29 62.88 
L 69.77 62.88 
z
" style="fill: #ffffff"/>
   </g>
   <g id="matplotlib.axis_1">
    <g id="xtick_1">
     <g id="line2d_1">
      <path d="M 91.657273 390.04 
L 91.657273 62.88 
" clip-path="url(#p0d40b2eb42)" style="fill: none; stroke: #b0b0b0; stroke-width: 0.8; stroke-linecap: square"/>
     </g>
     <g id="line2d_2">
      <defs>
       <path id="mef6ef44ce2" d="M 0 0 
L 0 3.5 
" style="stroke: #000000; stroke-width: 0.8"/>
      </defs>
      <g>
       <use xlink:href="#mef6ef44ce2" x="91.657273" y="390.04" style="stroke: #000000; stroke-width: 0.8"/>
      </g>
     </g>
     <g id="text_1">
      <!-- 0.00 -->
      <g transform="translate(80.52446 404.638438) scale(0.1 -0.1)">
       <defs>
        <path id="DejaVuSans-30" d="M 2034 4250 
Q 1547 4250 1301 3770 
Q 1056 3291 1056 2328 
Q 1056 1369 1301 889 
Q 1547 409 2034 409 
Q 2525 409 2770 889 
Q 3016 1369 3016 2328 
Q 3016 3291 2770 3770 
Q 2525 4250 2034 4250 
z
M 2034 4750 
Q 2819 4750 3233 4129 
Q 3647 3509 3647 2328 
Q 3647 1150 3233 529 
Q 2819 -91 2034 -91 
Q 1250 -91 836 529 
Q 422 1150 422 2328 
Q 422 3509 836 4129 
Q 1250 4750 2034 4750 
z
" transform="scale(0.015625)"/>
        <path id="DejaVuSans-2e" d="M 684 794 
L 1344 794 
L 1344 0 
L 684 0 
L 684 794 
z
" transform="scale(0.015625)"/>
       </defs>
       <use xlink:href="#DejaVuSans-30"/>
       <use xlink:href="#DejaVuSans-2e" transform="translate(63.623047 0)"/>
       <use xlink:href="#DejaVuSans-30" transform="translate(95.410156 0)"/>
       <use xlink:href="#DejaVuSans-30" transform="translate(159.033203 0)"/>
      </g>
     </g>
    </g>
    <g id="xtick_2">
     <g id="line2d_3">
      <path d="M 179.206364 390.04 
L 179.206364 62.88 
" clip-path="url(#p0d40b2eb42)" style="fill: none; stroke: #b0b0b0; stroke-width: 0.8; stroke-linecap: square"/>
     </g>
     <g id="line2d_4">
      <g>
       <use xlink:href="#mef6ef44ce2" x="179.206364" y="390.04" style="stroke: #000000; stroke-width: 0.8"/>
      </g>
     </g>
     <g id="text_2">
      <!-- 0.05 -->
      <g transform="translate(168.073551 404.638438) scale(0.1 -0.1)">
       <defs>
        <path id="DejaVuSans-35" d="M 691 4666 
L 3169 4666 
L 3169 4134 
L 1269 4134 
L 1269 2991 
Q 1406 3038 1543 3061 
Q 1681 3084 1819 3084 
Q 2600 3084 3056 2656 
Q 3513 2228 3513 1497 
Q 3513 744 3044 326 
Q 2575 -91 1722 -91 
Q 1428 -91 1123 -41 
Q 819 9 494 109 
L 494 744 
Q 775 591 1075 516 
Q 1375 441 1709 441 
Q 2250 441 2565 725 
Q 2881 1009 2881 1497 
Q 2881 1984 2565 2268 
Q 2250 2553 1709 2553 
Q 1456 2553 1204 2497 
Q 953 2441 691 2322 
L 691 4666 
z
" transform="scale(0.015625)"/>
       </defs>
       <use xlink:href="#DejaVuSans-30"/>
       <use xlink:href="#DejaVuSans-2e" transform="translate(63.623047 0)"/>
       <use xlink:href="#DejaVuSans-30" transform="translate(95.410156 0)"/>
       <use xlink:href="#DejaVuSans-35" transform="translate(159.033203 0)"/>
      </g>
     </g>
    </g>
    <g id="xtick_3">
     <g id="line2d_5">
      <path d="M 266.755455 390.04 
L 266.755455 62.88 
" clip-path="url(#p0d40b2eb42)" style="fill: none; stroke: #b0b0b0; stroke-width: 0.8; stroke-linecap: square"/>
     </g>
     <g id="line2d_6">
      <g>
       <use xlink:href="#mef6ef44ce2" x="266.755455" y="390.04" style="stroke: #000000; stroke-width: 0.8"/>
      </g>
     </g>
     <g id="text_3">
      <!-- 0.10 -->
      <g transform="translate(255.622642 404.638438) scale(0.1 -0.1)">
       <defs>
        <path id="DejaVuSans-31" d="M 794 531 
L 1825 531 
L 1825 4091 
L 703 3866 
L 703 4441 
L 1819 4666 
L 2450 4666 
L 2450 531 
L 3481 531 
L 3481 0 
L 794 0 
L 794 531 
z
" transform="scale(0.015625)"/>
       </defs>
       <use xlink:href="#DejaVuSans-30"/>
       <use xlink:href="#DejaVuSans-2e" transform="translate(63.623047 0)"/>
       <use xlink:href="#DejaVuSans-31" transform="translate(95.410156 0)"/>
       <use xlink:href="#DejaVuSans-30" transform="translate(159.033203 0)"/>
      </g>
     </g>
    </g>
    <g id="xtick_4">
     <g id="line2d_7">
      <path d="M 354.304545 390.04 
L 354.304545 62.88 
" clip-path="url(#p0d40b2eb42)" style="fill: none; stroke: #b0b0b0; stroke-width: 0.8; stroke-linecap: square"/>
     </g>
     <g id="line2d_8">
      <g>
       <use xlink:href="#mef6ef44ce2" x="354.304545" y="390.04" style="stroke: #000000; stroke-width: 0.8"/>
      </g>
     </g>
     <g id="text_4">
      <!-- 0.15 -->
      <g transform="translate(343.171733 404.638438) scale(0.1 -0.1)">
       <use xlink:href="#DejaVuSans-30"/>
       <use xlink:href="#DejaVuSans-2e" transform="translate(63.623047 0)"/>
       <use xlink:href="#DejaVuSans-31" transform="translate(95.410156 0)"/>
       <use xlink:href="#DejaVuSans-35" transform="translate(159.033203 0)"/>
      </g>
     </g>
    </g>
    <g id="xtick_5">
     <g id="line2d_9">
      <path d="M 441.853636 390.04 
L 441.853636 62.88 
" clip-path="url(#p0d40b2eb42)" style="fill: none; stroke: #b0b0b0; stroke-width: 0.8; stroke-linecap: square"/>
     </g>
     <g id="line2d_10">
      <g>
       <use xlink:href="#mef6ef44ce2" x="441.853636" y="390.04" style="stroke: #000000; stroke-width: 0.8"/>
      </g>
     </g>
     <g id="text_5">
      <!-- 0.20 -->
      <g transform="translate(430.720824 404.638438) scale(0.1 -0.1)">
       <defs>
        <path id="DejaVuSans-32" d="M 1228 531 
L 3431 531 
L 3431 0 
L 469 0 
L 469 531 
Q 828 903 1448 1529 
Q 2069 2156 2228 2338 
Q 2531 2678 2651 2914 
Q 2772 3150 2772 3378 
Q 2772 3750 2511 3984 
Q 2250 4219 1831 4219 
Q 1534 4219 1204 4116 
Q 875 4013 500 3803 
L 500 4441 
Q 881 4594 1212 4672 
Q 1544 4750 1819 4750 
Q 2544 4750 2975 4387 
Q 3406 4025 3406 3419 
Q 3406 3131 3298 2873 
Q 3191 2616 2906 2266 
Q 2828 2175 2409 1742 
Q 1991 1309 1228 531 
z
" transform="scale(0.015625)"/>
       </defs>
       <use xlink:href="#DejaVuSans-30"/>
       <use xlink:href="#DejaVuSans-2e" transform="translate(63.623047 0)"/>
       <use xlink:href="#DejaVuSans-32" transform="translate(95.410156 0)"/>
       <use xlink:href="#DejaVuSans-30" transform="translate(159.033203 0)"/>
      </g>
     </g>
    </g>
    <g id="xtick_6">
     <g id="line2d_11">
      <path d="M 529.402727 390.04 
L 529.402727 62.88 
" clip-path="url(#p0d40b2eb42)" style="fill: none; stroke: #b0b0b0; stroke-width: 0.8; stroke-linecap: square"/>
     </g>
     <g id="line2d_12">
      <g>
       <use xlink:href="#mef6ef44ce2" x="529.402727" y="390.04" style="stroke: #000000; stroke-width: 0.8"/>
      </g>
     </g>
     <g id="text_6">
      <!-- 0.25 -->
      <g transform="translate(518.269915 404.638438) scale(0.1 -0.1)">
       <use xlink:href="#DejaVuSans-30"/>
       <use xlink:href="#DejaVuSans-2e" transform="translate(63.623047 0)"/>
       <use xlink:href="#DejaVuSans-32" transform="translate(95.410156 0)"/>
       <use xlink:href="#DejaVuSans-35" transform="translate(159.033203 0)"/>
      </g>
     </g>
    </g>
    <g id="text_7">
     <!-- Noise-level -->
     <g transform="translate(282.965156 418.316562) scale(0.1 -0.1)">
      <defs>
       <path id="DejaVuSans-4e" d="M 628 4666 
L 1478 4666 
L 3547 763 
L 3547 4666 
L 4159 4666 
L 4159 0 
L 3309 0 
L 1241 3903 
L 1241 0 
L 628 0 
L 628 4666 
z
" transform="scale(0.015625)"/>
       <path id="DejaVuSans-6f" d="M 1959 3097 
Q 1497 3097 1228 2736 
Q 959 2375 959 1747 
Q 959 1119 1226 758 
Q 1494 397 1959 397 
Q 2419 397 2687 759 
Q 2956 1122 2956 1747 
Q 2956 2369 2687 2733 
Q 2419 3097 1959 3097 
z
M 1959 3584 
Q 2709 3584 3137 3096 
Q 3566 2609 3566 1747 
Q 3566 888 3137 398 
Q 2709 -91 1959 -91 
Q 1206 -91 779 398 
Q 353 888 353 1747 
Q 353 2609 779 3096 
Q 1206 3584 1959 3584 
z
" transform="scale(0.015625)"/>
       <path id="DejaVuSans-69" d="M 603 3500 
L 1178 3500 
L 1178 0 
L 603 0 
L 603 3500 
z
M 603 4863 
L 1178 4863 
L 1178 4134 
L 603 4134 
L 603 4863 
z
" transform="scale(0.015625)"/>
       <path id="DejaVuSans-73" d="M 2834 3397 
L 2834 2853 
Q 2591 2978 2328 3040 
Q 2066 3103 1784 3103 
Q 1356 3103 1142 2972 
Q 928 2841 928 2578 
Q 928 2378 1081 2264 
Q 1234 2150 1697 2047 
L 1894 2003 
Q 2506 1872 2764 1633 
Q 3022 1394 3022 966 
Q 3022 478 2636 193 
Q 2250 -91 1575 -91 
Q 1294 -91 989 -36 
Q 684 19 347 128 
L 347 722 
Q 666 556 975 473 
Q 1284 391 1588 391 
Q 1994 391 2212 530 
Q 2431 669 2431 922 
Q 2431 1156 2273 1281 
Q 2116 1406 1581 1522 
L 1381 1569 
Q 847 1681 609 1914 
Q 372 2147 372 2553 
Q 372 3047 722 3315 
Q 1072 3584 1716 3584 
Q 2034 3584 2315 3537 
Q 2597 3491 2834 3397 
z
" transform="scale(0.015625)"/>
       <path id="DejaVuSans-65" d="M 3597 1894 
L 3597 1613 
L 953 1613 
Q 991 1019 1311 708 
Q 1631 397 2203 397 
Q 2534 397 2845 478 
Q 3156 559 3463 722 
L 3463 178 
Q 3153 47 2828 -22 
Q 2503 -91 2169 -91 
Q 1331 -91 842 396 
Q 353 884 353 1716 
Q 353 2575 817 3079 
Q 1281 3584 2069 3584 
Q 2775 3584 3186 3129 
Q 3597 2675 3597 1894 
z
M 3022 2063 
Q 3016 2534 2758 2815 
Q 2500 3097 2075 3097 
Q 1594 3097 1305 2825 
Q 1016 2553 972 2059 
L 3022 2063 
z
" transform="scale(0.015625)"/>
       <path id="DejaVuSans-2d" d="M 313 2009 
L 1997 2009 
L 1997 1497 
L 313 1497 
L 313 2009 
z
" transform="scale(0.015625)"/>
       <path id="DejaVuSans-6c" d="M 603 4863 
L 1178 4863 
L 1178 0 
L 603 0 
L 603 4863 
z
" transform="scale(0.015625)"/>
       <path id="DejaVuSans-76" d="M 191 3500 
L 800 3500 
L 1894 563 
L 2988 3500 
L 3597 3500 
L 2284 0 
L 1503 0 
L 191 3500 
z
" transform="scale(0.015625)"/>
      </defs>
      <use xlink:href="#DejaVuSans-4e"/>
      <use xlink:href="#DejaVuSans-6f" transform="translate(74.804688 0)"/>
      <use xlink:href="#DejaVuSans-69" transform="translate(135.986328 0)"/>
      <use xlink:href="#DejaVuSans-73" transform="translate(163.769531 0)"/>
      <use xlink:href="#DejaVuSans-65" transform="translate(215.869141 0)"/>
      <use xlink:href="#DejaVuSans-2d" transform="translate(277.392578 0)"/>
      <use xlink:href="#DejaVuSans-6c" transform="translate(313.476562 0)"/>
      <use xlink:href="#DejaVuSans-65" transform="translate(341.259766 0)"/>
      <use xlink:href="#DejaVuSans-76" transform="translate(402.783203 0)"/>
      <use xlink:href="#DejaVuSans-65" transform="translate(461.962891 0)"/>
      <use xlink:href="#DejaVuSans-6c" transform="translate(523.486328 0)"/>
     </g>
    </g>
   </g>
   <g id="matplotlib.axis_2">
    <g id="ytick_1">
     <g id="line2d_13">
      <path d="M 69.77 375.169091 
L 551.29 375.169091 
" clip-path="url(#p0d40b2eb42)" style="fill: none; stroke: #b0b0b0; stroke-width: 0.8; stroke-linecap: square"/>
     </g>
     <g id="line2d_14">
      <defs>
       <path id="mdd852f083b" d="M 0 0 
L -3.5 0 
" style="stroke: #000000; stroke-width: 0.8"/>
      </defs>
      <g>
       <use xlink:href="#mdd852f083b" x="69.77" y="375.169091" style="stroke: #000000; stroke-width: 0.8"/>
      </g>
     </g>
     <g id="text_8">
      <!-- 0 -->
      <g transform="translate(56.4075 378.96831) scale(0.1 -0.1)">
       <use xlink:href="#DejaVuSans-30"/>
      </g>
     </g>
    </g>
    <g id="ytick_2">
     <g id="line2d_15">
      <path d="M 69.77 314.475863 
L 551.29 314.475863 
" clip-path="url(#p0d40b2eb42)" style="fill: none; stroke: #b0b0b0; stroke-width: 0.8; stroke-linecap: square"/>
     </g>
     <g id="line2d_16">
      <g>
       <use xlink:href="#mdd852f083b" x="69.77" y="314.475863" style="stroke: #000000; stroke-width: 0.8"/>
      </g>
     </g>
     <g id="text_9">
      <!-- 50000 -->
      <g transform="translate(30.9575 318.275082) scale(0.1 -0.1)">
       <use xlink:href="#DejaVuSans-35"/>
       <use xlink:href="#DejaVuSans-30" transform="translate(63.623047 0)"/>
       <use xlink:href="#DejaVuSans-30" transform="translate(127.246094 0)"/>
       <use xlink:href="#DejaVuSans-30" transform="translate(190.869141 0)"/>
       <use xlink:href="#DejaVuSans-30" transform="translate(254.492188 0)"/>
      </g>
     </g>
    </g>
    <g id="ytick_3">
     <g id="line2d_17">
      <path d="M 69.77 253.782635 
L 551.29 253.782635 
" clip-path="url(#p0d40b2eb42)" style="fill: none; stroke: #b0b0b0; stroke-width: 0.8; stroke-linecap: square"/>
     </g>
     <g id="line2d_18">
      <g>
       <use xlink:href="#mdd852f083b" x="69.77" y="253.782635" style="stroke: #000000; stroke-width: 0.8"/>
      </g>
     </g>
     <g id="text_10">
      <!-- 100000 -->
      <g transform="translate(24.595 257.581853) scale(0.1 -0.1)">
       <use xlink:href="#DejaVuSans-31"/>
       <use xlink:href="#DejaVuSans-30" transform="translate(63.623047 0)"/>
       <use xlink:href="#DejaVuSans-30" transform="translate(127.246094 0)"/>
       <use xlink:href="#DejaVuSans-30" transform="translate(190.869141 0)"/>
       <use xlink:href="#DejaVuSans-30" transform="translate(254.492188 0)"/>
       <use xlink:href="#DejaVuSans-30" transform="translate(318.115234 0)"/>
      </g>
     </g>
    </g>
    <g id="ytick_4">
     <g id="line2d_19">
      <path d="M 69.77 193.089407 
L 551.29 193.089407 
" clip-path="url(#p0d40b2eb42)" style="fill: none; stroke: #b0b0b0; stroke-width: 0.8; stroke-linecap: square"/>
     </g>
     <g id="line2d_20">
      <g>
       <use xlink:href="#mdd852f083b" x="69.77" y="193.089407" style="stroke: #000000; stroke-width: 0.8"/>
      </g>
     </g>
     <g id="text_11">
      <!-- 150000 -->
      <g transform="translate(24.595 196.888625) scale(0.1 -0.1)">
       <use xlink:href="#DejaVuSans-31"/>
       <use xlink:href="#DejaVuSans-35" transform="translate(63.623047 0)"/>
       <use xlink:href="#DejaVuSans-30" transform="translate(127.246094 0)"/>
       <use xlink:href="#DejaVuSans-30" transform="translate(190.869141 0)"/>
       <use xlink:href="#DejaVuSans-30" transform="translate(254.492188 0)"/>
       <use xlink:href="#DejaVuSans-30" transform="translate(318.115234 0)"/>
      </g>
     </g>
    </g>
    <g id="ytick_5">
     <g id="line2d_21">
      <path d="M 69.77 132.396178 
L 551.29 132.396178 
" clip-path="url(#p0d40b2eb42)" style="fill: none; stroke: #b0b0b0; stroke-width: 0.8; stroke-linecap: square"/>
     </g>
     <g id="line2d_22">
      <g>
       <use xlink:href="#mdd852f083b" x="69.77" y="132.396178" style="stroke: #000000; stroke-width: 0.8"/>
      </g>
     </g>
     <g id="text_12">
      <!-- 200000 -->
      <g transform="translate(24.595 136.195397) scale(0.1 -0.1)">
       <use xlink:href="#DejaVuSans-32"/>
       <use xlink:href="#DejaVuSans-30" transform="translate(63.623047 0)"/>
       <use xlink:href="#DejaVuSans-30" transform="translate(127.246094 0)"/>
       <use xlink:href="#DejaVuSans-30" transform="translate(190.869141 0)"/>
       <use xlink:href="#DejaVuSans-30" transform="translate(254.492188 0)"/>
       <use xlink:href="#DejaVuSans-30" transform="translate(318.115234 0)"/>
      </g>
     </g>
    </g>
    <g id="ytick_6">
     <g id="line2d_23">
      <path d="M 69.77 71.70295 
L 551.29 71.70295 
" clip-path="url(#p0d40b2eb42)" style="fill: none; stroke: #b0b0b0; stroke-width: 0.8; stroke-linecap: square"/>
     </g>
     <g id="line2d_24">
      <g>
       <use xlink:href="#mdd852f083b" x="69.77" y="71.70295" style="stroke: #000000; stroke-width: 0.8"/>
      </g>
     </g>
     <g id="text_13">
      <!-- 250000 -->
      <g transform="translate(24.595 75.502169) scale(0.1 -0.1)">
       <use xlink:href="#DejaVuSans-32"/>
       <use xlink:href="#DejaVuSans-35" transform="translate(63.623047 0)"/>
       <use xlink:href="#DejaVuSans-30" transform="translate(127.246094 0)"/>
       <use xlink:href="#DejaVuSans-30" transform="translate(190.869141 0)"/>
       <use xlink:href="#DejaVuSans-30" transform="translate(254.492188 0)"/>
       <use xlink:href="#DejaVuSans-30" transform="translate(318.115234 0)"/>
      </g>
     </g>
    </g>
    <g id="text_14">
     <!-- Frobenius norm -->
     <g transform="translate(18.515313 265.213125) rotate(-90) scale(0.1 -0.1)">
      <defs>
       <path id="DejaVuSans-46" d="M 628 4666 
L 3309 4666 
L 3309 4134 
L 1259 4134 
L 1259 2759 
L 3109 2759 
L 3109 2228 
L 1259 2228 
L 1259 0 
L 628 0 
L 628 4666 
z
" transform="scale(0.015625)"/>
       <path id="DejaVuSans-72" d="M 2631 2963 
Q 2534 3019 2420 3045 
Q 2306 3072 2169 3072 
Q 1681 3072 1420 2755 
Q 1159 2438 1159 1844 
L 1159 0 
L 581 0 
L 581 3500 
L 1159 3500 
L 1159 2956 
Q 1341 3275 1631 3429 
Q 1922 3584 2338 3584 
Q 2397 3584 2469 3576 
Q 2541 3569 2628 3553 
L 2631 2963 
z
" transform="scale(0.015625)"/>
       <path id="DejaVuSans-62" d="M 3116 1747 
Q 3116 2381 2855 2742 
Q 2594 3103 2138 3103 
Q 1681 3103 1420 2742 
Q 1159 2381 1159 1747 
Q 1159 1113 1420 752 
Q 1681 391 2138 391 
Q 2594 391 2855 752 
Q 3116 1113 3116 1747 
z
M 1159 2969 
Q 1341 3281 1617 3432 
Q 1894 3584 2278 3584 
Q 2916 3584 3314 3078 
Q 3713 2572 3713 1747 
Q 3713 922 3314 415 
Q 2916 -91 2278 -91 
Q 1894 -91 1617 61 
Q 1341 213 1159 525 
L 1159 0 
L 581 0 
L 581 4863 
L 1159 4863 
L 1159 2969 
z
" transform="scale(0.015625)"/>
       <path id="DejaVuSans-6e" d="M 3513 2113 
L 3513 0 
L 2938 0 
L 2938 2094 
Q 2938 2591 2744 2837 
Q 2550 3084 2163 3084 
Q 1697 3084 1428 2787 
Q 1159 2491 1159 1978 
L 1159 0 
L 581 0 
L 581 3500 
L 1159 3500 
L 1159 2956 
Q 1366 3272 1645 3428 
Q 1925 3584 2291 3584 
Q 2894 3584 3203 3211 
Q 3513 2838 3513 2113 
z
" transform="scale(0.015625)"/>
       <path id="DejaVuSans-75" d="M 544 1381 
L 544 3500 
L 1119 3500 
L 1119 1403 
Q 1119 906 1312 657 
Q 1506 409 1894 409 
Q 2359 409 2629 706 
Q 2900 1003 2900 1516 
L 2900 3500 
L 3475 3500 
L 3475 0 
L 2900 0 
L 2900 538 
Q 2691 219 2414 64 
Q 2138 -91 1772 -91 
Q 1169 -91 856 284 
Q 544 659 544 1381 
z
M 1991 3584 
L 1991 3584 
z
" transform="scale(0.015625)"/>
       <path id="DejaVuSans-20" transform="scale(0.015625)"/>
       <path id="DejaVuSans-6d" d="M 3328 2828 
Q 3544 3216 3844 3400 
Q 4144 3584 4550 3584 
Q 5097 3584 5394 3201 
Q 5691 2819 5691 2113 
L 5691 0 
L 5113 0 
L 5113 2094 
Q 5113 2597 4934 2840 
Q 4756 3084 4391 3084 
Q 3944 3084 3684 2787 
Q 3425 2491 3425 1978 
L 3425 0 
L 2847 0 
L 2847 2094 
Q 2847 2600 2669 2842 
Q 2491 3084 2119 3084 
Q 1678 3084 1418 2786 
Q 1159 2488 1159 1978 
L 1159 0 
L 581 0 
L 581 3500 
L 1159 3500 
L 1159 2956 
Q 1356 3278 1631 3431 
Q 1906 3584 2284 3584 
Q 2666 3584 2933 3390 
Q 3200 3197 3328 2828 
z
" transform="scale(0.015625)"/>
      </defs>
      <use xlink:href="#DejaVuSans-46"/>
      <use xlink:href="#DejaVuSans-72" transform="translate(50.269531 0)"/>
      <use xlink:href="#DejaVuSans-6f" transform="translate(89.132812 0)"/>
      <use xlink:href="#DejaVuSans-62" transform="translate(150.314453 0)"/>
      <use xlink:href="#DejaVuSans-65" transform="translate(213.791016 0)"/>
      <use xlink:href="#DejaVuSans-6e" transform="translate(275.314453 0)"/>
      <use xlink:href="#DejaVuSans-69" transform="translate(338.693359 0)"/>
      <use xlink:href="#DejaVuSans-75" transform="translate(366.476562 0)"/>
      <use xlink:href="#DejaVuSans-73" transform="translate(429.855469 0)"/>
      <use xlink:href="#DejaVuSans-20" transform="translate(481.955078 0)"/>
      <use xlink:href="#DejaVuSans-6e" transform="translate(513.742188 0)"/>
      <use xlink:href="#DejaVuSans-6f" transform="translate(577.121094 0)"/>
      <use xlink:href="#DejaVuSans-72" transform="translate(638.302734 0)"/>
      <use xlink:href="#DejaVuSans-6d" transform="translate(677.666016 0)"/>
     </g>
    </g>
   </g>
   <g id="line2d_25">
    <path d="M 91.657273 375.169091 
L 179.206364 364.931843 
L 266.755455 354.598456 
L 354.304545 333.232498 
L 441.853636 105.185705 
L 529.402727 77.75188 
" clip-path="url(#p0d40b2eb42)" style="fill: none; stroke: #b7d4ea; stroke-width: 1.5; stroke-linecap: square"/>
    <defs>
     <path id="mc50d194ec1" d="M 0 3 
C 0.795609 3 1.55874 2.683901 2.12132 2.12132 
C 2.683901 1.55874 3 0.795609 3 0 
C 3 -0.795609 2.683901 -1.55874 2.12132 -2.12132 
C 1.55874 -2.683901 0.795609 -3 0 -3 
C -0.795609 -3 -1.55874 -2.683901 -2.12132 -2.12132 
C -2.683901 -1.55874 -3 -0.795609 -3 0 
C -3 0.795609 -2.683901 1.55874 -2.12132 2.12132 
C -1.55874 2.683901 -0.795609 3 0 3 
z
" style="stroke: #b7d4ea"/>
    </defs>
    <g clip-path="url(#p0d40b2eb42)">
     <use xlink:href="#mc50d194ec1" x="91.657273" y="375.169091" style="fill: #b7d4ea; stroke: #b7d4ea"/>
     <use xlink:href="#mc50d194ec1" x="179.206364" y="364.931843" style="fill: #b7d4ea; stroke: #b7d4ea"/>
     <use xlink:href="#mc50d194ec1" x="266.755455" y="354.598456" style="fill: #b7d4ea; stroke: #b7d4ea"/>
     <use xlink:href="#mc50d194ec1" x="354.304545" y="333.232498" style="fill: #b7d4ea; stroke: #b7d4ea"/>
     <use xlink:href="#mc50d194ec1" x="441.853636" y="105.185705" style="fill: #b7d4ea; stroke: #b7d4ea"/>
     <use xlink:href="#mc50d194ec1" x="529.402727" y="77.75188" style="fill: #b7d4ea; stroke: #b7d4ea"/>
    </g>
   </g>
   <g id="line2d_26">
    <path d="M 91.657273 375.169091 
L 179.206364 364.389003 
L 266.755455 348.705872 
L 354.304545 316.482138 
L 441.853636 264.365106 
L 529.402727 191.992073 
" clip-path="url(#p0d40b2eb42)" style="fill: none; stroke: #aaa8d0; stroke-width: 1.5; stroke-linecap: square"/>
    <defs>
     <path id="m82d6c4fcf6" d="M 0 -3 
L -3 3 
L 3 3 
z
" style="stroke: #aaa8d0; stroke-linejoin: miter"/>
    </defs>
    <g clip-path="url(#p0d40b2eb42)">
     <use xlink:href="#m82d6c4fcf6" x="91.657273" y="375.169091" style="fill: #aaa8d0; stroke: #aaa8d0; stroke-linejoin: miter"/>
     <use xlink:href="#m82d6c4fcf6" x="179.206364" y="364.389003" style="fill: #aaa8d0; stroke: #aaa8d0; stroke-linejoin: miter"/>
     <use xlink:href="#m82d6c4fcf6" x="266.755455" y="348.705872" style="fill: #aaa8d0; stroke: #aaa8d0; stroke-linejoin: miter"/>
     <use xlink:href="#m82d6c4fcf6" x="354.304545" y="316.482138" style="fill: #aaa8d0; stroke: #aaa8d0; stroke-linejoin: miter"/>
     <use xlink:href="#m82d6c4fcf6" x="441.853636" y="264.365106" style="fill: #aaa8d0; stroke: #aaa8d0; stroke-linejoin: miter"/>
     <use xlink:href="#m82d6c4fcf6" x="529.402727" y="191.992073" style="fill: #aaa8d0; stroke: #aaa8d0; stroke-linejoin: miter"/>
    </g>
   </g>
   <g id="line2d_27">
    <path d="M 91.657273 375.169091 
L 179.206364 364.340448 
L 266.755455 348.108651 
L 354.304545 315.275071 
L 441.853636 262.511292 
L 529.402727 190.19264 
" clip-path="url(#p0d40b2eb42)" style="fill: none; stroke: #6950a3; stroke-width: 1.5; stroke-linecap: square"/>
    <defs>
     <path id="m068ad83762" d="M -3 3 
L 3 -3 
M -3 -3 
L 3 3 
" style="stroke: #6950a3"/>
    </defs>
    <g clip-path="url(#p0d40b2eb42)">
     <use xlink:href="#m068ad83762" x="91.657273" y="375.169091" style="fill: #6950a3; stroke: #6950a3"/>
     <use xlink:href="#m068ad83762" x="179.206364" y="364.340448" style="fill: #6950a3; stroke: #6950a3"/>
     <use xlink:href="#m068ad83762" x="266.755455" y="348.108651" style="fill: #6950a3; stroke: #6950a3"/>
     <use xlink:href="#m068ad83762" x="354.304545" y="315.275071" style="fill: #6950a3; stroke: #6950a3"/>
     <use xlink:href="#m068ad83762" x="441.853636" y="262.511292" style="fill: #6950a3; stroke: #6950a3"/>
     <use xlink:href="#m068ad83762" x="529.402727" y="190.19264" style="fill: #6950a3; stroke: #6950a3"/>
    </g>
   </g>
   <g id="line2d_28">
    <path d="M 91.657273 375.169091 
L 179.206364 364.340448 
L 266.755455 348.108651 
L 354.304545 315.275071 
L 441.853636 262.511292 
L 529.402727 190.19264 
" clip-path="url(#p0d40b2eb42)" style="fill: none; stroke: #4f1f8b; stroke-width: 1.5; stroke-linecap: square"/>
    <defs>
     <path id="m811b7626fa" d="M 0 4.242641 
L 4.242641 0 
L 0 -4.242641 
L -4.242641 0 
z
" style="stroke: #4f1f8b; stroke-linejoin: miter"/>
    </defs>
    <g clip-path="url(#p0d40b2eb42)">
     <use xlink:href="#m811b7626fa" x="91.657273" y="375.169091" style="fill: #4f1f8b; stroke: #4f1f8b; stroke-linejoin: miter"/>
     <use xlink:href="#m811b7626fa" x="179.206364" y="364.340448" style="fill: #4f1f8b; stroke: #4f1f8b; stroke-linejoin: miter"/>
     <use xlink:href="#m811b7626fa" x="266.755455" y="348.108651" style="fill: #4f1f8b; stroke: #4f1f8b; stroke-linejoin: miter"/>
     <use xlink:href="#m811b7626fa" x="354.304545" y="315.275071" style="fill: #4f1f8b; stroke: #4f1f8b; stroke-linejoin: miter"/>
     <use xlink:href="#m811b7626fa" x="441.853636" y="262.511292" style="fill: #4f1f8b; stroke: #4f1f8b; stroke-linejoin: miter"/>
     <use xlink:href="#m811b7626fa" x="529.402727" y="190.19264" style="fill: #4f1f8b; stroke: #4f1f8b; stroke-linejoin: miter"/>
    </g>
   </g>
   <g id="line2d_29">
    <path d="M 91.657273 375.169091 
L 179.206364 364.931843 
L 266.755455 354.598456 
L 354.304545 333.232498 
L 441.853636 105.185705 
L 529.402727 77.75188 
" clip-path="url(#p0d40b2eb42)" style="fill: none; stroke: #dd8c59; stroke-width: 1.5; stroke-linecap: square"/>
    <defs>
     <path id="md188930405" d="M 0 3 
C 0.795609 3 1.55874 2.683901 2.12132 2.12132 
C 2.683901 1.55874 3 0.795609 3 0 
C 3 -0.795609 2.683901 -1.55874 2.12132 -2.12132 
C 1.55874 -2.683901 0.795609 -3 0 -3 
C -0.795609 -3 -1.55874 -2.683901 -2.12132 -2.12132 
C -2.683901 -1.55874 -3 -0.795609 -3 0 
C -3 0.795609 -2.683901 1.55874 -2.12132 2.12132 
C -1.55874 2.683901 -0.795609 3 0 3 
z
" style="stroke: #dd8c59"/>
    </defs>
    <g clip-path="url(#p0d40b2eb42)">
     <use xlink:href="#md188930405" x="91.657273" y="375.169091" style="fill: #dd8c59; stroke: #dd8c59"/>
     <use xlink:href="#md188930405" x="179.206364" y="364.931843" style="fill: #dd8c59; stroke: #dd8c59"/>
     <use xlink:href="#md188930405" x="266.755455" y="354.598456" style="fill: #dd8c59; stroke: #dd8c59"/>
     <use xlink:href="#md188930405" x="354.304545" y="333.232498" style="fill: #dd8c59; stroke: #dd8c59"/>
     <use xlink:href="#md188930405" x="441.853636" y="105.185705" style="fill: #dd8c59; stroke: #dd8c59"/>
     <use xlink:href="#md188930405" x="529.402727" y="77.75188" style="fill: #dd8c59; stroke: #dd8c59"/>
    </g>
   </g>
   <g id="line2d_30">
    <path d="M 91.657273 375.169091 
L 179.206364 364.931843 
L 266.755455 354.598456 
L 354.304545 333.256775 
L 441.853636 105.184734 
L 529.402727 77.750909 
" clip-path="url(#p0d40b2eb42)" style="fill: none; stroke: #7e5033; stroke-width: 1.5; stroke-linecap: square"/>
    <defs>
     <path id="mff971b4cee" d="M 0 -3 
L -3 3 
L 3 3 
z
" style="stroke: #7e5033; stroke-linejoin: miter"/>
    </defs>
    <g clip-path="url(#p0d40b2eb42)">
     <use xlink:href="#mff971b4cee" x="91.657273" y="375.169091" style="fill: #7e5033; stroke: #7e5033; stroke-linejoin: miter"/>
     <use xlink:href="#mff971b4cee" x="179.206364" y="364.931843" style="fill: #7e5033; stroke: #7e5033; stroke-linejoin: miter"/>
     <use xlink:href="#mff971b4cee" x="266.755455" y="354.598456" style="fill: #7e5033; stroke: #7e5033; stroke-linejoin: miter"/>
     <use xlink:href="#mff971b4cee" x="354.304545" y="333.256775" style="fill: #7e5033; stroke: #7e5033; stroke-linejoin: miter"/>
     <use xlink:href="#mff971b4cee" x="441.853636" y="105.184734" style="fill: #7e5033; stroke: #7e5033; stroke-linejoin: miter"/>
     <use xlink:href="#mff971b4cee" x="529.402727" y="77.750909" style="fill: #7e5033; stroke: #7e5033; stroke-linejoin: miter"/>
    </g>
   </g>
   <g id="line2d_31">
    <path d="M 91.657273 375.169091 
L 179.206364 364.931843 
L 266.755455 354.598456 
L 354.304545 333.256775 
L 441.853636 105.184734 
L 529.402727 77.750909 
" clip-path="url(#p0d40b2eb42)" style="fill: none; stroke: #1f140c; stroke-width: 1.5; stroke-linecap: square"/>
    <defs>
     <path id="m0ec00c530b" d="M -3 3 
L 3 3 
L 3 -3 
L -3 -3 
z
" style="stroke: #1f140c; stroke-linejoin: miter"/>
    </defs>
    <g clip-path="url(#p0d40b2eb42)">
     <use xlink:href="#m0ec00c530b" x="91.657273" y="375.169091" style="fill: #1f140c; stroke: #1f140c; stroke-linejoin: miter"/>
     <use xlink:href="#m0ec00c530b" x="179.206364" y="364.931843" style="fill: #1f140c; stroke: #1f140c; stroke-linejoin: miter"/>
     <use xlink:href="#m0ec00c530b" x="266.755455" y="354.598456" style="fill: #1f140c; stroke: #1f140c; stroke-linejoin: miter"/>
     <use xlink:href="#m0ec00c530b" x="354.304545" y="333.256775" style="fill: #1f140c; stroke: #1f140c; stroke-linejoin: miter"/>
     <use xlink:href="#m0ec00c530b" x="441.853636" y="105.184734" style="fill: #1f140c; stroke: #1f140c; stroke-linejoin: miter"/>
     <use xlink:href="#m0ec00c530b" x="529.402727" y="77.750909" style="fill: #1f140c; stroke: #1f140c; stroke-linejoin: miter"/>
    </g>
   </g>
   <g id="line2d_32">
    <path d="M 91.657273 375.169091 
L 179.206364 364.501649 
L 266.755455 353.820612 
L 354.304545 343.423134 
L 441.853636 333.14947 
L 529.402727 265.719293 
" clip-path="url(#p0d40b2eb42)" style="fill: none; stroke: #ff7f00; stroke-width: 1.5; stroke-linecap: square"/>
   </g>
   <g id="patch_3">
    <path d="M 69.77 390.04 
L 69.77 62.88 
" style="fill: none; stroke: #000000; stroke-width: 0.8; stroke-linejoin: miter; stroke-linecap: square"/>
   </g>
   <g id="patch_4">
    <path d="M 551.29 390.04 
L 551.29 62.88 
" style="fill: none; stroke: #000000; stroke-width: 0.8; stroke-linejoin: miter; stroke-linecap: square"/>
   </g>
   <g id="patch_5">
    <path d="M 69.77 390.04 
L 551.29 390.04 
" style="fill: none; stroke: #000000; stroke-width: 0.8; stroke-linejoin: miter; stroke-linecap: square"/>
   </g>
   <g id="patch_6">
    <path d="M 69.77 62.88 
L 551.29 62.88 
" style="fill: none; stroke: #000000; stroke-width: 0.8; stroke-linejoin: miter; stroke-linecap: square"/>
   </g>
   <g id="text_15">
    <!-- $\mu$: 2.5, graph: socfb-Bowdoin47 -->
    <g transform="translate(216.45 56.88) scale(0.12 -0.12)">
     <defs>
      <path id="DejaVuSans-Oblique-3bc" d="M -84 -1331 
L 856 3500 
L 1434 3500 
L 1009 1322 
Q 997 1256 987 1175 
Q 978 1094 978 1013 
Q 978 722 1161 565 
Q 1344 409 1684 409 
Q 2147 409 2431 671 
Q 2716 934 2816 1459 
L 3213 3500 
L 3788 3500 
L 3266 809 
Q 3253 750 3248 706 
Q 3244 663 3244 628 
Q 3244 531 3283 486 
Q 3322 441 3406 441 
Q 3438 441 3492 456 
Q 3547 472 3647 513 
L 3559 50 
Q 3422 -19 3297 -55 
Q 3172 -91 3053 -91 
Q 2847 -91 2730 40 
Q 2613 172 2613 403 
Q 2438 153 2195 31 
Q 1953 -91 1625 -91 
Q 1334 -91 1117 43 
Q 900 178 831 397 
L 494 -1331 
L -84 -1331 
z
" transform="scale(0.015625)"/>
      <path id="DejaVuSans-3a" d="M 750 794 
L 1409 794 
L 1409 0 
L 750 0 
L 750 794 
z
M 750 3309 
L 1409 3309 
L 1409 2516 
L 750 2516 
L 750 3309 
z
" transform="scale(0.015625)"/>
      <path id="DejaVuSans-2c" d="M 750 794 
L 1409 794 
L 1409 256 
L 897 -744 
L 494 -744 
L 750 256 
L 750 794 
z
" transform="scale(0.015625)"/>
      <path id="DejaVuSans-67" d="M 2906 1791 
Q 2906 2416 2648 2759 
Q 2391 3103 1925 3103 
Q 1463 3103 1205 2759 
Q 947 2416 947 1791 
Q 947 1169 1205 825 
Q 1463 481 1925 481 
Q 2391 481 2648 825 
Q 2906 1169 2906 1791 
z
M 3481 434 
Q 3481 -459 3084 -895 
Q 2688 -1331 1869 -1331 
Q 1566 -1331 1297 -1286 
Q 1028 -1241 775 -1147 
L 775 -588 
Q 1028 -725 1275 -790 
Q 1522 -856 1778 -856 
Q 2344 -856 2625 -561 
Q 2906 -266 2906 331 
L 2906 616 
Q 2728 306 2450 153 
Q 2172 0 1784 0 
Q 1141 0 747 490 
Q 353 981 353 1791 
Q 353 2603 747 3093 
Q 1141 3584 1784 3584 
Q 2172 3584 2450 3431 
Q 2728 3278 2906 2969 
L 2906 3500 
L 3481 3500 
L 3481 434 
z
" transform="scale(0.015625)"/>
      <path id="DejaVuSans-61" d="M 2194 1759 
Q 1497 1759 1228 1600 
Q 959 1441 959 1056 
Q 959 750 1161 570 
Q 1363 391 1709 391 
Q 2188 391 2477 730 
Q 2766 1069 2766 1631 
L 2766 1759 
L 2194 1759 
z
M 3341 1997 
L 3341 0 
L 2766 0 
L 2766 531 
Q 2569 213 2275 61 
Q 1981 -91 1556 -91 
Q 1019 -91 701 211 
Q 384 513 384 1019 
Q 384 1609 779 1909 
Q 1175 2209 1959 2209 
L 2766 2209 
L 2766 2266 
Q 2766 2663 2505 2880 
Q 2244 3097 1772 3097 
Q 1472 3097 1187 3025 
Q 903 2953 641 2809 
L 641 3341 
Q 956 3463 1253 3523 
Q 1550 3584 1831 3584 
Q 2591 3584 2966 3190 
Q 3341 2797 3341 1997 
z
" transform="scale(0.015625)"/>
      <path id="DejaVuSans-70" d="M 1159 525 
L 1159 -1331 
L 581 -1331 
L 581 3500 
L 1159 3500 
L 1159 2969 
Q 1341 3281 1617 3432 
Q 1894 3584 2278 3584 
Q 2916 3584 3314 3078 
Q 3713 2572 3713 1747 
Q 3713 922 3314 415 
Q 2916 -91 2278 -91 
Q 1894 -91 1617 61 
Q 1341 213 1159 525 
z
M 3116 1747 
Q 3116 2381 2855 2742 
Q 2594 3103 2138 3103 
Q 1681 3103 1420 2742 
Q 1159 2381 1159 1747 
Q 1159 1113 1420 752 
Q 1681 391 2138 391 
Q 2594 391 2855 752 
Q 3116 1113 3116 1747 
z
" transform="scale(0.015625)"/>
      <path id="DejaVuSans-68" d="M 3513 2113 
L 3513 0 
L 2938 0 
L 2938 2094 
Q 2938 2591 2744 2837 
Q 2550 3084 2163 3084 
Q 1697 3084 1428 2787 
Q 1159 2491 1159 1978 
L 1159 0 
L 581 0 
L 581 4863 
L 1159 4863 
L 1159 2956 
Q 1366 3272 1645 3428 
Q 1925 3584 2291 3584 
Q 2894 3584 3203 3211 
Q 3513 2838 3513 2113 
z
" transform="scale(0.015625)"/>
      <path id="DejaVuSans-63" d="M 3122 3366 
L 3122 2828 
Q 2878 2963 2633 3030 
Q 2388 3097 2138 3097 
Q 1578 3097 1268 2742 
Q 959 2388 959 1747 
Q 959 1106 1268 751 
Q 1578 397 2138 397 
Q 2388 397 2633 464 
Q 2878 531 3122 666 
L 3122 134 
Q 2881 22 2623 -34 
Q 2366 -91 2075 -91 
Q 1284 -91 818 406 
Q 353 903 353 1747 
Q 353 2603 823 3093 
Q 1294 3584 2113 3584 
Q 2378 3584 2631 3529 
Q 2884 3475 3122 3366 
z
" transform="scale(0.015625)"/>
      <path id="DejaVuSans-66" d="M 2375 4863 
L 2375 4384 
L 1825 4384 
Q 1516 4384 1395 4259 
Q 1275 4134 1275 3809 
L 1275 3500 
L 2222 3500 
L 2222 3053 
L 1275 3053 
L 1275 0 
L 697 0 
L 697 3053 
L 147 3053 
L 147 3500 
L 697 3500 
L 697 3744 
Q 697 4328 969 4595 
Q 1241 4863 1831 4863 
L 2375 4863 
z
" transform="scale(0.015625)"/>
      <path id="DejaVuSans-42" d="M 1259 2228 
L 1259 519 
L 2272 519 
Q 2781 519 3026 730 
Q 3272 941 3272 1375 
Q 3272 1813 3026 2020 
Q 2781 2228 2272 2228 
L 1259 2228 
z
M 1259 4147 
L 1259 2741 
L 2194 2741 
Q 2656 2741 2882 2914 
Q 3109 3088 3109 3444 
Q 3109 3797 2882 3972 
Q 2656 4147 2194 4147 
L 1259 4147 
z
M 628 4666 
L 2241 4666 
Q 2963 4666 3353 4366 
Q 3744 4066 3744 3513 
Q 3744 3084 3544 2831 
Q 3344 2578 2956 2516 
Q 3422 2416 3680 2098 
Q 3938 1781 3938 1306 
Q 3938 681 3513 340 
Q 3088 0 2303 0 
L 628 0 
L 628 4666 
z
" transform="scale(0.015625)"/>
      <path id="DejaVuSans-77" d="M 269 3500 
L 844 3500 
L 1563 769 
L 2278 3500 
L 2956 3500 
L 3675 769 
L 4391 3500 
L 4966 3500 
L 4050 0 
L 3372 0 
L 2619 2869 
L 1863 0 
L 1184 0 
L 269 3500 
z
" transform="scale(0.015625)"/>
      <path id="DejaVuSans-64" d="M 2906 2969 
L 2906 4863 
L 3481 4863 
L 3481 0 
L 2906 0 
L 2906 525 
Q 2725 213 2448 61 
Q 2172 -91 1784 -91 
Q 1150 -91 751 415 
Q 353 922 353 1747 
Q 353 2572 751 3078 
Q 1150 3584 1784 3584 
Q 2172 3584 2448 3432 
Q 2725 3281 2906 2969 
z
M 947 1747 
Q 947 1113 1208 752 
Q 1469 391 1925 391 
Q 2381 391 2643 752 
Q 2906 1113 2906 1747 
Q 2906 2381 2643 2742 
Q 2381 3103 1925 3103 
Q 1469 3103 1208 2742 
Q 947 2381 947 1747 
z
" transform="scale(0.015625)"/>
      <path id="DejaVuSans-34" d="M 2419 4116 
L 825 1625 
L 2419 1625 
L 2419 4116 
z
M 2253 4666 
L 3047 4666 
L 3047 1625 
L 3713 1625 
L 3713 1100 
L 3047 1100 
L 3047 0 
L 2419 0 
L 2419 1100 
L 313 1100 
L 313 1709 
L 2253 4666 
z
" transform="scale(0.015625)"/>
      <path id="DejaVuSans-37" d="M 525 4666 
L 3525 4666 
L 3525 4397 
L 1831 0 
L 1172 0 
L 2766 4134 
L 525 4134 
L 525 4666 
z
" transform="scale(0.015625)"/>
     </defs>
     <use xlink:href="#DejaVuSans-Oblique-3bc" transform="translate(0 0.015625)"/>
     <use xlink:href="#DejaVuSans-3a" transform="translate(63.623047 0.015625)"/>
     <use xlink:href="#DejaVuSans-20" transform="translate(97.314453 0.015625)"/>
     <use xlink:href="#DejaVuSans-32" transform="translate(129.101562 0.015625)"/>
     <use xlink:href="#DejaVuSans-2e" transform="translate(192.724609 0.015625)"/>
     <use xlink:href="#DejaVuSans-35" transform="translate(224.511719 0.015625)"/>
     <use xlink:href="#DejaVuSans-2c" transform="translate(288.134766 0.015625)"/>
     <use xlink:href="#DejaVuSans-20" transform="translate(319.921875 0.015625)"/>
     <use xlink:href="#DejaVuSans-67" transform="translate(351.708984 0.015625)"/>
     <use xlink:href="#DejaVuSans-72" transform="translate(415.185547 0.015625)"/>
     <use xlink:href="#DejaVuSans-61" transform="translate(456.298828 0.015625)"/>
     <use xlink:href="#DejaVuSans-70" transform="translate(517.578125 0.015625)"/>
     <use xlink:href="#DejaVuSans-68" transform="translate(581.054688 0.015625)"/>
     <use xlink:href="#DejaVuSans-3a" transform="translate(644.433594 0.015625)"/>
     <use xlink:href="#DejaVuSans-20" transform="translate(678.125 0.015625)"/>
     <use xlink:href="#DejaVuSans-73" transform="translate(709.912109 0.015625)"/>
     <use xlink:href="#DejaVuSans-6f" transform="translate(762.011719 0.015625)"/>
     <use xlink:href="#DejaVuSans-63" transform="translate(823.193359 0.015625)"/>
     <use xlink:href="#DejaVuSans-66" transform="translate(878.173828 0.015625)"/>
     <use xlink:href="#DejaVuSans-62" transform="translate(913.378906 0.015625)"/>
     <use xlink:href="#DejaVuSans-2d" transform="translate(976.855469 0.015625)"/>
     <use xlink:href="#DejaVuSans-42" transform="translate(1012.939453 0.015625)"/>
     <use xlink:href="#DejaVuSans-6f" transform="translate(1081.542969 0.015625)"/>
     <use xlink:href="#DejaVuSans-77" transform="translate(1142.724609 0.015625)"/>
     <use xlink:href="#DejaVuSans-64" transform="translate(1224.511719 0.015625)"/>
     <use xlink:href="#DejaVuSans-6f" transform="translate(1287.988281 0.015625)"/>
     <use xlink:href="#DejaVuSans-69" transform="translate(1349.169922 0.015625)"/>
     <use xlink:href="#DejaVuSans-6e" transform="translate(1376.953125 0.015625)"/>
     <use xlink:href="#DejaVuSans-34" transform="translate(1440.332031 0.015625)"/>
     <use xlink:href="#DejaVuSans-37" transform="translate(1503.955078 0.015625)"/>
    </g>
   </g>
   <g id="legend_1">
    <g id="patch_7">
     <path d="M 582.366 225.37875 
L 703.10975 225.37875 
Q 705.10975 225.37875 705.10975 223.37875 
L 705.10975 69.88 
Q 705.10975 67.88 703.10975 67.88 
L 582.366 67.88 
Q 580.366 67.88 580.366 69.88 
L 580.366 223.37875 
Q 580.366 225.37875 582.366 225.37875 
z
" style="fill: #ffffff; opacity: 0.8; stroke: #cccccc; stroke-linejoin: miter"/>
    </g>
    <g id="text_16">
     <!-- Features -->
     <g transform="translate(621.243344 79.478437) scale(0.1 -0.1)">
      <defs>
       <path id="DejaVuSans-74" d="M 1172 4494 
L 1172 3500 
L 2356 3500 
L 2356 3053 
L 1172 3053 
L 1172 1153 
Q 1172 725 1289 603 
Q 1406 481 1766 481 
L 2356 481 
L 2356 0 
L 1766 0 
Q 1100 0 847 248 
Q 594 497 594 1153 
L 594 3053 
L 172 3053 
L 172 3500 
L 594 3500 
L 594 4494 
L 1172 4494 
z
" transform="scale(0.015625)"/>
      </defs>
      <use xlink:href="#DejaVuSans-46"/>
      <use xlink:href="#DejaVuSans-65" transform="translate(52.019531 0)"/>
      <use xlink:href="#DejaVuSans-61" transform="translate(113.542969 0)"/>
      <use xlink:href="#DejaVuSans-74" transform="translate(174.822266 0)"/>
      <use xlink:href="#DejaVuSans-75" transform="translate(214.03125 0)"/>
      <use xlink:href="#DejaVuSans-72" transform="translate(277.410156 0)"/>
      <use xlink:href="#DejaVuSans-65" transform="translate(316.273438 0)"/>
      <use xlink:href="#DejaVuSans-73" transform="translate(377.796875 0)"/>
     </g>
    </g>
    <g id="line2d_33">
     <path d="M 584.366 90.656563 
L 594.366 90.656563 
L 604.366 90.656563 
" style="fill: none; stroke: #b7d4ea; stroke-width: 1.5; stroke-linecap: square"/>
     <g>
      <use xlink:href="#mc50d194ec1" x="594.366" y="90.656563" style="fill: #b7d4ea; stroke: #b7d4ea"/>
     </g>
    </g>
    <g id="text_17">
     <!-- degree -->
     <g transform="translate(612.366 94.156563) scale(0.1 -0.1)">
      <use xlink:href="#DejaVuSans-64"/>
      <use xlink:href="#DejaVuSans-65" transform="translate(63.476562 0)"/>
      <use xlink:href="#DejaVuSans-67" transform="translate(125 0)"/>
      <use xlink:href="#DejaVuSans-72" transform="translate(188.476562 0)"/>
      <use xlink:href="#DejaVuSans-65" transform="translate(227.339844 0)"/>
      <use xlink:href="#DejaVuSans-65" transform="translate(288.863281 0)"/>
     </g>
    </g>
    <g id="line2d_34">
     <path d="M 584.366 105.334688 
L 594.366 105.334688 
L 604.366 105.334688 
" style="fill: none; stroke: #aaa8d0; stroke-width: 1.5; stroke-linecap: square"/>
     <g>
      <use xlink:href="#m82d6c4fcf6" x="594.366" y="105.334688" style="fill: #aaa8d0; stroke: #aaa8d0; stroke-linejoin: miter"/>
     </g>
    </g>
    <g id="text_18">
     <!-- degree centrality -->
     <g transform="translate(612.366 108.834688) scale(0.1 -0.1)">
      <defs>
       <path id="DejaVuSans-79" d="M 2059 -325 
Q 1816 -950 1584 -1140 
Q 1353 -1331 966 -1331 
L 506 -1331 
L 506 -850 
L 844 -850 
Q 1081 -850 1212 -737 
Q 1344 -625 1503 -206 
L 1606 56 
L 191 3500 
L 800 3500 
L 1894 763 
L 2988 3500 
L 3597 3500 
L 2059 -325 
z
" transform="scale(0.015625)"/>
      </defs>
      <use xlink:href="#DejaVuSans-64"/>
      <use xlink:href="#DejaVuSans-65" transform="translate(63.476562 0)"/>
      <use xlink:href="#DejaVuSans-67" transform="translate(125 0)"/>
      <use xlink:href="#DejaVuSans-72" transform="translate(188.476562 0)"/>
      <use xlink:href="#DejaVuSans-65" transform="translate(227.339844 0)"/>
      <use xlink:href="#DejaVuSans-65" transform="translate(288.863281 0)"/>
      <use xlink:href="#DejaVuSans-20" transform="translate(350.386719 0)"/>
      <use xlink:href="#DejaVuSans-63" transform="translate(382.173828 0)"/>
      <use xlink:href="#DejaVuSans-65" transform="translate(437.154297 0)"/>
      <use xlink:href="#DejaVuSans-6e" transform="translate(498.677734 0)"/>
      <use xlink:href="#DejaVuSans-74" transform="translate(562.056641 0)"/>
      <use xlink:href="#DejaVuSans-72" transform="translate(601.265625 0)"/>
      <use xlink:href="#DejaVuSans-61" transform="translate(642.378906 0)"/>
      <use xlink:href="#DejaVuSans-6c" transform="translate(703.658203 0)"/>
      <use xlink:href="#DejaVuSans-69" transform="translate(731.441406 0)"/>
      <use xlink:href="#DejaVuSans-74" transform="translate(759.224609 0)"/>
      <use xlink:href="#DejaVuSans-79" transform="translate(798.433594 0)"/>
     </g>
    </g>
    <g id="line2d_35">
     <path d="M 584.366 120.012812 
L 594.366 120.012812 
L 604.366 120.012812 
" style="fill: none; stroke: #6950a3; stroke-width: 1.5; stroke-linecap: square"/>
     <g>
      <use xlink:href="#m068ad83762" x="594.366" y="120.012812" style="fill: #6950a3; stroke: #6950a3"/>
     </g>
    </g>
    <g id="text_19">
     <!-- pagerank -->
     <g transform="translate(612.366 123.512812) scale(0.1 -0.1)">
      <defs>
       <path id="DejaVuSans-6b" d="M 581 4863 
L 1159 4863 
L 1159 1991 
L 2875 3500 
L 3609 3500 
L 1753 1863 
L 3688 0 
L 2938 0 
L 1159 1709 
L 1159 0 
L 581 0 
L 581 4863 
z
" transform="scale(0.015625)"/>
      </defs>
      <use xlink:href="#DejaVuSans-70"/>
      <use xlink:href="#DejaVuSans-61" transform="translate(63.476562 0)"/>
      <use xlink:href="#DejaVuSans-67" transform="translate(124.755859 0)"/>
      <use xlink:href="#DejaVuSans-65" transform="translate(188.232422 0)"/>
      <use xlink:href="#DejaVuSans-72" transform="translate(249.755859 0)"/>
      <use xlink:href="#DejaVuSans-61" transform="translate(290.869141 0)"/>
      <use xlink:href="#DejaVuSans-6e" transform="translate(352.148438 0)"/>
      <use xlink:href="#DejaVuSans-6b" transform="translate(415.527344 0)"/>
     </g>
    </g>
    <g id="line2d_36">
     <path d="M 584.366 134.690938 
L 594.366 134.690938 
L 604.366 134.690938 
" style="fill: none; stroke: #4f1f8b; stroke-width: 1.5; stroke-linecap: square"/>
     <g>
      <use xlink:href="#m811b7626fa" x="594.366" y="134.690938" style="fill: #4f1f8b; stroke: #4f1f8b; stroke-linejoin: miter"/>
     </g>
    </g>
    <g id="text_20">
     <!-- katz centrality -->
     <g transform="translate(612.366 138.190938) scale(0.1 -0.1)">
      <defs>
       <path id="DejaVuSans-7a" d="M 353 3500 
L 3084 3500 
L 3084 2975 
L 922 459 
L 3084 459 
L 3084 0 
L 275 0 
L 275 525 
L 2438 3041 
L 353 3041 
L 353 3500 
z
" transform="scale(0.015625)"/>
      </defs>
      <use xlink:href="#DejaVuSans-6b"/>
      <use xlink:href="#DejaVuSans-61" transform="translate(56.160156 0)"/>
      <use xlink:href="#DejaVuSans-74" transform="translate(117.439453 0)"/>
      <use xlink:href="#DejaVuSans-7a" transform="translate(156.648438 0)"/>
      <use xlink:href="#DejaVuSans-20" transform="translate(209.138672 0)"/>
      <use xlink:href="#DejaVuSans-63" transform="translate(240.925781 0)"/>
      <use xlink:href="#DejaVuSans-65" transform="translate(295.90625 0)"/>
      <use xlink:href="#DejaVuSans-6e" transform="translate(357.429688 0)"/>
      <use xlink:href="#DejaVuSans-74" transform="translate(420.808594 0)"/>
      <use xlink:href="#DejaVuSans-72" transform="translate(460.017578 0)"/>
      <use xlink:href="#DejaVuSans-61" transform="translate(501.130859 0)"/>
      <use xlink:href="#DejaVuSans-6c" transform="translate(562.410156 0)"/>
      <use xlink:href="#DejaVuSans-69" transform="translate(590.193359 0)"/>
      <use xlink:href="#DejaVuSans-74" transform="translate(617.976562 0)"/>
      <use xlink:href="#DejaVuSans-79" transform="translate(657.185547 0)"/>
     </g>
    </g>
    <g id="line2d_37">
     <path d="M 584.366 156.007812 
L 594.366 156.007812 
L 604.366 156.007812 
" style="fill: none; stroke: #dd8c59; stroke-width: 1.5; stroke-linecap: square"/>
     <g>
      <use xlink:href="#md188930405" x="594.366" y="156.007812" style="fill: #dd8c59; stroke: #dd8c59"/>
     </g>
    </g>
    <g id="text_21">
     <!-- degree, -->
     <g transform="translate(612.366 152.869062) scale(0.1 -0.1)">
      <use xlink:href="#DejaVuSans-64"/>
      <use xlink:href="#DejaVuSans-65" transform="translate(63.476562 0)"/>
      <use xlink:href="#DejaVuSans-67" transform="translate(125 0)"/>
      <use xlink:href="#DejaVuSans-72" transform="translate(188.476562 0)"/>
      <use xlink:href="#DejaVuSans-65" transform="translate(227.339844 0)"/>
      <use xlink:href="#DejaVuSans-65" transform="translate(288.863281 0)"/>
      <use xlink:href="#DejaVuSans-2c" transform="translate(350.386719 0)"/>
     </g>
     <!-- degree centrality -->
     <g transform="translate(612.366 164.066875) scale(0.1 -0.1)">
      <use xlink:href="#DejaVuSans-64"/>
      <use xlink:href="#DejaVuSans-65" transform="translate(63.476562 0)"/>
      <use xlink:href="#DejaVuSans-67" transform="translate(125 0)"/>
      <use xlink:href="#DejaVuSans-72" transform="translate(188.476562 0)"/>
      <use xlink:href="#DejaVuSans-65" transform="translate(227.339844 0)"/>
      <use xlink:href="#DejaVuSans-65" transform="translate(288.863281 0)"/>
      <use xlink:href="#DejaVuSans-20" transform="translate(350.386719 0)"/>
      <use xlink:href="#DejaVuSans-63" transform="translate(382.173828 0)"/>
      <use xlink:href="#DejaVuSans-65" transform="translate(437.154297 0)"/>
      <use xlink:href="#DejaVuSans-6e" transform="translate(498.677734 0)"/>
      <use xlink:href="#DejaVuSans-74" transform="translate(562.056641 0)"/>
      <use xlink:href="#DejaVuSans-72" transform="translate(601.265625 0)"/>
      <use xlink:href="#DejaVuSans-61" transform="translate(642.378906 0)"/>
      <use xlink:href="#DejaVuSans-6c" transform="translate(703.658203 0)"/>
      <use xlink:href="#DejaVuSans-69" transform="translate(731.441406 0)"/>
      <use xlink:href="#DejaVuSans-74" transform="translate(759.224609 0)"/>
      <use xlink:href="#DejaVuSans-79" transform="translate(798.433594 0)"/>
     </g>
    </g>
    <g id="line2d_38">
     <path d="M 584.366 175.245 
L 594.366 175.245 
L 604.366 175.245 
" style="fill: none; stroke: #7e5033; stroke-width: 1.5; stroke-linecap: square"/>
     <g>
      <use xlink:href="#mff971b4cee" x="594.366" y="175.245" style="fill: #7e5033; stroke: #7e5033; stroke-linejoin: miter"/>
     </g>
    </g>
    <g id="text_22">
     <!-- degree, pagerank -->
     <g transform="translate(612.366 178.745) scale(0.1 -0.1)">
      <use xlink:href="#DejaVuSans-64"/>
      <use xlink:href="#DejaVuSans-65" transform="translate(63.476562 0)"/>
      <use xlink:href="#DejaVuSans-67" transform="translate(125 0)"/>
      <use xlink:href="#DejaVuSans-72" transform="translate(188.476562 0)"/>
      <use xlink:href="#DejaVuSans-65" transform="translate(227.339844 0)"/>
      <use xlink:href="#DejaVuSans-65" transform="translate(288.863281 0)"/>
      <use xlink:href="#DejaVuSans-2c" transform="translate(350.386719 0)"/>
      <use xlink:href="#DejaVuSans-20" transform="translate(382.173828 0)"/>
      <use xlink:href="#DejaVuSans-70" transform="translate(413.960938 0)"/>
      <use xlink:href="#DejaVuSans-61" transform="translate(477.4375 0)"/>
      <use xlink:href="#DejaVuSans-67" transform="translate(538.716797 0)"/>
      <use xlink:href="#DejaVuSans-65" transform="translate(602.193359 0)"/>
      <use xlink:href="#DejaVuSans-72" transform="translate(663.716797 0)"/>
      <use xlink:href="#DejaVuSans-61" transform="translate(704.830078 0)"/>
      <use xlink:href="#DejaVuSans-6e" transform="translate(766.109375 0)"/>
      <use xlink:href="#DejaVuSans-6b" transform="translate(829.488281 0)"/>
     </g>
    </g>
    <g id="line2d_39">
     <path d="M 584.366 196.561875 
L 594.366 196.561875 
L 604.366 196.561875 
" style="fill: none; stroke: #1f140c; stroke-width: 1.5; stroke-linecap: square"/>
     <g>
      <use xlink:href="#m0ec00c530b" x="594.366" y="196.561875" style="fill: #1f140c; stroke: #1f140c; stroke-linejoin: miter"/>
     </g>
    </g>
    <g id="text_23">
     <!-- degree, -->
     <g transform="translate(612.366 193.423125) scale(0.1 -0.1)">
      <use xlink:href="#DejaVuSans-64"/>
      <use xlink:href="#DejaVuSans-65" transform="translate(63.476562 0)"/>
      <use xlink:href="#DejaVuSans-67" transform="translate(125 0)"/>
      <use xlink:href="#DejaVuSans-72" transform="translate(188.476562 0)"/>
      <use xlink:href="#DejaVuSans-65" transform="translate(227.339844 0)"/>
      <use xlink:href="#DejaVuSans-65" transform="translate(288.863281 0)"/>
      <use xlink:href="#DejaVuSans-2c" transform="translate(350.386719 0)"/>
     </g>
     <!-- katz centrality -->
     <g transform="translate(612.366 204.620937) scale(0.1 -0.1)">
      <use xlink:href="#DejaVuSans-6b"/>
      <use xlink:href="#DejaVuSans-61" transform="translate(56.160156 0)"/>
      <use xlink:href="#DejaVuSans-74" transform="translate(117.439453 0)"/>
      <use xlink:href="#DejaVuSans-7a" transform="translate(156.648438 0)"/>
      <use xlink:href="#DejaVuSans-20" transform="translate(209.138672 0)"/>
      <use xlink:href="#DejaVuSans-63" transform="translate(240.925781 0)"/>
      <use xlink:href="#DejaVuSans-65" transform="translate(295.90625 0)"/>
      <use xlink:href="#DejaVuSans-6e" transform="translate(357.429688 0)"/>
      <use xlink:href="#DejaVuSans-74" transform="translate(420.808594 0)"/>
      <use xlink:href="#DejaVuSans-72" transform="translate(460.017578 0)"/>
      <use xlink:href="#DejaVuSans-61" transform="translate(501.130859 0)"/>
      <use xlink:href="#DejaVuSans-6c" transform="translate(562.410156 0)"/>
      <use xlink:href="#DejaVuSans-69" transform="translate(590.193359 0)"/>
      <use xlink:href="#DejaVuSans-74" transform="translate(617.976562 0)"/>
      <use xlink:href="#DejaVuSans-79" transform="translate(657.185547 0)"/>
     </g>
    </g>
    <g id="line2d_40">
     <path d="M 584.366 215.799062 
L 594.366 215.799062 
L 604.366 215.799062 
" style="fill: none; stroke: #ff7f00; stroke-width: 1.5; stroke-linecap: square"/>
    </g>
    <g id="text_24">
     <!-- FUGAL -->
     <g transform="translate(612.366 219.299062) scale(0.1 -0.1)">
      <defs>
       <path id="DejaVuSans-55" d="M 556 4666 
L 1191 4666 
L 1191 1831 
Q 1191 1081 1462 751 
Q 1734 422 2344 422 
Q 2950 422 3222 751 
Q 3494 1081 3494 1831 
L 3494 4666 
L 4128 4666 
L 4128 1753 
Q 4128 841 3676 375 
Q 3225 -91 2344 -91 
Q 1459 -91 1007 375 
Q 556 841 556 1753 
L 556 4666 
z
" transform="scale(0.015625)"/>
       <path id="DejaVuSans-47" d="M 3809 666 
L 3809 1919 
L 2778 1919 
L 2778 2438 
L 4434 2438 
L 4434 434 
Q 4069 175 3628 42 
Q 3188 -91 2688 -91 
Q 1594 -91 976 548 
Q 359 1188 359 2328 
Q 359 3472 976 4111 
Q 1594 4750 2688 4750 
Q 3144 4750 3555 4637 
Q 3966 4525 4313 4306 
L 4313 3634 
Q 3963 3931 3569 4081 
Q 3175 4231 2741 4231 
Q 1884 4231 1454 3753 
Q 1025 3275 1025 2328 
Q 1025 1384 1454 906 
Q 1884 428 2741 428 
Q 3075 428 3337 486 
Q 3600 544 3809 666 
z
" transform="scale(0.015625)"/>
       <path id="DejaVuSans-41" d="M 2188 4044 
L 1331 1722 
L 3047 1722 
L 2188 4044 
z
M 1831 4666 
L 2547 4666 
L 4325 0 
L 3669 0 
L 3244 1197 
L 1141 1197 
L 716 0 
L 50 0 
L 1831 4666 
z
" transform="scale(0.015625)"/>
       <path id="DejaVuSans-4c" d="M 628 4666 
L 1259 4666 
L 1259 531 
L 3531 531 
L 3531 0 
L 628 0 
L 628 4666 
z
" transform="scale(0.015625)"/>
      </defs>
      <use xlink:href="#DejaVuSans-46"/>
      <use xlink:href="#DejaVuSans-55" transform="translate(57.519531 0)"/>
      <use xlink:href="#DejaVuSans-47" transform="translate(130.712891 0)"/>
      <use xlink:href="#DejaVuSans-41" transform="translate(208.203125 0)"/>
      <use xlink:href="#DejaVuSans-4c" transform="translate(276.611328 0)"/>
     </g>
    </g>
   </g>
  </g>
  <g id="text_25">
   <!-- Ablation study for FUGAL features -->
   <g transform="translate(84.016875 31.19625) scale(0.24 -0.24)">
    <use xlink:href="#DejaVuSans-41"/>
    <use xlink:href="#DejaVuSans-62" transform="translate(68.408203 0)"/>
    <use xlink:href="#DejaVuSans-6c" transform="translate(131.884766 0)"/>
    <use xlink:href="#DejaVuSans-61" transform="translate(159.667969 0)"/>
    <use xlink:href="#DejaVuSans-74" transform="translate(220.947266 0)"/>
    <use xlink:href="#DejaVuSans-69" transform="translate(260.15625 0)"/>
    <use xlink:href="#DejaVuSans-6f" transform="translate(287.939453 0)"/>
    <use xlink:href="#DejaVuSans-6e" transform="translate(349.121094 0)"/>
    <use xlink:href="#DejaVuSans-20" transform="translate(412.5 0)"/>
    <use xlink:href="#DejaVuSans-73" transform="translate(444.287109 0)"/>
    <use xlink:href="#DejaVuSans-74" transform="translate(496.386719 0)"/>
    <use xlink:href="#DejaVuSans-75" transform="translate(535.595703 0)"/>
    <use xlink:href="#DejaVuSans-64" transform="translate(598.974609 0)"/>
    <use xlink:href="#DejaVuSans-79" transform="translate(662.451172 0)"/>
    <use xlink:href="#DejaVuSans-20" transform="translate(721.630859 0)"/>
    <use xlink:href="#DejaVuSans-66" transform="translate(753.417969 0)"/>
    <use xlink:href="#DejaVuSans-6f" transform="translate(788.623047 0)"/>
    <use xlink:href="#DejaVuSans-72" transform="translate(849.804688 0)"/>
    <use xlink:href="#DejaVuSans-20" transform="translate(890.917969 0)"/>
    <use xlink:href="#DejaVuSans-46" transform="translate(922.705078 0)"/>
    <use xlink:href="#DejaVuSans-55" transform="translate(980.224609 0)"/>
    <use xlink:href="#DejaVuSans-47" transform="translate(1053.417969 0)"/>
    <use xlink:href="#DejaVuSans-41" transform="translate(1130.908203 0)"/>
    <use xlink:href="#DejaVuSans-4c" transform="translate(1199.316406 0)"/>
    <use xlink:href="#DejaVuSans-20" transform="translate(1255.029297 0)"/>
    <use xlink:href="#DejaVuSans-66" transform="translate(1286.816406 0)"/>
    <use xlink:href="#DejaVuSans-65" transform="translate(1322.021484 0)"/>
    <use xlink:href="#DejaVuSans-61" transform="translate(1383.544922 0)"/>
    <use xlink:href="#DejaVuSans-74" transform="translate(1444.824219 0)"/>
    <use xlink:href="#DejaVuSans-75" transform="translate(1484.033203 0)"/>
    <use xlink:href="#DejaVuSans-72" transform="translate(1547.412109 0)"/>
    <use xlink:href="#DejaVuSans-65" transform="translate(1586.275391 0)"/>
    <use xlink:href="#DejaVuSans-73" transform="translate(1647.798828 0)"/>
   </g>
  </g>
 </g>
 <defs>
  <clipPath id="p0d40b2eb42">
   <rect x="69.77" y="62.88" width="481.52" height="327.16"/>
  </clipPath>
 </defs>
</svg>
