<?xml version="1.0" encoding="utf-8" standalone="no"?>
<!DOCTYPE svg PUBLIC "-//W3C//DTD SVG 1.1//EN"
  "http://www.w3.org/Graphics/SVG/1.1/DTD/svg11.dtd">
<svg xmlns:xlink="http://www.w3.org/1999/xlink" width="720pt" height="432pt" viewBox="0 0 720 432" xmlns="http://www.w3.org/2000/svg" version="1.1">
 <metadata>
  <rdf:RDF xmlns:dc="http://purl.org/dc/elements/1.1/" xmlns:cc="http://creativecommons.org/ns#" xmlns:rdf="http://www.w3.org/1999/02/22-rdf-syntax-ns#">
   <cc:Work>
    <dc:type rdf:resource="http://purl.org/dc/dcmitype/StillImage"/>
    <dc:date>2025-02-28T09:55:25.559065</dc:date>
    <dc:format>image/svg+xml</dc:format>
    <dc:creator>
     <cc:Agent>
      <dc:title>Matplotlib v3.10.0, https://matplotlib.org/</dc:title>
     </cc:Agent>
    </dc:creator>
   </cc:Work>
  </rdf:RDF>
 </metadata>
 <defs>
  <style type="text/css">*{stroke-linejoin: round; stroke-linecap: butt}</style>
 </defs>
 <g id="figure_1">
  <g id="patch_1">
   <path d="M 0 432 
L 720 432 
L 720 0 
L 0 0 
z
" style="fill: #ffffff"/>
  </g>
  <g id="axes_1">
   <g id="patch_2">
    <path d="M 47.72 390.04 
L 525.73 390.04 
L 525.73 62.88 
L 47.72 62.88 
z
" style="fill: #ffffff"/>
   </g>
   <g id="matplotlib.axis_1">
    <g id="xtick_1">
     <g id="line2d_1">
      <path d="M 69.447727 390.04 
L 69.447727 62.88 
" clip-path="url(#pfc75bcb541)" style="fill: none; stroke: #b0b0b0; stroke-width: 0.8; stroke-linecap: square"/>
     </g>
     <g id="line2d_2">
      <defs>
       <path id="m1120c805f4" d="M 0 0 
L 0 3.5 
" style="stroke: #000000; stroke-width: 0.8"/>
      </defs>
      <g>
       <use xlink:href="#m1120c805f4" x="69.447727" y="390.04" style="stroke: #000000; stroke-width: 0.8"/>
      </g>
     </g>
     <g id="text_1">
      <!-- 0.00 -->
      <g transform="translate(58.314915 404.638438) scale(0.1 -0.1)">
       <defs>
        <path id="DejaVuSans-30" d="M 2034 4250 
Q 1547 4250 1301 3770 
Q 1056 3291 1056 2328 
Q 1056 1369 1301 889 
Q 1547 409 2034 409 
Q 2525 409 2770 889 
Q 3016 1369 3016 2328 
Q 3016 3291 2770 3770 
Q 2525 4250 2034 4250 
z
M 2034 4750 
Q 2819 4750 3233 4129 
Q 3647 3509 3647 2328 
Q 3647 1150 3233 529 
Q 2819 -91 2034 -91 
Q 1250 -91 836 529 
Q 422 1150 422 2328 
Q 422 3509 836 4129 
Q 1250 4750 2034 4750 
z
" transform="scale(0.015625)"/>
        <path id="DejaVuSans-2e" d="M 684 794 
L 1344 794 
L 1344 0 
L 684 0 
L 684 794 
z
" transform="scale(0.015625)"/>
       </defs>
       <use xlink:href="#DejaVuSans-30"/>
       <use xlink:href="#DejaVuSans-2e" transform="translate(63.623047 0)"/>
       <use xlink:href="#DejaVuSans-30" transform="translate(95.410156 0)"/>
       <use xlink:href="#DejaVuSans-30" transform="translate(159.033203 0)"/>
      </g>
     </g>
    </g>
    <g id="xtick_2">
     <g id="line2d_3">
      <path d="M 156.358636 390.04 
L 156.358636 62.88 
" clip-path="url(#pfc75bcb541)" style="fill: none; stroke: #b0b0b0; stroke-width: 0.8; stroke-linecap: square"/>
     </g>
     <g id="line2d_4">
      <g>
       <use xlink:href="#m1120c805f4" x="156.358636" y="390.04" style="stroke: #000000; stroke-width: 0.8"/>
      </g>
     </g>
     <g id="text_2">
      <!-- 0.05 -->
      <g transform="translate(145.225824 404.638438) scale(0.1 -0.1)">
       <defs>
        <path id="DejaVuSans-35" d="M 691 4666 
L 3169 4666 
L 3169 4134 
L 1269 4134 
L 1269 2991 
Q 1406 3038 1543 3061 
Q 1681 3084 1819 3084 
Q 2600 3084 3056 2656 
Q 3513 2228 3513 1497 
Q 3513 744 3044 326 
Q 2575 -91 1722 -91 
Q 1428 -91 1123 -41 
Q 819 9 494 109 
L 494 744 
Q 775 591 1075 516 
Q 1375 441 1709 441 
Q 2250 441 2565 725 
Q 2881 1009 2881 1497 
Q 2881 1984 2565 2268 
Q 2250 2553 1709 2553 
Q 1456 2553 1204 2497 
Q 953 2441 691 2322 
L 691 4666 
z
" transform="scale(0.015625)"/>
       </defs>
       <use xlink:href="#DejaVuSans-30"/>
       <use xlink:href="#DejaVuSans-2e" transform="translate(63.623047 0)"/>
       <use xlink:href="#DejaVuSans-30" transform="translate(95.410156 0)"/>
       <use xlink:href="#DejaVuSans-35" transform="translate(159.033203 0)"/>
      </g>
     </g>
    </g>
    <g id="xtick_3">
     <g id="line2d_5">
      <path d="M 243.269545 390.04 
L 243.269545 62.88 
" clip-path="url(#pfc75bcb541)" style="fill: none; stroke: #b0b0b0; stroke-width: 0.8; stroke-linecap: square"/>
     </g>
     <g id="line2d_6">
      <g>
       <use xlink:href="#m1120c805f4" x="243.269545" y="390.04" style="stroke: #000000; stroke-width: 0.8"/>
      </g>
     </g>
     <g id="text_3">
      <!-- 0.10 -->
      <g transform="translate(232.136733 404.638438) scale(0.1 -0.1)">
       <defs>
        <path id="DejaVuSans-31" d="M 794 531 
L 1825 531 
L 1825 4091 
L 703 3866 
L 703 4441 
L 1819 4666 
L 2450 4666 
L 2450 531 
L 3481 531 
L 3481 0 
L 794 0 
L 794 531 
z
" transform="scale(0.015625)"/>
       </defs>
       <use xlink:href="#DejaVuSans-30"/>
       <use xlink:href="#DejaVuSans-2e" transform="translate(63.623047 0)"/>
       <use xlink:href="#DejaVuSans-31" transform="translate(95.410156 0)"/>
       <use xlink:href="#DejaVuSans-30" transform="translate(159.033203 0)"/>
      </g>
     </g>
    </g>
    <g id="xtick_4">
     <g id="line2d_7">
      <path d="M 330.180455 390.04 
L 330.180455 62.88 
" clip-path="url(#pfc75bcb541)" style="fill: none; stroke: #b0b0b0; stroke-width: 0.8; stroke-linecap: square"/>
     </g>
     <g id="line2d_8">
      <g>
       <use xlink:href="#m1120c805f4" x="330.180455" y="390.04" style="stroke: #000000; stroke-width: 0.8"/>
      </g>
     </g>
     <g id="text_4">
      <!-- 0.15 -->
      <g transform="translate(319.047642 404.638438) scale(0.1 -0.1)">
       <use xlink:href="#DejaVuSans-30"/>
       <use xlink:href="#DejaVuSans-2e" transform="translate(63.623047 0)"/>
       <use xlink:href="#DejaVuSans-31" transform="translate(95.410156 0)"/>
       <use xlink:href="#DejaVuSans-35" transform="translate(159.033203 0)"/>
      </g>
     </g>
    </g>
    <g id="xtick_5">
     <g id="line2d_9">
      <path d="M 417.091364 390.04 
L 417.091364 62.88 
" clip-path="url(#pfc75bcb541)" style="fill: none; stroke: #b0b0b0; stroke-width: 0.8; stroke-linecap: square"/>
     </g>
     <g id="line2d_10">
      <g>
       <use xlink:href="#m1120c805f4" x="417.091364" y="390.04" style="stroke: #000000; stroke-width: 0.8"/>
      </g>
     </g>
     <g id="text_5">
      <!-- 0.20 -->
      <g transform="translate(405.958551 404.638438) scale(0.1 -0.1)">
       <defs>
        <path id="DejaVuSans-32" d="M 1228 531 
L 3431 531 
L 3431 0 
L 469 0 
L 469 531 
Q 828 903 1448 1529 
Q 2069 2156 2228 2338 
Q 2531 2678 2651 2914 
Q 2772 3150 2772 3378 
Q 2772 3750 2511 3984 
Q 2250 4219 1831 4219 
Q 1534 4219 1204 4116 
Q 875 4013 500 3803 
L 500 4441 
Q 881 4594 1212 4672 
Q 1544 4750 1819 4750 
Q 2544 4750 2975 4387 
Q 3406 4025 3406 3419 
Q 3406 3131 3298 2873 
Q 3191 2616 2906 2266 
Q 2828 2175 2409 1742 
Q 1991 1309 1228 531 
z
" transform="scale(0.015625)"/>
       </defs>
       <use xlink:href="#DejaVuSans-30"/>
       <use xlink:href="#DejaVuSans-2e" transform="translate(63.623047 0)"/>
       <use xlink:href="#DejaVuSans-32" transform="translate(95.410156 0)"/>
       <use xlink:href="#DejaVuSans-30" transform="translate(159.033203 0)"/>
      </g>
     </g>
    </g>
    <g id="xtick_6">
     <g id="line2d_11">
      <path d="M 504.002273 390.04 
L 504.002273 62.88 
" clip-path="url(#pfc75bcb541)" style="fill: none; stroke: #b0b0b0; stroke-width: 0.8; stroke-linecap: square"/>
     </g>
     <g id="line2d_12">
      <g>
       <use xlink:href="#m1120c805f4" x="504.002273" y="390.04" style="stroke: #000000; stroke-width: 0.8"/>
      </g>
     </g>
     <g id="text_6">
      <!-- 0.25 -->
      <g transform="translate(492.86946 404.638438) scale(0.1 -0.1)">
       <use xlink:href="#DejaVuSans-30"/>
       <use xlink:href="#DejaVuSans-2e" transform="translate(63.623047 0)"/>
       <use xlink:href="#DejaVuSans-32" transform="translate(95.410156 0)"/>
       <use xlink:href="#DejaVuSans-35" transform="translate(159.033203 0)"/>
      </g>
     </g>
    </g>
    <g id="text_7">
     <!-- Noise-level -->
     <g transform="translate(259.160156 418.316562) scale(0.1 -0.1)">
      <defs>
       <path id="DejaVuSans-4e" d="M 628 4666 
L 1478 4666 
L 3547 763 
L 3547 4666 
L 4159 4666 
L 4159 0 
L 3309 0 
L 1241 3903 
L 1241 0 
L 628 0 
L 628 4666 
z
" transform="scale(0.015625)"/>
       <path id="DejaVuSans-6f" d="M 1959 3097 
Q 1497 3097 1228 2736 
Q 959 2375 959 1747 
Q 959 1119 1226 758 
Q 1494 397 1959 397 
Q 2419 397 2687 759 
Q 2956 1122 2956 1747 
Q 2956 2369 2687 2733 
Q 2419 3097 1959 3097 
z
M 1959 3584 
Q 2709 3584 3137 3096 
Q 3566 2609 3566 1747 
Q 3566 888 3137 398 
Q 2709 -91 1959 -91 
Q 1206 -91 779 398 
Q 353 888 353 1747 
Q 353 2609 779 3096 
Q 1206 3584 1959 3584 
z
" transform="scale(0.015625)"/>
       <path id="DejaVuSans-69" d="M 603 3500 
L 1178 3500 
L 1178 0 
L 603 0 
L 603 3500 
z
M 603 4863 
L 1178 4863 
L 1178 4134 
L 603 4134 
L 603 4863 
z
" transform="scale(0.015625)"/>
       <path id="DejaVuSans-73" d="M 2834 3397 
L 2834 2853 
Q 2591 2978 2328 3040 
Q 2066 3103 1784 3103 
Q 1356 3103 1142 2972 
Q 928 2841 928 2578 
Q 928 2378 1081 2264 
Q 1234 2150 1697 2047 
L 1894 2003 
Q 2506 1872 2764 1633 
Q 3022 1394 3022 966 
Q 3022 478 2636 193 
Q 2250 -91 1575 -91 
Q 1294 -91 989 -36 
Q 684 19 347 128 
L 347 722 
Q 666 556 975 473 
Q 1284 391 1588 391 
Q 1994 391 2212 530 
Q 2431 669 2431 922 
Q 2431 1156 2273 1281 
Q 2116 1406 1581 1522 
L 1381 1569 
Q 847 1681 609 1914 
Q 372 2147 372 2553 
Q 372 3047 722 3315 
Q 1072 3584 1716 3584 
Q 2034 3584 2315 3537 
Q 2597 3491 2834 3397 
z
" transform="scale(0.015625)"/>
       <path id="DejaVuSans-65" d="M 3597 1894 
L 3597 1613 
L 953 1613 
Q 991 1019 1311 708 
Q 1631 397 2203 397 
Q 2534 397 2845 478 
Q 3156 559 3463 722 
L 3463 178 
Q 3153 47 2828 -22 
Q 2503 -91 2169 -91 
Q 1331 -91 842 396 
Q 353 884 353 1716 
Q 353 2575 817 3079 
Q 1281 3584 2069 3584 
Q 2775 3584 3186 3129 
Q 3597 2675 3597 1894 
z
M 3022 2063 
Q 3016 2534 2758 2815 
Q 2500 3097 2075 3097 
Q 1594 3097 1305 2825 
Q 1016 2553 972 2059 
L 3022 2063 
z
" transform="scale(0.015625)"/>
       <path id="DejaVuSans-2d" d="M 313 2009 
L 1997 2009 
L 1997 1497 
L 313 1497 
L 313 2009 
z
" transform="scale(0.015625)"/>
       <path id="DejaVuSans-6c" d="M 603 4863 
L 1178 4863 
L 1178 0 
L 603 0 
L 603 4863 
z
" transform="scale(0.015625)"/>
       <path id="DejaVuSans-76" d="M 191 3500 
L 800 3500 
L 1894 563 
L 2988 3500 
L 3597 3500 
L 2284 0 
L 1503 0 
L 191 3500 
z
" transform="scale(0.015625)"/>
      </defs>
      <use xlink:href="#DejaVuSans-4e"/>
      <use xlink:href="#DejaVuSans-6f" transform="translate(74.804688 0)"/>
      <use xlink:href="#DejaVuSans-69" transform="translate(135.986328 0)"/>
      <use xlink:href="#DejaVuSans-73" transform="translate(163.769531 0)"/>
      <use xlink:href="#DejaVuSans-65" transform="translate(215.869141 0)"/>
      <use xlink:href="#DejaVuSans-2d" transform="translate(277.392578 0)"/>
      <use xlink:href="#DejaVuSans-6c" transform="translate(313.476562 0)"/>
      <use xlink:href="#DejaVuSans-65" transform="translate(341.259766 0)"/>
      <use xlink:href="#DejaVuSans-76" transform="translate(402.783203 0)"/>
      <use xlink:href="#DejaVuSans-65" transform="translate(461.962891 0)"/>
      <use xlink:href="#DejaVuSans-6c" transform="translate(523.486328 0)"/>
     </g>
    </g>
   </g>
   <g id="matplotlib.axis_2">
    <g id="ytick_1">
     <g id="line2d_13">
      <path d="M 47.72 362.776667 
L 525.73 362.776667 
" clip-path="url(#pfc75bcb541)" style="fill: none; stroke: #b0b0b0; stroke-width: 0.8; stroke-linecap: square"/>
     </g>
     <g id="line2d_14">
      <defs>
       <path id="mcfe6dadbbd" d="M 0 0 
L -3.5 0 
" style="stroke: #000000; stroke-width: 0.8"/>
      </defs>
      <g>
       <use xlink:href="#mcfe6dadbbd" x="47.72" y="362.776667" style="stroke: #000000; stroke-width: 0.8"/>
      </g>
     </g>
     <g id="text_8">
      <!-- 0.0 -->
      <g transform="translate(24.816875 366.575885) scale(0.1 -0.1)">
       <use xlink:href="#DejaVuSans-30"/>
       <use xlink:href="#DejaVuSans-2e" transform="translate(63.623047 0)"/>
       <use xlink:href="#DejaVuSans-30" transform="translate(95.410156 0)"/>
      </g>
     </g>
    </g>
    <g id="ytick_2">
     <g id="line2d_15">
      <path d="M 47.72 308.25 
L 525.73 308.25 
" clip-path="url(#pfc75bcb541)" style="fill: none; stroke: #b0b0b0; stroke-width: 0.8; stroke-linecap: square"/>
     </g>
     <g id="line2d_16">
      <g>
       <use xlink:href="#mcfe6dadbbd" x="47.72" y="308.25" style="stroke: #000000; stroke-width: 0.8"/>
      </g>
     </g>
     <g id="text_9">
      <!-- 0.2 -->
      <g transform="translate(24.816875 312.049219) scale(0.1 -0.1)">
       <use xlink:href="#DejaVuSans-30"/>
       <use xlink:href="#DejaVuSans-2e" transform="translate(63.623047 0)"/>
       <use xlink:href="#DejaVuSans-32" transform="translate(95.410156 0)"/>
      </g>
     </g>
    </g>
    <g id="ytick_3">
     <g id="line2d_17">
      <path d="M 47.72 253.723333 
L 525.73 253.723333 
" clip-path="url(#pfc75bcb541)" style="fill: none; stroke: #b0b0b0; stroke-width: 0.8; stroke-linecap: square"/>
     </g>
     <g id="line2d_18">
      <g>
       <use xlink:href="#mcfe6dadbbd" x="47.72" y="253.723333" style="stroke: #000000; stroke-width: 0.8"/>
      </g>
     </g>
     <g id="text_10">
      <!-- 0.4 -->
      <g transform="translate(24.816875 257.522552) scale(0.1 -0.1)">
       <defs>
        <path id="DejaVuSans-34" d="M 2419 4116 
L 825 1625 
L 2419 1625 
L 2419 4116 
z
M 2253 4666 
L 3047 4666 
L 3047 1625 
L 3713 1625 
L 3713 1100 
L 3047 1100 
L 3047 0 
L 2419 0 
L 2419 1100 
L 313 1100 
L 313 1709 
L 2253 4666 
z
" transform="scale(0.015625)"/>
       </defs>
       <use xlink:href="#DejaVuSans-30"/>
       <use xlink:href="#DejaVuSans-2e" transform="translate(63.623047 0)"/>
       <use xlink:href="#DejaVuSans-34" transform="translate(95.410156 0)"/>
      </g>
     </g>
    </g>
    <g id="ytick_4">
     <g id="line2d_19">
      <path d="M 47.72 199.196667 
L 525.73 199.196667 
" clip-path="url(#pfc75bcb541)" style="fill: none; stroke: #b0b0b0; stroke-width: 0.8; stroke-linecap: square"/>
     </g>
     <g id="line2d_20">
      <g>
       <use xlink:href="#mcfe6dadbbd" x="47.72" y="199.196667" style="stroke: #000000; stroke-width: 0.8"/>
      </g>
     </g>
     <g id="text_11">
      <!-- 0.6 -->
      <g transform="translate(24.816875 202.995885) scale(0.1 -0.1)">
       <defs>
        <path id="DejaVuSans-36" d="M 2113 2584 
Q 1688 2584 1439 2293 
Q 1191 2003 1191 1497 
Q 1191 994 1439 701 
Q 1688 409 2113 409 
Q 2538 409 2786 701 
Q 3034 994 3034 1497 
Q 3034 2003 2786 2293 
Q 2538 2584 2113 2584 
z
M 3366 4563 
L 3366 3988 
Q 3128 4100 2886 4159 
Q 2644 4219 2406 4219 
Q 1781 4219 1451 3797 
Q 1122 3375 1075 2522 
Q 1259 2794 1537 2939 
Q 1816 3084 2150 3084 
Q 2853 3084 3261 2657 
Q 3669 2231 3669 1497 
Q 3669 778 3244 343 
Q 2819 -91 2113 -91 
Q 1303 -91 875 529 
Q 447 1150 447 2328 
Q 447 3434 972 4092 
Q 1497 4750 2381 4750 
Q 2619 4750 2861 4703 
Q 3103 4656 3366 4563 
z
" transform="scale(0.015625)"/>
       </defs>
       <use xlink:href="#DejaVuSans-30"/>
       <use xlink:href="#DejaVuSans-2e" transform="translate(63.623047 0)"/>
       <use xlink:href="#DejaVuSans-36" transform="translate(95.410156 0)"/>
      </g>
     </g>
    </g>
    <g id="ytick_5">
     <g id="line2d_21">
      <path d="M 47.72 144.67 
L 525.73 144.67 
" clip-path="url(#pfc75bcb541)" style="fill: none; stroke: #b0b0b0; stroke-width: 0.8; stroke-linecap: square"/>
     </g>
     <g id="line2d_22">
      <g>
       <use xlink:href="#mcfe6dadbbd" x="47.72" y="144.67" style="stroke: #000000; stroke-width: 0.8"/>
      </g>
     </g>
     <g id="text_12">
      <!-- 0.8 -->
      <g transform="translate(24.816875 148.469219) scale(0.1 -0.1)">
       <defs>
        <path id="DejaVuSans-38" d="M 2034 2216 
Q 1584 2216 1326 1975 
Q 1069 1734 1069 1313 
Q 1069 891 1326 650 
Q 1584 409 2034 409 
Q 2484 409 2743 651 
Q 3003 894 3003 1313 
Q 3003 1734 2745 1975 
Q 2488 2216 2034 2216 
z
M 1403 2484 
Q 997 2584 770 2862 
Q 544 3141 544 3541 
Q 544 4100 942 4425 
Q 1341 4750 2034 4750 
Q 2731 4750 3128 4425 
Q 3525 4100 3525 3541 
Q 3525 3141 3298 2862 
Q 3072 2584 2669 2484 
Q 3125 2378 3379 2068 
Q 3634 1759 3634 1313 
Q 3634 634 3220 271 
Q 2806 -91 2034 -91 
Q 1263 -91 848 271 
Q 434 634 434 1313 
Q 434 1759 690 2068 
Q 947 2378 1403 2484 
z
M 1172 3481 
Q 1172 3119 1398 2916 
Q 1625 2713 2034 2713 
Q 2441 2713 2670 2916 
Q 2900 3119 2900 3481 
Q 2900 3844 2670 4047 
Q 2441 4250 2034 4250 
Q 1625 4250 1398 4047 
Q 1172 3844 1172 3481 
z
" transform="scale(0.015625)"/>
       </defs>
       <use xlink:href="#DejaVuSans-30"/>
       <use xlink:href="#DejaVuSans-2e" transform="translate(63.623047 0)"/>
       <use xlink:href="#DejaVuSans-38" transform="translate(95.410156 0)"/>
      </g>
     </g>
    </g>
    <g id="ytick_6">
     <g id="line2d_23">
      <path d="M 47.72 90.143333 
L 525.73 90.143333 
" clip-path="url(#pfc75bcb541)" style="fill: none; stroke: #b0b0b0; stroke-width: 0.8; stroke-linecap: square"/>
     </g>
     <g id="line2d_24">
      <g>
       <use xlink:href="#mcfe6dadbbd" x="47.72" y="90.143333" style="stroke: #000000; stroke-width: 0.8"/>
      </g>
     </g>
     <g id="text_13">
      <!-- 1.0 -->
      <g transform="translate(24.816875 93.942552) scale(0.1 -0.1)">
       <use xlink:href="#DejaVuSans-31"/>
       <use xlink:href="#DejaVuSans-2e" transform="translate(63.623047 0)"/>
       <use xlink:href="#DejaVuSans-30" transform="translate(95.410156 0)"/>
      </g>
     </g>
    </g>
    <g id="text_14">
     <!-- Accuracy -->
     <g transform="translate(18.737188 249.288125) rotate(-90) scale(0.1 -0.1)">
      <defs>
       <path id="DejaVuSans-41" d="M 2188 4044 
L 1331 1722 
L 3047 1722 
L 2188 4044 
z
M 1831 4666 
L 2547 4666 
L 4325 0 
L 3669 0 
L 3244 1197 
L 1141 1197 
L 716 0 
L 50 0 
L 1831 4666 
z
" transform="scale(0.015625)"/>
       <path id="DejaVuSans-63" d="M 3122 3366 
L 3122 2828 
Q 2878 2963 2633 3030 
Q 2388 3097 2138 3097 
Q 1578 3097 1268 2742 
Q 959 2388 959 1747 
Q 959 1106 1268 751 
Q 1578 397 2138 397 
Q 2388 397 2633 464 
Q 2878 531 3122 666 
L 3122 134 
Q 2881 22 2623 -34 
Q 2366 -91 2075 -91 
Q 1284 -91 818 406 
Q 353 903 353 1747 
Q 353 2603 823 3093 
Q 1294 3584 2113 3584 
Q 2378 3584 2631 3529 
Q 2884 3475 3122 3366 
z
" transform="scale(0.015625)"/>
       <path id="DejaVuSans-75" d="M 544 1381 
L 544 3500 
L 1119 3500 
L 1119 1403 
Q 1119 906 1312 657 
Q 1506 409 1894 409 
Q 2359 409 2629 706 
Q 2900 1003 2900 1516 
L 2900 3500 
L 3475 3500 
L 3475 0 
L 2900 0 
L 2900 538 
Q 2691 219 2414 64 
Q 2138 -91 1772 -91 
Q 1169 -91 856 284 
Q 544 659 544 1381 
z
M 1991 3584 
L 1991 3584 
z
" transform="scale(0.015625)"/>
       <path id="DejaVuSans-72" d="M 2631 2963 
Q 2534 3019 2420 3045 
Q 2306 3072 2169 3072 
Q 1681 3072 1420 2755 
Q 1159 2438 1159 1844 
L 1159 0 
L 581 0 
L 581 3500 
L 1159 3500 
L 1159 2956 
Q 1341 3275 1631 3429 
Q 1922 3584 2338 3584 
Q 2397 3584 2469 3576 
Q 2541 3569 2628 3553 
L 2631 2963 
z
" transform="scale(0.015625)"/>
       <path id="DejaVuSans-61" d="M 2194 1759 
Q 1497 1759 1228 1600 
Q 959 1441 959 1056 
Q 959 750 1161 570 
Q 1363 391 1709 391 
Q 2188 391 2477 730 
Q 2766 1069 2766 1631 
L 2766 1759 
L 2194 1759 
z
M 3341 1997 
L 3341 0 
L 2766 0 
L 2766 531 
Q 2569 213 2275 61 
Q 1981 -91 1556 -91 
Q 1019 -91 701 211 
Q 384 513 384 1019 
Q 384 1609 779 1909 
Q 1175 2209 1959 2209 
L 2766 2209 
L 2766 2266 
Q 2766 2663 2505 2880 
Q 2244 3097 1772 3097 
Q 1472 3097 1187 3025 
Q 903 2953 641 2809 
L 641 3341 
Q 956 3463 1253 3523 
Q 1550 3584 1831 3584 
Q 2591 3584 2966 3190 
Q 3341 2797 3341 1997 
z
" transform="scale(0.015625)"/>
       <path id="DejaVuSans-79" d="M 2059 -325 
Q 1816 -950 1584 -1140 
Q 1353 -1331 966 -1331 
L 506 -1331 
L 506 -850 
L 844 -850 
Q 1081 -850 1212 -737 
Q 1344 -625 1503 -206 
L 1606 56 
L 191 3500 
L 800 3500 
L 1894 763 
L 2988 3500 
L 3597 3500 
L 2059 -325 
z
" transform="scale(0.015625)"/>
      </defs>
      <use xlink:href="#DejaVuSans-41"/>
      <use xlink:href="#DejaVuSans-63" transform="translate(66.658203 0)"/>
      <use xlink:href="#DejaVuSans-63" transform="translate(121.638672 0)"/>
      <use xlink:href="#DejaVuSans-75" transform="translate(176.619141 0)"/>
      <use xlink:href="#DejaVuSans-72" transform="translate(239.998047 0)"/>
      <use xlink:href="#DejaVuSans-61" transform="translate(281.111328 0)"/>
      <use xlink:href="#DejaVuSans-63" transform="translate(342.390625 0)"/>
      <use xlink:href="#DejaVuSans-79" transform="translate(397.371094 0)"/>
     </g>
    </g>
   </g>
   <g id="line2d_25">
    <path d="M 69.447727 111.328087 
L 156.358636 135.40167 
L 243.269545 174.882347 
L 330.180455 212.918609 
L 417.091364 221.585099 
L 504.002273 240.121759 
" clip-path="url(#pfc75bcb541)" style="fill: none; stroke: #6aaed6; stroke-width: 1.5; stroke-linecap: square"/>
    <defs>
     <path id="mb84d8c3a69" d="M -3 3 
L 3 3 
L 3 -3 
L -3 -3 
z
" style="stroke: #6aaed6; stroke-linejoin: miter"/>
    </defs>
    <g clip-path="url(#pfc75bcb541)">
     <use xlink:href="#mb84d8c3a69" x="69.447727" y="111.328087" style="fill: #6aaed6; stroke: #6aaed6; stroke-linejoin: miter"/>
     <use xlink:href="#mb84d8c3a69" x="156.358636" y="135.40167" style="fill: #6aaed6; stroke: #6aaed6; stroke-linejoin: miter"/>
     <use xlink:href="#mb84d8c3a69" x="243.269545" y="174.882347" style="fill: #6aaed6; stroke: #6aaed6; stroke-linejoin: miter"/>
     <use xlink:href="#mb84d8c3a69" x="330.180455" y="212.918609" style="fill: #6aaed6; stroke: #6aaed6; stroke-linejoin: miter"/>
     <use xlink:href="#mb84d8c3a69" x="417.091364" y="221.585099" style="fill: #6aaed6; stroke: #6aaed6; stroke-linejoin: miter"/>
     <use xlink:href="#mb84d8c3a69" x="504.002273" y="240.121759" style="fill: #6aaed6; stroke: #6aaed6; stroke-linejoin: miter"/>
    </g>
   </g>
   <g id="line2d_26">
    <path d="M 69.447727 112.170662 
L 156.358636 111.809558 
L 243.269545 119.633473 
L 330.180455 122.161199 
L 417.091364 133.11468 
L 504.002273 143.707057 
" clip-path="url(#pfc75bcb541)" style="fill: none; stroke: #4a98c9; stroke-width: 1.5; stroke-linecap: square"/>
    <defs>
     <path id="m09d24d9350" d="M -3 3 
L 3 -3 
M -3 -3 
L 3 3 
" style="stroke: #4a98c9"/>
    </defs>
    <g clip-path="url(#pfc75bcb541)">
     <use xlink:href="#m09d24d9350" x="69.447727" y="112.170662" style="fill: #4a98c9; stroke: #4a98c9"/>
     <use xlink:href="#m09d24d9350" x="156.358636" y="111.809558" style="fill: #4a98c9; stroke: #4a98c9"/>
     <use xlink:href="#m09d24d9350" x="243.269545" y="119.633473" style="fill: #4a98c9; stroke: #4a98c9"/>
     <use xlink:href="#m09d24d9350" x="330.180455" y="122.161199" style="fill: #4a98c9; stroke: #4a98c9"/>
     <use xlink:href="#m09d24d9350" x="417.091364" y="133.11468" style="fill: #4a98c9; stroke: #4a98c9"/>
     <use xlink:href="#m09d24d9350" x="504.002273" y="143.707057" style="fill: #4a98c9; stroke: #4a98c9"/>
    </g>
   </g>
   <g id="line2d_27">
    <path d="M 69.447727 113.133606 
L 156.358636 344.962215 
L 243.269545 355.795327 
L 330.180455 358.924893 
L 417.091364 360.369308 
L 504.002273 361.693355 
" clip-path="url(#pfc75bcb541)" style="fill: none; stroke: #2e7ebc; stroke-width: 1.5; stroke-linecap: square"/>
    <defs>
     <path id="mc1493935ea" d="M 0 4.242641 
L 4.242641 0 
L 0 -4.242641 
L -4.242641 0 
z
" style="stroke: #2e7ebc; stroke-linejoin: miter"/>
    </defs>
    <g clip-path="url(#pfc75bcb541)">
     <use xlink:href="#mc1493935ea" x="69.447727" y="113.133606" style="fill: #2e7ebc; stroke: #2e7ebc; stroke-linejoin: miter"/>
     <use xlink:href="#mc1493935ea" x="156.358636" y="344.962215" style="fill: #2e7ebc; stroke: #2e7ebc; stroke-linejoin: miter"/>
     <use xlink:href="#mc1493935ea" x="243.269545" y="355.795327" style="fill: #2e7ebc; stroke: #2e7ebc; stroke-linejoin: miter"/>
     <use xlink:href="#mc1493935ea" x="330.180455" y="358.924893" style="fill: #2e7ebc; stroke: #2e7ebc; stroke-linejoin: miter"/>
     <use xlink:href="#mc1493935ea" x="417.091364" y="360.369308" style="fill: #2e7ebc; stroke: #2e7ebc; stroke-linejoin: miter"/>
     <use xlink:href="#mc1493935ea" x="504.002273" y="361.693355" style="fill: #2e7ebc; stroke: #2e7ebc; stroke-linejoin: miter"/>
    </g>
   </g>
   <g id="line2d_28">
    <path d="M 69.447727 112.050294 
L 156.358636 213.038977 
L 243.269545 280.324643 
L 330.180455 316.194283 
L 417.091364 345.684422 
L 504.002273 348.813988 
" clip-path="url(#pfc75bcb541)" style="fill: none; stroke: #084a91; stroke-width: 1.5; stroke-linecap: square"/>
    <defs>
     <path id="mea321e6d78" d="M 0 4.242641 
L 2.545584 0 
L 0 -4.242641 
L -2.545584 0 
z
" style="stroke: #084a91; stroke-linejoin: miter"/>
    </defs>
    <g clip-path="url(#pfc75bcb541)">
     <use xlink:href="#mea321e6d78" x="69.447727" y="112.050294" style="fill: #084a91; stroke: #084a91; stroke-linejoin: miter"/>
     <use xlink:href="#mea321e6d78" x="156.358636" y="213.038977" style="fill: #084a91; stroke: #084a91; stroke-linejoin: miter"/>
     <use xlink:href="#mea321e6d78" x="243.269545" y="280.324643" style="fill: #084a91; stroke: #084a91; stroke-linejoin: miter"/>
     <use xlink:href="#mea321e6d78" x="330.180455" y="316.194283" style="fill: #084a91; stroke: #084a91; stroke-linejoin: miter"/>
     <use xlink:href="#mea321e6d78" x="417.091364" y="345.684422" style="fill: #084a91; stroke: #084a91; stroke-linejoin: miter"/>
     <use xlink:href="#mea321e6d78" x="504.002273" y="348.813988" style="fill: #084a91; stroke: #084a91; stroke-linejoin: miter"/>
    </g>
   </g>
   <g id="line2d_29">
    <path d="M 69.447727 109.763304 
L 156.358636 192.696799 
L 243.269545 204.131751 
L 330.180455 179.817432 
L 417.091364 133.475784 
L 504.002273 144.790368 
" clip-path="url(#pfc75bcb541)" style="fill: none; stroke: #cecece; stroke-width: 1.5; stroke-linecap: square"/>
    <defs>
     <path id="m2e4c06f1ab" d="M 0 3 
C 0.795609 3 1.55874 2.683901 2.12132 2.12132 
C 2.683901 1.55874 3 0.795609 3 0 
C 3 -0.795609 2.683901 -1.55874 2.12132 -2.12132 
C 1.55874 -2.683901 0.795609 -3 0 -3 
C -0.795609 -3 -1.55874 -2.683901 -2.12132 -2.12132 
C -2.683901 -1.55874 -3 -0.795609 -3 0 
C -3 0.795609 -2.683901 1.55874 -2.12132 2.12132 
C -1.55874 2.683901 -0.795609 3 0 3 
z
" style="stroke: #cecece"/>
    </defs>
    <g clip-path="url(#pfc75bcb541)">
     <use xlink:href="#m2e4c06f1ab" x="69.447727" y="109.763304" style="fill: #cecece; stroke: #cecece"/>
     <use xlink:href="#m2e4c06f1ab" x="156.358636" y="192.696799" style="fill: #cecece; stroke: #cecece"/>
     <use xlink:href="#m2e4c06f1ab" x="243.269545" y="204.131751" style="fill: #cecece; stroke: #cecece"/>
     <use xlink:href="#m2e4c06f1ab" x="330.180455" y="179.817432" style="fill: #cecece; stroke: #cecece"/>
     <use xlink:href="#m2e4c06f1ab" x="417.091364" y="133.475784" style="fill: #cecece; stroke: #cecece"/>
     <use xlink:href="#m2e4c06f1ab" x="504.002273" y="144.790368" style="fill: #cecece; stroke: #cecece"/>
    </g>
   </g>
   <g id="line2d_30">
    <path d="M 69.447727 112.29103 
L 156.358636 110.00404 
L 243.269545 119.633473 
L 330.180455 122.281567 
L 417.091364 134.799831 
L 504.002273 144.429264 
" clip-path="url(#pfc75bcb541)" style="fill: none; stroke: #959595; stroke-width: 1.5; stroke-linecap: square"/>
    <defs>
     <path id="mbdc06b59a1" d="M 0 -3 
L -3 3 
L 3 3 
z
" style="stroke: #959595; stroke-linejoin: miter"/>
    </defs>
    <g clip-path="url(#pfc75bcb541)">
     <use xlink:href="#mbdc06b59a1" x="69.447727" y="112.29103" style="fill: #959595; stroke: #959595; stroke-linejoin: miter"/>
     <use xlink:href="#mbdc06b59a1" x="156.358636" y="110.00404" style="fill: #959595; stroke: #959595; stroke-linejoin: miter"/>
     <use xlink:href="#mbdc06b59a1" x="243.269545" y="119.633473" style="fill: #959595; stroke: #959595; stroke-linejoin: miter"/>
     <use xlink:href="#mbdc06b59a1" x="330.180455" y="122.281567" style="fill: #959595; stroke: #959595; stroke-linejoin: miter"/>
     <use xlink:href="#mbdc06b59a1" x="417.091364" y="134.799831" style="fill: #959595; stroke: #959595; stroke-linejoin: miter"/>
     <use xlink:href="#mbdc06b59a1" x="504.002273" y="144.429264" style="fill: #959595; stroke: #959595; stroke-linejoin: miter"/>
    </g>
   </g>
   <g id="line2d_31">
    <path d="M 69.447727 111.448455 
L 156.358636 110.605879 
L 243.269545 118.550162 
L 330.180455 123.244511 
L 417.091364 136.123878 
L 504.002273 144.429264 
" clip-path="url(#pfc75bcb541)" style="fill: none; stroke: #5f5f5f; stroke-width: 1.5; stroke-linecap: square"/>
    <defs>
     <path id="m0dc21d669e" d="M -3 3 
L 3 3 
L 3 -3 
L -3 -3 
z
" style="stroke: #5f5f5f; stroke-linejoin: miter"/>
    </defs>
    <g clip-path="url(#pfc75bcb541)">
     <use xlink:href="#m0dc21d669e" x="69.447727" y="111.448455" style="fill: #5f5f5f; stroke: #5f5f5f; stroke-linejoin: miter"/>
     <use xlink:href="#m0dc21d669e" x="156.358636" y="110.605879" style="fill: #5f5f5f; stroke: #5f5f5f; stroke-linejoin: miter"/>
     <use xlink:href="#m0dc21d669e" x="243.269545" y="118.550162" style="fill: #5f5f5f; stroke: #5f5f5f; stroke-linejoin: miter"/>
     <use xlink:href="#m0dc21d669e" x="330.180455" y="123.244511" style="fill: #5f5f5f; stroke: #5f5f5f; stroke-linejoin: miter"/>
     <use xlink:href="#m0dc21d669e" x="417.091364" y="136.123878" style="fill: #5f5f5f; stroke: #5f5f5f; stroke-linejoin: miter"/>
     <use xlink:href="#m0dc21d669e" x="504.002273" y="144.429264" style="fill: #5f5f5f; stroke: #5f5f5f; stroke-linejoin: miter"/>
    </g>
   </g>
   <g id="line2d_32">
    <path d="M 69.447727 113.013238 
L 156.358636 110.846615 
L 243.269545 119.874209 
L 330.180455 122.522303 
L 417.091364 133.475784 
L 504.002273 147.077358 
" clip-path="url(#pfc75bcb541)" style="fill: none; stroke: #1d1d1d; stroke-width: 1.5; stroke-linecap: square"/>
    <defs>
     <path id="m10365cf9b3" d="M -3 3 
L 3 -3 
M -3 -3 
L 3 3 
" style="stroke: #1d1d1d"/>
    </defs>
    <g clip-path="url(#pfc75bcb541)">
     <use xlink:href="#m10365cf9b3" x="69.447727" y="113.013238" style="fill: #1d1d1d; stroke: #1d1d1d"/>
     <use xlink:href="#m10365cf9b3" x="156.358636" y="110.846615" style="fill: #1d1d1d; stroke: #1d1d1d"/>
     <use xlink:href="#m10365cf9b3" x="243.269545" y="119.874209" style="fill: #1d1d1d; stroke: #1d1d1d"/>
     <use xlink:href="#m10365cf9b3" x="330.180455" y="122.522303" style="fill: #1d1d1d; stroke: #1d1d1d"/>
     <use xlink:href="#m10365cf9b3" x="417.091364" y="133.475784" style="fill: #1d1d1d; stroke: #1d1d1d"/>
     <use xlink:href="#m10365cf9b3" x="504.002273" y="147.077358" style="fill: #1d1d1d; stroke: #1d1d1d"/>
    </g>
   </g>
   <g id="line2d_33">
    <path d="M 69.447727 112.170662 
L 156.358636 116.985379 
L 243.269545 132.994312 
L 330.180455 149.966188 
L 417.091364 162.243716 
L 504.002273 173.437932 
" clip-path="url(#pfc75bcb541)" style="fill: none; stroke: #98d594; stroke-width: 1.5; stroke-linecap: square"/>
    <defs>
     <path id="ma34a4bd417" d="M 0 -3 
L -3 3 
L 3 3 
z
" style="stroke: #98d594; stroke-linejoin: miter"/>
    </defs>
    <g clip-path="url(#pfc75bcb541)">
     <use xlink:href="#ma34a4bd417" x="69.447727" y="112.170662" style="fill: #98d594; stroke: #98d594; stroke-linejoin: miter"/>
     <use xlink:href="#ma34a4bd417" x="156.358636" y="116.985379" style="fill: #98d594; stroke: #98d594; stroke-linejoin: miter"/>
     <use xlink:href="#ma34a4bd417" x="243.269545" y="132.994312" style="fill: #98d594; stroke: #98d594; stroke-linejoin: miter"/>
     <use xlink:href="#ma34a4bd417" x="330.180455" y="149.966188" style="fill: #98d594; stroke: #98d594; stroke-linejoin: miter"/>
     <use xlink:href="#ma34a4bd417" x="417.091364" y="162.243716" style="fill: #98d594; stroke: #98d594; stroke-linejoin: miter"/>
     <use xlink:href="#ma34a4bd417" x="504.002273" y="173.437932" style="fill: #98d594; stroke: #98d594; stroke-linejoin: miter"/>
    </g>
   </g>
   <g id="line2d_34">
    <path d="M 69.447727 112.050294 
L 156.358636 112.29103 
L 243.269545 126.855548 
L 330.180455 134.920199 
L 417.091364 141.901538 
L 504.002273 153.93833 
" clip-path="url(#pfc75bcb541)" style="fill: none; stroke: #4bb062; stroke-width: 1.5; stroke-linecap: square"/>
    <defs>
     <path id="mf2ec4e7b1e" d="M -3 3 
L 3 -3 
M -3 -3 
L 3 3 
" style="stroke: #4bb062"/>
    </defs>
    <g clip-path="url(#pfc75bcb541)">
     <use xlink:href="#mf2ec4e7b1e" x="69.447727" y="112.050294" style="fill: #4bb062; stroke: #4bb062"/>
     <use xlink:href="#mf2ec4e7b1e" x="156.358636" y="112.29103" style="fill: #4bb062; stroke: #4bb062"/>
     <use xlink:href="#mf2ec4e7b1e" x="243.269545" y="126.855548" style="fill: #4bb062; stroke: #4bb062"/>
     <use xlink:href="#mf2ec4e7b1e" x="330.180455" y="134.920199" style="fill: #4bb062; stroke: #4bb062"/>
     <use xlink:href="#mf2ec4e7b1e" x="417.091364" y="141.901538" style="fill: #4bb062; stroke: #4bb062"/>
     <use xlink:href="#mf2ec4e7b1e" x="504.002273" y="153.93833" style="fill: #4bb062; stroke: #4bb062"/>
    </g>
   </g>
   <g id="line2d_35">
    <path d="M 69.447727 112.652134 
L 156.358636 113.133606 
L 243.269545 125.170397 
L 330.180455 132.392472 
L 417.091364 144.308896 
L 504.002273 155.142009 
" clip-path="url(#pfc75bcb541)" style="fill: none; stroke: #2f974e; stroke-width: 1.5; stroke-linecap: square"/>
    <defs>
     <path id="m5d62d1195c" d="M 0 4.242641 
L 4.242641 0 
L 0 -4.242641 
L -4.242641 0 
z
" style="stroke: #2f974e; stroke-linejoin: miter"/>
    </defs>
    <g clip-path="url(#pfc75bcb541)">
     <use xlink:href="#m5d62d1195c" x="69.447727" y="112.652134" style="fill: #2f974e; stroke: #2f974e; stroke-linejoin: miter"/>
     <use xlink:href="#m5d62d1195c" x="156.358636" y="113.133606" style="fill: #2f974e; stroke: #2f974e; stroke-linejoin: miter"/>
     <use xlink:href="#m5d62d1195c" x="243.269545" y="125.170397" style="fill: #2f974e; stroke: #2f974e; stroke-linejoin: miter"/>
     <use xlink:href="#m5d62d1195c" x="330.180455" y="132.392472" style="fill: #2f974e; stroke: #2f974e; stroke-linejoin: miter"/>
     <use xlink:href="#m5d62d1195c" x="417.091364" y="144.308896" style="fill: #2f974e; stroke: #2f974e; stroke-linejoin: miter"/>
     <use xlink:href="#m5d62d1195c" x="504.002273" y="155.142009" style="fill: #2f974e; stroke: #2f974e; stroke-linejoin: miter"/>
    </g>
   </g>
   <g id="line2d_36">
    <path d="M 69.447727 110.966983 
L 156.358636 111.809558 
L 243.269545 120.716784 
L 330.180455 127.33702 
L 417.091364 136.725717 
L 504.002273 146.836623 
" clip-path="url(#pfc75bcb541)" style="fill: none; stroke: #157f3b; stroke-width: 1.5; stroke-linecap: square"/>
    <defs>
     <path id="me1807ee66d" d="M -1 3 
L 1 3 
L 1 1 
L 3 1 
L 3 -1 
L 1 -1 
L 1 -3 
L -1 -3 
L -1 -1 
L -3 -1 
L -3 1 
L -1 1 
z
" style="stroke: #157f3b; stroke-linejoin: miter"/>
    </defs>
    <g clip-path="url(#pfc75bcb541)">
     <use xlink:href="#me1807ee66d" x="69.447727" y="110.966983" style="fill: #157f3b; stroke: #157f3b; stroke-linejoin: miter"/>
     <use xlink:href="#me1807ee66d" x="156.358636" y="111.809558" style="fill: #157f3b; stroke: #157f3b; stroke-linejoin: miter"/>
     <use xlink:href="#me1807ee66d" x="243.269545" y="120.716784" style="fill: #157f3b; stroke: #157f3b; stroke-linejoin: miter"/>
     <use xlink:href="#me1807ee66d" x="330.180455" y="127.33702" style="fill: #157f3b; stroke: #157f3b; stroke-linejoin: miter"/>
     <use xlink:href="#me1807ee66d" x="417.091364" y="136.725717" style="fill: #157f3b; stroke: #157f3b; stroke-linejoin: miter"/>
     <use xlink:href="#me1807ee66d" x="504.002273" y="146.836623" style="fill: #157f3b; stroke: #157f3b; stroke-linejoin: miter"/>
    </g>
   </g>
   <g id="line2d_37">
    <path d="M 69.447727 111.087351 
L 156.358636 112.29103 
L 243.269545 119.392737 
L 330.180455 123.124143 
L 417.091364 134.559095 
L 504.002273 144.910736 
" clip-path="url(#pfc75bcb541)" style="fill: none; stroke: #e41a1c; stroke-width: 1.5; stroke-linecap: square"/>
   </g>
   <g id="patch_3">
    <path d="M 47.72 390.04 
L 47.72 62.88 
" style="fill: none; stroke: #000000; stroke-width: 0.8; stroke-linejoin: miter; stroke-linecap: square"/>
   </g>
   <g id="patch_4">
    <path d="M 525.73 390.04 
L 525.73 62.88 
" style="fill: none; stroke: #000000; stroke-width: 0.8; stroke-linejoin: miter; stroke-linecap: square"/>
   </g>
   <g id="patch_5">
    <path d="M 47.72 390.04 
L 525.73 390.04 
" style="fill: none; stroke: #000000; stroke-width: 0.8; stroke-linejoin: miter; stroke-linecap: square"/>
   </g>
   <g id="patch_6">
    <path d="M 47.72 62.88 
L 525.73 62.88 
" style="fill: none; stroke: #000000; stroke-width: 0.8; stroke-linejoin: miter; stroke-linecap: square"/>
   </g>
   <g id="text_15">
    <!-- $\mu$: 2.5, graph: bio-celegans -->
    <g transform="translate(206.025 56.88) scale(0.12 -0.12)">
     <defs>
      <path id="DejaVuSans-Oblique-3bc" d="M -84 -1331 
L 856 3500 
L 1434 3500 
L 1009 1322 
Q 997 1256 987 1175 
Q 978 1094 978 1013 
Q 978 722 1161 565 
Q 1344 409 1684 409 
Q 2147 409 2431 671 
Q 2716 934 2816 1459 
L 3213 3500 
L 3788 3500 
L 3266 809 
Q 3253 750 3248 706 
Q 3244 663 3244 628 
Q 3244 531 3283 486 
Q 3322 441 3406 441 
Q 3438 441 3492 456 
Q 3547 472 3647 513 
L 3559 50 
Q 3422 -19 3297 -55 
Q 3172 -91 3053 -91 
Q 2847 -91 2730 40 
Q 2613 172 2613 403 
Q 2438 153 2195 31 
Q 1953 -91 1625 -91 
Q 1334 -91 1117 43 
Q 900 178 831 397 
L 494 -1331 
L -84 -1331 
z
" transform="scale(0.015625)"/>
      <path id="DejaVuSans-3a" d="M 750 794 
L 1409 794 
L 1409 0 
L 750 0 
L 750 794 
z
M 750 3309 
L 1409 3309 
L 1409 2516 
L 750 2516 
L 750 3309 
z
" transform="scale(0.015625)"/>
      <path id="DejaVuSans-20" transform="scale(0.015625)"/>
      <path id="DejaVuSans-2c" d="M 750 794 
L 1409 794 
L 1409 256 
L 897 -744 
L 494 -744 
L 750 256 
L 750 794 
z
" transform="scale(0.015625)"/>
      <path id="DejaVuSans-67" d="M 2906 1791 
Q 2906 2416 2648 2759 
Q 2391 3103 1925 3103 
Q 1463 3103 1205 2759 
Q 947 2416 947 1791 
Q 947 1169 1205 825 
Q 1463 481 1925 481 
Q 2391 481 2648 825 
Q 2906 1169 2906 1791 
z
M 3481 434 
Q 3481 -459 3084 -895 
Q 2688 -1331 1869 -1331 
Q 1566 -1331 1297 -1286 
Q 1028 -1241 775 -1147 
L 775 -588 
Q 1028 -725 1275 -790 
Q 1522 -856 1778 -856 
Q 2344 -856 2625 -561 
Q 2906 -266 2906 331 
L 2906 616 
Q 2728 306 2450 153 
Q 2172 0 1784 0 
Q 1141 0 747 490 
Q 353 981 353 1791 
Q 353 2603 747 3093 
Q 1141 3584 1784 3584 
Q 2172 3584 2450 3431 
Q 2728 3278 2906 2969 
L 2906 3500 
L 3481 3500 
L 3481 434 
z
" transform="scale(0.015625)"/>
      <path id="DejaVuSans-70" d="M 1159 525 
L 1159 -1331 
L 581 -1331 
L 581 3500 
L 1159 3500 
L 1159 2969 
Q 1341 3281 1617 3432 
Q 1894 3584 2278 3584 
Q 2916 3584 3314 3078 
Q 3713 2572 3713 1747 
Q 3713 922 3314 415 
Q 2916 -91 2278 -91 
Q 1894 -91 1617 61 
Q 1341 213 1159 525 
z
M 3116 1747 
Q 3116 2381 2855 2742 
Q 2594 3103 2138 3103 
Q 1681 3103 1420 2742 
Q 1159 2381 1159 1747 
Q 1159 1113 1420 752 
Q 1681 391 2138 391 
Q 2594 391 2855 752 
Q 3116 1113 3116 1747 
z
" transform="scale(0.015625)"/>
      <path id="DejaVuSans-68" d="M 3513 2113 
L 3513 0 
L 2938 0 
L 2938 2094 
Q 2938 2591 2744 2837 
Q 2550 3084 2163 3084 
Q 1697 3084 1428 2787 
Q 1159 2491 1159 1978 
L 1159 0 
L 581 0 
L 581 4863 
L 1159 4863 
L 1159 2956 
Q 1366 3272 1645 3428 
Q 1925 3584 2291 3584 
Q 2894 3584 3203 3211 
Q 3513 2838 3513 2113 
z
" transform="scale(0.015625)"/>
      <path id="DejaVuSans-62" d="M 3116 1747 
Q 3116 2381 2855 2742 
Q 2594 3103 2138 3103 
Q 1681 3103 1420 2742 
Q 1159 2381 1159 1747 
Q 1159 1113 1420 752 
Q 1681 391 2138 391 
Q 2594 391 2855 752 
Q 3116 1113 3116 1747 
z
M 1159 2969 
Q 1341 3281 1617 3432 
Q 1894 3584 2278 3584 
Q 2916 3584 3314 3078 
Q 3713 2572 3713 1747 
Q 3713 922 3314 415 
Q 2916 -91 2278 -91 
Q 1894 -91 1617 61 
Q 1341 213 1159 525 
L 1159 0 
L 581 0 
L 581 4863 
L 1159 4863 
L 1159 2969 
z
" transform="scale(0.015625)"/>
      <path id="DejaVuSans-6e" d="M 3513 2113 
L 3513 0 
L 2938 0 
L 2938 2094 
Q 2938 2591 2744 2837 
Q 2550 3084 2163 3084 
Q 1697 3084 1428 2787 
Q 1159 2491 1159 1978 
L 1159 0 
L 581 0 
L 581 3500 
L 1159 3500 
L 1159 2956 
Q 1366 3272 1645 3428 
Q 1925 3584 2291 3584 
Q 2894 3584 3203 3211 
Q 3513 2838 3513 2113 
z
" transform="scale(0.015625)"/>
     </defs>
     <use xlink:href="#DejaVuSans-Oblique-3bc" transform="translate(0 0.015625)"/>
     <use xlink:href="#DejaVuSans-3a" transform="translate(63.623047 0.015625)"/>
     <use xlink:href="#DejaVuSans-20" transform="translate(97.314453 0.015625)"/>
     <use xlink:href="#DejaVuSans-32" transform="translate(129.101562 0.015625)"/>
     <use xlink:href="#DejaVuSans-2e" transform="translate(192.724609 0.015625)"/>
     <use xlink:href="#DejaVuSans-35" transform="translate(224.511719 0.015625)"/>
     <use xlink:href="#DejaVuSans-2c" transform="translate(288.134766 0.015625)"/>
     <use xlink:href="#DejaVuSans-20" transform="translate(319.921875 0.015625)"/>
     <use xlink:href="#DejaVuSans-67" transform="translate(351.708984 0.015625)"/>
     <use xlink:href="#DejaVuSans-72" transform="translate(415.185547 0.015625)"/>
     <use xlink:href="#DejaVuSans-61" transform="translate(456.298828 0.015625)"/>
     <use xlink:href="#DejaVuSans-70" transform="translate(517.578125 0.015625)"/>
     <use xlink:href="#DejaVuSans-68" transform="translate(581.054688 0.015625)"/>
     <use xlink:href="#DejaVuSans-3a" transform="translate(644.433594 0.015625)"/>
     <use xlink:href="#DejaVuSans-20" transform="translate(678.125 0.015625)"/>
     <use xlink:href="#DejaVuSans-62" transform="translate(709.912109 0.015625)"/>
     <use xlink:href="#DejaVuSans-69" transform="translate(773.388672 0.015625)"/>
     <use xlink:href="#DejaVuSans-6f" transform="translate(801.171875 0.015625)"/>
     <use xlink:href="#DejaVuSans-2d" transform="translate(862.353516 0.015625)"/>
     <use xlink:href="#DejaVuSans-63" transform="translate(898.4375 0.015625)"/>
     <use xlink:href="#DejaVuSans-65" transform="translate(953.417969 0.015625)"/>
     <use xlink:href="#DejaVuSans-6c" transform="translate(1014.941406 0.015625)"/>
     <use xlink:href="#DejaVuSans-65" transform="translate(1042.724609 0.015625)"/>
     <use xlink:href="#DejaVuSans-67" transform="translate(1104.248047 0.015625)"/>
     <use xlink:href="#DejaVuSans-61" transform="translate(1167.724609 0.015625)"/>
     <use xlink:href="#DejaVuSans-6e" transform="translate(1229.003906 0.015625)"/>
     <use xlink:href="#DejaVuSans-73" transform="translate(1292.382812 0.015625)"/>
    </g>
   </g>
   <g id="legend_1">
    <g id="patch_7">
     <path d="M 556.6305 276.37375 
L 703.438312 276.37375 
Q 705.438312 276.37375 705.438312 274.37375 
L 705.438312 69.88 
Q 705.438312 67.88 703.438312 67.88 
L 556.6305 67.88 
Q 554.6305 67.88 554.6305 69.88 
L 554.6305 274.37375 
Q 554.6305 276.37375 556.6305 276.37375 
z
" style="fill: #ffffff; opacity: 0.8; stroke: #cccccc; stroke-linejoin: miter"/>
    </g>
    <g id="text_16">
     <!-- Features -->
     <g transform="translate(608.539875 79.478437) scale(0.1 -0.1)">
      <defs>
       <path id="DejaVuSans-46" d="M 628 4666 
L 3309 4666 
L 3309 4134 
L 1259 4134 
L 1259 2759 
L 3109 2759 
L 3109 2228 
L 1259 2228 
L 1259 0 
L 628 0 
L 628 4666 
z
" transform="scale(0.015625)"/>
       <path id="DejaVuSans-74" d="M 1172 4494 
L 1172 3500 
L 2356 3500 
L 2356 3053 
L 1172 3053 
L 1172 1153 
Q 1172 725 1289 603 
Q 1406 481 1766 481 
L 2356 481 
L 2356 0 
L 1766 0 
Q 1100 0 847 248 
Q 594 497 594 1153 
L 594 3053 
L 172 3053 
L 172 3500 
L 594 3500 
L 594 4494 
L 1172 4494 
z
" transform="scale(0.015625)"/>
      </defs>
      <use xlink:href="#DejaVuSans-46"/>
      <use xlink:href="#DejaVuSans-65" transform="translate(52.019531 0)"/>
      <use xlink:href="#DejaVuSans-61" transform="translate(113.542969 0)"/>
      <use xlink:href="#DejaVuSans-74" transform="translate(174.822266 0)"/>
      <use xlink:href="#DejaVuSans-75" transform="translate(214.03125 0)"/>
      <use xlink:href="#DejaVuSans-72" transform="translate(277.410156 0)"/>
      <use xlink:href="#DejaVuSans-65" transform="translate(316.273438 0)"/>
      <use xlink:href="#DejaVuSans-73" transform="translate(377.796875 0)"/>
     </g>
    </g>
    <g id="line2d_38">
     <path d="M 558.6305 90.656562 
L 568.6305 90.656562 
L 578.6305 90.656562 
" style="fill: none; stroke: #6aaed6; stroke-width: 1.5; stroke-linecap: square"/>
     <g>
      <use xlink:href="#mb84d8c3a69" x="568.6305" y="90.656562" style="fill: #6aaed6; stroke: #6aaed6; stroke-linejoin: miter"/>
     </g>
    </g>
    <g id="text_17">
     <!-- avg 2hop deg -->
     <g transform="translate(586.6305 94.156562) scale(0.1 -0.1)">
      <defs>
       <path id="DejaVuSans-64" d="M 2906 2969 
L 2906 4863 
L 3481 4863 
L 3481 0 
L 2906 0 
L 2906 525 
Q 2725 213 2448 61 
Q 2172 -91 1784 -91 
Q 1150 -91 751 415 
Q 353 922 353 1747 
Q 353 2572 751 3078 
Q 1150 3584 1784 3584 
Q 2172 3584 2448 3432 
Q 2725 3281 2906 2969 
z
M 947 1747 
Q 947 1113 1208 752 
Q 1469 391 1925 391 
Q 2381 391 2643 752 
Q 2906 1113 2906 1747 
Q 2906 2381 2643 2742 
Q 2381 3103 1925 3103 
Q 1469 3103 1208 2742 
Q 947 2381 947 1747 
z
" transform="scale(0.015625)"/>
      </defs>
      <use xlink:href="#DejaVuSans-61"/>
      <use xlink:href="#DejaVuSans-76" transform="translate(61.279297 0)"/>
      <use xlink:href="#DejaVuSans-67" transform="translate(120.458984 0)"/>
      <use xlink:href="#DejaVuSans-20" transform="translate(183.935547 0)"/>
      <use xlink:href="#DejaVuSans-32" transform="translate(215.722656 0)"/>
      <use xlink:href="#DejaVuSans-68" transform="translate(279.345703 0)"/>
      <use xlink:href="#DejaVuSans-6f" transform="translate(342.724609 0)"/>
      <use xlink:href="#DejaVuSans-70" transform="translate(403.90625 0)"/>
      <use xlink:href="#DejaVuSans-20" transform="translate(467.382812 0)"/>
      <use xlink:href="#DejaVuSans-64" transform="translate(499.169922 0)"/>
      <use xlink:href="#DejaVuSans-65" transform="translate(562.646484 0)"/>
      <use xlink:href="#DejaVuSans-67" transform="translate(624.169922 0)"/>
     </g>
    </g>
    <g id="line2d_39">
     <path d="M 558.6305 105.334687 
L 568.6305 105.334687 
L 578.6305 105.334687 
" style="fill: none; stroke: #4a98c9; stroke-width: 1.5; stroke-linecap: square"/>
     <g>
      <use xlink:href="#m09d24d9350" x="568.6305" y="105.334687" style="fill: #4a98c9; stroke: #4a98c9"/>
     </g>
    </g>
    <g id="text_18">
     <!-- avg 2hop cluster coeff -->
     <g transform="translate(586.6305 108.834687) scale(0.1 -0.1)">
      <defs>
       <path id="DejaVuSans-66" d="M 2375 4863 
L 2375 4384 
L 1825 4384 
Q 1516 4384 1395 4259 
Q 1275 4134 1275 3809 
L 1275 3500 
L 2222 3500 
L 2222 3053 
L 1275 3053 
L 1275 0 
L 697 0 
L 697 3053 
L 147 3053 
L 147 3500 
L 697 3500 
L 697 3744 
Q 697 4328 969 4595 
Q 1241 4863 1831 4863 
L 2375 4863 
z
" transform="scale(0.015625)"/>
      </defs>
      <use xlink:href="#DejaVuSans-61"/>
      <use xlink:href="#DejaVuSans-76" transform="translate(61.279297 0)"/>
      <use xlink:href="#DejaVuSans-67" transform="translate(120.458984 0)"/>
      <use xlink:href="#DejaVuSans-20" transform="translate(183.935547 0)"/>
      <use xlink:href="#DejaVuSans-32" transform="translate(215.722656 0)"/>
      <use xlink:href="#DejaVuSans-68" transform="translate(279.345703 0)"/>
      <use xlink:href="#DejaVuSans-6f" transform="translate(342.724609 0)"/>
      <use xlink:href="#DejaVuSans-70" transform="translate(403.90625 0)"/>
      <use xlink:href="#DejaVuSans-20" transform="translate(467.382812 0)"/>
      <use xlink:href="#DejaVuSans-63" transform="translate(499.169922 0)"/>
      <use xlink:href="#DejaVuSans-6c" transform="translate(554.150391 0)"/>
      <use xlink:href="#DejaVuSans-75" transform="translate(581.933594 0)"/>
      <use xlink:href="#DejaVuSans-73" transform="translate(645.3125 0)"/>
      <use xlink:href="#DejaVuSans-74" transform="translate(697.412109 0)"/>
      <use xlink:href="#DejaVuSans-65" transform="translate(736.621094 0)"/>
      <use xlink:href="#DejaVuSans-72" transform="translate(798.144531 0)"/>
      <use xlink:href="#DejaVuSans-20" transform="translate(839.257812 0)"/>
      <use xlink:href="#DejaVuSans-63" transform="translate(871.044922 0)"/>
      <use xlink:href="#DejaVuSans-6f" transform="translate(926.025391 0)"/>
      <use xlink:href="#DejaVuSans-65" transform="translate(987.207031 0)"/>
      <use xlink:href="#DejaVuSans-66" transform="translate(1048.730469 0)"/>
      <use xlink:href="#DejaVuSans-66" transform="translate(1083.935547 0)"/>
     </g>
    </g>
    <g id="line2d_40">
     <path d="M 558.6305 120.012812 
L 568.6305 120.012812 
L 578.6305 120.012812 
" style="fill: none; stroke: #2e7ebc; stroke-width: 1.5; stroke-linecap: square"/>
     <g>
      <use xlink:href="#mc1493935ea" x="568.6305" y="120.012812" style="fill: #2e7ebc; stroke: #2e7ebc; stroke-linejoin: miter"/>
     </g>
    </g>
    <g id="text_19">
     <!-- 2hop edges -->
     <g transform="translate(586.6305 123.512812) scale(0.1 -0.1)">
      <use xlink:href="#DejaVuSans-32"/>
      <use xlink:href="#DejaVuSans-68" transform="translate(63.623047 0)"/>
      <use xlink:href="#DejaVuSans-6f" transform="translate(127.001953 0)"/>
      <use xlink:href="#DejaVuSans-70" transform="translate(188.183594 0)"/>
      <use xlink:href="#DejaVuSans-20" transform="translate(251.660156 0)"/>
      <use xlink:href="#DejaVuSans-65" transform="translate(283.447266 0)"/>
      <use xlink:href="#DejaVuSans-64" transform="translate(344.970703 0)"/>
      <use xlink:href="#DejaVuSans-67" transform="translate(408.447266 0)"/>
      <use xlink:href="#DejaVuSans-65" transform="translate(471.923828 0)"/>
      <use xlink:href="#DejaVuSans-73" transform="translate(533.447266 0)"/>
     </g>
    </g>
    <g id="line2d_41">
     <path d="M 558.6305 134.690937 
L 568.6305 134.690937 
L 578.6305 134.690937 
" style="fill: none; stroke: #084a91; stroke-width: 1.5; stroke-linecap: square"/>
     <g>
      <use xlink:href="#mea321e6d78" x="568.6305" y="134.690937" style="fill: #084a91; stroke: #084a91; stroke-linejoin: miter"/>
     </g>
    </g>
    <g id="text_20">
     <!-- 2hop neighbors -->
     <g transform="translate(586.6305 138.190937) scale(0.1 -0.1)">
      <use xlink:href="#DejaVuSans-32"/>
      <use xlink:href="#DejaVuSans-68" transform="translate(63.623047 0)"/>
      <use xlink:href="#DejaVuSans-6f" transform="translate(127.001953 0)"/>
      <use xlink:href="#DejaVuSans-70" transform="translate(188.183594 0)"/>
      <use xlink:href="#DejaVuSans-20" transform="translate(251.660156 0)"/>
      <use xlink:href="#DejaVuSans-6e" transform="translate(283.447266 0)"/>
      <use xlink:href="#DejaVuSans-65" transform="translate(346.826172 0)"/>
      <use xlink:href="#DejaVuSans-69" transform="translate(408.349609 0)"/>
      <use xlink:href="#DejaVuSans-67" transform="translate(436.132812 0)"/>
      <use xlink:href="#DejaVuSans-68" transform="translate(499.609375 0)"/>
      <use xlink:href="#DejaVuSans-62" transform="translate(562.988281 0)"/>
      <use xlink:href="#DejaVuSans-6f" transform="translate(626.464844 0)"/>
      <use xlink:href="#DejaVuSans-72" transform="translate(687.646484 0)"/>
      <use xlink:href="#DejaVuSans-73" transform="translate(728.759766 0)"/>
     </g>
    </g>
    <g id="line2d_42">
     <path d="M 558.6305 149.369062 
L 568.6305 149.369062 
L 578.6305 149.369062 
" style="fill: none; stroke: #cecece; stroke-width: 1.5; stroke-linecap: square"/>
     <g>
      <use xlink:href="#m2e4c06f1ab" x="568.6305" y="149.369062" style="fill: #cecece; stroke: #cecece"/>
     </g>
    </g>
    <g id="text_21">
     <!-- sum 2hop cluster coeff -->
     <g transform="translate(586.6305 152.869062) scale(0.1 -0.1)">
      <defs>
       <path id="DejaVuSans-6d" d="M 3328 2828 
Q 3544 3216 3844 3400 
Q 4144 3584 4550 3584 
Q 5097 3584 5394 3201 
Q 5691 2819 5691 2113 
L 5691 0 
L 5113 0 
L 5113 2094 
Q 5113 2597 4934 2840 
Q 4756 3084 4391 3084 
Q 3944 3084 3684 2787 
Q 3425 2491 3425 1978 
L 3425 0 
L 2847 0 
L 2847 2094 
Q 2847 2600 2669 2842 
Q 2491 3084 2119 3084 
Q 1678 3084 1418 2786 
Q 1159 2488 1159 1978 
L 1159 0 
L 581 0 
L 581 3500 
L 1159 3500 
L 1159 2956 
Q 1356 3278 1631 3431 
Q 1906 3584 2284 3584 
Q 2666 3584 2933 3390 
Q 3200 3197 3328 2828 
z
" transform="scale(0.015625)"/>
      </defs>
      <use xlink:href="#DejaVuSans-73"/>
      <use xlink:href="#DejaVuSans-75" transform="translate(52.099609 0)"/>
      <use xlink:href="#DejaVuSans-6d" transform="translate(115.478516 0)"/>
      <use xlink:href="#DejaVuSans-20" transform="translate(212.890625 0)"/>
      <use xlink:href="#DejaVuSans-32" transform="translate(244.677734 0)"/>
      <use xlink:href="#DejaVuSans-68" transform="translate(308.300781 0)"/>
      <use xlink:href="#DejaVuSans-6f" transform="translate(371.679688 0)"/>
      <use xlink:href="#DejaVuSans-70" transform="translate(432.861328 0)"/>
      <use xlink:href="#DejaVuSans-20" transform="translate(496.337891 0)"/>
      <use xlink:href="#DejaVuSans-63" transform="translate(528.125 0)"/>
      <use xlink:href="#DejaVuSans-6c" transform="translate(583.105469 0)"/>
      <use xlink:href="#DejaVuSans-75" transform="translate(610.888672 0)"/>
      <use xlink:href="#DejaVuSans-73" transform="translate(674.267578 0)"/>
      <use xlink:href="#DejaVuSans-74" transform="translate(726.367188 0)"/>
      <use xlink:href="#DejaVuSans-65" transform="translate(765.576172 0)"/>
      <use xlink:href="#DejaVuSans-72" transform="translate(827.099609 0)"/>
      <use xlink:href="#DejaVuSans-20" transform="translate(868.212891 0)"/>
      <use xlink:href="#DejaVuSans-63" transform="translate(900 0)"/>
      <use xlink:href="#DejaVuSans-6f" transform="translate(954.980469 0)"/>
      <use xlink:href="#DejaVuSans-65" transform="translate(1016.162109 0)"/>
      <use xlink:href="#DejaVuSans-66" transform="translate(1077.685547 0)"/>
      <use xlink:href="#DejaVuSans-66" transform="translate(1112.890625 0)"/>
     </g>
    </g>
    <g id="line2d_43">
     <path d="M 558.6305 164.047187 
L 568.6305 164.047187 
L 578.6305 164.047187 
" style="fill: none; stroke: #959595; stroke-width: 1.5; stroke-linecap: square"/>
     <g>
      <use xlink:href="#mbdc06b59a1" x="568.6305" y="164.047187" style="fill: #959595; stroke: #959595; stroke-linejoin: miter"/>
     </g>
    </g>
    <g id="text_22">
     <!-- var 2hop cluster coeff -->
     <g transform="translate(586.6305 167.547187) scale(0.1 -0.1)">
      <use xlink:href="#DejaVuSans-76"/>
      <use xlink:href="#DejaVuSans-61" transform="translate(59.179688 0)"/>
      <use xlink:href="#DejaVuSans-72" transform="translate(120.458984 0)"/>
      <use xlink:href="#DejaVuSans-20" transform="translate(161.572266 0)"/>
      <use xlink:href="#DejaVuSans-32" transform="translate(193.359375 0)"/>
      <use xlink:href="#DejaVuSans-68" transform="translate(256.982422 0)"/>
      <use xlink:href="#DejaVuSans-6f" transform="translate(320.361328 0)"/>
      <use xlink:href="#DejaVuSans-70" transform="translate(381.542969 0)"/>
      <use xlink:href="#DejaVuSans-20" transform="translate(445.019531 0)"/>
      <use xlink:href="#DejaVuSans-63" transform="translate(476.806641 0)"/>
      <use xlink:href="#DejaVuSans-6c" transform="translate(531.787109 0)"/>
      <use xlink:href="#DejaVuSans-75" transform="translate(559.570312 0)"/>
      <use xlink:href="#DejaVuSans-73" transform="translate(622.949219 0)"/>
      <use xlink:href="#DejaVuSans-74" transform="translate(675.048828 0)"/>
      <use xlink:href="#DejaVuSans-65" transform="translate(714.257812 0)"/>
      <use xlink:href="#DejaVuSans-72" transform="translate(775.78125 0)"/>
      <use xlink:href="#DejaVuSans-20" transform="translate(816.894531 0)"/>
      <use xlink:href="#DejaVuSans-63" transform="translate(848.681641 0)"/>
      <use xlink:href="#DejaVuSans-6f" transform="translate(903.662109 0)"/>
      <use xlink:href="#DejaVuSans-65" transform="translate(964.84375 0)"/>
      <use xlink:href="#DejaVuSans-66" transform="translate(1026.367188 0)"/>
      <use xlink:href="#DejaVuSans-66" transform="translate(1061.572266 0)"/>
     </g>
    </g>
    <g id="line2d_44">
     <path d="M 558.6305 178.725312 
L 568.6305 178.725312 
L 578.6305 178.725312 
" style="fill: none; stroke: #5f5f5f; stroke-width: 1.5; stroke-linecap: square"/>
     <g>
      <use xlink:href="#m0dc21d669e" x="568.6305" y="178.725312" style="fill: #5f5f5f; stroke: #5f5f5f; stroke-linejoin: miter"/>
     </g>
    </g>
    <g id="text_23">
     <!-- 2hop assortativity -->
     <g transform="translate(586.6305 182.225312) scale(0.1 -0.1)">
      <use xlink:href="#DejaVuSans-32"/>
      <use xlink:href="#DejaVuSans-68" transform="translate(63.623047 0)"/>
      <use xlink:href="#DejaVuSans-6f" transform="translate(127.001953 0)"/>
      <use xlink:href="#DejaVuSans-70" transform="translate(188.183594 0)"/>
      <use xlink:href="#DejaVuSans-20" transform="translate(251.660156 0)"/>
      <use xlink:href="#DejaVuSans-61" transform="translate(283.447266 0)"/>
      <use xlink:href="#DejaVuSans-73" transform="translate(344.726562 0)"/>
      <use xlink:href="#DejaVuSans-73" transform="translate(396.826172 0)"/>
      <use xlink:href="#DejaVuSans-6f" transform="translate(448.925781 0)"/>
      <use xlink:href="#DejaVuSans-72" transform="translate(510.107422 0)"/>
      <use xlink:href="#DejaVuSans-74" transform="translate(551.220703 0)"/>
      <use xlink:href="#DejaVuSans-61" transform="translate(590.429688 0)"/>
      <use xlink:href="#DejaVuSans-74" transform="translate(651.708984 0)"/>
      <use xlink:href="#DejaVuSans-69" transform="translate(690.917969 0)"/>
      <use xlink:href="#DejaVuSans-76" transform="translate(718.701172 0)"/>
      <use xlink:href="#DejaVuSans-69" transform="translate(777.880859 0)"/>
      <use xlink:href="#DejaVuSans-74" transform="translate(805.664062 0)"/>
      <use xlink:href="#DejaVuSans-79" transform="translate(844.873047 0)"/>
     </g>
    </g>
    <g id="line2d_45">
     <path d="M 558.6305 193.403437 
L 568.6305 193.403437 
L 578.6305 193.403437 
" style="fill: none; stroke: #1d1d1d; stroke-width: 1.5; stroke-linecap: square"/>
     <g>
      <use xlink:href="#m10365cf9b3" x="568.6305" y="193.403437" style="fill: #1d1d1d; stroke: #1d1d1d"/>
     </g>
    </g>
    <g id="text_24">
     <!-- 2hop internal frac -->
     <g transform="translate(586.6305 196.903437) scale(0.1 -0.1)">
      <use xlink:href="#DejaVuSans-32"/>
      <use xlink:href="#DejaVuSans-68" transform="translate(63.623047 0)"/>
      <use xlink:href="#DejaVuSans-6f" transform="translate(127.001953 0)"/>
      <use xlink:href="#DejaVuSans-70" transform="translate(188.183594 0)"/>
      <use xlink:href="#DejaVuSans-20" transform="translate(251.660156 0)"/>
      <use xlink:href="#DejaVuSans-69" transform="translate(283.447266 0)"/>
      <use xlink:href="#DejaVuSans-6e" transform="translate(311.230469 0)"/>
      <use xlink:href="#DejaVuSans-74" transform="translate(374.609375 0)"/>
      <use xlink:href="#DejaVuSans-65" transform="translate(413.818359 0)"/>
      <use xlink:href="#DejaVuSans-72" transform="translate(475.341797 0)"/>
      <use xlink:href="#DejaVuSans-6e" transform="translate(514.705078 0)"/>
      <use xlink:href="#DejaVuSans-61" transform="translate(578.083984 0)"/>
      <use xlink:href="#DejaVuSans-6c" transform="translate(639.363281 0)"/>
      <use xlink:href="#DejaVuSans-20" transform="translate(667.146484 0)"/>
      <use xlink:href="#DejaVuSans-66" transform="translate(698.933594 0)"/>
      <use xlink:href="#DejaVuSans-72" transform="translate(734.138672 0)"/>
      <use xlink:href="#DejaVuSans-61" transform="translate(775.251953 0)"/>
      <use xlink:href="#DejaVuSans-63" transform="translate(836.53125 0)"/>
     </g>
    </g>
    <g id="line2d_46">
     <path d="M 558.6305 208.081562 
L 568.6305 208.081562 
L 578.6305 208.081562 
" style="fill: none; stroke: #98d594; stroke-width: 1.5; stroke-linecap: square"/>
     <g>
      <use xlink:href="#ma34a4bd417" x="568.6305" y="208.081562" style="fill: #98d594; stroke: #98d594; stroke-linejoin: miter"/>
     </g>
    </g>
    <g id="text_25">
     <!-- median 2hop degs -->
     <g transform="translate(586.6305 211.581562) scale(0.1 -0.1)">
      <use xlink:href="#DejaVuSans-6d"/>
      <use xlink:href="#DejaVuSans-65" transform="translate(97.412109 0)"/>
      <use xlink:href="#DejaVuSans-64" transform="translate(158.935547 0)"/>
      <use xlink:href="#DejaVuSans-69" transform="translate(222.412109 0)"/>
      <use xlink:href="#DejaVuSans-61" transform="translate(250.195312 0)"/>
      <use xlink:href="#DejaVuSans-6e" transform="translate(311.474609 0)"/>
      <use xlink:href="#DejaVuSans-20" transform="translate(374.853516 0)"/>
      <use xlink:href="#DejaVuSans-32" transform="translate(406.640625 0)"/>
      <use xlink:href="#DejaVuSans-68" transform="translate(470.263672 0)"/>
      <use xlink:href="#DejaVuSans-6f" transform="translate(533.642578 0)"/>
      <use xlink:href="#DejaVuSans-70" transform="translate(594.824219 0)"/>
      <use xlink:href="#DejaVuSans-20" transform="translate(658.300781 0)"/>
      <use xlink:href="#DejaVuSans-64" transform="translate(690.087891 0)"/>
      <use xlink:href="#DejaVuSans-65" transform="translate(753.564453 0)"/>
      <use xlink:href="#DejaVuSans-67" transform="translate(815.087891 0)"/>
      <use xlink:href="#DejaVuSans-73" transform="translate(878.564453 0)"/>
     </g>
    </g>
    <g id="line2d_47">
     <path d="M 558.6305 222.759687 
L 568.6305 222.759687 
L 578.6305 222.759687 
" style="fill: none; stroke: #4bb062; stroke-width: 1.5; stroke-linecap: square"/>
     <g>
      <use xlink:href="#mf2ec4e7b1e" x="568.6305" y="222.759687" style="fill: #4bb062; stroke: #4bb062"/>
     </g>
    </g>
    <g id="text_26">
     <!-- max 2hop degs -->
     <g transform="translate(586.6305 226.259687) scale(0.1 -0.1)">
      <defs>
       <path id="DejaVuSans-78" d="M 3513 3500 
L 2247 1797 
L 3578 0 
L 2900 0 
L 1881 1375 
L 863 0 
L 184 0 
L 1544 1831 
L 300 3500 
L 978 3500 
L 1906 2253 
L 2834 3500 
L 3513 3500 
z
" transform="scale(0.015625)"/>
      </defs>
      <use xlink:href="#DejaVuSans-6d"/>
      <use xlink:href="#DejaVuSans-61" transform="translate(97.412109 0)"/>
      <use xlink:href="#DejaVuSans-78" transform="translate(158.691406 0)"/>
      <use xlink:href="#DejaVuSans-20" transform="translate(217.871094 0)"/>
      <use xlink:href="#DejaVuSans-32" transform="translate(249.658203 0)"/>
      <use xlink:href="#DejaVuSans-68" transform="translate(313.28125 0)"/>
      <use xlink:href="#DejaVuSans-6f" transform="translate(376.660156 0)"/>
      <use xlink:href="#DejaVuSans-70" transform="translate(437.841797 0)"/>
      <use xlink:href="#DejaVuSans-20" transform="translate(501.318359 0)"/>
      <use xlink:href="#DejaVuSans-64" transform="translate(533.105469 0)"/>
      <use xlink:href="#DejaVuSans-65" transform="translate(596.582031 0)"/>
      <use xlink:href="#DejaVuSans-67" transform="translate(658.105469 0)"/>
      <use xlink:href="#DejaVuSans-73" transform="translate(721.582031 0)"/>
     </g>
    </g>
    <g id="line2d_48">
     <path d="M 558.6305 237.437812 
L 568.6305 237.437812 
L 578.6305 237.437812 
" style="fill: none; stroke: #2f974e; stroke-width: 1.5; stroke-linecap: square"/>
     <g>
      <use xlink:href="#m5d62d1195c" x="568.6305" y="237.437812" style="fill: #2f974e; stroke: #2f974e; stroke-linejoin: miter"/>
     </g>
    </g>
    <g id="text_27">
     <!-- range 2hop degs -->
     <g transform="translate(586.6305 240.937812) scale(0.1 -0.1)">
      <use xlink:href="#DejaVuSans-72"/>
      <use xlink:href="#DejaVuSans-61" transform="translate(41.113281 0)"/>
      <use xlink:href="#DejaVuSans-6e" transform="translate(102.392578 0)"/>
      <use xlink:href="#DejaVuSans-67" transform="translate(165.771484 0)"/>
      <use xlink:href="#DejaVuSans-65" transform="translate(229.248047 0)"/>
      <use xlink:href="#DejaVuSans-20" transform="translate(290.771484 0)"/>
      <use xlink:href="#DejaVuSans-32" transform="translate(322.558594 0)"/>
      <use xlink:href="#DejaVuSans-68" transform="translate(386.181641 0)"/>
      <use xlink:href="#DejaVuSans-6f" transform="translate(449.560547 0)"/>
      <use xlink:href="#DejaVuSans-70" transform="translate(510.742188 0)"/>
      <use xlink:href="#DejaVuSans-20" transform="translate(574.21875 0)"/>
      <use xlink:href="#DejaVuSans-64" transform="translate(606.005859 0)"/>
      <use xlink:href="#DejaVuSans-65" transform="translate(669.482422 0)"/>
      <use xlink:href="#DejaVuSans-67" transform="translate(731.005859 0)"/>
      <use xlink:href="#DejaVuSans-73" transform="translate(794.482422 0)"/>
     </g>
    </g>
    <g id="line2d_49">
     <path d="M 558.6305 252.115937 
L 568.6305 252.115937 
L 578.6305 252.115937 
" style="fill: none; stroke: #157f3b; stroke-width: 1.5; stroke-linecap: square"/>
     <g>
      <use xlink:href="#me1807ee66d" x="568.6305" y="252.115937" style="fill: #157f3b; stroke: #157f3b; stroke-linejoin: miter"/>
     </g>
    </g>
    <g id="text_28">
     <!-- skewness 2hop degs -->
     <g transform="translate(586.6305 255.615937) scale(0.1 -0.1)">
      <defs>
       <path id="DejaVuSans-6b" d="M 581 4863 
L 1159 4863 
L 1159 1991 
L 2875 3500 
L 3609 3500 
L 1753 1863 
L 3688 0 
L 2938 0 
L 1159 1709 
L 1159 0 
L 581 0 
L 581 4863 
z
" transform="scale(0.015625)"/>
       <path id="DejaVuSans-77" d="M 269 3500 
L 844 3500 
L 1563 769 
L 2278 3500 
L 2956 3500 
L 3675 769 
L 4391 3500 
L 4966 3500 
L 4050 0 
L 3372 0 
L 2619 2869 
L 1863 0 
L 1184 0 
L 269 3500 
z
" transform="scale(0.015625)"/>
      </defs>
      <use xlink:href="#DejaVuSans-73"/>
      <use xlink:href="#DejaVuSans-6b" transform="translate(52.099609 0)"/>
      <use xlink:href="#DejaVuSans-65" transform="translate(106.384766 0)"/>
      <use xlink:href="#DejaVuSans-77" transform="translate(167.908203 0)"/>
      <use xlink:href="#DejaVuSans-6e" transform="translate(249.695312 0)"/>
      <use xlink:href="#DejaVuSans-65" transform="translate(313.074219 0)"/>
      <use xlink:href="#DejaVuSans-73" transform="translate(374.597656 0)"/>
      <use xlink:href="#DejaVuSans-73" transform="translate(426.697266 0)"/>
      <use xlink:href="#DejaVuSans-20" transform="translate(478.796875 0)"/>
      <use xlink:href="#DejaVuSans-32" transform="translate(510.583984 0)"/>
      <use xlink:href="#DejaVuSans-68" transform="translate(574.207031 0)"/>
      <use xlink:href="#DejaVuSans-6f" transform="translate(637.585938 0)"/>
      <use xlink:href="#DejaVuSans-70" transform="translate(698.767578 0)"/>
      <use xlink:href="#DejaVuSans-20" transform="translate(762.244141 0)"/>
      <use xlink:href="#DejaVuSans-64" transform="translate(794.03125 0)"/>
      <use xlink:href="#DejaVuSans-65" transform="translate(857.507812 0)"/>
      <use xlink:href="#DejaVuSans-67" transform="translate(919.03125 0)"/>
      <use xlink:href="#DejaVuSans-73" transform="translate(982.507812 0)"/>
     </g>
    </g>
    <g id="line2d_50">
     <path d="M 558.6305 266.794062 
L 568.6305 266.794062 
L 578.6305 266.794062 
" style="fill: none; stroke: #e41a1c; stroke-width: 1.5; stroke-linecap: square"/>
    </g>
    <g id="text_29">
     <!-- baseline (no features) -->
     <g transform="translate(586.6305 270.294062) scale(0.1 -0.1)">
      <defs>
       <path id="DejaVuSans-28" d="M 1984 4856 
Q 1566 4138 1362 3434 
Q 1159 2731 1159 2009 
Q 1159 1288 1364 580 
Q 1569 -128 1984 -844 
L 1484 -844 
Q 1016 -109 783 600 
Q 550 1309 550 2009 
Q 550 2706 781 3412 
Q 1013 4119 1484 4856 
L 1984 4856 
z
" transform="scale(0.015625)"/>
       <path id="DejaVuSans-29" d="M 513 4856 
L 1013 4856 
Q 1481 4119 1714 3412 
Q 1947 2706 1947 2009 
Q 1947 1309 1714 600 
Q 1481 -109 1013 -844 
L 513 -844 
Q 928 -128 1133 580 
Q 1338 1288 1338 2009 
Q 1338 2731 1133 3434 
Q 928 4138 513 4856 
z
" transform="scale(0.015625)"/>
      </defs>
      <use xlink:href="#DejaVuSans-62"/>
      <use xlink:href="#DejaVuSans-61" transform="translate(63.476562 0)"/>
      <use xlink:href="#DejaVuSans-73" transform="translate(124.755859 0)"/>
      <use xlink:href="#DejaVuSans-65" transform="translate(176.855469 0)"/>
      <use xlink:href="#DejaVuSans-6c" transform="translate(238.378906 0)"/>
      <use xlink:href="#DejaVuSans-69" transform="translate(266.162109 0)"/>
      <use xlink:href="#DejaVuSans-6e" transform="translate(293.945312 0)"/>
      <use xlink:href="#DejaVuSans-65" transform="translate(357.324219 0)"/>
      <use xlink:href="#DejaVuSans-20" transform="translate(418.847656 0)"/>
      <use xlink:href="#DejaVuSans-28" transform="translate(450.634766 0)"/>
      <use xlink:href="#DejaVuSans-6e" transform="translate(489.648438 0)"/>
      <use xlink:href="#DejaVuSans-6f" transform="translate(553.027344 0)"/>
      <use xlink:href="#DejaVuSans-20" transform="translate(614.208984 0)"/>
      <use xlink:href="#DejaVuSans-66" transform="translate(645.996094 0)"/>
      <use xlink:href="#DejaVuSans-65" transform="translate(681.201172 0)"/>
      <use xlink:href="#DejaVuSans-61" transform="translate(742.724609 0)"/>
      <use xlink:href="#DejaVuSans-74" transform="translate(804.003906 0)"/>
      <use xlink:href="#DejaVuSans-75" transform="translate(843.212891 0)"/>
      <use xlink:href="#DejaVuSans-72" transform="translate(906.591797 0)"/>
      <use xlink:href="#DejaVuSans-65" transform="translate(945.455078 0)"/>
      <use xlink:href="#DejaVuSans-73" transform="translate(1006.978516 0)"/>
      <use xlink:href="#DejaVuSans-29" transform="translate(1059.078125 0)"/>
     </g>
    </g>
   </g>
  </g>
  <g id="text_30">
   <!-- Ablation study for FUGAL features -->
   <g transform="translate(84.016875 31.19625) scale(0.24 -0.24)">
    <defs>
     <path id="DejaVuSans-55" d="M 556 4666 
L 1191 4666 
L 1191 1831 
Q 1191 1081 1462 751 
Q 1734 422 2344 422 
Q 2950 422 3222 751 
Q 3494 1081 3494 1831 
L 3494 4666 
L 4128 4666 
L 4128 1753 
Q 4128 841 3676 375 
Q 3225 -91 2344 -91 
Q 1459 -91 1007 375 
Q 556 841 556 1753 
L 556 4666 
z
" transform="scale(0.015625)"/>
     <path id="DejaVuSans-47" d="M 3809 666 
L 3809 1919 
L 2778 1919 
L 2778 2438 
L 4434 2438 
L 4434 434 
Q 4069 175 3628 42 
Q 3188 -91 2688 -91 
Q 1594 -91 976 548 
Q 359 1188 359 2328 
Q 359 3472 976 4111 
Q 1594 4750 2688 4750 
Q 3144 4750 3555 4637 
Q 3966 4525 4313 4306 
L 4313 3634 
Q 3963 3931 3569 4081 
Q 3175 4231 2741 4231 
Q 1884 4231 1454 3753 
Q 1025 3275 1025 2328 
Q 1025 1384 1454 906 
Q 1884 428 2741 428 
Q 3075 428 3337 486 
Q 3600 544 3809 666 
z
" transform="scale(0.015625)"/>
     <path id="DejaVuSans-4c" d="M 628 4666 
L 1259 4666 
L 1259 531 
L 3531 531 
L 3531 0 
L 628 0 
L 628 4666 
z
" transform="scale(0.015625)"/>
    </defs>
    <use xlink:href="#DejaVuSans-41"/>
    <use xlink:href="#DejaVuSans-62" transform="translate(68.408203 0)"/>
    <use xlink:href="#DejaVuSans-6c" transform="translate(131.884766 0)"/>
    <use xlink:href="#DejaVuSans-61" transform="translate(159.667969 0)"/>
    <use xlink:href="#DejaVuSans-74" transform="translate(220.947266 0)"/>
    <use xlink:href="#DejaVuSans-69" transform="translate(260.15625 0)"/>
    <use xlink:href="#DejaVuSans-6f" transform="translate(287.939453 0)"/>
    <use xlink:href="#DejaVuSans-6e" transform="translate(349.121094 0)"/>
    <use xlink:href="#DejaVuSans-20" transform="translate(412.5 0)"/>
    <use xlink:href="#DejaVuSans-73" transform="translate(444.287109 0)"/>
    <use xlink:href="#DejaVuSans-74" transform="translate(496.386719 0)"/>
    <use xlink:href="#DejaVuSans-75" transform="translate(535.595703 0)"/>
    <use xlink:href="#DejaVuSans-64" transform="translate(598.974609 0)"/>
    <use xlink:href="#DejaVuSans-79" transform="translate(662.451172 0)"/>
    <use xlink:href="#DejaVuSans-20" transform="translate(721.630859 0)"/>
    <use xlink:href="#DejaVuSans-66" transform="translate(753.417969 0)"/>
    <use xlink:href="#DejaVuSans-6f" transform="translate(788.623047 0)"/>
    <use xlink:href="#DejaVuSans-72" transform="translate(849.804688 0)"/>
    <use xlink:href="#DejaVuSans-20" transform="translate(890.917969 0)"/>
    <use xlink:href="#DejaVuSans-46" transform="translate(922.705078 0)"/>
    <use xlink:href="#DejaVuSans-55" transform="translate(980.224609 0)"/>
    <use xlink:href="#DejaVuSans-47" transform="translate(1053.417969 0)"/>
    <use xlink:href="#DejaVuSans-41" transform="translate(1130.908203 0)"/>
    <use xlink:href="#DejaVuSans-4c" transform="translate(1199.316406 0)"/>
    <use xlink:href="#DejaVuSans-20" transform="translate(1255.029297 0)"/>
    <use xlink:href="#DejaVuSans-66" transform="translate(1286.816406 0)"/>
    <use xlink:href="#DejaVuSans-65" transform="translate(1322.021484 0)"/>
    <use xlink:href="#DejaVuSans-61" transform="translate(1383.544922 0)"/>
    <use xlink:href="#DejaVuSans-74" transform="translate(1444.824219 0)"/>
    <use xlink:href="#DejaVuSans-75" transform="translate(1484.033203 0)"/>
    <use xlink:href="#DejaVuSans-72" transform="translate(1547.412109 0)"/>
    <use xlink:href="#DejaVuSans-65" transform="translate(1586.275391 0)"/>
    <use xlink:href="#DejaVuSans-73" transform="translate(1647.798828 0)"/>
   </g>
  </g>
 </g>
 <defs>
  <clipPath id="pfc75bcb541">
   <rect x="47.72" y="62.88" width="478.01" height="327.16"/>
  </clipPath>
 </defs>
</svg>
