<?xml version="1.0" encoding="utf-8" standalone="no"?>
<!DOCTYPE svg PUBLIC "-//W3C//DTD SVG 1.1//EN"
  "http://www.w3.org/Graphics/SVG/1.1/DTD/svg11.dtd">
<svg xmlns:xlink="http://www.w3.org/1999/xlink" width="720pt" height="432pt" viewBox="0 0 720 432" xmlns="http://www.w3.org/2000/svg" version="1.1">
 <metadata>
  <rdf:RDF xmlns:dc="http://purl.org/dc/elements/1.1/" xmlns:cc="http://creativecommons.org/ns#" xmlns:rdf="http://www.w3.org/1999/02/22-rdf-syntax-ns#">
   <cc:Work>
    <dc:type rdf:resource="http://purl.org/dc/dcmitype/StillImage"/>
    <dc:date>2025-02-24T08:49:33.935683</dc:date>
    <dc:format>image/svg+xml</dc:format>
    <dc:creator>
     <cc:Agent>
      <dc:title>Matplotlib v3.10.0, https://matplotlib.org/</dc:title>
     </cc:Agent>
    </dc:creator>
   </cc:Work>
  </rdf:RDF>
 </metadata>
 <defs>
  <style type="text/css">*{stroke-linejoin: round; stroke-linecap: butt}</style>
 </defs>
 <g id="figure_1">
  <g id="patch_1">
   <path d="M 0 432 
L 720 432 
L 720 0 
L 0 0 
z
" style="fill: #ffffff"/>
  </g>
  <g id="axes_1">
   <g id="patch_2">
    <path d="M 47.72 390.04 
L 537.25 390.04 
L 537.25 65.76 
L 47.72 65.76 
z
" style="fill: #ffffff"/>
   </g>
   <g id="matplotlib.axis_1">
    <g id="xtick_1">
     <g id="line2d_1">
      <path d="M 69.971364 390.04 
L 69.971364 65.76 
" clip-path="url(#p359c92f0ad)" style="fill: none; stroke: #b0b0b0; stroke-width: 0.8; stroke-linecap: square"/>
     </g>
     <g id="line2d_2">
      <defs>
       <path id="mf661e45c41" d="M 0 0 
L 0 3.5 
" style="stroke: #000000; stroke-width: 0.8"/>
      </defs>
      <g>
       <use xlink:href="#mf661e45c41" x="69.971364" y="390.04" style="stroke: #000000; stroke-width: 0.8"/>
      </g>
     </g>
     <g id="text_1">
      <!-- 0.00 -->
      <g transform="translate(58.838551 404.638438) scale(0.1 -0.1)">
       <defs>
        <path id="DejaVuSans-30" d="M 2034 4250 
Q 1547 4250 1301 3770 
Q 1056 3291 1056 2328 
Q 1056 1369 1301 889 
Q 1547 409 2034 409 
Q 2525 409 2770 889 
Q 3016 1369 3016 2328 
Q 3016 3291 2770 3770 
Q 2525 4250 2034 4250 
z
M 2034 4750 
Q 2819 4750 3233 4129 
Q 3647 3509 3647 2328 
Q 3647 1150 3233 529 
Q 2819 -91 2034 -91 
Q 1250 -91 836 529 
Q 422 1150 422 2328 
Q 422 3509 836 4129 
Q 1250 4750 2034 4750 
z
" transform="scale(0.015625)"/>
        <path id="DejaVuSans-2e" d="M 684 794 
L 1344 794 
L 1344 0 
L 684 0 
L 684 794 
z
" transform="scale(0.015625)"/>
       </defs>
       <use xlink:href="#DejaVuSans-30"/>
       <use xlink:href="#DejaVuSans-2e" transform="translate(63.623047 0)"/>
       <use xlink:href="#DejaVuSans-30" transform="translate(95.410156 0)"/>
       <use xlink:href="#DejaVuSans-30" transform="translate(159.033203 0)"/>
      </g>
     </g>
    </g>
    <g id="xtick_2">
     <g id="line2d_3">
      <path d="M 158.976818 390.04 
L 158.976818 65.76 
" clip-path="url(#p359c92f0ad)" style="fill: none; stroke: #b0b0b0; stroke-width: 0.8; stroke-linecap: square"/>
     </g>
     <g id="line2d_4">
      <g>
       <use xlink:href="#mf661e45c41" x="158.976818" y="390.04" style="stroke: #000000; stroke-width: 0.8"/>
      </g>
     </g>
     <g id="text_2">
      <!-- 0.05 -->
      <g transform="translate(147.844006 404.638438) scale(0.1 -0.1)">
       <defs>
        <path id="DejaVuSans-35" d="M 691 4666 
L 3169 4666 
L 3169 4134 
L 1269 4134 
L 1269 2991 
Q 1406 3038 1543 3061 
Q 1681 3084 1819 3084 
Q 2600 3084 3056 2656 
Q 3513 2228 3513 1497 
Q 3513 744 3044 326 
Q 2575 -91 1722 -91 
Q 1428 -91 1123 -41 
Q 819 9 494 109 
L 494 744 
Q 775 591 1075 516 
Q 1375 441 1709 441 
Q 2250 441 2565 725 
Q 2881 1009 2881 1497 
Q 2881 1984 2565 2268 
Q 2250 2553 1709 2553 
Q 1456 2553 1204 2497 
Q 953 2441 691 2322 
L 691 4666 
z
" transform="scale(0.015625)"/>
       </defs>
       <use xlink:href="#DejaVuSans-30"/>
       <use xlink:href="#DejaVuSans-2e" transform="translate(63.623047 0)"/>
       <use xlink:href="#DejaVuSans-30" transform="translate(95.410156 0)"/>
       <use xlink:href="#DejaVuSans-35" transform="translate(159.033203 0)"/>
      </g>
     </g>
    </g>
    <g id="xtick_3">
     <g id="line2d_5">
      <path d="M 247.982273 390.04 
L 247.982273 65.76 
" clip-path="url(#p359c92f0ad)" style="fill: none; stroke: #b0b0b0; stroke-width: 0.8; stroke-linecap: square"/>
     </g>
     <g id="line2d_6">
      <g>
       <use xlink:href="#mf661e45c41" x="247.982273" y="390.04" style="stroke: #000000; stroke-width: 0.8"/>
      </g>
     </g>
     <g id="text_3">
      <!-- 0.10 -->
      <g transform="translate(236.84946 404.638438) scale(0.1 -0.1)">
       <defs>
        <path id="DejaVuSans-31" d="M 794 531 
L 1825 531 
L 1825 4091 
L 703 3866 
L 703 4441 
L 1819 4666 
L 2450 4666 
L 2450 531 
L 3481 531 
L 3481 0 
L 794 0 
L 794 531 
z
" transform="scale(0.015625)"/>
       </defs>
       <use xlink:href="#DejaVuSans-30"/>
       <use xlink:href="#DejaVuSans-2e" transform="translate(63.623047 0)"/>
       <use xlink:href="#DejaVuSans-31" transform="translate(95.410156 0)"/>
       <use xlink:href="#DejaVuSans-30" transform="translate(159.033203 0)"/>
      </g>
     </g>
    </g>
    <g id="xtick_4">
     <g id="line2d_7">
      <path d="M 336.987727 390.04 
L 336.987727 65.76 
" clip-path="url(#p359c92f0ad)" style="fill: none; stroke: #b0b0b0; stroke-width: 0.8; stroke-linecap: square"/>
     </g>
     <g id="line2d_8">
      <g>
       <use xlink:href="#mf661e45c41" x="336.987727" y="390.04" style="stroke: #000000; stroke-width: 0.8"/>
      </g>
     </g>
     <g id="text_4">
      <!-- 0.15 -->
      <g transform="translate(325.854915 404.638438) scale(0.1 -0.1)">
       <use xlink:href="#DejaVuSans-30"/>
       <use xlink:href="#DejaVuSans-2e" transform="translate(63.623047 0)"/>
       <use xlink:href="#DejaVuSans-31" transform="translate(95.410156 0)"/>
       <use xlink:href="#DejaVuSans-35" transform="translate(159.033203 0)"/>
      </g>
     </g>
    </g>
    <g id="xtick_5">
     <g id="line2d_9">
      <path d="M 425.993182 390.04 
L 425.993182 65.76 
" clip-path="url(#p359c92f0ad)" style="fill: none; stroke: #b0b0b0; stroke-width: 0.8; stroke-linecap: square"/>
     </g>
     <g id="line2d_10">
      <g>
       <use xlink:href="#mf661e45c41" x="425.993182" y="390.04" style="stroke: #000000; stroke-width: 0.8"/>
      </g>
     </g>
     <g id="text_5">
      <!-- 0.20 -->
      <g transform="translate(414.860369 404.638438) scale(0.1 -0.1)">
       <defs>
        <path id="DejaVuSans-32" d="M 1228 531 
L 3431 531 
L 3431 0 
L 469 0 
L 469 531 
Q 828 903 1448 1529 
Q 2069 2156 2228 2338 
Q 2531 2678 2651 2914 
Q 2772 3150 2772 3378 
Q 2772 3750 2511 3984 
Q 2250 4219 1831 4219 
Q 1534 4219 1204 4116 
Q 875 4013 500 3803 
L 500 4441 
Q 881 4594 1212 4672 
Q 1544 4750 1819 4750 
Q 2544 4750 2975 4387 
Q 3406 4025 3406 3419 
Q 3406 3131 3298 2873 
Q 3191 2616 2906 2266 
Q 2828 2175 2409 1742 
Q 1991 1309 1228 531 
z
" transform="scale(0.015625)"/>
       </defs>
       <use xlink:href="#DejaVuSans-30"/>
       <use xlink:href="#DejaVuSans-2e" transform="translate(63.623047 0)"/>
       <use xlink:href="#DejaVuSans-32" transform="translate(95.410156 0)"/>
       <use xlink:href="#DejaVuSans-30" transform="translate(159.033203 0)"/>
      </g>
     </g>
    </g>
    <g id="xtick_6">
     <g id="line2d_11">
      <path d="M 514.998636 390.04 
L 514.998636 65.76 
" clip-path="url(#p359c92f0ad)" style="fill: none; stroke: #b0b0b0; stroke-width: 0.8; stroke-linecap: square"/>
     </g>
     <g id="line2d_12">
      <g>
       <use xlink:href="#mf661e45c41" x="514.998636" y="390.04" style="stroke: #000000; stroke-width: 0.8"/>
      </g>
     </g>
     <g id="text_6">
      <!-- 0.25 -->
      <g transform="translate(503.865824 404.638438) scale(0.1 -0.1)">
       <use xlink:href="#DejaVuSans-30"/>
       <use xlink:href="#DejaVuSans-2e" transform="translate(63.623047 0)"/>
       <use xlink:href="#DejaVuSans-32" transform="translate(95.410156 0)"/>
       <use xlink:href="#DejaVuSans-35" transform="translate(159.033203 0)"/>
      </g>
     </g>
    </g>
    <g id="text_7">
     <!-- Noise-level -->
     <g transform="translate(264.920156 418.316562) scale(0.1 -0.1)">
      <defs>
       <path id="DejaVuSans-4e" d="M 628 4666 
L 1478 4666 
L 3547 763 
L 3547 4666 
L 4159 4666 
L 4159 0 
L 3309 0 
L 1241 3903 
L 1241 0 
L 628 0 
L 628 4666 
z
" transform="scale(0.015625)"/>
       <path id="DejaVuSans-6f" d="M 1959 3097 
Q 1497 3097 1228 2736 
Q 959 2375 959 1747 
Q 959 1119 1226 758 
Q 1494 397 1959 397 
Q 2419 397 2687 759 
Q 2956 1122 2956 1747 
Q 2956 2369 2687 2733 
Q 2419 3097 1959 3097 
z
M 1959 3584 
Q 2709 3584 3137 3096 
Q 3566 2609 3566 1747 
Q 3566 888 3137 398 
Q 2709 -91 1959 -91 
Q 1206 -91 779 398 
Q 353 888 353 1747 
Q 353 2609 779 3096 
Q 1206 3584 1959 3584 
z
" transform="scale(0.015625)"/>
       <path id="DejaVuSans-69" d="M 603 3500 
L 1178 3500 
L 1178 0 
L 603 0 
L 603 3500 
z
M 603 4863 
L 1178 4863 
L 1178 4134 
L 603 4134 
L 603 4863 
z
" transform="scale(0.015625)"/>
       <path id="DejaVuSans-73" d="M 2834 3397 
L 2834 2853 
Q 2591 2978 2328 3040 
Q 2066 3103 1784 3103 
Q 1356 3103 1142 2972 
Q 928 2841 928 2578 
Q 928 2378 1081 2264 
Q 1234 2150 1697 2047 
L 1894 2003 
Q 2506 1872 2764 1633 
Q 3022 1394 3022 966 
Q 3022 478 2636 193 
Q 2250 -91 1575 -91 
Q 1294 -91 989 -36 
Q 684 19 347 128 
L 347 722 
Q 666 556 975 473 
Q 1284 391 1588 391 
Q 1994 391 2212 530 
Q 2431 669 2431 922 
Q 2431 1156 2273 1281 
Q 2116 1406 1581 1522 
L 1381 1569 
Q 847 1681 609 1914 
Q 372 2147 372 2553 
Q 372 3047 722 3315 
Q 1072 3584 1716 3584 
Q 2034 3584 2315 3537 
Q 2597 3491 2834 3397 
z
" transform="scale(0.015625)"/>
       <path id="DejaVuSans-65" d="M 3597 1894 
L 3597 1613 
L 953 1613 
Q 991 1019 1311 708 
Q 1631 397 2203 397 
Q 2534 397 2845 478 
Q 3156 559 3463 722 
L 3463 178 
Q 3153 47 2828 -22 
Q 2503 -91 2169 -91 
Q 1331 -91 842 396 
Q 353 884 353 1716 
Q 353 2575 817 3079 
Q 1281 3584 2069 3584 
Q 2775 3584 3186 3129 
Q 3597 2675 3597 1894 
z
M 3022 2063 
Q 3016 2534 2758 2815 
Q 2500 3097 2075 3097 
Q 1594 3097 1305 2825 
Q 1016 2553 972 2059 
L 3022 2063 
z
" transform="scale(0.015625)"/>
       <path id="DejaVuSans-2d" d="M 313 2009 
L 1997 2009 
L 1997 1497 
L 313 1497 
L 313 2009 
z
" transform="scale(0.015625)"/>
       <path id="DejaVuSans-6c" d="M 603 4863 
L 1178 4863 
L 1178 0 
L 603 0 
L 603 4863 
z
" transform="scale(0.015625)"/>
       <path id="DejaVuSans-76" d="M 191 3500 
L 800 3500 
L 1894 563 
L 2988 3500 
L 3597 3500 
L 2284 0 
L 1503 0 
L 191 3500 
z
" transform="scale(0.015625)"/>
      </defs>
      <use xlink:href="#DejaVuSans-4e"/>
      <use xlink:href="#DejaVuSans-6f" transform="translate(74.804688 0)"/>
      <use xlink:href="#DejaVuSans-69" transform="translate(135.986328 0)"/>
      <use xlink:href="#DejaVuSans-73" transform="translate(163.769531 0)"/>
      <use xlink:href="#DejaVuSans-65" transform="translate(215.869141 0)"/>
      <use xlink:href="#DejaVuSans-2d" transform="translate(277.392578 0)"/>
      <use xlink:href="#DejaVuSans-6c" transform="translate(313.476562 0)"/>
      <use xlink:href="#DejaVuSans-65" transform="translate(341.259766 0)"/>
      <use xlink:href="#DejaVuSans-76" transform="translate(402.783203 0)"/>
      <use xlink:href="#DejaVuSans-65" transform="translate(461.962891 0)"/>
      <use xlink:href="#DejaVuSans-6c" transform="translate(523.486328 0)"/>
     </g>
    </g>
   </g>
   <g id="matplotlib.axis_2">
    <g id="ytick_1">
     <g id="line2d_13">
      <path d="M 47.72 363.016667 
L 537.25 363.016667 
" clip-path="url(#p359c92f0ad)" style="fill: none; stroke: #b0b0b0; stroke-width: 0.8; stroke-linecap: square"/>
     </g>
     <g id="line2d_14">
      <defs>
       <path id="maa4f51b330" d="M 0 0 
L -3.5 0 
" style="stroke: #000000; stroke-width: 0.8"/>
      </defs>
      <g>
       <use xlink:href="#maa4f51b330" x="47.72" y="363.016667" style="stroke: #000000; stroke-width: 0.8"/>
      </g>
     </g>
     <g id="text_8">
      <!-- 0.0 -->
      <g transform="translate(24.816875 366.815885) scale(0.1 -0.1)">
       <use xlink:href="#DejaVuSans-30"/>
       <use xlink:href="#DejaVuSans-2e" transform="translate(63.623047 0)"/>
       <use xlink:href="#DejaVuSans-30" transform="translate(95.410156 0)"/>
      </g>
     </g>
    </g>
    <g id="ytick_2">
     <g id="line2d_15">
      <path d="M 47.72 308.97 
L 537.25 308.97 
" clip-path="url(#p359c92f0ad)" style="fill: none; stroke: #b0b0b0; stroke-width: 0.8; stroke-linecap: square"/>
     </g>
     <g id="line2d_16">
      <g>
       <use xlink:href="#maa4f51b330" x="47.72" y="308.97" style="stroke: #000000; stroke-width: 0.8"/>
      </g>
     </g>
     <g id="text_9">
      <!-- 0.2 -->
      <g transform="translate(24.816875 312.769219) scale(0.1 -0.1)">
       <use xlink:href="#DejaVuSans-30"/>
       <use xlink:href="#DejaVuSans-2e" transform="translate(63.623047 0)"/>
       <use xlink:href="#DejaVuSans-32" transform="translate(95.410156 0)"/>
      </g>
     </g>
    </g>
    <g id="ytick_3">
     <g id="line2d_17">
      <path d="M 47.72 254.923333 
L 537.25 254.923333 
" clip-path="url(#p359c92f0ad)" style="fill: none; stroke: #b0b0b0; stroke-width: 0.8; stroke-linecap: square"/>
     </g>
     <g id="line2d_18">
      <g>
       <use xlink:href="#maa4f51b330" x="47.72" y="254.923333" style="stroke: #000000; stroke-width: 0.8"/>
      </g>
     </g>
     <g id="text_10">
      <!-- 0.4 -->
      <g transform="translate(24.816875 258.722552) scale(0.1 -0.1)">
       <defs>
        <path id="DejaVuSans-34" d="M 2419 4116 
L 825 1625 
L 2419 1625 
L 2419 4116 
z
M 2253 4666 
L 3047 4666 
L 3047 1625 
L 3713 1625 
L 3713 1100 
L 3047 1100 
L 3047 0 
L 2419 0 
L 2419 1100 
L 313 1100 
L 313 1709 
L 2253 4666 
z
" transform="scale(0.015625)"/>
       </defs>
       <use xlink:href="#DejaVuSans-30"/>
       <use xlink:href="#DejaVuSans-2e" transform="translate(63.623047 0)"/>
       <use xlink:href="#DejaVuSans-34" transform="translate(95.410156 0)"/>
      </g>
     </g>
    </g>
    <g id="ytick_4">
     <g id="line2d_19">
      <path d="M 47.72 200.876667 
L 537.25 200.876667 
" clip-path="url(#p359c92f0ad)" style="fill: none; stroke: #b0b0b0; stroke-width: 0.8; stroke-linecap: square"/>
     </g>
     <g id="line2d_20">
      <g>
       <use xlink:href="#maa4f51b330" x="47.72" y="200.876667" style="stroke: #000000; stroke-width: 0.8"/>
      </g>
     </g>
     <g id="text_11">
      <!-- 0.6 -->
      <g transform="translate(24.816875 204.675885) scale(0.1 -0.1)">
       <defs>
        <path id="DejaVuSans-36" d="M 2113 2584 
Q 1688 2584 1439 2293 
Q 1191 2003 1191 1497 
Q 1191 994 1439 701 
Q 1688 409 2113 409 
Q 2538 409 2786 701 
Q 3034 994 3034 1497 
Q 3034 2003 2786 2293 
Q 2538 2584 2113 2584 
z
M 3366 4563 
L 3366 3988 
Q 3128 4100 2886 4159 
Q 2644 4219 2406 4219 
Q 1781 4219 1451 3797 
Q 1122 3375 1075 2522 
Q 1259 2794 1537 2939 
Q 1816 3084 2150 3084 
Q 2853 3084 3261 2657 
Q 3669 2231 3669 1497 
Q 3669 778 3244 343 
Q 2819 -91 2113 -91 
Q 1303 -91 875 529 
Q 447 1150 447 2328 
Q 447 3434 972 4092 
Q 1497 4750 2381 4750 
Q 2619 4750 2861 4703 
Q 3103 4656 3366 4563 
z
" transform="scale(0.015625)"/>
       </defs>
       <use xlink:href="#DejaVuSans-30"/>
       <use xlink:href="#DejaVuSans-2e" transform="translate(63.623047 0)"/>
       <use xlink:href="#DejaVuSans-36" transform="translate(95.410156 0)"/>
      </g>
     </g>
    </g>
    <g id="ytick_5">
     <g id="line2d_21">
      <path d="M 47.72 146.83 
L 537.25 146.83 
" clip-path="url(#p359c92f0ad)" style="fill: none; stroke: #b0b0b0; stroke-width: 0.8; stroke-linecap: square"/>
     </g>
     <g id="line2d_22">
      <g>
       <use xlink:href="#maa4f51b330" x="47.72" y="146.83" style="stroke: #000000; stroke-width: 0.8"/>
      </g>
     </g>
     <g id="text_12">
      <!-- 0.8 -->
      <g transform="translate(24.816875 150.629219) scale(0.1 -0.1)">
       <defs>
        <path id="DejaVuSans-38" d="M 2034 2216 
Q 1584 2216 1326 1975 
Q 1069 1734 1069 1313 
Q 1069 891 1326 650 
Q 1584 409 2034 409 
Q 2484 409 2743 651 
Q 3003 894 3003 1313 
Q 3003 1734 2745 1975 
Q 2488 2216 2034 2216 
z
M 1403 2484 
Q 997 2584 770 2862 
Q 544 3141 544 3541 
Q 544 4100 942 4425 
Q 1341 4750 2034 4750 
Q 2731 4750 3128 4425 
Q 3525 4100 3525 3541 
Q 3525 3141 3298 2862 
Q 3072 2584 2669 2484 
Q 3125 2378 3379 2068 
Q 3634 1759 3634 1313 
Q 3634 634 3220 271 
Q 2806 -91 2034 -91 
Q 1263 -91 848 271 
Q 434 634 434 1313 
Q 434 1759 690 2068 
Q 947 2378 1403 2484 
z
M 1172 3481 
Q 1172 3119 1398 2916 
Q 1625 2713 2034 2713 
Q 2441 2713 2670 2916 
Q 2900 3119 2900 3481 
Q 2900 3844 2670 4047 
Q 2441 4250 2034 4250 
Q 1625 4250 1398 4047 
Q 1172 3844 1172 3481 
z
" transform="scale(0.015625)"/>
       </defs>
       <use xlink:href="#DejaVuSans-30"/>
       <use xlink:href="#DejaVuSans-2e" transform="translate(63.623047 0)"/>
       <use xlink:href="#DejaVuSans-38" transform="translate(95.410156 0)"/>
      </g>
     </g>
    </g>
    <g id="ytick_6">
     <g id="line2d_23">
      <path d="M 47.72 92.783333 
L 537.25 92.783333 
" clip-path="url(#p359c92f0ad)" style="fill: none; stroke: #b0b0b0; stroke-width: 0.8; stroke-linecap: square"/>
     </g>
     <g id="line2d_24">
      <g>
       <use xlink:href="#maa4f51b330" x="47.72" y="92.783333" style="stroke: #000000; stroke-width: 0.8"/>
      </g>
     </g>
     <g id="text_13">
      <!-- 1.0 -->
      <g transform="translate(24.816875 96.582552) scale(0.1 -0.1)">
       <use xlink:href="#DejaVuSans-31"/>
       <use xlink:href="#DejaVuSans-2e" transform="translate(63.623047 0)"/>
       <use xlink:href="#DejaVuSans-30" transform="translate(95.410156 0)"/>
      </g>
     </g>
    </g>
    <g id="text_14">
     <!-- Accuracy -->
     <g transform="translate(18.737188 250.728125) rotate(-90) scale(0.1 -0.1)">
      <defs>
       <path id="DejaVuSans-41" d="M 2188 4044 
L 1331 1722 
L 3047 1722 
L 2188 4044 
z
M 1831 4666 
L 2547 4666 
L 4325 0 
L 3669 0 
L 3244 1197 
L 1141 1197 
L 716 0 
L 50 0 
L 1831 4666 
z
" transform="scale(0.015625)"/>
       <path id="DejaVuSans-63" d="M 3122 3366 
L 3122 2828 
Q 2878 2963 2633 3030 
Q 2388 3097 2138 3097 
Q 1578 3097 1268 2742 
Q 959 2388 959 1747 
Q 959 1106 1268 751 
Q 1578 397 2138 397 
Q 2388 397 2633 464 
Q 2878 531 3122 666 
L 3122 134 
Q 2881 22 2623 -34 
Q 2366 -91 2075 -91 
Q 1284 -91 818 406 
Q 353 903 353 1747 
Q 353 2603 823 3093 
Q 1294 3584 2113 3584 
Q 2378 3584 2631 3529 
Q 2884 3475 3122 3366 
z
" transform="scale(0.015625)"/>
       <path id="DejaVuSans-75" d="M 544 1381 
L 544 3500 
L 1119 3500 
L 1119 1403 
Q 1119 906 1312 657 
Q 1506 409 1894 409 
Q 2359 409 2629 706 
Q 2900 1003 2900 1516 
L 2900 3500 
L 3475 3500 
L 3475 0 
L 2900 0 
L 2900 538 
Q 2691 219 2414 64 
Q 2138 -91 1772 -91 
Q 1169 -91 856 284 
Q 544 659 544 1381 
z
M 1991 3584 
L 1991 3584 
z
" transform="scale(0.015625)"/>
       <path id="DejaVuSans-72" d="M 2631 2963 
Q 2534 3019 2420 3045 
Q 2306 3072 2169 3072 
Q 1681 3072 1420 2755 
Q 1159 2438 1159 1844 
L 1159 0 
L 581 0 
L 581 3500 
L 1159 3500 
L 1159 2956 
Q 1341 3275 1631 3429 
Q 1922 3584 2338 3584 
Q 2397 3584 2469 3576 
Q 2541 3569 2628 3553 
L 2631 2963 
z
" transform="scale(0.015625)"/>
       <path id="DejaVuSans-61" d="M 2194 1759 
Q 1497 1759 1228 1600 
Q 959 1441 959 1056 
Q 959 750 1161 570 
Q 1363 391 1709 391 
Q 2188 391 2477 730 
Q 2766 1069 2766 1631 
L 2766 1759 
L 2194 1759 
z
M 3341 1997 
L 3341 0 
L 2766 0 
L 2766 531 
Q 2569 213 2275 61 
Q 1981 -91 1556 -91 
Q 1019 -91 701 211 
Q 384 513 384 1019 
Q 384 1609 779 1909 
Q 1175 2209 1959 2209 
L 2766 2209 
L 2766 2266 
Q 2766 2663 2505 2880 
Q 2244 3097 1772 3097 
Q 1472 3097 1187 3025 
Q 903 2953 641 2809 
L 641 3341 
Q 956 3463 1253 3523 
Q 1550 3584 1831 3584 
Q 2591 3584 2966 3190 
Q 3341 2797 3341 1997 
z
" transform="scale(0.015625)"/>
       <path id="DejaVuSans-79" d="M 2059 -325 
Q 1816 -950 1584 -1140 
Q 1353 -1331 966 -1331 
L 506 -1331 
L 506 -850 
L 844 -850 
Q 1081 -850 1212 -737 
Q 1344 -625 1503 -206 
L 1606 56 
L 191 3500 
L 800 3500 
L 1894 763 
L 2988 3500 
L 3597 3500 
L 2059 -325 
z
" transform="scale(0.015625)"/>
      </defs>
      <use xlink:href="#DejaVuSans-41"/>
      <use xlink:href="#DejaVuSans-63" transform="translate(66.658203 0)"/>
      <use xlink:href="#DejaVuSans-63" transform="translate(121.638672 0)"/>
      <use xlink:href="#DejaVuSans-75" transform="translate(176.619141 0)"/>
      <use xlink:href="#DejaVuSans-72" transform="translate(239.998047 0)"/>
      <use xlink:href="#DejaVuSans-61" transform="translate(281.111328 0)"/>
      <use xlink:href="#DejaVuSans-63" transform="translate(342.390625 0)"/>
      <use xlink:href="#DejaVuSans-79" transform="translate(397.371094 0)"/>
     </g>
    </g>
   </g>
   <g id="line2d_25">
    <path d="M 69.971364 109.218308 
L 158.976818 238.35025 
L 247.982273 312.606871 
L 336.987727 336.775951 
L 425.993182 347.916746 
L 514.998636 355.236525 
" clip-path="url(#p359c92f0ad)" style="fill: none; stroke: #6aaed6; stroke-width: 1.5; stroke-linecap: square"/>
    <defs>
     <path id="m10b80be5e1" d="M -3 3 
L 3 3 
L 3 -3 
L -3 -3 
z
" style="stroke: #6aaed6; stroke-linejoin: miter"/>
    </defs>
    <g clip-path="url(#p359c92f0ad)">
     <use xlink:href="#m10b80be5e1" x="69.971364" y="109.218308" style="fill: #6aaed6; stroke: #6aaed6; stroke-linejoin: miter"/>
     <use xlink:href="#m10b80be5e1" x="158.976818" y="238.35025" style="fill: #6aaed6; stroke: #6aaed6; stroke-linejoin: miter"/>
     <use xlink:href="#m10b80be5e1" x="247.982273" y="312.606871" style="fill: #6aaed6; stroke: #6aaed6; stroke-linejoin: miter"/>
     <use xlink:href="#m10b80be5e1" x="336.987727" y="336.775951" style="fill: #6aaed6; stroke: #6aaed6; stroke-linejoin: miter"/>
     <use xlink:href="#m10b80be5e1" x="425.993182" y="347.916746" style="fill: #6aaed6; stroke: #6aaed6; stroke-linejoin: miter"/>
     <use xlink:href="#m10b80be5e1" x="514.998636" y="355.236525" style="fill: #6aaed6; stroke: #6aaed6; stroke-linejoin: miter"/>
    </g>
   </g>
   <g id="line2d_26">
    <path d="M 69.971364 118.195395 
L 158.976818 263.578166 
L 247.982273 319.097995 
L 336.987727 339.860386 
L 425.993182 350.2646 
L 514.998636 356.065179 
" clip-path="url(#p359c92f0ad)" style="fill: none; stroke: #4a98c9; stroke-width: 1.5; stroke-linecap: square"/>
    <defs>
     <path id="me2888b58a8" d="M -3 3 
L 3 -3 
M -3 -3 
L 3 3 
" style="stroke: #4a98c9"/>
    </defs>
    <g clip-path="url(#p359c92f0ad)">
     <use xlink:href="#me2888b58a8" x="69.971364" y="118.195395" style="fill: #4a98c9; stroke: #4a98c9"/>
     <use xlink:href="#me2888b58a8" x="158.976818" y="263.578166" style="fill: #4a98c9; stroke: #4a98c9"/>
     <use xlink:href="#me2888b58a8" x="247.982273" y="319.097995" style="fill: #4a98c9; stroke: #4a98c9"/>
     <use xlink:href="#me2888b58a8" x="336.987727" y="339.860386" style="fill: #4a98c9; stroke: #4a98c9"/>
     <use xlink:href="#me2888b58a8" x="425.993182" y="350.2646" style="fill: #4a98c9; stroke: #4a98c9"/>
     <use xlink:href="#me2888b58a8" x="514.998636" y="356.065179" style="fill: #4a98c9; stroke: #4a98c9"/>
    </g>
   </g>
   <g id="line2d_27">
    <path d="M 69.971364 108.665872 
L 158.976818 178.088677 
L 247.982273 274.028416 
L 336.987727 316.059597 
L 425.993182 336.315588 
L 514.998636 349.389909 
" clip-path="url(#p359c92f0ad)" style="fill: none; stroke: #2e7ebc; stroke-width: 1.5; stroke-linecap: square"/>
    <defs>
     <path id="m0553bf5851" d="M 0 4.242641 
L 4.242641 0 
L 0 -4.242641 
L -4.242641 0 
z
" style="stroke: #2e7ebc; stroke-linejoin: miter"/>
    </defs>
    <g clip-path="url(#p359c92f0ad)">
     <use xlink:href="#m0553bf5851" x="69.971364" y="108.665872" style="fill: #2e7ebc; stroke: #2e7ebc; stroke-linejoin: miter"/>
     <use xlink:href="#m0553bf5851" x="158.976818" y="178.088677" style="fill: #2e7ebc; stroke: #2e7ebc; stroke-linejoin: miter"/>
     <use xlink:href="#m0553bf5851" x="247.982273" y="274.028416" style="fill: #2e7ebc; stroke: #2e7ebc; stroke-linejoin: miter"/>
     <use xlink:href="#m0553bf5851" x="336.987727" y="316.059597" style="fill: #2e7ebc; stroke: #2e7ebc; stroke-linejoin: miter"/>
     <use xlink:href="#m0553bf5851" x="425.993182" y="336.315588" style="fill: #2e7ebc; stroke: #2e7ebc; stroke-linejoin: miter"/>
     <use xlink:href="#m0553bf5851" x="514.998636" y="349.389909" style="fill: #2e7ebc; stroke: #2e7ebc; stroke-linejoin: miter"/>
    </g>
   </g>
   <g id="line2d_28">
    <path d="M 69.971364 108.665872 
L 158.976818 213.67477 
L 247.982273 317.901051 
L 336.987727 338.939659 
L 425.993182 352.750562 
L 514.998636 357.952669 
" clip-path="url(#p359c92f0ad)" style="fill: none; stroke: #084a91; stroke-width: 1.5; stroke-linecap: square"/>
    <defs>
     <path id="m4aab694825" d="M 0 4.242641 
L 2.545584 0 
L 0 -4.242641 
L -2.545584 0 
z
" style="stroke: #084a91; stroke-linejoin: miter"/>
    </defs>
    <g clip-path="url(#p359c92f0ad)">
     <use xlink:href="#m4aab694825" x="69.971364" y="108.665872" style="fill: #084a91; stroke: #084a91; stroke-linejoin: miter"/>
     <use xlink:href="#m4aab694825" x="158.976818" y="213.67477" style="fill: #084a91; stroke: #084a91; stroke-linejoin: miter"/>
     <use xlink:href="#m4aab694825" x="247.982273" y="317.901051" style="fill: #084a91; stroke: #084a91; stroke-linejoin: miter"/>
     <use xlink:href="#m4aab694825" x="336.987727" y="338.939659" style="fill: #084a91; stroke: #084a91; stroke-linejoin: miter"/>
     <use xlink:href="#m4aab694825" x="425.993182" y="352.750562" style="fill: #084a91; stroke: #084a91; stroke-linejoin: miter"/>
     <use xlink:href="#m4aab694825" x="514.998636" y="357.952669" style="fill: #084a91; stroke: #084a91; stroke-linejoin: miter"/>
    </g>
   </g>
   <g id="line2d_29">
    <path d="M 69.971364 117.550886 
L 158.976818 248.754463 
L 247.982273 299.90084 
L 336.987727 328.903737 
L 425.993182 343.405185 
L 514.998636 353.210926 
" clip-path="url(#p359c92f0ad)" style="fill: none; stroke: #cecece; stroke-width: 1.5; stroke-linecap: square"/>
    <defs>
     <path id="m5e7f872dbd" d="M 0 3 
C 0.795609 3 1.55874 2.683901 2.12132 2.12132 
C 2.683901 1.55874 3 0.795609 3 0 
C 3 -0.795609 2.683901 -1.55874 2.12132 -2.12132 
C 1.55874 -2.683901 0.795609 -3 0 -3 
C -0.795609 -3 -1.55874 -2.683901 -2.12132 -2.12132 
C -2.683901 -1.55874 -3 -0.795609 -3 0 
C -3 0.795609 -2.683901 1.55874 -2.12132 2.12132 
C -1.55874 2.683901 -0.795609 3 0 3 
z
" style="stroke: #cecece"/>
    </defs>
    <g clip-path="url(#p359c92f0ad)">
     <use xlink:href="#m5e7f872dbd" x="69.971364" y="117.550886" style="fill: #cecece; stroke: #cecece"/>
     <use xlink:href="#m5e7f872dbd" x="158.976818" y="248.754463" style="fill: #cecece; stroke: #cecece"/>
     <use xlink:href="#m5e7f872dbd" x="247.982273" y="299.90084" style="fill: #cecece; stroke: #cecece"/>
     <use xlink:href="#m5e7f872dbd" x="336.987727" y="328.903737" style="fill: #cecece; stroke: #cecece"/>
     <use xlink:href="#m5e7f872dbd" x="425.993182" y="343.405185" style="fill: #cecece; stroke: #cecece"/>
     <use xlink:href="#m5e7f872dbd" x="514.998636" y="353.210926" style="fill: #cecece; stroke: #cecece"/>
    </g>
   </g>
   <g id="line2d_30">
    <path d="M 69.971364 118.931976 
L 158.976818 258.468132 
L 247.982273 318.959886 
L 336.987727 340.965258 
L 425.993182 349.481982 
L 514.998636 355.92707 
" clip-path="url(#p359c92f0ad)" style="fill: none; stroke: #959595; stroke-width: 1.5; stroke-linecap: square"/>
    <defs>
     <path id="m9771b2b929" d="M 0 -3 
L -3 3 
L 3 3 
z
" style="stroke: #959595; stroke-linejoin: miter"/>
    </defs>
    <g clip-path="url(#p359c92f0ad)">
     <use xlink:href="#m9771b2b929" x="69.971364" y="118.931976" style="fill: #959595; stroke: #959595; stroke-linejoin: miter"/>
     <use xlink:href="#m9771b2b929" x="158.976818" y="258.468132" style="fill: #959595; stroke: #959595; stroke-linejoin: miter"/>
     <use xlink:href="#m9771b2b929" x="247.982273" y="318.959886" style="fill: #959595; stroke: #959595; stroke-linejoin: miter"/>
     <use xlink:href="#m9771b2b929" x="336.987727" y="340.965258" style="fill: #959595; stroke: #959595; stroke-linejoin: miter"/>
     <use xlink:href="#m9771b2b929" x="425.993182" y="349.481982" style="fill: #959595; stroke: #959595; stroke-linejoin: miter"/>
     <use xlink:href="#m9771b2b929" x="514.998636" y="355.92707" style="fill: #959595; stroke: #959595; stroke-linejoin: miter"/>
    </g>
   </g>
   <g id="line2d_31">
    <path d="M 69.971364 110.139035 
L 158.976818 218.784804 
L 247.982273 288.483827 
L 336.987727 319.466286 
L 425.993182 339.538132 
L 514.998636 350.356672 
" clip-path="url(#p359c92f0ad)" style="fill: none; stroke: #5f5f5f; stroke-width: 1.5; stroke-linecap: square"/>
    <defs>
     <path id="md0523caa16" d="M -3 3 
L 3 3 
L 3 -3 
L -3 -3 
z
" style="stroke: #5f5f5f; stroke-linejoin: miter"/>
    </defs>
    <g clip-path="url(#p359c92f0ad)">
     <use xlink:href="#md0523caa16" x="69.971364" y="110.139035" style="fill: #5f5f5f; stroke: #5f5f5f; stroke-linejoin: miter"/>
     <use xlink:href="#md0523caa16" x="158.976818" y="218.784804" style="fill: #5f5f5f; stroke: #5f5f5f; stroke-linejoin: miter"/>
     <use xlink:href="#md0523caa16" x="247.982273" y="288.483827" style="fill: #5f5f5f; stroke: #5f5f5f; stroke-linejoin: miter"/>
     <use xlink:href="#md0523caa16" x="336.987727" y="319.466286" style="fill: #5f5f5f; stroke: #5f5f5f; stroke-linejoin: miter"/>
     <use xlink:href="#md0523caa16" x="425.993182" y="339.538132" style="fill: #5f5f5f; stroke: #5f5f5f; stroke-linejoin: miter"/>
     <use xlink:href="#md0523caa16" x="514.998636" y="350.356672" style="fill: #5f5f5f; stroke: #5f5f5f; stroke-linejoin: miter"/>
    </g>
   </g>
   <g id="line2d_32">
    <path d="M 69.971364 109.264344 
L 158.976818 246.40661 
L 247.982273 313.481562 
L 336.987727 336.821988 
L 425.993182 348.100892 
L 514.998636 355.696888 
" clip-path="url(#p359c92f0ad)" style="fill: none; stroke: #1d1d1d; stroke-width: 1.5; stroke-linecap: square"/>
    <defs>
     <path id="me6ded15390" d="M -3 3 
L 3 -3 
M -3 -3 
L 3 3 
" style="stroke: #1d1d1d"/>
    </defs>
    <g clip-path="url(#p359c92f0ad)">
     <use xlink:href="#me6ded15390" x="69.971364" y="109.264344" style="fill: #1d1d1d; stroke: #1d1d1d"/>
     <use xlink:href="#me6ded15390" x="158.976818" y="246.40661" style="fill: #1d1d1d; stroke: #1d1d1d"/>
     <use xlink:href="#me6ded15390" x="247.982273" y="313.481562" style="fill: #1d1d1d; stroke: #1d1d1d"/>
     <use xlink:href="#me6ded15390" x="336.987727" y="336.821988" style="fill: #1d1d1d; stroke: #1d1d1d"/>
     <use xlink:href="#me6ded15390" x="425.993182" y="348.100892" style="fill: #1d1d1d; stroke: #1d1d1d"/>
     <use xlink:href="#me6ded15390" x="514.998636" y="355.696888" style="fill: #1d1d1d; stroke: #1d1d1d"/>
    </g>
   </g>
   <g id="line2d_33">
    <path d="M 69.971364 113.729869 
L 158.976818 248.570318 
L 247.982273 312.698944 
L 336.987727 337.558569 
L 425.993182 347.456383 
L 514.998636 355.282561 
" clip-path="url(#p359c92f0ad)" style="fill: none; stroke: #98d594; stroke-width: 1.5; stroke-linecap: square"/>
    <defs>
     <path id="me73c60352f" d="M 0 -3 
L -3 3 
L 3 3 
z
" style="stroke: #98d594; stroke-linejoin: miter"/>
    </defs>
    <g clip-path="url(#p359c92f0ad)">
     <use xlink:href="#me73c60352f" x="69.971364" y="113.729869" style="fill: #98d594; stroke: #98d594; stroke-linejoin: miter"/>
     <use xlink:href="#me73c60352f" x="158.976818" y="248.570318" style="fill: #98d594; stroke: #98d594; stroke-linejoin: miter"/>
     <use xlink:href="#me73c60352f" x="247.982273" y="312.698944" style="fill: #98d594; stroke: #98d594; stroke-linejoin: miter"/>
     <use xlink:href="#me73c60352f" x="336.987727" y="337.558569" style="fill: #98d594; stroke: #98d594; stroke-linejoin: miter"/>
     <use xlink:href="#me73c60352f" x="425.993182" y="347.456383" style="fill: #98d594; stroke: #98d594; stroke-linejoin: miter"/>
     <use xlink:href="#me73c60352f" x="514.998636" y="355.282561" style="fill: #98d594; stroke: #98d594; stroke-linejoin: miter"/>
    </g>
   </g>
   <g id="line2d_34">
    <path d="M 69.971364 109.678671 
L 158.976818 210.820517 
L 247.982273 299.670659 
L 336.987727 323.103157 
L 425.993182 343.267076 
L 514.998636 352.290199 
" clip-path="url(#p359c92f0ad)" style="fill: none; stroke: #4bb062; stroke-width: 1.5; stroke-linecap: square"/>
    <defs>
     <path id="m2d6d95aff7" d="M -3 3 
L 3 -3 
M -3 -3 
L 3 3 
" style="stroke: #4bb062"/>
    </defs>
    <g clip-path="url(#p359c92f0ad)">
     <use xlink:href="#m2d6d95aff7" x="69.971364" y="109.678671" style="fill: #4bb062; stroke: #4bb062"/>
     <use xlink:href="#m2d6d95aff7" x="158.976818" y="210.820517" style="fill: #4bb062; stroke: #4bb062"/>
     <use xlink:href="#m2d6d95aff7" x="247.982273" y="299.670659" style="fill: #4bb062; stroke: #4bb062"/>
     <use xlink:href="#m2d6d95aff7" x="336.987727" y="323.103157" style="fill: #4bb062; stroke: #4bb062"/>
     <use xlink:href="#m2d6d95aff7" x="425.993182" y="343.267076" style="fill: #4bb062; stroke: #4bb062"/>
     <use xlink:href="#m2d6d95aff7" x="514.998636" y="352.290199" style="fill: #4bb062; stroke: #4bb062"/>
    </g>
   </g>
   <g id="line2d_35">
    <path d="M 69.971364 108.573799 
L 158.976818 236.600869 
L 247.982273 310.581272 
L 336.987727 329.778427 
L 425.993182 344.417984 
L 514.998636 354.960307 
" clip-path="url(#p359c92f0ad)" style="fill: none; stroke: #2f974e; stroke-width: 1.5; stroke-linecap: square"/>
    <defs>
     <path id="mdccd7a1600" d="M 0 4.242641 
L 4.242641 0 
L 0 -4.242641 
L -4.242641 0 
z
" style="stroke: #2f974e; stroke-linejoin: miter"/>
    </defs>
    <g clip-path="url(#p359c92f0ad)">
     <use xlink:href="#mdccd7a1600" x="69.971364" y="108.573799" style="fill: #2f974e; stroke: #2f974e; stroke-linejoin: miter"/>
     <use xlink:href="#mdccd7a1600" x="158.976818" y="236.600869" style="fill: #2f974e; stroke: #2f974e; stroke-linejoin: miter"/>
     <use xlink:href="#mdccd7a1600" x="247.982273" y="310.581272" style="fill: #2f974e; stroke: #2f974e; stroke-linejoin: miter"/>
     <use xlink:href="#mdccd7a1600" x="336.987727" y="329.778427" style="fill: #2f974e; stroke: #2f974e; stroke-linejoin: miter"/>
     <use xlink:href="#mdccd7a1600" x="425.993182" y="344.417984" style="fill: #2f974e; stroke: #2f974e; stroke-linejoin: miter"/>
     <use xlink:href="#mdccd7a1600" x="514.998636" y="354.960307" style="fill: #2f974e; stroke: #2f974e; stroke-linejoin: miter"/>
    </g>
   </g>
   <g id="line2d_36">
    <path d="M 69.971364 108.481726 
L 158.976818 247.557518 
L 247.982273 309.016036 
L 336.987727 335.256752 
L 425.993182 347.548455 
L 514.998636 351.829835 
" clip-path="url(#p359c92f0ad)" style="fill: none; stroke: #157f3b; stroke-width: 1.5; stroke-linecap: square"/>
    <defs>
     <path id="m71c0fb9127" d="M -1 3 
L 1 3 
L 1 1 
L 3 1 
L 3 -1 
L 1 -1 
L 1 -3 
L -1 -3 
L -1 -1 
L -3 -1 
L -3 1 
L -1 1 
z
" style="stroke: #157f3b; stroke-linejoin: miter"/>
    </defs>
    <g clip-path="url(#p359c92f0ad)">
     <use xlink:href="#m71c0fb9127" x="69.971364" y="108.481726" style="fill: #157f3b; stroke: #157f3b; stroke-linejoin: miter"/>
     <use xlink:href="#m71c0fb9127" x="158.976818" y="247.557518" style="fill: #157f3b; stroke: #157f3b; stroke-linejoin: miter"/>
     <use xlink:href="#m71c0fb9127" x="247.982273" y="309.016036" style="fill: #157f3b; stroke: #157f3b; stroke-linejoin: miter"/>
     <use xlink:href="#m71c0fb9127" x="336.987727" y="335.256752" style="fill: #157f3b; stroke: #157f3b; stroke-linejoin: miter"/>
     <use xlink:href="#m71c0fb9127" x="425.993182" y="347.548455" style="fill: #157f3b; stroke: #157f3b; stroke-linejoin: miter"/>
     <use xlink:href="#m71c0fb9127" x="514.998636" y="351.829835" style="fill: #157f3b; stroke: #157f3b; stroke-linejoin: miter"/>
    </g>
   </g>
   <g id="line2d_37">
    <path d="M 69.971364 118.839903 
L 158.976818 285.169211 
L 247.982273 335.993333 
L 336.987727 346.903947 
L 425.993182 352.474344 
L 514.998636 358.274923 
" clip-path="url(#p359c92f0ad)" style="fill: none; stroke: #e41a1c; stroke-width: 1.5; stroke-linecap: square"/>
   </g>
   <g id="patch_3">
    <path d="M 47.72 390.04 
L 47.72 65.76 
" style="fill: none; stroke: #000000; stroke-width: 0.8; stroke-linejoin: miter; stroke-linecap: square"/>
   </g>
   <g id="patch_4">
    <path d="M 537.25 390.04 
L 537.25 65.76 
" style="fill: none; stroke: #000000; stroke-width: 0.8; stroke-linejoin: miter; stroke-linecap: square"/>
   </g>
   <g id="patch_5">
    <path d="M 47.72 390.04 
L 537.25 390.04 
" style="fill: none; stroke: #000000; stroke-width: 0.8; stroke-linejoin: miter; stroke-linecap: square"/>
   </g>
   <g id="patch_6">
    <path d="M 47.72 65.76 
L 537.25 65.76 
" style="fill: none; stroke: #000000; stroke-width: 0.8; stroke-linejoin: miter; stroke-linecap: square"/>
   </g>
   <g id="text_15">
    <!-- $\mu$: 2.5, graph: inf-euroroad, each point avg of 5 runs. -->
    <g transform="translate(133.965 59.76) scale(0.12 -0.12)">
     <defs>
      <path id="DejaVuSans-Oblique-3bc" d="M -84 -1331 
L 856 3500 
L 1434 3500 
L 1009 1322 
Q 997 1256 987 1175 
Q 978 1094 978 1013 
Q 978 722 1161 565 
Q 1344 409 1684 409 
Q 2147 409 2431 671 
Q 2716 934 2816 1459 
L 3213 3500 
L 3788 3500 
L 3266 809 
Q 3253 750 3248 706 
Q 3244 663 3244 628 
Q 3244 531 3283 486 
Q 3322 441 3406 441 
Q 3438 441 3492 456 
Q 3547 472 3647 513 
L 3559 50 
Q 3422 -19 3297 -55 
Q 3172 -91 3053 -91 
Q 2847 -91 2730 40 
Q 2613 172 2613 403 
Q 2438 153 2195 31 
Q 1953 -91 1625 -91 
Q 1334 -91 1117 43 
Q 900 178 831 397 
L 494 -1331 
L -84 -1331 
z
" transform="scale(0.015625)"/>
      <path id="DejaVuSans-3a" d="M 750 794 
L 1409 794 
L 1409 0 
L 750 0 
L 750 794 
z
M 750 3309 
L 1409 3309 
L 1409 2516 
L 750 2516 
L 750 3309 
z
" transform="scale(0.015625)"/>
      <path id="DejaVuSans-20" transform="scale(0.015625)"/>
      <path id="DejaVuSans-2c" d="M 750 794 
L 1409 794 
L 1409 256 
L 897 -744 
L 494 -744 
L 750 256 
L 750 794 
z
" transform="scale(0.015625)"/>
      <path id="DejaVuSans-67" d="M 2906 1791 
Q 2906 2416 2648 2759 
Q 2391 3103 1925 3103 
Q 1463 3103 1205 2759 
Q 947 2416 947 1791 
Q 947 1169 1205 825 
Q 1463 481 1925 481 
Q 2391 481 2648 825 
Q 2906 1169 2906 1791 
z
M 3481 434 
Q 3481 -459 3084 -895 
Q 2688 -1331 1869 -1331 
Q 1566 -1331 1297 -1286 
Q 1028 -1241 775 -1147 
L 775 -588 
Q 1028 -725 1275 -790 
Q 1522 -856 1778 -856 
Q 2344 -856 2625 -561 
Q 2906 -266 2906 331 
L 2906 616 
Q 2728 306 2450 153 
Q 2172 0 1784 0 
Q 1141 0 747 490 
Q 353 981 353 1791 
Q 353 2603 747 3093 
Q 1141 3584 1784 3584 
Q 2172 3584 2450 3431 
Q 2728 3278 2906 2969 
L 2906 3500 
L 3481 3500 
L 3481 434 
z
" transform="scale(0.015625)"/>
      <path id="DejaVuSans-70" d="M 1159 525 
L 1159 -1331 
L 581 -1331 
L 581 3500 
L 1159 3500 
L 1159 2969 
Q 1341 3281 1617 3432 
Q 1894 3584 2278 3584 
Q 2916 3584 3314 3078 
Q 3713 2572 3713 1747 
Q 3713 922 3314 415 
Q 2916 -91 2278 -91 
Q 1894 -91 1617 61 
Q 1341 213 1159 525 
z
M 3116 1747 
Q 3116 2381 2855 2742 
Q 2594 3103 2138 3103 
Q 1681 3103 1420 2742 
Q 1159 2381 1159 1747 
Q 1159 1113 1420 752 
Q 1681 391 2138 391 
Q 2594 391 2855 752 
Q 3116 1113 3116 1747 
z
" transform="scale(0.015625)"/>
      <path id="DejaVuSans-68" d="M 3513 2113 
L 3513 0 
L 2938 0 
L 2938 2094 
Q 2938 2591 2744 2837 
Q 2550 3084 2163 3084 
Q 1697 3084 1428 2787 
Q 1159 2491 1159 1978 
L 1159 0 
L 581 0 
L 581 4863 
L 1159 4863 
L 1159 2956 
Q 1366 3272 1645 3428 
Q 1925 3584 2291 3584 
Q 2894 3584 3203 3211 
Q 3513 2838 3513 2113 
z
" transform="scale(0.015625)"/>
      <path id="DejaVuSans-6e" d="M 3513 2113 
L 3513 0 
L 2938 0 
L 2938 2094 
Q 2938 2591 2744 2837 
Q 2550 3084 2163 3084 
Q 1697 3084 1428 2787 
Q 1159 2491 1159 1978 
L 1159 0 
L 581 0 
L 581 3500 
L 1159 3500 
L 1159 2956 
Q 1366 3272 1645 3428 
Q 1925 3584 2291 3584 
Q 2894 3584 3203 3211 
Q 3513 2838 3513 2113 
z
" transform="scale(0.015625)"/>
      <path id="DejaVuSans-66" d="M 2375 4863 
L 2375 4384 
L 1825 4384 
Q 1516 4384 1395 4259 
Q 1275 4134 1275 3809 
L 1275 3500 
L 2222 3500 
L 2222 3053 
L 1275 3053 
L 1275 0 
L 697 0 
L 697 3053 
L 147 3053 
L 147 3500 
L 697 3500 
L 697 3744 
Q 697 4328 969 4595 
Q 1241 4863 1831 4863 
L 2375 4863 
z
" transform="scale(0.015625)"/>
      <path id="DejaVuSans-64" d="M 2906 2969 
L 2906 4863 
L 3481 4863 
L 3481 0 
L 2906 0 
L 2906 525 
Q 2725 213 2448 61 
Q 2172 -91 1784 -91 
Q 1150 -91 751 415 
Q 353 922 353 1747 
Q 353 2572 751 3078 
Q 1150 3584 1784 3584 
Q 2172 3584 2448 3432 
Q 2725 3281 2906 2969 
z
M 947 1747 
Q 947 1113 1208 752 
Q 1469 391 1925 391 
Q 2381 391 2643 752 
Q 2906 1113 2906 1747 
Q 2906 2381 2643 2742 
Q 2381 3103 1925 3103 
Q 1469 3103 1208 2742 
Q 947 2381 947 1747 
z
" transform="scale(0.015625)"/>
      <path id="DejaVuSans-74" d="M 1172 4494 
L 1172 3500 
L 2356 3500 
L 2356 3053 
L 1172 3053 
L 1172 1153 
Q 1172 725 1289 603 
Q 1406 481 1766 481 
L 2356 481 
L 2356 0 
L 1766 0 
Q 1100 0 847 248 
Q 594 497 594 1153 
L 594 3053 
L 172 3053 
L 172 3500 
L 594 3500 
L 594 4494 
L 1172 4494 
z
" transform="scale(0.015625)"/>
     </defs>
     <use xlink:href="#DejaVuSans-Oblique-3bc" transform="translate(0 0.015625)"/>
     <use xlink:href="#DejaVuSans-3a" transform="translate(63.623047 0.015625)"/>
     <use xlink:href="#DejaVuSans-20" transform="translate(97.314453 0.015625)"/>
     <use xlink:href="#DejaVuSans-32" transform="translate(129.101562 0.015625)"/>
     <use xlink:href="#DejaVuSans-2e" transform="translate(192.724609 0.015625)"/>
     <use xlink:href="#DejaVuSans-35" transform="translate(224.511719 0.015625)"/>
     <use xlink:href="#DejaVuSans-2c" transform="translate(288.134766 0.015625)"/>
     <use xlink:href="#DejaVuSans-20" transform="translate(319.921875 0.015625)"/>
     <use xlink:href="#DejaVuSans-67" transform="translate(351.708984 0.015625)"/>
     <use xlink:href="#DejaVuSans-72" transform="translate(415.185547 0.015625)"/>
     <use xlink:href="#DejaVuSans-61" transform="translate(456.298828 0.015625)"/>
     <use xlink:href="#DejaVuSans-70" transform="translate(517.578125 0.015625)"/>
     <use xlink:href="#DejaVuSans-68" transform="translate(581.054688 0.015625)"/>
     <use xlink:href="#DejaVuSans-3a" transform="translate(644.433594 0.015625)"/>
     <use xlink:href="#DejaVuSans-20" transform="translate(678.125 0.015625)"/>
     <use xlink:href="#DejaVuSans-69" transform="translate(709.912109 0.015625)"/>
     <use xlink:href="#DejaVuSans-6e" transform="translate(737.695312 0.015625)"/>
     <use xlink:href="#DejaVuSans-66" transform="translate(801.074219 0.015625)"/>
     <use xlink:href="#DejaVuSans-2d" transform="translate(836.279297 0.015625)"/>
     <use xlink:href="#DejaVuSans-65" transform="translate(872.363281 0.015625)"/>
     <use xlink:href="#DejaVuSans-75" transform="translate(933.886719 0.015625)"/>
     <use xlink:href="#DejaVuSans-72" transform="translate(997.265625 0.015625)"/>
     <use xlink:href="#DejaVuSans-6f" transform="translate(1038.378906 0.015625)"/>
     <use xlink:href="#DejaVuSans-72" transform="translate(1099.560547 0.015625)"/>
     <use xlink:href="#DejaVuSans-6f" transform="translate(1140.673828 0.015625)"/>
     <use xlink:href="#DejaVuSans-61" transform="translate(1201.855469 0.015625)"/>
     <use xlink:href="#DejaVuSans-64" transform="translate(1263.134766 0.015625)"/>
     <use xlink:href="#DejaVuSans-2c" transform="translate(1326.611328 0.015625)"/>
     <use xlink:href="#DejaVuSans-20" transform="translate(1358.398438 0.015625)"/>
     <use xlink:href="#DejaVuSans-65" transform="translate(1390.185547 0.015625)"/>
     <use xlink:href="#DejaVuSans-61" transform="translate(1451.708984 0.015625)"/>
     <use xlink:href="#DejaVuSans-63" transform="translate(1512.988281 0.015625)"/>
     <use xlink:href="#DejaVuSans-68" transform="translate(1567.96875 0.015625)"/>
     <use xlink:href="#DejaVuSans-20" transform="translate(1631.347656 0.015625)"/>
     <use xlink:href="#DejaVuSans-70" transform="translate(1663.134766 0.015625)"/>
     <use xlink:href="#DejaVuSans-6f" transform="translate(1726.611328 0.015625)"/>
     <use xlink:href="#DejaVuSans-69" transform="translate(1787.792969 0.015625)"/>
     <use xlink:href="#DejaVuSans-6e" transform="translate(1815.576172 0.015625)"/>
     <use xlink:href="#DejaVuSans-74" transform="translate(1878.955078 0.015625)"/>
     <use xlink:href="#DejaVuSans-20" transform="translate(1918.164062 0.015625)"/>
     <use xlink:href="#DejaVuSans-61" transform="translate(1949.951172 0.015625)"/>
     <use xlink:href="#DejaVuSans-76" transform="translate(2011.230469 0.015625)"/>
     <use xlink:href="#DejaVuSans-67" transform="translate(2070.410156 0.015625)"/>
     <use xlink:href="#DejaVuSans-20" transform="translate(2133.886719 0.015625)"/>
     <use xlink:href="#DejaVuSans-6f" transform="translate(2165.673828 0.015625)"/>
     <use xlink:href="#DejaVuSans-66" transform="translate(2226.855469 0.015625)"/>
     <use xlink:href="#DejaVuSans-20" transform="translate(2262.060547 0.015625)"/>
     <use xlink:href="#DejaVuSans-35" transform="translate(2293.847656 0.015625)"/>
     <use xlink:href="#DejaVuSans-20" transform="translate(2357.470703 0.015625)"/>
     <use xlink:href="#DejaVuSans-72" transform="translate(2389.257812 0.015625)"/>
     <use xlink:href="#DejaVuSans-75" transform="translate(2430.371094 0.015625)"/>
     <use xlink:href="#DejaVuSans-6e" transform="translate(2493.75 0.015625)"/>
     <use xlink:href="#DejaVuSans-73" transform="translate(2557.128906 0.015625)"/>
     <use xlink:href="#DejaVuSans-2e" transform="translate(2609.228516 0.015625)"/>
    </g>
   </g>
   <g id="legend_1">
    <g id="patch_7">
     <path d="M 568.7265 279.25375 
L 704.187437 279.25375 
Q 706.187437 279.25375 706.187437 277.25375 
L 706.187437 72.76 
Q 706.187437 70.76 704.187437 70.76 
L 568.7265 70.76 
Q 566.7265 70.76 566.7265 72.76 
L 566.7265 277.25375 
Q 566.7265 279.25375 568.7265 279.25375 
z
" style="fill: #ffffff; opacity: 0.8; stroke: #cccccc; stroke-linejoin: miter"/>
    </g>
    <g id="text_16">
     <!-- Features -->
     <g transform="translate(614.962437 82.358437) scale(0.1 -0.1)">
      <defs>
       <path id="DejaVuSans-46" d="M 628 4666 
L 3309 4666 
L 3309 4134 
L 1259 4134 
L 1259 2759 
L 3109 2759 
L 3109 2228 
L 1259 2228 
L 1259 0 
L 628 0 
L 628 4666 
z
" transform="scale(0.015625)"/>
      </defs>
      <use xlink:href="#DejaVuSans-46"/>
      <use xlink:href="#DejaVuSans-65" transform="translate(52.019531 0)"/>
      <use xlink:href="#DejaVuSans-61" transform="translate(113.542969 0)"/>
      <use xlink:href="#DejaVuSans-74" transform="translate(174.822266 0)"/>
      <use xlink:href="#DejaVuSans-75" transform="translate(214.03125 0)"/>
      <use xlink:href="#DejaVuSans-72" transform="translate(277.410156 0)"/>
      <use xlink:href="#DejaVuSans-65" transform="translate(316.273438 0)"/>
      <use xlink:href="#DejaVuSans-73" transform="translate(377.796875 0)"/>
     </g>
    </g>
    <g id="line2d_38">
     <path d="M 570.7265 93.536562 
L 580.7265 93.536562 
L 590.7265 93.536562 
" style="fill: none; stroke: #6aaed6; stroke-width: 1.5; stroke-linecap: square"/>
     <g>
      <use xlink:href="#m10b80be5e1" x="580.7265" y="93.536562" style="fill: #6aaed6; stroke: #6aaed6; stroke-linejoin: miter"/>
     </g>
    </g>
    <g id="text_17">
     <!-- avg 2hop deg -->
     <g transform="translate(598.7265 97.036562) scale(0.1 -0.1)">
      <use xlink:href="#DejaVuSans-61"/>
      <use xlink:href="#DejaVuSans-76" transform="translate(61.279297 0)"/>
      <use xlink:href="#DejaVuSans-67" transform="translate(120.458984 0)"/>
      <use xlink:href="#DejaVuSans-20" transform="translate(183.935547 0)"/>
      <use xlink:href="#DejaVuSans-32" transform="translate(215.722656 0)"/>
      <use xlink:href="#DejaVuSans-68" transform="translate(279.345703 0)"/>
      <use xlink:href="#DejaVuSans-6f" transform="translate(342.724609 0)"/>
      <use xlink:href="#DejaVuSans-70" transform="translate(403.90625 0)"/>
      <use xlink:href="#DejaVuSans-20" transform="translate(467.382812 0)"/>
      <use xlink:href="#DejaVuSans-64" transform="translate(499.169922 0)"/>
      <use xlink:href="#DejaVuSans-65" transform="translate(562.646484 0)"/>
      <use xlink:href="#DejaVuSans-67" transform="translate(624.169922 0)"/>
     </g>
    </g>
    <g id="line2d_39">
     <path d="M 570.7265 108.214687 
L 580.7265 108.214687 
L 590.7265 108.214687 
" style="fill: none; stroke: #4a98c9; stroke-width: 1.5; stroke-linecap: square"/>
     <g>
      <use xlink:href="#me2888b58a8" x="580.7265" y="108.214687" style="fill: #4a98c9; stroke: #4a98c9"/>
     </g>
    </g>
    <g id="text_18">
     <!-- avg 2hop cluster -->
     <g transform="translate(598.7265 111.714687) scale(0.1 -0.1)">
      <use xlink:href="#DejaVuSans-61"/>
      <use xlink:href="#DejaVuSans-76" transform="translate(61.279297 0)"/>
      <use xlink:href="#DejaVuSans-67" transform="translate(120.458984 0)"/>
      <use xlink:href="#DejaVuSans-20" transform="translate(183.935547 0)"/>
      <use xlink:href="#DejaVuSans-32" transform="translate(215.722656 0)"/>
      <use xlink:href="#DejaVuSans-68" transform="translate(279.345703 0)"/>
      <use xlink:href="#DejaVuSans-6f" transform="translate(342.724609 0)"/>
      <use xlink:href="#DejaVuSans-70" transform="translate(403.90625 0)"/>
      <use xlink:href="#DejaVuSans-20" transform="translate(467.382812 0)"/>
      <use xlink:href="#DejaVuSans-63" transform="translate(499.169922 0)"/>
      <use xlink:href="#DejaVuSans-6c" transform="translate(554.150391 0)"/>
      <use xlink:href="#DejaVuSans-75" transform="translate(581.933594 0)"/>
      <use xlink:href="#DejaVuSans-73" transform="translate(645.3125 0)"/>
      <use xlink:href="#DejaVuSans-74" transform="translate(697.412109 0)"/>
      <use xlink:href="#DejaVuSans-65" transform="translate(736.621094 0)"/>
      <use xlink:href="#DejaVuSans-72" transform="translate(798.144531 0)"/>
     </g>
    </g>
    <g id="line2d_40">
     <path d="M 570.7265 122.892812 
L 580.7265 122.892812 
L 590.7265 122.892812 
" style="fill: none; stroke: #2e7ebc; stroke-width: 1.5; stroke-linecap: square"/>
     <g>
      <use xlink:href="#m0553bf5851" x="580.7265" y="122.892812" style="fill: #2e7ebc; stroke: #2e7ebc; stroke-linejoin: miter"/>
     </g>
    </g>
    <g id="text_19">
     <!-- 2hop edges -->
     <g transform="translate(598.7265 126.392812) scale(0.1 -0.1)">
      <use xlink:href="#DejaVuSans-32"/>
      <use xlink:href="#DejaVuSans-68" transform="translate(63.623047 0)"/>
      <use xlink:href="#DejaVuSans-6f" transform="translate(127.001953 0)"/>
      <use xlink:href="#DejaVuSans-70" transform="translate(188.183594 0)"/>
      <use xlink:href="#DejaVuSans-20" transform="translate(251.660156 0)"/>
      <use xlink:href="#DejaVuSans-65" transform="translate(283.447266 0)"/>
      <use xlink:href="#DejaVuSans-64" transform="translate(344.970703 0)"/>
      <use xlink:href="#DejaVuSans-67" transform="translate(408.447266 0)"/>
      <use xlink:href="#DejaVuSans-65" transform="translate(471.923828 0)"/>
      <use xlink:href="#DejaVuSans-73" transform="translate(533.447266 0)"/>
     </g>
    </g>
    <g id="line2d_41">
     <path d="M 570.7265 137.570937 
L 580.7265 137.570937 
L 590.7265 137.570937 
" style="fill: none; stroke: #084a91; stroke-width: 1.5; stroke-linecap: square"/>
     <g>
      <use xlink:href="#m4aab694825" x="580.7265" y="137.570937" style="fill: #084a91; stroke: #084a91; stroke-linejoin: miter"/>
     </g>
    </g>
    <g id="text_20">
     <!-- 2hop neighbors -->
     <g transform="translate(598.7265 141.070937) scale(0.1 -0.1)">
      <defs>
       <path id="DejaVuSans-62" d="M 3116 1747 
Q 3116 2381 2855 2742 
Q 2594 3103 2138 3103 
Q 1681 3103 1420 2742 
Q 1159 2381 1159 1747 
Q 1159 1113 1420 752 
Q 1681 391 2138 391 
Q 2594 391 2855 752 
Q 3116 1113 3116 1747 
z
M 1159 2969 
Q 1341 3281 1617 3432 
Q 1894 3584 2278 3584 
Q 2916 3584 3314 3078 
Q 3713 2572 3713 1747 
Q 3713 922 3314 415 
Q 2916 -91 2278 -91 
Q 1894 -91 1617 61 
Q 1341 213 1159 525 
L 1159 0 
L 581 0 
L 581 4863 
L 1159 4863 
L 1159 2969 
z
" transform="scale(0.015625)"/>
      </defs>
      <use xlink:href="#DejaVuSans-32"/>
      <use xlink:href="#DejaVuSans-68" transform="translate(63.623047 0)"/>
      <use xlink:href="#DejaVuSans-6f" transform="translate(127.001953 0)"/>
      <use xlink:href="#DejaVuSans-70" transform="translate(188.183594 0)"/>
      <use xlink:href="#DejaVuSans-20" transform="translate(251.660156 0)"/>
      <use xlink:href="#DejaVuSans-6e" transform="translate(283.447266 0)"/>
      <use xlink:href="#DejaVuSans-65" transform="translate(346.826172 0)"/>
      <use xlink:href="#DejaVuSans-69" transform="translate(408.349609 0)"/>
      <use xlink:href="#DejaVuSans-67" transform="translate(436.132812 0)"/>
      <use xlink:href="#DejaVuSans-68" transform="translate(499.609375 0)"/>
      <use xlink:href="#DejaVuSans-62" transform="translate(562.988281 0)"/>
      <use xlink:href="#DejaVuSans-6f" transform="translate(626.464844 0)"/>
      <use xlink:href="#DejaVuSans-72" transform="translate(687.646484 0)"/>
      <use xlink:href="#DejaVuSans-73" transform="translate(728.759766 0)"/>
     </g>
    </g>
    <g id="line2d_42">
     <path d="M 570.7265 152.249062 
L 580.7265 152.249062 
L 590.7265 152.249062 
" style="fill: none; stroke: #cecece; stroke-width: 1.5; stroke-linecap: square"/>
     <g>
      <use xlink:href="#m5e7f872dbd" x="580.7265" y="152.249062" style="fill: #cecece; stroke: #cecece"/>
     </g>
    </g>
    <g id="text_21">
     <!-- sum 2hop cluster -->
     <g transform="translate(598.7265 155.749062) scale(0.1 -0.1)">
      <defs>
       <path id="DejaVuSans-6d" d="M 3328 2828 
Q 3544 3216 3844 3400 
Q 4144 3584 4550 3584 
Q 5097 3584 5394 3201 
Q 5691 2819 5691 2113 
L 5691 0 
L 5113 0 
L 5113 2094 
Q 5113 2597 4934 2840 
Q 4756 3084 4391 3084 
Q 3944 3084 3684 2787 
Q 3425 2491 3425 1978 
L 3425 0 
L 2847 0 
L 2847 2094 
Q 2847 2600 2669 2842 
Q 2491 3084 2119 3084 
Q 1678 3084 1418 2786 
Q 1159 2488 1159 1978 
L 1159 0 
L 581 0 
L 581 3500 
L 1159 3500 
L 1159 2956 
Q 1356 3278 1631 3431 
Q 1906 3584 2284 3584 
Q 2666 3584 2933 3390 
Q 3200 3197 3328 2828 
z
" transform="scale(0.015625)"/>
      </defs>
      <use xlink:href="#DejaVuSans-73"/>
      <use xlink:href="#DejaVuSans-75" transform="translate(52.099609 0)"/>
      <use xlink:href="#DejaVuSans-6d" transform="translate(115.478516 0)"/>
      <use xlink:href="#DejaVuSans-20" transform="translate(212.890625 0)"/>
      <use xlink:href="#DejaVuSans-32" transform="translate(244.677734 0)"/>
      <use xlink:href="#DejaVuSans-68" transform="translate(308.300781 0)"/>
      <use xlink:href="#DejaVuSans-6f" transform="translate(371.679688 0)"/>
      <use xlink:href="#DejaVuSans-70" transform="translate(432.861328 0)"/>
      <use xlink:href="#DejaVuSans-20" transform="translate(496.337891 0)"/>
      <use xlink:href="#DejaVuSans-63" transform="translate(528.125 0)"/>
      <use xlink:href="#DejaVuSans-6c" transform="translate(583.105469 0)"/>
      <use xlink:href="#DejaVuSans-75" transform="translate(610.888672 0)"/>
      <use xlink:href="#DejaVuSans-73" transform="translate(674.267578 0)"/>
      <use xlink:href="#DejaVuSans-74" transform="translate(726.367188 0)"/>
      <use xlink:href="#DejaVuSans-65" transform="translate(765.576172 0)"/>
      <use xlink:href="#DejaVuSans-72" transform="translate(827.099609 0)"/>
     </g>
    </g>
    <g id="line2d_43">
     <path d="M 570.7265 166.927187 
L 580.7265 166.927187 
L 590.7265 166.927187 
" style="fill: none; stroke: #959595; stroke-width: 1.5; stroke-linecap: square"/>
     <g>
      <use xlink:href="#m9771b2b929" x="580.7265" y="166.927187" style="fill: #959595; stroke: #959595; stroke-linejoin: miter"/>
     </g>
    </g>
    <g id="text_22">
     <!-- var 2hop cluster -->
     <g transform="translate(598.7265 170.427187) scale(0.1 -0.1)">
      <use xlink:href="#DejaVuSans-76"/>
      <use xlink:href="#DejaVuSans-61" transform="translate(59.179688 0)"/>
      <use xlink:href="#DejaVuSans-72" transform="translate(120.458984 0)"/>
      <use xlink:href="#DejaVuSans-20" transform="translate(161.572266 0)"/>
      <use xlink:href="#DejaVuSans-32" transform="translate(193.359375 0)"/>
      <use xlink:href="#DejaVuSans-68" transform="translate(256.982422 0)"/>
      <use xlink:href="#DejaVuSans-6f" transform="translate(320.361328 0)"/>
      <use xlink:href="#DejaVuSans-70" transform="translate(381.542969 0)"/>
      <use xlink:href="#DejaVuSans-20" transform="translate(445.019531 0)"/>
      <use xlink:href="#DejaVuSans-63" transform="translate(476.806641 0)"/>
      <use xlink:href="#DejaVuSans-6c" transform="translate(531.787109 0)"/>
      <use xlink:href="#DejaVuSans-75" transform="translate(559.570312 0)"/>
      <use xlink:href="#DejaVuSans-73" transform="translate(622.949219 0)"/>
      <use xlink:href="#DejaVuSans-74" transform="translate(675.048828 0)"/>
      <use xlink:href="#DejaVuSans-65" transform="translate(714.257812 0)"/>
      <use xlink:href="#DejaVuSans-72" transform="translate(775.78125 0)"/>
     </g>
    </g>
    <g id="line2d_44">
     <path d="M 570.7265 181.605312 
L 580.7265 181.605312 
L 590.7265 181.605312 
" style="fill: none; stroke: #5f5f5f; stroke-width: 1.5; stroke-linecap: square"/>
     <g>
      <use xlink:href="#md0523caa16" x="580.7265" y="181.605312" style="fill: #5f5f5f; stroke: #5f5f5f; stroke-linejoin: miter"/>
     </g>
    </g>
    <g id="text_23">
     <!-- assortativity 2hop -->
     <g transform="translate(598.7265 185.105312) scale(0.1 -0.1)">
      <use xlink:href="#DejaVuSans-61"/>
      <use xlink:href="#DejaVuSans-73" transform="translate(61.279297 0)"/>
      <use xlink:href="#DejaVuSans-73" transform="translate(113.378906 0)"/>
      <use xlink:href="#DejaVuSans-6f" transform="translate(165.478516 0)"/>
      <use xlink:href="#DejaVuSans-72" transform="translate(226.660156 0)"/>
      <use xlink:href="#DejaVuSans-74" transform="translate(267.773438 0)"/>
      <use xlink:href="#DejaVuSans-61" transform="translate(306.982422 0)"/>
      <use xlink:href="#DejaVuSans-74" transform="translate(368.261719 0)"/>
      <use xlink:href="#DejaVuSans-69" transform="translate(407.470703 0)"/>
      <use xlink:href="#DejaVuSans-76" transform="translate(435.253906 0)"/>
      <use xlink:href="#DejaVuSans-69" transform="translate(494.433594 0)"/>
      <use xlink:href="#DejaVuSans-74" transform="translate(522.216797 0)"/>
      <use xlink:href="#DejaVuSans-79" transform="translate(561.425781 0)"/>
      <use xlink:href="#DejaVuSans-20" transform="translate(620.605469 0)"/>
      <use xlink:href="#DejaVuSans-32" transform="translate(652.392578 0)"/>
      <use xlink:href="#DejaVuSans-68" transform="translate(716.015625 0)"/>
      <use xlink:href="#DejaVuSans-6f" transform="translate(779.394531 0)"/>
      <use xlink:href="#DejaVuSans-70" transform="translate(840.576172 0)"/>
     </g>
    </g>
    <g id="line2d_45">
     <path d="M 570.7265 196.283437 
L 580.7265 196.283437 
L 590.7265 196.283437 
" style="fill: none; stroke: #1d1d1d; stroke-width: 1.5; stroke-linecap: square"/>
     <g>
      <use xlink:href="#me6ded15390" x="580.7265" y="196.283437" style="fill: #1d1d1d; stroke: #1d1d1d"/>
     </g>
    </g>
    <g id="text_24">
     <!-- internal frac 2hop -->
     <g transform="translate(598.7265 199.783437) scale(0.1 -0.1)">
      <use xlink:href="#DejaVuSans-69"/>
      <use xlink:href="#DejaVuSans-6e" transform="translate(27.783203 0)"/>
      <use xlink:href="#DejaVuSans-74" transform="translate(91.162109 0)"/>
      <use xlink:href="#DejaVuSans-65" transform="translate(130.371094 0)"/>
      <use xlink:href="#DejaVuSans-72" transform="translate(191.894531 0)"/>
      <use xlink:href="#DejaVuSans-6e" transform="translate(231.257812 0)"/>
      <use xlink:href="#DejaVuSans-61" transform="translate(294.636719 0)"/>
      <use xlink:href="#DejaVuSans-6c" transform="translate(355.916016 0)"/>
      <use xlink:href="#DejaVuSans-20" transform="translate(383.699219 0)"/>
      <use xlink:href="#DejaVuSans-66" transform="translate(415.486328 0)"/>
      <use xlink:href="#DejaVuSans-72" transform="translate(450.691406 0)"/>
      <use xlink:href="#DejaVuSans-61" transform="translate(491.804688 0)"/>
      <use xlink:href="#DejaVuSans-63" transform="translate(553.083984 0)"/>
      <use xlink:href="#DejaVuSans-20" transform="translate(608.064453 0)"/>
      <use xlink:href="#DejaVuSans-32" transform="translate(639.851562 0)"/>
      <use xlink:href="#DejaVuSans-68" transform="translate(703.474609 0)"/>
      <use xlink:href="#DejaVuSans-6f" transform="translate(766.853516 0)"/>
      <use xlink:href="#DejaVuSans-70" transform="translate(828.035156 0)"/>
     </g>
    </g>
    <g id="line2d_46">
     <path d="M 570.7265 210.961562 
L 580.7265 210.961562 
L 590.7265 210.961562 
" style="fill: none; stroke: #98d594; stroke-width: 1.5; stroke-linecap: square"/>
     <g>
      <use xlink:href="#me73c60352f" x="580.7265" y="210.961562" style="fill: #98d594; stroke: #98d594; stroke-linejoin: miter"/>
     </g>
    </g>
    <g id="text_25">
     <!-- median 2hop degs -->
     <g transform="translate(598.7265 214.461562) scale(0.1 -0.1)">
      <use xlink:href="#DejaVuSans-6d"/>
      <use xlink:href="#DejaVuSans-65" transform="translate(97.412109 0)"/>
      <use xlink:href="#DejaVuSans-64" transform="translate(158.935547 0)"/>
      <use xlink:href="#DejaVuSans-69" transform="translate(222.412109 0)"/>
      <use xlink:href="#DejaVuSans-61" transform="translate(250.195312 0)"/>
      <use xlink:href="#DejaVuSans-6e" transform="translate(311.474609 0)"/>
      <use xlink:href="#DejaVuSans-20" transform="translate(374.853516 0)"/>
      <use xlink:href="#DejaVuSans-32" transform="translate(406.640625 0)"/>
      <use xlink:href="#DejaVuSans-68" transform="translate(470.263672 0)"/>
      <use xlink:href="#DejaVuSans-6f" transform="translate(533.642578 0)"/>
      <use xlink:href="#DejaVuSans-70" transform="translate(594.824219 0)"/>
      <use xlink:href="#DejaVuSans-20" transform="translate(658.300781 0)"/>
      <use xlink:href="#DejaVuSans-64" transform="translate(690.087891 0)"/>
      <use xlink:href="#DejaVuSans-65" transform="translate(753.564453 0)"/>
      <use xlink:href="#DejaVuSans-67" transform="translate(815.087891 0)"/>
      <use xlink:href="#DejaVuSans-73" transform="translate(878.564453 0)"/>
     </g>
    </g>
    <g id="line2d_47">
     <path d="M 570.7265 225.639687 
L 580.7265 225.639687 
L 590.7265 225.639687 
" style="fill: none; stroke: #4bb062; stroke-width: 1.5; stroke-linecap: square"/>
     <g>
      <use xlink:href="#m2d6d95aff7" x="580.7265" y="225.639687" style="fill: #4bb062; stroke: #4bb062"/>
     </g>
    </g>
    <g id="text_26">
     <!-- max 2hop degs -->
     <g transform="translate(598.7265 229.139687) scale(0.1 -0.1)">
      <defs>
       <path id="DejaVuSans-78" d="M 3513 3500 
L 2247 1797 
L 3578 0 
L 2900 0 
L 1881 1375 
L 863 0 
L 184 0 
L 1544 1831 
L 300 3500 
L 978 3500 
L 1906 2253 
L 2834 3500 
L 3513 3500 
z
" transform="scale(0.015625)"/>
      </defs>
      <use xlink:href="#DejaVuSans-6d"/>
      <use xlink:href="#DejaVuSans-61" transform="translate(97.412109 0)"/>
      <use xlink:href="#DejaVuSans-78" transform="translate(158.691406 0)"/>
      <use xlink:href="#DejaVuSans-20" transform="translate(217.871094 0)"/>
      <use xlink:href="#DejaVuSans-32" transform="translate(249.658203 0)"/>
      <use xlink:href="#DejaVuSans-68" transform="translate(313.28125 0)"/>
      <use xlink:href="#DejaVuSans-6f" transform="translate(376.660156 0)"/>
      <use xlink:href="#DejaVuSans-70" transform="translate(437.841797 0)"/>
      <use xlink:href="#DejaVuSans-20" transform="translate(501.318359 0)"/>
      <use xlink:href="#DejaVuSans-64" transform="translate(533.105469 0)"/>
      <use xlink:href="#DejaVuSans-65" transform="translate(596.582031 0)"/>
      <use xlink:href="#DejaVuSans-67" transform="translate(658.105469 0)"/>
      <use xlink:href="#DejaVuSans-73" transform="translate(721.582031 0)"/>
     </g>
    </g>
    <g id="line2d_48">
     <path d="M 570.7265 240.317812 
L 580.7265 240.317812 
L 590.7265 240.317812 
" style="fill: none; stroke: #2f974e; stroke-width: 1.5; stroke-linecap: square"/>
     <g>
      <use xlink:href="#mdccd7a1600" x="580.7265" y="240.317812" style="fill: #2f974e; stroke: #2f974e; stroke-linejoin: miter"/>
     </g>
    </g>
    <g id="text_27">
     <!-- range 2hop degs -->
     <g transform="translate(598.7265 243.817812) scale(0.1 -0.1)">
      <use xlink:href="#DejaVuSans-72"/>
      <use xlink:href="#DejaVuSans-61" transform="translate(41.113281 0)"/>
      <use xlink:href="#DejaVuSans-6e" transform="translate(102.392578 0)"/>
      <use xlink:href="#DejaVuSans-67" transform="translate(165.771484 0)"/>
      <use xlink:href="#DejaVuSans-65" transform="translate(229.248047 0)"/>
      <use xlink:href="#DejaVuSans-20" transform="translate(290.771484 0)"/>
      <use xlink:href="#DejaVuSans-32" transform="translate(322.558594 0)"/>
      <use xlink:href="#DejaVuSans-68" transform="translate(386.181641 0)"/>
      <use xlink:href="#DejaVuSans-6f" transform="translate(449.560547 0)"/>
      <use xlink:href="#DejaVuSans-70" transform="translate(510.742188 0)"/>
      <use xlink:href="#DejaVuSans-20" transform="translate(574.21875 0)"/>
      <use xlink:href="#DejaVuSans-64" transform="translate(606.005859 0)"/>
      <use xlink:href="#DejaVuSans-65" transform="translate(669.482422 0)"/>
      <use xlink:href="#DejaVuSans-67" transform="translate(731.005859 0)"/>
      <use xlink:href="#DejaVuSans-73" transform="translate(794.482422 0)"/>
     </g>
    </g>
    <g id="line2d_49">
     <path d="M 570.7265 254.995937 
L 580.7265 254.995937 
L 590.7265 254.995937 
" style="fill: none; stroke: #157f3b; stroke-width: 1.5; stroke-linecap: square"/>
     <g>
      <use xlink:href="#m71c0fb9127" x="580.7265" y="254.995937" style="fill: #157f3b; stroke: #157f3b; stroke-linejoin: miter"/>
     </g>
    </g>
    <g id="text_28">
     <!-- skewness 2hop degs -->
     <g transform="translate(598.7265 258.495937) scale(0.1 -0.1)">
      <defs>
       <path id="DejaVuSans-6b" d="M 581 4863 
L 1159 4863 
L 1159 1991 
L 2875 3500 
L 3609 3500 
L 1753 1863 
L 3688 0 
L 2938 0 
L 1159 1709 
L 1159 0 
L 581 0 
L 581 4863 
z
" transform="scale(0.015625)"/>
       <path id="DejaVuSans-77" d="M 269 3500 
L 844 3500 
L 1563 769 
L 2278 3500 
L 2956 3500 
L 3675 769 
L 4391 3500 
L 4966 3500 
L 4050 0 
L 3372 0 
L 2619 2869 
L 1863 0 
L 1184 0 
L 269 3500 
z
" transform="scale(0.015625)"/>
      </defs>
      <use xlink:href="#DejaVuSans-73"/>
      <use xlink:href="#DejaVuSans-6b" transform="translate(52.099609 0)"/>
      <use xlink:href="#DejaVuSans-65" transform="translate(106.384766 0)"/>
      <use xlink:href="#DejaVuSans-77" transform="translate(167.908203 0)"/>
      <use xlink:href="#DejaVuSans-6e" transform="translate(249.695312 0)"/>
      <use xlink:href="#DejaVuSans-65" transform="translate(313.074219 0)"/>
      <use xlink:href="#DejaVuSans-73" transform="translate(374.597656 0)"/>
      <use xlink:href="#DejaVuSans-73" transform="translate(426.697266 0)"/>
      <use xlink:href="#DejaVuSans-20" transform="translate(478.796875 0)"/>
      <use xlink:href="#DejaVuSans-32" transform="translate(510.583984 0)"/>
      <use xlink:href="#DejaVuSans-68" transform="translate(574.207031 0)"/>
      <use xlink:href="#DejaVuSans-6f" transform="translate(637.585938 0)"/>
      <use xlink:href="#DejaVuSans-70" transform="translate(698.767578 0)"/>
      <use xlink:href="#DejaVuSans-20" transform="translate(762.244141 0)"/>
      <use xlink:href="#DejaVuSans-64" transform="translate(794.03125 0)"/>
      <use xlink:href="#DejaVuSans-65" transform="translate(857.507812 0)"/>
      <use xlink:href="#DejaVuSans-67" transform="translate(919.03125 0)"/>
      <use xlink:href="#DejaVuSans-73" transform="translate(982.507812 0)"/>
     </g>
    </g>
    <g id="line2d_50">
     <path d="M 570.7265 269.674062 
L 580.7265 269.674062 
L 590.7265 269.674062 
" style="fill: none; stroke: #e41a1c; stroke-width: 1.5; stroke-linecap: square"/>
    </g>
    <g id="text_29">
     <!-- baseline mu=0 -->
     <g transform="translate(598.7265 273.174062) scale(0.1 -0.1)">
      <defs>
       <path id="DejaVuSans-3d" d="M 678 2906 
L 4684 2906 
L 4684 2381 
L 678 2381 
L 678 2906 
z
M 678 1631 
L 4684 1631 
L 4684 1100 
L 678 1100 
L 678 1631 
z
" transform="scale(0.015625)"/>
      </defs>
      <use xlink:href="#DejaVuSans-62"/>
      <use xlink:href="#DejaVuSans-61" transform="translate(63.476562 0)"/>
      <use xlink:href="#DejaVuSans-73" transform="translate(124.755859 0)"/>
      <use xlink:href="#DejaVuSans-65" transform="translate(176.855469 0)"/>
      <use xlink:href="#DejaVuSans-6c" transform="translate(238.378906 0)"/>
      <use xlink:href="#DejaVuSans-69" transform="translate(266.162109 0)"/>
      <use xlink:href="#DejaVuSans-6e" transform="translate(293.945312 0)"/>
      <use xlink:href="#DejaVuSans-65" transform="translate(357.324219 0)"/>
      <use xlink:href="#DejaVuSans-20" transform="translate(418.847656 0)"/>
      <use xlink:href="#DejaVuSans-6d" transform="translate(450.634766 0)"/>
      <use xlink:href="#DejaVuSans-75" transform="translate(548.046875 0)"/>
      <use xlink:href="#DejaVuSans-3d" transform="translate(611.425781 0)"/>
      <use xlink:href="#DejaVuSans-30" transform="translate(695.214844 0)"/>
     </g>
    </g>
   </g>
  </g>
  <g id="text_30">
   <!-- Ablation study for FUGAL parameter $\mu$ -->
   <g transform="translate(58.92 31.2) scale(0.24 -0.24)">
    <defs>
     <path id="DejaVuSans-55" d="M 556 4666 
L 1191 4666 
L 1191 1831 
Q 1191 1081 1462 751 
Q 1734 422 2344 422 
Q 2950 422 3222 751 
Q 3494 1081 3494 1831 
L 3494 4666 
L 4128 4666 
L 4128 1753 
Q 4128 841 3676 375 
Q 3225 -91 2344 -91 
Q 1459 -91 1007 375 
Q 556 841 556 1753 
L 556 4666 
z
" transform="scale(0.015625)"/>
     <path id="DejaVuSans-47" d="M 3809 666 
L 3809 1919 
L 2778 1919 
L 2778 2438 
L 4434 2438 
L 4434 434 
Q 4069 175 3628 42 
Q 3188 -91 2688 -91 
Q 1594 -91 976 548 
Q 359 1188 359 2328 
Q 359 3472 976 4111 
Q 1594 4750 2688 4750 
Q 3144 4750 3555 4637 
Q 3966 4525 4313 4306 
L 4313 3634 
Q 3963 3931 3569 4081 
Q 3175 4231 2741 4231 
Q 1884 4231 1454 3753 
Q 1025 3275 1025 2328 
Q 1025 1384 1454 906 
Q 1884 428 2741 428 
Q 3075 428 3337 486 
Q 3600 544 3809 666 
z
" transform="scale(0.015625)"/>
     <path id="DejaVuSans-4c" d="M 628 4666 
L 1259 4666 
L 1259 531 
L 3531 531 
L 3531 0 
L 628 0 
L 628 4666 
z
" transform="scale(0.015625)"/>
    </defs>
    <use xlink:href="#DejaVuSans-41" transform="translate(0 0.015625)"/>
    <use xlink:href="#DejaVuSans-62" transform="translate(68.408203 0.015625)"/>
    <use xlink:href="#DejaVuSans-6c" transform="translate(131.884766 0.015625)"/>
    <use xlink:href="#DejaVuSans-61" transform="translate(159.667969 0.015625)"/>
    <use xlink:href="#DejaVuSans-74" transform="translate(220.947266 0.015625)"/>
    <use xlink:href="#DejaVuSans-69" transform="translate(260.15625 0.015625)"/>
    <use xlink:href="#DejaVuSans-6f" transform="translate(287.939453 0.015625)"/>
    <use xlink:href="#DejaVuSans-6e" transform="translate(349.121094 0.015625)"/>
    <use xlink:href="#DejaVuSans-20" transform="translate(412.5 0.015625)"/>
    <use xlink:href="#DejaVuSans-73" transform="translate(444.287109 0.015625)"/>
    <use xlink:href="#DejaVuSans-74" transform="translate(496.386719 0.015625)"/>
    <use xlink:href="#DejaVuSans-75" transform="translate(535.595703 0.015625)"/>
    <use xlink:href="#DejaVuSans-64" transform="translate(598.974609 0.015625)"/>
    <use xlink:href="#DejaVuSans-79" transform="translate(662.451172 0.015625)"/>
    <use xlink:href="#DejaVuSans-20" transform="translate(721.630859 0.015625)"/>
    <use xlink:href="#DejaVuSans-66" transform="translate(753.417969 0.015625)"/>
    <use xlink:href="#DejaVuSans-6f" transform="translate(788.623047 0.015625)"/>
    <use xlink:href="#DejaVuSans-72" transform="translate(849.804688 0.015625)"/>
    <use xlink:href="#DejaVuSans-20" transform="translate(890.917969 0.015625)"/>
    <use xlink:href="#DejaVuSans-46" transform="translate(922.705078 0.015625)"/>
    <use xlink:href="#DejaVuSans-55" transform="translate(980.224609 0.015625)"/>
    <use xlink:href="#DejaVuSans-47" transform="translate(1051.667969 0.015625)"/>
    <use xlink:href="#DejaVuSans-41" transform="translate(1129.158203 0.015625)"/>
    <use xlink:href="#DejaVuSans-4c" transform="translate(1197.566406 0.015625)"/>
    <use xlink:href="#DejaVuSans-20" transform="translate(1253.279297 0.015625)"/>
    <use xlink:href="#DejaVuSans-70" transform="translate(1285.066406 0.015625)"/>
    <use xlink:href="#DejaVuSans-61" transform="translate(1348.542969 0.015625)"/>
    <use xlink:href="#DejaVuSans-72" transform="translate(1409.822266 0.015625)"/>
    <use xlink:href="#DejaVuSans-61" transform="translate(1450.935547 0.015625)"/>
    <use xlink:href="#DejaVuSans-6d" transform="translate(1512.214844 0.015625)"/>
    <use xlink:href="#DejaVuSans-65" transform="translate(1609.626953 0.015625)"/>
    <use xlink:href="#DejaVuSans-74" transform="translate(1671.150391 0.015625)"/>
    <use xlink:href="#DejaVuSans-65" transform="translate(1710.359375 0.015625)"/>
    <use xlink:href="#DejaVuSans-72" transform="translate(1771.882812 0.015625)"/>
    <use xlink:href="#DejaVuSans-20" transform="translate(1812.996094 0.015625)"/>
    <use xlink:href="#DejaVuSans-Oblique-3bc" transform="translate(1844.783203 0.015625)"/>
   </g>
  </g>
 </g>
 <defs>
  <clipPath id="p359c92f0ad">
   <rect x="47.72" y="65.76" width="489.53" height="324.28"/>
  </clipPath>
 </defs>
</svg>
