<?xml version="1.0" encoding="utf-8" standalone="no"?>
<!DOCTYPE svg PUBLIC "-//W3C//DTD SVG 1.1//EN"
  "http://www.w3.org/Graphics/SVG/1.1/DTD/svg11.dtd">
<svg xmlns:xlink="http://www.w3.org/1999/xlink" width="720pt" height="432pt" viewBox="0 0 720 432" xmlns="http://www.w3.org/2000/svg" version="1.1">
 <metadata>
  <rdf:RDF xmlns:dc="http://purl.org/dc/elements/1.1/" xmlns:cc="http://creativecommons.org/ns#" xmlns:rdf="http://www.w3.org/1999/02/22-rdf-syntax-ns#">
   <cc:Work>
    <dc:type rdf:resource="http://purl.org/dc/dcmitype/StillImage"/>
    <dc:date>2025-03-12T14:39:15.822362</dc:date>
    <dc:format>image/svg+xml</dc:format>
    <dc:creator>
     <cc:Agent>
      <dc:title>Matplotlib v3.10.0, https://matplotlib.org/</dc:title>
     </cc:Agent>
    </dc:creator>
   </cc:Work>
  </rdf:RDF>
 </metadata>
 <defs>
  <style type="text/css">*{stroke-linejoin: round; stroke-linecap: butt}</style>
 </defs>
 <g id="figure_1">
  <g id="patch_1">
   <path d="M 0 432 
L 720 432 
L 720 0 
L 0 0 
z
" style="fill: #ffffff"/>
  </g>
  <g id="axes_1">
   <g id="patch_2">
    <path d="M 47.72 390.04 
L 530.5 390.04 
L 530.5 61.44 
L 47.72 61.44 
z
" style="fill: #ffffff"/>
   </g>
   <g id="matplotlib.axis_1">
    <g id="xtick_1">
     <g id="line2d_1">
      <path d="M 69.664545 390.04 
L 69.664545 61.44 
" clip-path="url(#p5b7cc8a0b4)" style="fill: none; stroke: #b0b0b0; stroke-width: 0.8; stroke-linecap: square"/>
     </g>
     <g id="line2d_2">
      <defs>
       <path id="mff295d13c3" d="M 0 0 
L 0 3.5 
" style="stroke: #000000; stroke-width: 0.8"/>
      </defs>
      <g>
       <use xlink:href="#mff295d13c3" x="69.664545" y="390.04" style="stroke: #000000; stroke-width: 0.8"/>
      </g>
     </g>
     <g id="text_1">
      <!-- 0.00 -->
      <g transform="translate(58.531733 404.638438) scale(0.1 -0.1)">
       <defs>
        <path id="DejaVuSans-30" d="M 2034 4250 
Q 1547 4250 1301 3770 
Q 1056 3291 1056 2328 
Q 1056 1369 1301 889 
Q 1547 409 2034 409 
Q 2525 409 2770 889 
Q 3016 1369 3016 2328 
Q 3016 3291 2770 3770 
Q 2525 4250 2034 4250 
z
M 2034 4750 
Q 2819 4750 3233 4129 
Q 3647 3509 3647 2328 
Q 3647 1150 3233 529 
Q 2819 -91 2034 -91 
Q 1250 -91 836 529 
Q 422 1150 422 2328 
Q 422 3509 836 4129 
Q 1250 4750 2034 4750 
z
" transform="scale(0.015625)"/>
        <path id="DejaVuSans-2e" d="M 684 794 
L 1344 794 
L 1344 0 
L 684 0 
L 684 794 
z
" transform="scale(0.015625)"/>
       </defs>
       <use xlink:href="#DejaVuSans-30"/>
       <use xlink:href="#DejaVuSans-2e" transform="translate(63.623047 0)"/>
       <use xlink:href="#DejaVuSans-30" transform="translate(95.410156 0)"/>
       <use xlink:href="#DejaVuSans-30" transform="translate(159.033203 0)"/>
      </g>
     </g>
    </g>
    <g id="xtick_2">
     <g id="line2d_3">
      <path d="M 157.442727 390.04 
L 157.442727 61.44 
" clip-path="url(#p5b7cc8a0b4)" style="fill: none; stroke: #b0b0b0; stroke-width: 0.8; stroke-linecap: square"/>
     </g>
     <g id="line2d_4">
      <g>
       <use xlink:href="#mff295d13c3" x="157.442727" y="390.04" style="stroke: #000000; stroke-width: 0.8"/>
      </g>
     </g>
     <g id="text_2">
      <!-- 0.05 -->
      <g transform="translate(146.309915 404.638438) scale(0.1 -0.1)">
       <defs>
        <path id="DejaVuSans-35" d="M 691 4666 
L 3169 4666 
L 3169 4134 
L 1269 4134 
L 1269 2991 
Q 1406 3038 1543 3061 
Q 1681 3084 1819 3084 
Q 2600 3084 3056 2656 
Q 3513 2228 3513 1497 
Q 3513 744 3044 326 
Q 2575 -91 1722 -91 
Q 1428 -91 1123 -41 
Q 819 9 494 109 
L 494 744 
Q 775 591 1075 516 
Q 1375 441 1709 441 
Q 2250 441 2565 725 
Q 2881 1009 2881 1497 
Q 2881 1984 2565 2268 
Q 2250 2553 1709 2553 
Q 1456 2553 1204 2497 
Q 953 2441 691 2322 
L 691 4666 
z
" transform="scale(0.015625)"/>
       </defs>
       <use xlink:href="#DejaVuSans-30"/>
       <use xlink:href="#DejaVuSans-2e" transform="translate(63.623047 0)"/>
       <use xlink:href="#DejaVuSans-30" transform="translate(95.410156 0)"/>
       <use xlink:href="#DejaVuSans-35" transform="translate(159.033203 0)"/>
      </g>
     </g>
    </g>
    <g id="xtick_3">
     <g id="line2d_5">
      <path d="M 245.220909 390.04 
L 245.220909 61.44 
" clip-path="url(#p5b7cc8a0b4)" style="fill: none; stroke: #b0b0b0; stroke-width: 0.8; stroke-linecap: square"/>
     </g>
     <g id="line2d_6">
      <g>
       <use xlink:href="#mff295d13c3" x="245.220909" y="390.04" style="stroke: #000000; stroke-width: 0.8"/>
      </g>
     </g>
     <g id="text_3">
      <!-- 0.10 -->
      <g transform="translate(234.088097 404.638438) scale(0.1 -0.1)">
       <defs>
        <path id="DejaVuSans-31" d="M 794 531 
L 1825 531 
L 1825 4091 
L 703 3866 
L 703 4441 
L 1819 4666 
L 2450 4666 
L 2450 531 
L 3481 531 
L 3481 0 
L 794 0 
L 794 531 
z
" transform="scale(0.015625)"/>
       </defs>
       <use xlink:href="#DejaVuSans-30"/>
       <use xlink:href="#DejaVuSans-2e" transform="translate(63.623047 0)"/>
       <use xlink:href="#DejaVuSans-31" transform="translate(95.410156 0)"/>
       <use xlink:href="#DejaVuSans-30" transform="translate(159.033203 0)"/>
      </g>
     </g>
    </g>
    <g id="xtick_4">
     <g id="line2d_7">
      <path d="M 332.999091 390.04 
L 332.999091 61.44 
" clip-path="url(#p5b7cc8a0b4)" style="fill: none; stroke: #b0b0b0; stroke-width: 0.8; stroke-linecap: square"/>
     </g>
     <g id="line2d_8">
      <g>
       <use xlink:href="#mff295d13c3" x="332.999091" y="390.04" style="stroke: #000000; stroke-width: 0.8"/>
      </g>
     </g>
     <g id="text_4">
      <!-- 0.15 -->
      <g transform="translate(321.866278 404.638438) scale(0.1 -0.1)">
       <use xlink:href="#DejaVuSans-30"/>
       <use xlink:href="#DejaVuSans-2e" transform="translate(63.623047 0)"/>
       <use xlink:href="#DejaVuSans-31" transform="translate(95.410156 0)"/>
       <use xlink:href="#DejaVuSans-35" transform="translate(159.033203 0)"/>
      </g>
     </g>
    </g>
    <g id="xtick_5">
     <g id="line2d_9">
      <path d="M 420.777273 390.04 
L 420.777273 61.44 
" clip-path="url(#p5b7cc8a0b4)" style="fill: none; stroke: #b0b0b0; stroke-width: 0.8; stroke-linecap: square"/>
     </g>
     <g id="line2d_10">
      <g>
       <use xlink:href="#mff295d13c3" x="420.777273" y="390.04" style="stroke: #000000; stroke-width: 0.8"/>
      </g>
     </g>
     <g id="text_5">
      <!-- 0.20 -->
      <g transform="translate(409.64446 404.638438) scale(0.1 -0.1)">
       <defs>
        <path id="DejaVuSans-32" d="M 1228 531 
L 3431 531 
L 3431 0 
L 469 0 
L 469 531 
Q 828 903 1448 1529 
Q 2069 2156 2228 2338 
Q 2531 2678 2651 2914 
Q 2772 3150 2772 3378 
Q 2772 3750 2511 3984 
Q 2250 4219 1831 4219 
Q 1534 4219 1204 4116 
Q 875 4013 500 3803 
L 500 4441 
Q 881 4594 1212 4672 
Q 1544 4750 1819 4750 
Q 2544 4750 2975 4387 
Q 3406 4025 3406 3419 
Q 3406 3131 3298 2873 
Q 3191 2616 2906 2266 
Q 2828 2175 2409 1742 
Q 1991 1309 1228 531 
z
" transform="scale(0.015625)"/>
       </defs>
       <use xlink:href="#DejaVuSans-30"/>
       <use xlink:href="#DejaVuSans-2e" transform="translate(63.623047 0)"/>
       <use xlink:href="#DejaVuSans-32" transform="translate(95.410156 0)"/>
       <use xlink:href="#DejaVuSans-30" transform="translate(159.033203 0)"/>
      </g>
     </g>
    </g>
    <g id="xtick_6">
     <g id="line2d_11">
      <path d="M 508.555455 390.04 
L 508.555455 61.44 
" clip-path="url(#p5b7cc8a0b4)" style="fill: none; stroke: #b0b0b0; stroke-width: 0.8; stroke-linecap: square"/>
     </g>
     <g id="line2d_12">
      <g>
       <use xlink:href="#mff295d13c3" x="508.555455" y="390.04" style="stroke: #000000; stroke-width: 0.8"/>
      </g>
     </g>
     <g id="text_6">
      <!-- 0.25 -->
      <g transform="translate(497.422642 404.638438) scale(0.1 -0.1)">
       <use xlink:href="#DejaVuSans-30"/>
       <use xlink:href="#DejaVuSans-2e" transform="translate(63.623047 0)"/>
       <use xlink:href="#DejaVuSans-32" transform="translate(95.410156 0)"/>
       <use xlink:href="#DejaVuSans-35" transform="translate(159.033203 0)"/>
      </g>
     </g>
    </g>
    <g id="text_7">
     <!-- Noise-level -->
     <g transform="translate(261.545156 418.316562) scale(0.1 -0.1)">
      <defs>
       <path id="DejaVuSans-4e" d="M 628 4666 
L 1478 4666 
L 3547 763 
L 3547 4666 
L 4159 4666 
L 4159 0 
L 3309 0 
L 1241 3903 
L 1241 0 
L 628 0 
L 628 4666 
z
" transform="scale(0.015625)"/>
       <path id="DejaVuSans-6f" d="M 1959 3097 
Q 1497 3097 1228 2736 
Q 959 2375 959 1747 
Q 959 1119 1226 758 
Q 1494 397 1959 397 
Q 2419 397 2687 759 
Q 2956 1122 2956 1747 
Q 2956 2369 2687 2733 
Q 2419 3097 1959 3097 
z
M 1959 3584 
Q 2709 3584 3137 3096 
Q 3566 2609 3566 1747 
Q 3566 888 3137 398 
Q 2709 -91 1959 -91 
Q 1206 -91 779 398 
Q 353 888 353 1747 
Q 353 2609 779 3096 
Q 1206 3584 1959 3584 
z
" transform="scale(0.015625)"/>
       <path id="DejaVuSans-69" d="M 603 3500 
L 1178 3500 
L 1178 0 
L 603 0 
L 603 3500 
z
M 603 4863 
L 1178 4863 
L 1178 4134 
L 603 4134 
L 603 4863 
z
" transform="scale(0.015625)"/>
       <path id="DejaVuSans-73" d="M 2834 3397 
L 2834 2853 
Q 2591 2978 2328 3040 
Q 2066 3103 1784 3103 
Q 1356 3103 1142 2972 
Q 928 2841 928 2578 
Q 928 2378 1081 2264 
Q 1234 2150 1697 2047 
L 1894 2003 
Q 2506 1872 2764 1633 
Q 3022 1394 3022 966 
Q 3022 478 2636 193 
Q 2250 -91 1575 -91 
Q 1294 -91 989 -36 
Q 684 19 347 128 
L 347 722 
Q 666 556 975 473 
Q 1284 391 1588 391 
Q 1994 391 2212 530 
Q 2431 669 2431 922 
Q 2431 1156 2273 1281 
Q 2116 1406 1581 1522 
L 1381 1569 
Q 847 1681 609 1914 
Q 372 2147 372 2553 
Q 372 3047 722 3315 
Q 1072 3584 1716 3584 
Q 2034 3584 2315 3537 
Q 2597 3491 2834 3397 
z
" transform="scale(0.015625)"/>
       <path id="DejaVuSans-65" d="M 3597 1894 
L 3597 1613 
L 953 1613 
Q 991 1019 1311 708 
Q 1631 397 2203 397 
Q 2534 397 2845 478 
Q 3156 559 3463 722 
L 3463 178 
Q 3153 47 2828 -22 
Q 2503 -91 2169 -91 
Q 1331 -91 842 396 
Q 353 884 353 1716 
Q 353 2575 817 3079 
Q 1281 3584 2069 3584 
Q 2775 3584 3186 3129 
Q 3597 2675 3597 1894 
z
M 3022 2063 
Q 3016 2534 2758 2815 
Q 2500 3097 2075 3097 
Q 1594 3097 1305 2825 
Q 1016 2553 972 2059 
L 3022 2063 
z
" transform="scale(0.015625)"/>
       <path id="DejaVuSans-2d" d="M 313 2009 
L 1997 2009 
L 1997 1497 
L 313 1497 
L 313 2009 
z
" transform="scale(0.015625)"/>
       <path id="DejaVuSans-6c" d="M 603 4863 
L 1178 4863 
L 1178 0 
L 603 0 
L 603 4863 
z
" transform="scale(0.015625)"/>
       <path id="DejaVuSans-76" d="M 191 3500 
L 800 3500 
L 1894 563 
L 2988 3500 
L 3597 3500 
L 2284 0 
L 1503 0 
L 191 3500 
z
" transform="scale(0.015625)"/>
      </defs>
      <use xlink:href="#DejaVuSans-4e"/>
      <use xlink:href="#DejaVuSans-6f" transform="translate(74.804688 0)"/>
      <use xlink:href="#DejaVuSans-69" transform="translate(135.986328 0)"/>
      <use xlink:href="#DejaVuSans-73" transform="translate(163.769531 0)"/>
      <use xlink:href="#DejaVuSans-65" transform="translate(215.869141 0)"/>
      <use xlink:href="#DejaVuSans-2d" transform="translate(277.392578 0)"/>
      <use xlink:href="#DejaVuSans-6c" transform="translate(313.476562 0)"/>
      <use xlink:href="#DejaVuSans-65" transform="translate(341.259766 0)"/>
      <use xlink:href="#DejaVuSans-76" transform="translate(402.783203 0)"/>
      <use xlink:href="#DejaVuSans-65" transform="translate(461.962891 0)"/>
      <use xlink:href="#DejaVuSans-6c" transform="translate(523.486328 0)"/>
     </g>
    </g>
   </g>
   <g id="matplotlib.axis_2">
    <g id="ytick_1">
     <g id="line2d_13">
      <path d="M 47.72 362.656667 
L 530.5 362.656667 
" clip-path="url(#p5b7cc8a0b4)" style="fill: none; stroke: #b0b0b0; stroke-width: 0.8; stroke-linecap: square"/>
     </g>
     <g id="line2d_14">
      <defs>
       <path id="m6d748eff77" d="M 0 0 
L -3.5 0 
" style="stroke: #000000; stroke-width: 0.8"/>
      </defs>
      <g>
       <use xlink:href="#m6d748eff77" x="47.72" y="362.656667" style="stroke: #000000; stroke-width: 0.8"/>
      </g>
     </g>
     <g id="text_8">
      <!-- 0.0 -->
      <g transform="translate(24.816875 366.455885) scale(0.1 -0.1)">
       <use xlink:href="#DejaVuSans-30"/>
       <use xlink:href="#DejaVuSans-2e" transform="translate(63.623047 0)"/>
       <use xlink:href="#DejaVuSans-30" transform="translate(95.410156 0)"/>
      </g>
     </g>
    </g>
    <g id="ytick_2">
     <g id="line2d_15">
      <path d="M 47.72 307.89 
L 530.5 307.89 
" clip-path="url(#p5b7cc8a0b4)" style="fill: none; stroke: #b0b0b0; stroke-width: 0.8; stroke-linecap: square"/>
     </g>
     <g id="line2d_16">
      <g>
       <use xlink:href="#m6d748eff77" x="47.72" y="307.89" style="stroke: #000000; stroke-width: 0.8"/>
      </g>
     </g>
     <g id="text_9">
      <!-- 0.2 -->
      <g transform="translate(24.816875 311.689219) scale(0.1 -0.1)">
       <use xlink:href="#DejaVuSans-30"/>
       <use xlink:href="#DejaVuSans-2e" transform="translate(63.623047 0)"/>
       <use xlink:href="#DejaVuSans-32" transform="translate(95.410156 0)"/>
      </g>
     </g>
    </g>
    <g id="ytick_3">
     <g id="line2d_17">
      <path d="M 47.72 253.123333 
L 530.5 253.123333 
" clip-path="url(#p5b7cc8a0b4)" style="fill: none; stroke: #b0b0b0; stroke-width: 0.8; stroke-linecap: square"/>
     </g>
     <g id="line2d_18">
      <g>
       <use xlink:href="#m6d748eff77" x="47.72" y="253.123333" style="stroke: #000000; stroke-width: 0.8"/>
      </g>
     </g>
     <g id="text_10">
      <!-- 0.4 -->
      <g transform="translate(24.816875 256.922552) scale(0.1 -0.1)">
       <defs>
        <path id="DejaVuSans-34" d="M 2419 4116 
L 825 1625 
L 2419 1625 
L 2419 4116 
z
M 2253 4666 
L 3047 4666 
L 3047 1625 
L 3713 1625 
L 3713 1100 
L 3047 1100 
L 3047 0 
L 2419 0 
L 2419 1100 
L 313 1100 
L 313 1709 
L 2253 4666 
z
" transform="scale(0.015625)"/>
       </defs>
       <use xlink:href="#DejaVuSans-30"/>
       <use xlink:href="#DejaVuSans-2e" transform="translate(63.623047 0)"/>
       <use xlink:href="#DejaVuSans-34" transform="translate(95.410156 0)"/>
      </g>
     </g>
    </g>
    <g id="ytick_4">
     <g id="line2d_19">
      <path d="M 47.72 198.356667 
L 530.5 198.356667 
" clip-path="url(#p5b7cc8a0b4)" style="fill: none; stroke: #b0b0b0; stroke-width: 0.8; stroke-linecap: square"/>
     </g>
     <g id="line2d_20">
      <g>
       <use xlink:href="#m6d748eff77" x="47.72" y="198.356667" style="stroke: #000000; stroke-width: 0.8"/>
      </g>
     </g>
     <g id="text_11">
      <!-- 0.6 -->
      <g transform="translate(24.816875 202.155885) scale(0.1 -0.1)">
       <defs>
        <path id="DejaVuSans-36" d="M 2113 2584 
Q 1688 2584 1439 2293 
Q 1191 2003 1191 1497 
Q 1191 994 1439 701 
Q 1688 409 2113 409 
Q 2538 409 2786 701 
Q 3034 994 3034 1497 
Q 3034 2003 2786 2293 
Q 2538 2584 2113 2584 
z
M 3366 4563 
L 3366 3988 
Q 3128 4100 2886 4159 
Q 2644 4219 2406 4219 
Q 1781 4219 1451 3797 
Q 1122 3375 1075 2522 
Q 1259 2794 1537 2939 
Q 1816 3084 2150 3084 
Q 2853 3084 3261 2657 
Q 3669 2231 3669 1497 
Q 3669 778 3244 343 
Q 2819 -91 2113 -91 
Q 1303 -91 875 529 
Q 447 1150 447 2328 
Q 447 3434 972 4092 
Q 1497 4750 2381 4750 
Q 2619 4750 2861 4703 
Q 3103 4656 3366 4563 
z
" transform="scale(0.015625)"/>
       </defs>
       <use xlink:href="#DejaVuSans-30"/>
       <use xlink:href="#DejaVuSans-2e" transform="translate(63.623047 0)"/>
       <use xlink:href="#DejaVuSans-36" transform="translate(95.410156 0)"/>
      </g>
     </g>
    </g>
    <g id="ytick_5">
     <g id="line2d_21">
      <path d="M 47.72 143.59 
L 530.5 143.59 
" clip-path="url(#p5b7cc8a0b4)" style="fill: none; stroke: #b0b0b0; stroke-width: 0.8; stroke-linecap: square"/>
     </g>
     <g id="line2d_22">
      <g>
       <use xlink:href="#m6d748eff77" x="47.72" y="143.59" style="stroke: #000000; stroke-width: 0.8"/>
      </g>
     </g>
     <g id="text_12">
      <!-- 0.8 -->
      <g transform="translate(24.816875 147.389219) scale(0.1 -0.1)">
       <defs>
        <path id="DejaVuSans-38" d="M 2034 2216 
Q 1584 2216 1326 1975 
Q 1069 1734 1069 1313 
Q 1069 891 1326 650 
Q 1584 409 2034 409 
Q 2484 409 2743 651 
Q 3003 894 3003 1313 
Q 3003 1734 2745 1975 
Q 2488 2216 2034 2216 
z
M 1403 2484 
Q 997 2584 770 2862 
Q 544 3141 544 3541 
Q 544 4100 942 4425 
Q 1341 4750 2034 4750 
Q 2731 4750 3128 4425 
Q 3525 4100 3525 3541 
Q 3525 3141 3298 2862 
Q 3072 2584 2669 2484 
Q 3125 2378 3379 2068 
Q 3634 1759 3634 1313 
Q 3634 634 3220 271 
Q 2806 -91 2034 -91 
Q 1263 -91 848 271 
Q 434 634 434 1313 
Q 434 1759 690 2068 
Q 947 2378 1403 2484 
z
M 1172 3481 
Q 1172 3119 1398 2916 
Q 1625 2713 2034 2713 
Q 2441 2713 2670 2916 
Q 2900 3119 2900 3481 
Q 2900 3844 2670 4047 
Q 2441 4250 2034 4250 
Q 1625 4250 1398 4047 
Q 1172 3844 1172 3481 
z
" transform="scale(0.015625)"/>
       </defs>
       <use xlink:href="#DejaVuSans-30"/>
       <use xlink:href="#DejaVuSans-2e" transform="translate(63.623047 0)"/>
       <use xlink:href="#DejaVuSans-38" transform="translate(95.410156 0)"/>
      </g>
     </g>
    </g>
    <g id="ytick_6">
     <g id="line2d_23">
      <path d="M 47.72 88.823333 
L 530.5 88.823333 
" clip-path="url(#p5b7cc8a0b4)" style="fill: none; stroke: #b0b0b0; stroke-width: 0.8; stroke-linecap: square"/>
     </g>
     <g id="line2d_24">
      <g>
       <use xlink:href="#m6d748eff77" x="47.72" y="88.823333" style="stroke: #000000; stroke-width: 0.8"/>
      </g>
     </g>
     <g id="text_13">
      <!-- 1.0 -->
      <g transform="translate(24.816875 92.622552) scale(0.1 -0.1)">
       <use xlink:href="#DejaVuSans-31"/>
       <use xlink:href="#DejaVuSans-2e" transform="translate(63.623047 0)"/>
       <use xlink:href="#DejaVuSans-30" transform="translate(95.410156 0)"/>
      </g>
     </g>
    </g>
    <g id="text_14">
     <!-- Accuracy -->
     <g transform="translate(18.737188 248.568125) rotate(-90) scale(0.1 -0.1)">
      <defs>
       <path id="DejaVuSans-41" d="M 2188 4044 
L 1331 1722 
L 3047 1722 
L 2188 4044 
z
M 1831 4666 
L 2547 4666 
L 4325 0 
L 3669 0 
L 3244 1197 
L 1141 1197 
L 716 0 
L 50 0 
L 1831 4666 
z
" transform="scale(0.015625)"/>
       <path id="DejaVuSans-63" d="M 3122 3366 
L 3122 2828 
Q 2878 2963 2633 3030 
Q 2388 3097 2138 3097 
Q 1578 3097 1268 2742 
Q 959 2388 959 1747 
Q 959 1106 1268 751 
Q 1578 397 2138 397 
Q 2388 397 2633 464 
Q 2878 531 3122 666 
L 3122 134 
Q 2881 22 2623 -34 
Q 2366 -91 2075 -91 
Q 1284 -91 818 406 
Q 353 903 353 1747 
Q 353 2603 823 3093 
Q 1294 3584 2113 3584 
Q 2378 3584 2631 3529 
Q 2884 3475 3122 3366 
z
" transform="scale(0.015625)"/>
       <path id="DejaVuSans-75" d="M 544 1381 
L 544 3500 
L 1119 3500 
L 1119 1403 
Q 1119 906 1312 657 
Q 1506 409 1894 409 
Q 2359 409 2629 706 
Q 2900 1003 2900 1516 
L 2900 3500 
L 3475 3500 
L 3475 0 
L 2900 0 
L 2900 538 
Q 2691 219 2414 64 
Q 2138 -91 1772 -91 
Q 1169 -91 856 284 
Q 544 659 544 1381 
z
M 1991 3584 
L 1991 3584 
z
" transform="scale(0.015625)"/>
       <path id="DejaVuSans-72" d="M 2631 2963 
Q 2534 3019 2420 3045 
Q 2306 3072 2169 3072 
Q 1681 3072 1420 2755 
Q 1159 2438 1159 1844 
L 1159 0 
L 581 0 
L 581 3500 
L 1159 3500 
L 1159 2956 
Q 1341 3275 1631 3429 
Q 1922 3584 2338 3584 
Q 2397 3584 2469 3576 
Q 2541 3569 2628 3553 
L 2631 2963 
z
" transform="scale(0.015625)"/>
       <path id="DejaVuSans-61" d="M 2194 1759 
Q 1497 1759 1228 1600 
Q 959 1441 959 1056 
Q 959 750 1161 570 
Q 1363 391 1709 391 
Q 2188 391 2477 730 
Q 2766 1069 2766 1631 
L 2766 1759 
L 2194 1759 
z
M 3341 1997 
L 3341 0 
L 2766 0 
L 2766 531 
Q 2569 213 2275 61 
Q 1981 -91 1556 -91 
Q 1019 -91 701 211 
Q 384 513 384 1019 
Q 384 1609 779 1909 
Q 1175 2209 1959 2209 
L 2766 2209 
L 2766 2266 
Q 2766 2663 2505 2880 
Q 2244 3097 1772 3097 
Q 1472 3097 1187 3025 
Q 903 2953 641 2809 
L 641 3341 
Q 956 3463 1253 3523 
Q 1550 3584 1831 3584 
Q 2591 3584 2966 3190 
Q 3341 2797 3341 1997 
z
" transform="scale(0.015625)"/>
       <path id="DejaVuSans-79" d="M 2059 -325 
Q 1816 -950 1584 -1140 
Q 1353 -1331 966 -1331 
L 506 -1331 
L 506 -850 
L 844 -850 
Q 1081 -850 1212 -737 
Q 1344 -625 1503 -206 
L 1606 56 
L 191 3500 
L 800 3500 
L 1894 763 
L 2988 3500 
L 3597 3500 
L 2059 -325 
z
" transform="scale(0.015625)"/>
      </defs>
      <use xlink:href="#DejaVuSans-41"/>
      <use xlink:href="#DejaVuSans-63" transform="translate(66.658203 0)"/>
      <use xlink:href="#DejaVuSans-63" transform="translate(121.638672 0)"/>
      <use xlink:href="#DejaVuSans-75" transform="translate(176.619141 0)"/>
      <use xlink:href="#DejaVuSans-72" transform="translate(239.998047 0)"/>
      <use xlink:href="#DejaVuSans-61" transform="translate(281.111328 0)"/>
      <use xlink:href="#DejaVuSans-63" transform="translate(342.390625 0)"/>
      <use xlink:href="#DejaVuSans-79" transform="translate(397.371094 0)"/>
     </g>
    </g>
   </g>
   <g id="line2d_25">
    <path d="M 69.664545 102.188551 
L 157.442727 179.076957 
L 245.220909 280.237826 
L 332.999091 333.92913 
L 420.777273 344.99 
L 508.555455 352.133478 
" clip-path="url(#p5b7cc8a0b4)" style="fill: none; stroke: #b7d4ea; stroke-width: 1.5; stroke-linecap: square"/>
    <defs>
     <path id="m0499fb92ea" d="M 0 3 
C 0.795609 3 1.55874 2.683901 2.12132 2.12132 
C 2.683901 1.55874 3 0.795609 3 0 
C 3 -0.795609 2.683901 -1.55874 2.12132 -2.12132 
C 1.55874 -2.683901 0.795609 -3 0 -3 
C -0.795609 -3 -1.55874 -2.683901 -2.12132 -2.12132 
C -2.683901 -1.55874 -3 -0.795609 -3 0 
C -3 0.795609 -2.683901 1.55874 -2.12132 2.12132 
C -1.55874 2.683901 -0.795609 3 0 3 
z
" style="stroke: #b7d4ea"/>
    </defs>
    <g clip-path="url(#p5b7cc8a0b4)">
     <use xlink:href="#m0499fb92ea" x="69.664545" y="102.188551" style="fill: #b7d4ea; stroke: #b7d4ea"/>
     <use xlink:href="#m0499fb92ea" x="157.442727" y="179.076957" style="fill: #b7d4ea; stroke: #b7d4ea"/>
     <use xlink:href="#m0499fb92ea" x="245.220909" y="280.237826" style="fill: #b7d4ea; stroke: #b7d4ea"/>
     <use xlink:href="#m0499fb92ea" x="332.999091" y="333.92913" style="fill: #b7d4ea; stroke: #b7d4ea"/>
     <use xlink:href="#m0499fb92ea" x="420.777273" y="344.99" style="fill: #b7d4ea; stroke: #b7d4ea"/>
     <use xlink:href="#m0499fb92ea" x="508.555455" y="352.133478" style="fill: #b7d4ea; stroke: #b7d4ea"/>
    </g>
   </g>
   <g id="line2d_26">
    <path d="M 69.664545 102.418986 
L 157.442727 190.598696 
L 245.220909 287.688551 
L 332.999091 337.001594 
L 420.777273 346.756667 
L 508.555455 352.824783 
" clip-path="url(#p5b7cc8a0b4)" style="fill: none; stroke: #2e7ebc; stroke-width: 1.5; stroke-linecap: square"/>
    <defs>
     <path id="mcef4eaf023" d="M 0 4.242641 
L 4.242641 0 
L 0 -4.242641 
L -4.242641 0 
z
" style="stroke: #2e7ebc; stroke-linejoin: miter"/>
    </defs>
    <g clip-path="url(#p5b7cc8a0b4)">
     <use xlink:href="#mcef4eaf023" x="69.664545" y="102.418986" style="fill: #2e7ebc; stroke: #2e7ebc; stroke-linejoin: miter"/>
     <use xlink:href="#mcef4eaf023" x="157.442727" y="190.598696" style="fill: #2e7ebc; stroke: #2e7ebc; stroke-linejoin: miter"/>
     <use xlink:href="#mcef4eaf023" x="245.220909" y="287.688551" style="fill: #2e7ebc; stroke: #2e7ebc; stroke-linejoin: miter"/>
     <use xlink:href="#mcef4eaf023" x="332.999091" y="337.001594" style="fill: #2e7ebc; stroke: #2e7ebc; stroke-linejoin: miter"/>
     <use xlink:href="#mcef4eaf023" x="420.777273" y="346.756667" style="fill: #2e7ebc; stroke: #2e7ebc; stroke-linejoin: miter"/>
     <use xlink:href="#mcef4eaf023" x="508.555455" y="352.824783" style="fill: #2e7ebc; stroke: #2e7ebc; stroke-linejoin: miter"/>
    </g>
   </g>
   <g id="line2d_27">
    <path d="M 69.664545 101.804493 
L 157.442727 169.475507 
L 245.220909 273.324783 
L 332.999091 329.934928 
L 420.777273 343.300145 
L 508.555455 350.904493 
" clip-path="url(#p5b7cc8a0b4)" style="fill: none; stroke: #6950a3; stroke-width: 1.5; stroke-linecap: square"/>
    <defs>
     <path id="m5ebd05b873" d="M -3 3 
L 3 -3 
M -3 -3 
L 3 3 
" style="stroke: #6950a3"/>
    </defs>
    <g clip-path="url(#p5b7cc8a0b4)">
     <use xlink:href="#m5ebd05b873" x="69.664545" y="101.804493" style="fill: #6950a3; stroke: #6950a3"/>
     <use xlink:href="#m5ebd05b873" x="157.442727" y="169.475507" style="fill: #6950a3; stroke: #6950a3"/>
     <use xlink:href="#m5ebd05b873" x="245.220909" y="273.324783" style="fill: #6950a3; stroke: #6950a3"/>
     <use xlink:href="#m5ebd05b873" x="332.999091" y="329.934928" style="fill: #6950a3; stroke: #6950a3"/>
     <use xlink:href="#m5ebd05b873" x="420.777273" y="343.300145" style="fill: #6950a3; stroke: #6950a3"/>
     <use xlink:href="#m5ebd05b873" x="508.555455" y="350.904493" style="fill: #6950a3; stroke: #6950a3"/>
    </g>
   </g>
   <g id="line2d_28">
    <path d="M 69.664545 103.724783 
L 157.442727 189.139275 
L 245.220909 287.381304 
L 332.999091 336.771159 
L 420.777273 346.833478 
L 508.555455 352.747971 
" clip-path="url(#p5b7cc8a0b4)" style="fill: none; stroke: #e4dfae; stroke-width: 1.5; stroke-linecap: square"/>
    <defs>
     <path id="m169872beb5" d="M 0 3 
C 0.795609 3 1.55874 2.683901 2.12132 2.12132 
C 2.683901 1.55874 3 0.795609 3 0 
C 3 -0.795609 2.683901 -1.55874 2.12132 -2.12132 
C 1.55874 -2.683901 0.795609 -3 0 -3 
C -0.795609 -3 -1.55874 -2.683901 -2.12132 -2.12132 
C -2.683901 -1.55874 -3 -0.795609 -3 0 
C -3 0.795609 -2.683901 1.55874 -2.12132 2.12132 
C -1.55874 2.683901 -0.795609 3 0 3 
z
" style="stroke: #e4dfae"/>
    </defs>
    <g clip-path="url(#p5b7cc8a0b4)">
     <use xlink:href="#m169872beb5" x="69.664545" y="103.724783" style="fill: #e4dfae; stroke: #e4dfae"/>
     <use xlink:href="#m169872beb5" x="157.442727" y="189.139275" style="fill: #e4dfae; stroke: #e4dfae"/>
     <use xlink:href="#m169872beb5" x="245.220909" y="287.381304" style="fill: #e4dfae; stroke: #e4dfae"/>
     <use xlink:href="#m169872beb5" x="332.999091" y="336.771159" style="fill: #e4dfae; stroke: #e4dfae"/>
     <use xlink:href="#m169872beb5" x="420.777273" y="346.833478" style="fill: #e4dfae; stroke: #e4dfae"/>
     <use xlink:href="#m169872beb5" x="508.555455" y="352.747971" style="fill: #e4dfae; stroke: #e4dfae"/>
    </g>
   </g>
   <g id="line2d_29">
    <path d="M 69.664545 103.033478 
L 157.442727 180.152319 
L 245.220909 279.546522 
L 332.999091 333.698696 
L 420.777273 344.52913 
L 508.555455 352.056667 
" clip-path="url(#p5b7cc8a0b4)" style="fill: none; stroke: #7e5033; stroke-width: 1.5; stroke-linecap: square"/>
    <defs>
     <path id="mb2ae21bb07" d="M 0 -3 
L -3 3 
L 3 3 
z
" style="stroke: #7e5033; stroke-linejoin: miter"/>
    </defs>
    <g clip-path="url(#p5b7cc8a0b4)">
     <use xlink:href="#mb2ae21bb07" x="69.664545" y="103.033478" style="fill: #7e5033; stroke: #7e5033; stroke-linejoin: miter"/>
     <use xlink:href="#mb2ae21bb07" x="157.442727" y="180.152319" style="fill: #7e5033; stroke: #7e5033; stroke-linejoin: miter"/>
     <use xlink:href="#mb2ae21bb07" x="245.220909" y="279.546522" style="fill: #7e5033; stroke: #7e5033; stroke-linejoin: miter"/>
     <use xlink:href="#mb2ae21bb07" x="332.999091" y="333.698696" style="fill: #7e5033; stroke: #7e5033; stroke-linejoin: miter"/>
     <use xlink:href="#mb2ae21bb07" x="420.777273" y="344.52913" style="fill: #7e5033; stroke: #7e5033; stroke-linejoin: miter"/>
     <use xlink:href="#mb2ae21bb07" x="508.555455" y="352.056667" style="fill: #7e5033; stroke: #7e5033; stroke-linejoin: miter"/>
    </g>
   </g>
   <g id="line2d_30">
    <path d="M 69.664545 102.879855 
L 157.442727 190.982754 
L 245.220909 288.072609 
L 332.999091 337.232029 
L 420.777273 346.526232 
L 508.555455 353.132029 
" clip-path="url(#p5b7cc8a0b4)" style="fill: none; stroke: #fed778; stroke-width: 1.5; stroke-linecap: square"/>
    <defs>
     <path id="m367faa34af" d="M 0 3 
C 0.795609 3 1.55874 2.683901 2.12132 2.12132 
C 2.683901 1.55874 3 0.795609 3 0 
C 3 -0.795609 2.683901 -1.55874 2.12132 -2.12132 
C 1.55874 -2.683901 0.795609 -3 0 -3 
C -0.795609 -3 -1.55874 -2.683901 -2.12132 -2.12132 
C -2.683901 -1.55874 -3 -0.795609 -3 0 
C -3 0.795609 -2.683901 1.55874 -2.12132 2.12132 
C -1.55874 2.683901 -0.795609 3 0 3 
z
" style="stroke: #fed778"/>
    </defs>
    <g clip-path="url(#p5b7cc8a0b4)">
     <use xlink:href="#m367faa34af" x="69.664545" y="102.879855" style="fill: #fed778; stroke: #fed778"/>
     <use xlink:href="#m367faa34af" x="157.442727" y="190.982754" style="fill: #fed778; stroke: #fed778"/>
     <use xlink:href="#m367faa34af" x="245.220909" y="288.072609" style="fill: #fed778; stroke: #fed778"/>
     <use xlink:href="#m367faa34af" x="332.999091" y="337.232029" style="fill: #fed778; stroke: #fed778"/>
     <use xlink:href="#m367faa34af" x="420.777273" y="346.526232" style="fill: #fed778; stroke: #fed778"/>
     <use xlink:href="#m367faa34af" x="508.555455" y="353.132029" style="fill: #fed778; stroke: #fed778"/>
    </g>
   </g>
   <g id="line2d_31">
    <path d="M 69.664545 103.724783 
L 157.442727 189.446522 
L 245.220909 287.611739 
L 332.999091 337.232029 
L 420.777273 345.988551 
L 508.555455 352.363913 
" clip-path="url(#p5b7cc8a0b4)" style="fill: none; stroke: #fe9829; stroke-width: 1.5; stroke-linecap: square"/>
    <defs>
     <path id="mad1646b444" d="M 0 -3 
L -3 3 
L 3 3 
z
" style="stroke: #fe9829; stroke-linejoin: miter"/>
    </defs>
    <g clip-path="url(#p5b7cc8a0b4)">
     <use xlink:href="#mad1646b444" x="69.664545" y="103.724783" style="fill: #fe9829; stroke: #fe9829; stroke-linejoin: miter"/>
     <use xlink:href="#mad1646b444" x="157.442727" y="189.446522" style="fill: #fe9829; stroke: #fe9829; stroke-linejoin: miter"/>
     <use xlink:href="#mad1646b444" x="245.220909" y="287.611739" style="fill: #fe9829; stroke: #fe9829; stroke-linejoin: miter"/>
     <use xlink:href="#mad1646b444" x="332.999091" y="337.232029" style="fill: #fe9829; stroke: #fe9829; stroke-linejoin: miter"/>
     <use xlink:href="#mad1646b444" x="420.777273" y="345.988551" style="fill: #fe9829; stroke: #fe9829; stroke-linejoin: miter"/>
     <use xlink:href="#mad1646b444" x="508.555455" y="352.363913" style="fill: #fe9829; stroke: #fe9829; stroke-linejoin: miter"/>
    </g>
   </g>
   <g id="line2d_32">
    <path d="M 69.664545 102.342174 
L 157.442727 168.937826 
L 245.220909 266.795797 
L 332.999091 329.704493 
L 420.777273 343.06971 
L 508.555455 350.366812 
" clip-path="url(#p5b7cc8a0b4)" style="fill: none; stroke: #ff7f00; stroke-width: 1.5; stroke-linecap: square"/>
   </g>
   <g id="line2d_33">
    <path d="M 69.664545 100.421884 
L 157.442727 210.185652 
L 245.220909 299.517536 
L 332.999091 341.14942 
L 420.777273 348.907391 
L 508.555455 354.284203 
" clip-path="url(#p5b7cc8a0b4)" style="fill: none; stroke: #e41a1c; stroke-width: 1.5; stroke-linecap: square"/>
   </g>
   <g id="patch_3">
    <path d="M 47.72 390.04 
L 47.72 61.44 
" style="fill: none; stroke: #000000; stroke-width: 0.8; stroke-linejoin: miter; stroke-linecap: square"/>
   </g>
   <g id="patch_4">
    <path d="M 530.5 390.04 
L 530.5 61.44 
" style="fill: none; stroke: #000000; stroke-width: 0.8; stroke-linejoin: miter; stroke-linecap: square"/>
   </g>
   <g id="patch_5">
    <path d="M 47.72 390.04 
L 530.5 390.04 
" style="fill: none; stroke: #000000; stroke-width: 0.8; stroke-linejoin: miter; stroke-linecap: square"/>
   </g>
   <g id="patch_6">
    <path d="M 47.72 61.44 
L 530.5 61.44 
" style="fill: none; stroke: #000000; stroke-width: 0.8; stroke-linejoin: miter; stroke-linecap: square"/>
   </g>
   <g id="text_15">
    <!-- graph: mammalia-voles-plj-trapping_100 -->
    <g transform="translate(166.689375 55.44) scale(0.12 -0.12)">
     <defs>
      <path id="DejaVuSans-67" d="M 2906 1791 
Q 2906 2416 2648 2759 
Q 2391 3103 1925 3103 
Q 1463 3103 1205 2759 
Q 947 2416 947 1791 
Q 947 1169 1205 825 
Q 1463 481 1925 481 
Q 2391 481 2648 825 
Q 2906 1169 2906 1791 
z
M 3481 434 
Q 3481 -459 3084 -895 
Q 2688 -1331 1869 -1331 
Q 1566 -1331 1297 -1286 
Q 1028 -1241 775 -1147 
L 775 -588 
Q 1028 -725 1275 -790 
Q 1522 -856 1778 -856 
Q 2344 -856 2625 -561 
Q 2906 -266 2906 331 
L 2906 616 
Q 2728 306 2450 153 
Q 2172 0 1784 0 
Q 1141 0 747 490 
Q 353 981 353 1791 
Q 353 2603 747 3093 
Q 1141 3584 1784 3584 
Q 2172 3584 2450 3431 
Q 2728 3278 2906 2969 
L 2906 3500 
L 3481 3500 
L 3481 434 
z
" transform="scale(0.015625)"/>
      <path id="DejaVuSans-70" d="M 1159 525 
L 1159 -1331 
L 581 -1331 
L 581 3500 
L 1159 3500 
L 1159 2969 
Q 1341 3281 1617 3432 
Q 1894 3584 2278 3584 
Q 2916 3584 3314 3078 
Q 3713 2572 3713 1747 
Q 3713 922 3314 415 
Q 2916 -91 2278 -91 
Q 1894 -91 1617 61 
Q 1341 213 1159 525 
z
M 3116 1747 
Q 3116 2381 2855 2742 
Q 2594 3103 2138 3103 
Q 1681 3103 1420 2742 
Q 1159 2381 1159 1747 
Q 1159 1113 1420 752 
Q 1681 391 2138 391 
Q 2594 391 2855 752 
Q 3116 1113 3116 1747 
z
" transform="scale(0.015625)"/>
      <path id="DejaVuSans-68" d="M 3513 2113 
L 3513 0 
L 2938 0 
L 2938 2094 
Q 2938 2591 2744 2837 
Q 2550 3084 2163 3084 
Q 1697 3084 1428 2787 
Q 1159 2491 1159 1978 
L 1159 0 
L 581 0 
L 581 4863 
L 1159 4863 
L 1159 2956 
Q 1366 3272 1645 3428 
Q 1925 3584 2291 3584 
Q 2894 3584 3203 3211 
Q 3513 2838 3513 2113 
z
" transform="scale(0.015625)"/>
      <path id="DejaVuSans-3a" d="M 750 794 
L 1409 794 
L 1409 0 
L 750 0 
L 750 794 
z
M 750 3309 
L 1409 3309 
L 1409 2516 
L 750 2516 
L 750 3309 
z
" transform="scale(0.015625)"/>
      <path id="DejaVuSans-20" transform="scale(0.015625)"/>
      <path id="DejaVuSans-6d" d="M 3328 2828 
Q 3544 3216 3844 3400 
Q 4144 3584 4550 3584 
Q 5097 3584 5394 3201 
Q 5691 2819 5691 2113 
L 5691 0 
L 5113 0 
L 5113 2094 
Q 5113 2597 4934 2840 
Q 4756 3084 4391 3084 
Q 3944 3084 3684 2787 
Q 3425 2491 3425 1978 
L 3425 0 
L 2847 0 
L 2847 2094 
Q 2847 2600 2669 2842 
Q 2491 3084 2119 3084 
Q 1678 3084 1418 2786 
Q 1159 2488 1159 1978 
L 1159 0 
L 581 0 
L 581 3500 
L 1159 3500 
L 1159 2956 
Q 1356 3278 1631 3431 
Q 1906 3584 2284 3584 
Q 2666 3584 2933 3390 
Q 3200 3197 3328 2828 
z
" transform="scale(0.015625)"/>
      <path id="DejaVuSans-6a" d="M 603 3500 
L 1178 3500 
L 1178 -63 
Q 1178 -731 923 -1031 
Q 669 -1331 103 -1331 
L -116 -1331 
L -116 -844 
L 38 -844 
Q 366 -844 484 -692 
Q 603 -541 603 -63 
L 603 3500 
z
M 603 4863 
L 1178 4863 
L 1178 4134 
L 603 4134 
L 603 4863 
z
" transform="scale(0.015625)"/>
      <path id="DejaVuSans-74" d="M 1172 4494 
L 1172 3500 
L 2356 3500 
L 2356 3053 
L 1172 3053 
L 1172 1153 
Q 1172 725 1289 603 
Q 1406 481 1766 481 
L 2356 481 
L 2356 0 
L 1766 0 
Q 1100 0 847 248 
Q 594 497 594 1153 
L 594 3053 
L 172 3053 
L 172 3500 
L 594 3500 
L 594 4494 
L 1172 4494 
z
" transform="scale(0.015625)"/>
      <path id="DejaVuSans-6e" d="M 3513 2113 
L 3513 0 
L 2938 0 
L 2938 2094 
Q 2938 2591 2744 2837 
Q 2550 3084 2163 3084 
Q 1697 3084 1428 2787 
Q 1159 2491 1159 1978 
L 1159 0 
L 581 0 
L 581 3500 
L 1159 3500 
L 1159 2956 
Q 1366 3272 1645 3428 
Q 1925 3584 2291 3584 
Q 2894 3584 3203 3211 
Q 3513 2838 3513 2113 
z
" transform="scale(0.015625)"/>
      <path id="DejaVuSans-5f" d="M 3263 -1063 
L 3263 -1509 
L -63 -1509 
L -63 -1063 
L 3263 -1063 
z
" transform="scale(0.015625)"/>
     </defs>
     <use xlink:href="#DejaVuSans-67"/>
     <use xlink:href="#DejaVuSans-72" transform="translate(63.476562 0)"/>
     <use xlink:href="#DejaVuSans-61" transform="translate(104.589844 0)"/>
     <use xlink:href="#DejaVuSans-70" transform="translate(165.869141 0)"/>
     <use xlink:href="#DejaVuSans-68" transform="translate(229.345703 0)"/>
     <use xlink:href="#DejaVuSans-3a" transform="translate(292.724609 0)"/>
     <use xlink:href="#DejaVuSans-20" transform="translate(326.416016 0)"/>
     <use xlink:href="#DejaVuSans-6d" transform="translate(358.203125 0)"/>
     <use xlink:href="#DejaVuSans-61" transform="translate(455.615234 0)"/>
     <use xlink:href="#DejaVuSans-6d" transform="translate(516.894531 0)"/>
     <use xlink:href="#DejaVuSans-6d" transform="translate(614.306641 0)"/>
     <use xlink:href="#DejaVuSans-61" transform="translate(711.71875 0)"/>
     <use xlink:href="#DejaVuSans-6c" transform="translate(772.998047 0)"/>
     <use xlink:href="#DejaVuSans-69" transform="translate(800.78125 0)"/>
     <use xlink:href="#DejaVuSans-61" transform="translate(828.564453 0)"/>
     <use xlink:href="#DejaVuSans-2d" transform="translate(889.84375 0)"/>
     <use xlink:href="#DejaVuSans-76" transform="translate(923.302734 0)"/>
     <use xlink:href="#DejaVuSans-6f" transform="translate(982.482422 0)"/>
     <use xlink:href="#DejaVuSans-6c" transform="translate(1043.664062 0)"/>
     <use xlink:href="#DejaVuSans-65" transform="translate(1071.447266 0)"/>
     <use xlink:href="#DejaVuSans-73" transform="translate(1132.970703 0)"/>
     <use xlink:href="#DejaVuSans-2d" transform="translate(1185.070312 0)"/>
     <use xlink:href="#DejaVuSans-70" transform="translate(1221.154297 0)"/>
     <use xlink:href="#DejaVuSans-6c" transform="translate(1284.630859 0)"/>
     <use xlink:href="#DejaVuSans-6a" transform="translate(1312.414062 0)"/>
     <use xlink:href="#DejaVuSans-2d" transform="translate(1340.197266 0)"/>
     <use xlink:href="#DejaVuSans-74" transform="translate(1376.28125 0)"/>
     <use xlink:href="#DejaVuSans-72" transform="translate(1415.490234 0)"/>
     <use xlink:href="#DejaVuSans-61" transform="translate(1456.603516 0)"/>
     <use xlink:href="#DejaVuSans-70" transform="translate(1517.882812 0)"/>
     <use xlink:href="#DejaVuSans-70" transform="translate(1581.359375 0)"/>
     <use xlink:href="#DejaVuSans-69" transform="translate(1644.835938 0)"/>
     <use xlink:href="#DejaVuSans-6e" transform="translate(1672.619141 0)"/>
     <use xlink:href="#DejaVuSans-67" transform="translate(1735.998047 0)"/>
     <use xlink:href="#DejaVuSans-5f" transform="translate(1799.474609 0)"/>
     <use xlink:href="#DejaVuSans-31" transform="translate(1849.474609 0)"/>
     <use xlink:href="#DejaVuSans-30" transform="translate(1913.097656 0)"/>
     <use xlink:href="#DejaVuSans-30" transform="translate(1976.720703 0)"/>
    </g>
   </g>
   <g id="legend_1">
    <g id="patch_7">
     <path d="M 561.639 227.419062 
L 703.448375 227.419062 
Q 705.448375 227.419062 705.448375 225.419062 
L 705.448375 68.44 
Q 705.448375 66.44 703.448375 66.44 
L 561.639 66.44 
Q 559.639 66.44 559.639 68.44 
L 559.639 225.419062 
Q 559.639 227.419062 561.639 227.419062 
z
" style="fill: #ffffff; opacity: 0.8; stroke: #cccccc; stroke-linejoin: miter"/>
    </g>
    <g id="text_16">
     <!-- Features -->
     <g transform="translate(611.049156 78.038437) scale(0.1 -0.1)">
      <defs>
       <path id="DejaVuSans-46" d="M 628 4666 
L 3309 4666 
L 3309 4134 
L 1259 4134 
L 1259 2759 
L 3109 2759 
L 3109 2228 
L 1259 2228 
L 1259 0 
L 628 0 
L 628 4666 
z
" transform="scale(0.015625)"/>
      </defs>
      <use xlink:href="#DejaVuSans-46"/>
      <use xlink:href="#DejaVuSans-65" transform="translate(52.019531 0)"/>
      <use xlink:href="#DejaVuSans-61" transform="translate(113.542969 0)"/>
      <use xlink:href="#DejaVuSans-74" transform="translate(174.822266 0)"/>
      <use xlink:href="#DejaVuSans-75" transform="translate(214.03125 0)"/>
      <use xlink:href="#DejaVuSans-72" transform="translate(277.410156 0)"/>
      <use xlink:href="#DejaVuSans-65" transform="translate(316.273438 0)"/>
      <use xlink:href="#DejaVuSans-73" transform="translate(377.796875 0)"/>
     </g>
    </g>
    <g id="line2d_34">
     <path d="M 563.639 89.216563 
L 573.639 89.216563 
L 583.639 89.216563 
" style="fill: none; stroke: #b7d4ea; stroke-width: 1.5; stroke-linecap: square"/>
     <g>
      <use xlink:href="#m0499fb92ea" x="573.639" y="89.216563" style="fill: #b7d4ea; stroke: #b7d4ea"/>
     </g>
    </g>
    <g id="text_17">
     <!-- degree -->
     <g transform="translate(591.639 92.716563) scale(0.1 -0.1)">
      <defs>
       <path id="DejaVuSans-64" d="M 2906 2969 
L 2906 4863 
L 3481 4863 
L 3481 0 
L 2906 0 
L 2906 525 
Q 2725 213 2448 61 
Q 2172 -91 1784 -91 
Q 1150 -91 751 415 
Q 353 922 353 1747 
Q 353 2572 751 3078 
Q 1150 3584 1784 3584 
Q 2172 3584 2448 3432 
Q 2725 3281 2906 2969 
z
M 947 1747 
Q 947 1113 1208 752 
Q 1469 391 1925 391 
Q 2381 391 2643 752 
Q 2906 1113 2906 1747 
Q 2906 2381 2643 2742 
Q 2381 3103 1925 3103 
Q 1469 3103 1208 2742 
Q 947 2381 947 1747 
z
" transform="scale(0.015625)"/>
      </defs>
      <use xlink:href="#DejaVuSans-64"/>
      <use xlink:href="#DejaVuSans-65" transform="translate(63.476562 0)"/>
      <use xlink:href="#DejaVuSans-67" transform="translate(125 0)"/>
      <use xlink:href="#DejaVuSans-72" transform="translate(188.476562 0)"/>
      <use xlink:href="#DejaVuSans-65" transform="translate(227.339844 0)"/>
      <use xlink:href="#DejaVuSans-65" transform="translate(288.863281 0)"/>
     </g>
    </g>
    <g id="line2d_35">
     <path d="M 563.639 103.894688 
L 573.639 103.894688 
L 583.639 103.894688 
" style="fill: none; stroke: #2e7ebc; stroke-width: 1.5; stroke-linecap: square"/>
     <g>
      <use xlink:href="#mcef4eaf023" x="573.639" y="103.894688" style="fill: #2e7ebc; stroke: #2e7ebc; stroke-linejoin: miter"/>
     </g>
    </g>
    <g id="text_18">
     <!-- ego edges -->
     <g transform="translate(591.639 107.394688) scale(0.1 -0.1)">
      <use xlink:href="#DejaVuSans-65"/>
      <use xlink:href="#DejaVuSans-67" transform="translate(61.523438 0)"/>
      <use xlink:href="#DejaVuSans-6f" transform="translate(125 0)"/>
      <use xlink:href="#DejaVuSans-20" transform="translate(186.181641 0)"/>
      <use xlink:href="#DejaVuSans-65" transform="translate(217.96875 0)"/>
      <use xlink:href="#DejaVuSans-64" transform="translate(279.492188 0)"/>
      <use xlink:href="#DejaVuSans-67" transform="translate(342.96875 0)"/>
      <use xlink:href="#DejaVuSans-65" transform="translate(406.445312 0)"/>
      <use xlink:href="#DejaVuSans-73" transform="translate(467.96875 0)"/>
     </g>
    </g>
    <g id="line2d_36">
     <path d="M 563.639 118.572813 
L 573.639 118.572813 
L 583.639 118.572813 
" style="fill: none; stroke: #6950a3; stroke-width: 1.5; stroke-linecap: square"/>
     <g>
      <use xlink:href="#m5ebd05b873" x="573.639" y="118.572813" style="fill: #6950a3; stroke: #6950a3"/>
     </g>
    </g>
    <g id="text_19">
     <!-- pagerank -->
     <g transform="translate(591.639 122.072813) scale(0.1 -0.1)">
      <defs>
       <path id="DejaVuSans-6b" d="M 581 4863 
L 1159 4863 
L 1159 1991 
L 2875 3500 
L 3609 3500 
L 1753 1863 
L 3688 0 
L 2938 0 
L 1159 1709 
L 1159 0 
L 581 0 
L 581 4863 
z
" transform="scale(0.015625)"/>
      </defs>
      <use xlink:href="#DejaVuSans-70"/>
      <use xlink:href="#DejaVuSans-61" transform="translate(63.476562 0)"/>
      <use xlink:href="#DejaVuSans-67" transform="translate(124.755859 0)"/>
      <use xlink:href="#DejaVuSans-65" transform="translate(188.232422 0)"/>
      <use xlink:href="#DejaVuSans-72" transform="translate(249.755859 0)"/>
      <use xlink:href="#DejaVuSans-61" transform="translate(290.869141 0)"/>
      <use xlink:href="#DejaVuSans-6e" transform="translate(352.148438 0)"/>
      <use xlink:href="#DejaVuSans-6b" transform="translate(415.527344 0)"/>
     </g>
    </g>
    <g id="line2d_37">
     <path d="M 563.639 133.250938 
L 573.639 133.250938 
L 583.639 133.250938 
" style="fill: none; stroke: #e4dfae; stroke-width: 1.5; stroke-linecap: square"/>
     <g>
      <use xlink:href="#m169872beb5" x="573.639" y="133.250938" style="fill: #e4dfae; stroke: #e4dfae"/>
     </g>
    </g>
    <g id="text_20">
     <!-- degree, ego edges -->
     <g transform="translate(591.639 136.750938) scale(0.1 -0.1)">
      <defs>
       <path id="DejaVuSans-2c" d="M 750 794 
L 1409 794 
L 1409 256 
L 897 -744 
L 494 -744 
L 750 256 
L 750 794 
z
" transform="scale(0.015625)"/>
      </defs>
      <use xlink:href="#DejaVuSans-64"/>
      <use xlink:href="#DejaVuSans-65" transform="translate(63.476562 0)"/>
      <use xlink:href="#DejaVuSans-67" transform="translate(125 0)"/>
      <use xlink:href="#DejaVuSans-72" transform="translate(188.476562 0)"/>
      <use xlink:href="#DejaVuSans-65" transform="translate(227.339844 0)"/>
      <use xlink:href="#DejaVuSans-65" transform="translate(288.863281 0)"/>
      <use xlink:href="#DejaVuSans-2c" transform="translate(350.386719 0)"/>
      <use xlink:href="#DejaVuSans-20" transform="translate(382.173828 0)"/>
      <use xlink:href="#DejaVuSans-65" transform="translate(413.960938 0)"/>
      <use xlink:href="#DejaVuSans-67" transform="translate(475.484375 0)"/>
      <use xlink:href="#DejaVuSans-6f" transform="translate(538.960938 0)"/>
      <use xlink:href="#DejaVuSans-20" transform="translate(600.142578 0)"/>
      <use xlink:href="#DejaVuSans-65" transform="translate(631.929688 0)"/>
      <use xlink:href="#DejaVuSans-64" transform="translate(693.453125 0)"/>
      <use xlink:href="#DejaVuSans-67" transform="translate(756.929688 0)"/>
      <use xlink:href="#DejaVuSans-65" transform="translate(820.40625 0)"/>
      <use xlink:href="#DejaVuSans-73" transform="translate(881.929688 0)"/>
     </g>
    </g>
    <g id="line2d_38">
     <path d="M 563.639 147.929063 
L 573.639 147.929063 
L 583.639 147.929063 
" style="fill: none; stroke: #7e5033; stroke-width: 1.5; stroke-linecap: square"/>
     <g>
      <use xlink:href="#mb2ae21bb07" x="573.639" y="147.929063" style="fill: #7e5033; stroke: #7e5033; stroke-linejoin: miter"/>
     </g>
    </g>
    <g id="text_21">
     <!-- degree, pagerank -->
     <g transform="translate(591.639 151.429063) scale(0.1 -0.1)">
      <use xlink:href="#DejaVuSans-64"/>
      <use xlink:href="#DejaVuSans-65" transform="translate(63.476562 0)"/>
      <use xlink:href="#DejaVuSans-67" transform="translate(125 0)"/>
      <use xlink:href="#DejaVuSans-72" transform="translate(188.476562 0)"/>
      <use xlink:href="#DejaVuSans-65" transform="translate(227.339844 0)"/>
      <use xlink:href="#DejaVuSans-65" transform="translate(288.863281 0)"/>
      <use xlink:href="#DejaVuSans-2c" transform="translate(350.386719 0)"/>
      <use xlink:href="#DejaVuSans-20" transform="translate(382.173828 0)"/>
      <use xlink:href="#DejaVuSans-70" transform="translate(413.960938 0)"/>
      <use xlink:href="#DejaVuSans-61" transform="translate(477.4375 0)"/>
      <use xlink:href="#DejaVuSans-67" transform="translate(538.716797 0)"/>
      <use xlink:href="#DejaVuSans-65" transform="translate(602.193359 0)"/>
      <use xlink:href="#DejaVuSans-72" transform="translate(663.716797 0)"/>
      <use xlink:href="#DejaVuSans-61" transform="translate(704.830078 0)"/>
      <use xlink:href="#DejaVuSans-6e" transform="translate(766.109375 0)"/>
      <use xlink:href="#DejaVuSans-6b" transform="translate(829.488281 0)"/>
     </g>
    </g>
    <g id="line2d_39">
     <path d="M 563.639 162.607188 
L 573.639 162.607188 
L 583.639 162.607188 
" style="fill: none; stroke: #fed778; stroke-width: 1.5; stroke-linecap: square"/>
     <g>
      <use xlink:href="#m367faa34af" x="573.639" y="162.607188" style="fill: #fed778; stroke: #fed778"/>
     </g>
    </g>
    <g id="text_22">
     <!-- ego edges, pagerank -->
     <g transform="translate(591.639 166.107188) scale(0.1 -0.1)">
      <use xlink:href="#DejaVuSans-65"/>
      <use xlink:href="#DejaVuSans-67" transform="translate(61.523438 0)"/>
      <use xlink:href="#DejaVuSans-6f" transform="translate(125 0)"/>
      <use xlink:href="#DejaVuSans-20" transform="translate(186.181641 0)"/>
      <use xlink:href="#DejaVuSans-65" transform="translate(217.96875 0)"/>
      <use xlink:href="#DejaVuSans-64" transform="translate(279.492188 0)"/>
      <use xlink:href="#DejaVuSans-67" transform="translate(342.96875 0)"/>
      <use xlink:href="#DejaVuSans-65" transform="translate(406.445312 0)"/>
      <use xlink:href="#DejaVuSans-73" transform="translate(467.96875 0)"/>
      <use xlink:href="#DejaVuSans-2c" transform="translate(520.068359 0)"/>
      <use xlink:href="#DejaVuSans-20" transform="translate(551.855469 0)"/>
      <use xlink:href="#DejaVuSans-70" transform="translate(583.642578 0)"/>
      <use xlink:href="#DejaVuSans-61" transform="translate(647.119141 0)"/>
      <use xlink:href="#DejaVuSans-67" transform="translate(708.398438 0)"/>
      <use xlink:href="#DejaVuSans-65" transform="translate(771.875 0)"/>
      <use xlink:href="#DejaVuSans-72" transform="translate(833.398438 0)"/>
      <use xlink:href="#DejaVuSans-61" transform="translate(874.511719 0)"/>
      <use xlink:href="#DejaVuSans-6e" transform="translate(935.791016 0)"/>
      <use xlink:href="#DejaVuSans-6b" transform="translate(999.169922 0)"/>
     </g>
    </g>
    <g id="line2d_40">
     <path d="M 563.639 183.924063 
L 573.639 183.924063 
L 583.639 183.924063 
" style="fill: none; stroke: #fe9829; stroke-width: 1.5; stroke-linecap: square"/>
     <g>
      <use xlink:href="#mad1646b444" x="573.639" y="183.924063" style="fill: #fe9829; stroke: #fe9829; stroke-linejoin: miter"/>
     </g>
    </g>
    <g id="text_23">
     <!-- degree, ego edges, -->
     <g transform="translate(591.639 180.785313) scale(0.1 -0.1)">
      <use xlink:href="#DejaVuSans-64"/>
      <use xlink:href="#DejaVuSans-65" transform="translate(63.476562 0)"/>
      <use xlink:href="#DejaVuSans-67" transform="translate(125 0)"/>
      <use xlink:href="#DejaVuSans-72" transform="translate(188.476562 0)"/>
      <use xlink:href="#DejaVuSans-65" transform="translate(227.339844 0)"/>
      <use xlink:href="#DejaVuSans-65" transform="translate(288.863281 0)"/>
      <use xlink:href="#DejaVuSans-2c" transform="translate(350.386719 0)"/>
      <use xlink:href="#DejaVuSans-20" transform="translate(382.173828 0)"/>
      <use xlink:href="#DejaVuSans-65" transform="translate(413.960938 0)"/>
      <use xlink:href="#DejaVuSans-67" transform="translate(475.484375 0)"/>
      <use xlink:href="#DejaVuSans-6f" transform="translate(538.960938 0)"/>
      <use xlink:href="#DejaVuSans-20" transform="translate(600.142578 0)"/>
      <use xlink:href="#DejaVuSans-65" transform="translate(631.929688 0)"/>
      <use xlink:href="#DejaVuSans-64" transform="translate(693.453125 0)"/>
      <use xlink:href="#DejaVuSans-67" transform="translate(756.929688 0)"/>
      <use xlink:href="#DejaVuSans-65" transform="translate(820.40625 0)"/>
      <use xlink:href="#DejaVuSans-73" transform="translate(881.929688 0)"/>
      <use xlink:href="#DejaVuSans-2c" transform="translate(934.029297 0)"/>
     </g>
     <!-- pagerank -->
     <g transform="translate(591.639 191.983125) scale(0.1 -0.1)">
      <use xlink:href="#DejaVuSans-70"/>
      <use xlink:href="#DejaVuSans-61" transform="translate(63.476562 0)"/>
      <use xlink:href="#DejaVuSans-67" transform="translate(124.755859 0)"/>
      <use xlink:href="#DejaVuSans-65" transform="translate(188.232422 0)"/>
      <use xlink:href="#DejaVuSans-72" transform="translate(249.755859 0)"/>
      <use xlink:href="#DejaVuSans-61" transform="translate(290.869141 0)"/>
      <use xlink:href="#DejaVuSans-6e" transform="translate(352.148438 0)"/>
      <use xlink:href="#DejaVuSans-6b" transform="translate(415.527344 0)"/>
     </g>
    </g>
    <g id="line2d_41">
     <path d="M 563.639 203.16125 
L 573.639 203.16125 
L 583.639 203.16125 
" style="fill: none; stroke: #ff7f00; stroke-width: 1.5; stroke-linecap: square"/>
    </g>
    <g id="text_24">
     <!-- FUGAL -->
     <g transform="translate(591.639 206.66125) scale(0.1 -0.1)">
      <defs>
       <path id="DejaVuSans-55" d="M 556 4666 
L 1191 4666 
L 1191 1831 
Q 1191 1081 1462 751 
Q 1734 422 2344 422 
Q 2950 422 3222 751 
Q 3494 1081 3494 1831 
L 3494 4666 
L 4128 4666 
L 4128 1753 
Q 4128 841 3676 375 
Q 3225 -91 2344 -91 
Q 1459 -91 1007 375 
Q 556 841 556 1753 
L 556 4666 
z
" transform="scale(0.015625)"/>
       <path id="DejaVuSans-47" d="M 3809 666 
L 3809 1919 
L 2778 1919 
L 2778 2438 
L 4434 2438 
L 4434 434 
Q 4069 175 3628 42 
Q 3188 -91 2688 -91 
Q 1594 -91 976 548 
Q 359 1188 359 2328 
Q 359 3472 976 4111 
Q 1594 4750 2688 4750 
Q 3144 4750 3555 4637 
Q 3966 4525 4313 4306 
L 4313 3634 
Q 3963 3931 3569 4081 
Q 3175 4231 2741 4231 
Q 1884 4231 1454 3753 
Q 1025 3275 1025 2328 
Q 1025 1384 1454 906 
Q 1884 428 2741 428 
Q 3075 428 3337 486 
Q 3600 544 3809 666 
z
" transform="scale(0.015625)"/>
       <path id="DejaVuSans-4c" d="M 628 4666 
L 1259 4666 
L 1259 531 
L 3531 531 
L 3531 0 
L 628 0 
L 628 4666 
z
" transform="scale(0.015625)"/>
      </defs>
      <use xlink:href="#DejaVuSans-46"/>
      <use xlink:href="#DejaVuSans-55" transform="translate(57.519531 0)"/>
      <use xlink:href="#DejaVuSans-47" transform="translate(130.712891 0)"/>
      <use xlink:href="#DejaVuSans-41" transform="translate(208.203125 0)"/>
      <use xlink:href="#DejaVuSans-4c" transform="translate(276.611328 0)"/>
     </g>
    </g>
    <g id="line2d_42">
     <path d="M 563.639 217.839375 
L 573.639 217.839375 
L 583.639 217.839375 
" style="fill: none; stroke: #e41a1c; stroke-width: 1.5; stroke-linecap: square"/>
    </g>
    <g id="text_25">
     <!-- baseline (no features) -->
     <g transform="translate(591.639 221.339375) scale(0.1 -0.1)">
      <defs>
       <path id="DejaVuSans-62" d="M 3116 1747 
Q 3116 2381 2855 2742 
Q 2594 3103 2138 3103 
Q 1681 3103 1420 2742 
Q 1159 2381 1159 1747 
Q 1159 1113 1420 752 
Q 1681 391 2138 391 
Q 2594 391 2855 752 
Q 3116 1113 3116 1747 
z
M 1159 2969 
Q 1341 3281 1617 3432 
Q 1894 3584 2278 3584 
Q 2916 3584 3314 3078 
Q 3713 2572 3713 1747 
Q 3713 922 3314 415 
Q 2916 -91 2278 -91 
Q 1894 -91 1617 61 
Q 1341 213 1159 525 
L 1159 0 
L 581 0 
L 581 4863 
L 1159 4863 
L 1159 2969 
z
" transform="scale(0.015625)"/>
       <path id="DejaVuSans-28" d="M 1984 4856 
Q 1566 4138 1362 3434 
Q 1159 2731 1159 2009 
Q 1159 1288 1364 580 
Q 1569 -128 1984 -844 
L 1484 -844 
Q 1016 -109 783 600 
Q 550 1309 550 2009 
Q 550 2706 781 3412 
Q 1013 4119 1484 4856 
L 1984 4856 
z
" transform="scale(0.015625)"/>
       <path id="DejaVuSans-66" d="M 2375 4863 
L 2375 4384 
L 1825 4384 
Q 1516 4384 1395 4259 
Q 1275 4134 1275 3809 
L 1275 3500 
L 2222 3500 
L 2222 3053 
L 1275 3053 
L 1275 0 
L 697 0 
L 697 3053 
L 147 3053 
L 147 3500 
L 697 3500 
L 697 3744 
Q 697 4328 969 4595 
Q 1241 4863 1831 4863 
L 2375 4863 
z
" transform="scale(0.015625)"/>
       <path id="DejaVuSans-29" d="M 513 4856 
L 1013 4856 
Q 1481 4119 1714 3412 
Q 1947 2706 1947 2009 
Q 1947 1309 1714 600 
Q 1481 -109 1013 -844 
L 513 -844 
Q 928 -128 1133 580 
Q 1338 1288 1338 2009 
Q 1338 2731 1133 3434 
Q 928 4138 513 4856 
z
" transform="scale(0.015625)"/>
      </defs>
      <use xlink:href="#DejaVuSans-62"/>
      <use xlink:href="#DejaVuSans-61" transform="translate(63.476562 0)"/>
      <use xlink:href="#DejaVuSans-73" transform="translate(124.755859 0)"/>
      <use xlink:href="#DejaVuSans-65" transform="translate(176.855469 0)"/>
      <use xlink:href="#DejaVuSans-6c" transform="translate(238.378906 0)"/>
      <use xlink:href="#DejaVuSans-69" transform="translate(266.162109 0)"/>
      <use xlink:href="#DejaVuSans-6e" transform="translate(293.945312 0)"/>
      <use xlink:href="#DejaVuSans-65" transform="translate(357.324219 0)"/>
      <use xlink:href="#DejaVuSans-20" transform="translate(418.847656 0)"/>
      <use xlink:href="#DejaVuSans-28" transform="translate(450.634766 0)"/>
      <use xlink:href="#DejaVuSans-6e" transform="translate(489.648438 0)"/>
      <use xlink:href="#DejaVuSans-6f" transform="translate(553.027344 0)"/>
      <use xlink:href="#DejaVuSans-20" transform="translate(614.208984 0)"/>
      <use xlink:href="#DejaVuSans-66" transform="translate(645.996094 0)"/>
      <use xlink:href="#DejaVuSans-65" transform="translate(681.201172 0)"/>
      <use xlink:href="#DejaVuSans-61" transform="translate(742.724609 0)"/>
      <use xlink:href="#DejaVuSans-74" transform="translate(804.003906 0)"/>
      <use xlink:href="#DejaVuSans-75" transform="translate(843.212891 0)"/>
      <use xlink:href="#DejaVuSans-72" transform="translate(906.591797 0)"/>
      <use xlink:href="#DejaVuSans-65" transform="translate(945.455078 0)"/>
      <use xlink:href="#DejaVuSans-73" transform="translate(1006.978516 0)"/>
      <use xlink:href="#DejaVuSans-29" transform="translate(1059.078125 0)"/>
     </g>
    </g>
   </g>
  </g>
  <g id="text_26">
   <!-- GRAMPA -->
   <g transform="translate(237.601875 31.19625) scale(0.24 -0.24)">
    <defs>
     <path id="DejaVuSans-52" d="M 2841 2188 
Q 3044 2119 3236 1894 
Q 3428 1669 3622 1275 
L 4263 0 
L 3584 0 
L 2988 1197 
Q 2756 1666 2539 1819 
Q 2322 1972 1947 1972 
L 1259 1972 
L 1259 0 
L 628 0 
L 628 4666 
L 2053 4666 
Q 2853 4666 3247 4331 
Q 3641 3997 3641 3322 
Q 3641 2881 3436 2590 
Q 3231 2300 2841 2188 
z
M 1259 4147 
L 1259 2491 
L 2053 2491 
Q 2509 2491 2742 2702 
Q 2975 2913 2975 3322 
Q 2975 3731 2742 3939 
Q 2509 4147 2053 4147 
L 1259 4147 
z
" transform="scale(0.015625)"/>
     <path id="DejaVuSans-4d" d="M 628 4666 
L 1569 4666 
L 2759 1491 
L 3956 4666 
L 4897 4666 
L 4897 0 
L 4281 0 
L 4281 4097 
L 3078 897 
L 2444 897 
L 1241 4097 
L 1241 0 
L 628 0 
L 628 4666 
z
" transform="scale(0.015625)"/>
     <path id="DejaVuSans-50" d="M 1259 4147 
L 1259 2394 
L 2053 2394 
Q 2494 2394 2734 2622 
Q 2975 2850 2975 3272 
Q 2975 3691 2734 3919 
Q 2494 4147 2053 4147 
L 1259 4147 
z
M 628 4666 
L 2053 4666 
Q 2838 4666 3239 4311 
Q 3641 3956 3641 3272 
Q 3641 2581 3239 2228 
Q 2838 1875 2053 1875 
L 1259 1875 
L 1259 0 
L 628 0 
L 628 4666 
z
" transform="scale(0.015625)"/>
    </defs>
    <use xlink:href="#DejaVuSans-47"/>
    <use xlink:href="#DejaVuSans-52" transform="translate(77.490234 0)"/>
    <use xlink:href="#DejaVuSans-41" transform="translate(142.972656 0)"/>
    <use xlink:href="#DejaVuSans-4d" transform="translate(211.380859 0)"/>
    <use xlink:href="#DejaVuSans-50" transform="translate(297.660156 0)"/>
    <use xlink:href="#DejaVuSans-41" transform="translate(351.587891 0)"/>
   </g>
  </g>
 </g>
 <defs>
  <clipPath id="p5b7cc8a0b4">
   <rect x="47.72" y="61.44" width="482.78" height="328.6"/>
  </clipPath>
 </defs>
</svg>
